<svg width="887" height="409" viewBox="0 0 887 409" fill="none" xmlns="http://www.w3.org/2000/svg">
<path d="M577 43L467.09 88.7959C445.247 97.8971 420.699 98.0297 398.759 89.1651L302.721 49.5539C292.007 45.2251 280.56 43 269.005 43H53L53 224H269.005C280.56 224 292.007 221.775 302.721 217.446L398.759 177.835C420.699 168.97 445.247 169.103 467.09 178.204L577 224" stroke="black" stroke-width="4"/>
<path d="M105 43.047L99.2265 53.047L110.774 53.047L105 43.047ZM105 224.047L110.774 214.047L99.2265 214.047L105 224.047ZM104 52.047L104 215.047L106 215.047L106 52.047L104 52.047Z" fill="black"/>
<path d="M271 280L261 274.226V285.774L271 280ZM52 280L62 285.774V274.226L52 280ZM262 279H61V281H262V279Z" fill="black"/>
<path d="M376 184L376.191 172.455L366.097 178.062L376 184ZM374.546 181.383L373.672 181.869L373.672 181.869L374.546 181.383ZM355.166 152.132L354.378 152.748L354.378 152.748L355.166 152.132ZM355.954 151.517L354.288 149.384L352.712 150.616L354.378 152.748L355.954 151.517ZM375.421 180.898C369.707 170.612 363.198 160.789 355.954 151.517L354.378 152.748C361.558 161.938 368.009 171.675 373.672 181.869L375.421 180.898Z" fill="black"/>
<path d="M383.475 225.225L388.087 235.811L376.613 234.512L383.475 225.225ZM383.138 228.199L382.144 228.087L382.144 228.087L383.138 228.199ZM376.484 262.651L375.52 262.386L375.52 262.386L376.484 262.651ZM377.449 262.917L376.73 265.526L374.802 264.995L375.52 262.386L377.449 262.917ZM384.132 228.312C382.808 240.003 380.574 251.573 377.449 262.917L375.52 262.386C378.618 251.143 380.833 239.675 382.144 228.087L384.132 228.312Z" fill="black"/>
<path d="M122.608 142.335C122.608 142.335 122.488 142.319 122.248 142.287C122.008 142.255 121.704 142.223 121.336 142.191C120.968 142.159 120.584 142.127 120.184 142.095C119.8 142.063 119.456 142.047 119.152 142.047C118.752 142.047 118.336 142.071 117.904 142.119C117.488 142.167 117.128 142.215 116.824 142.263C116.536 142.311 116.392 142.335 116.392 142.335L116.536 141.231C117.288 141.087 117.784 140.879 118.024 140.607C118.28 140.319 118.408 139.839 118.408 139.167L118.432 129.087C118.432 128.575 118.376 128.231 118.264 128.055C118.152 127.879 117.912 127.791 117.544 127.791C117.4 127.791 117.224 127.799 117.016 127.815C116.824 127.831 116.728 127.839 116.728 127.839L116.68 127.743L116.848 126.687C116.848 126.687 116.936 126.695 117.112 126.711C117.288 126.711 117.504 126.719 117.76 126.735C118.032 126.735 118.312 126.743 118.6 126.759C118.888 126.759 119.144 126.759 119.368 126.759C119.64 126.759 119.976 126.759 120.376 126.759C120.792 126.743 121.2 126.727 121.6 126.711C122 126.695 122.336 126.687 122.608 126.687C122.88 126.671 123.016 126.663 123.016 126.663C124.584 126.663 125.96 126.967 127.144 127.575C128.328 128.167 129.248 129.007 129.904 130.095C130.576 131.167 130.912 132.415 130.912 133.839C130.912 135.039 130.696 136.151 130.264 137.175C129.848 138.199 129.256 139.103 128.488 139.887C127.736 140.655 126.856 141.255 125.848 141.687C124.856 142.119 123.776 142.335 122.608 142.335ZM121.36 127.839C121.024 127.839 120.8 127.871 120.688 127.935C120.576 127.999 120.512 128.143 120.496 128.367C120.384 131.135 120.296 133.447 120.232 135.303C120.168 137.159 120.136 138.359 120.136 138.903C120.136 139.479 120.216 139.927 120.376 140.247C120.552 140.567 120.856 140.791 121.288 140.919C121.736 141.047 122.36 141.111 123.16 141.111C124.888 141.111 126.248 140.519 127.24 139.335C128.232 138.135 128.728 136.495 128.728 134.415C128.728 133.007 128.44 131.815 127.864 130.839C127.304 129.863 126.472 129.119 125.368 128.607C124.28 128.095 122.944 127.839 121.36 127.839ZM135.403 146.22C134.779 146.22 134.237 146.085 133.776 145.817C133.315 145.548 132.955 145.173 132.696 144.693C132.446 144.213 132.321 143.642 132.321 142.98C132.321 142.279 132.47 141.655 132.768 141.108C133.065 140.551 133.469 140.114 133.977 139.797C134.496 139.471 135.081 139.308 135.734 139.308C136.061 139.308 136.353 139.332 136.613 139.38C136.881 139.418 137.093 139.466 137.246 139.524C137.4 139.572 137.477 139.596 137.477 139.596L137.534 139.697C137.534 139.697 137.51 139.793 137.462 139.985C137.424 140.167 137.381 140.417 137.333 140.733C137.285 141.05 137.246 141.405 137.217 141.799L136.483 141.842V141.381C136.483 141.036 136.387 140.767 136.195 140.575C136.003 140.373 135.744 140.273 135.417 140.273C134.899 140.273 134.501 140.465 134.222 140.849C133.944 141.223 133.805 141.761 133.805 142.461C133.805 143.277 133.963 143.916 134.28 144.377C134.597 144.828 135.038 145.053 135.605 145.053C135.864 145.053 136.113 145.015 136.353 144.938C136.603 144.852 136.8 144.775 136.944 144.708C137.097 144.631 137.174 144.593 137.174 144.593L137.275 144.636L137.477 145.212C137.477 145.212 137.405 145.265 137.261 145.37C137.126 145.466 136.949 145.581 136.728 145.716C136.517 145.85 136.291 145.965 136.051 146.061C135.811 146.167 135.595 146.22 135.403 146.22Z" fill="#222222"/>
<path d="M605 96L599.226 106L610.774 106L605 96ZM605 171L610.774 161L599.227 161L605 171ZM604 105L604 162L606 162L606 105L604 105Z" fill="black"/>
<path d="M622.608 142.288C622.608 142.288 622.488 142.272 622.248 142.24C622.008 142.208 621.704 142.176 621.336 142.144C620.968 142.112 620.584 142.08 620.184 142.048C619.8 142.016 619.456 142 619.152 142C618.752 142 618.336 142.024 617.904 142.072C617.488 142.12 617.128 142.168 616.824 142.216C616.536 142.264 616.392 142.288 616.392 142.288L616.536 141.184C617.288 141.04 617.784 140.832 618.024 140.56C618.28 140.272 618.408 139.792 618.408 139.12L618.432 129.04C618.432 128.528 618.376 128.184 618.264 128.008C618.152 127.832 617.912 127.744 617.544 127.744C617.4 127.744 617.224 127.752 617.016 127.768C616.824 127.784 616.728 127.792 616.728 127.792L616.68 127.696L616.848 126.64C616.848 126.64 616.936 126.648 617.112 126.664C617.288 126.664 617.504 126.672 617.76 126.688C618.032 126.688 618.312 126.696 618.6 126.712C618.888 126.712 619.144 126.712 619.368 126.712C619.64 126.712 619.976 126.712 620.376 126.712C620.792 126.696 621.2 126.68 621.6 126.664C622 126.648 622.336 126.64 622.608 126.64C622.88 126.624 623.016 126.616 623.016 126.616C624.584 126.616 625.96 126.92 627.144 127.528C628.328 128.12 629.248 128.96 629.904 130.048C630.576 131.12 630.912 132.368 630.912 133.792C630.912 134.992 630.696 136.104 630.264 137.128C629.848 138.152 629.256 139.056 628.488 139.84C627.736 140.608 626.856 141.208 625.848 141.64C624.856 142.072 623.776 142.288 622.608 142.288ZM621.36 127.792C621.024 127.792 620.8 127.824 620.688 127.888C620.576 127.952 620.512 128.096 620.496 128.32C620.384 131.088 620.296 133.4 620.232 135.256C620.168 137.112 620.136 138.312 620.136 138.856C620.136 139.432 620.216 139.88 620.376 140.2C620.552 140.52 620.856 140.744 621.288 140.872C621.736 141 622.36 141.064 623.16 141.064C624.888 141.064 626.248 140.472 627.24 139.288C628.232 138.088 628.728 136.448 628.728 134.368C628.728 132.96 628.44 131.768 627.864 130.792C627.304 129.816 626.472 129.072 625.368 128.56C624.28 128.048 622.944 127.792 621.36 127.792ZM635.403 146.173C634.779 146.173 634.237 146.038 633.776 145.77C633.315 145.501 632.955 145.126 632.696 144.646C632.446 144.166 632.321 143.595 632.321 142.933C632.321 142.232 632.47 141.608 632.768 141.061C633.065 140.504 633.469 140.067 633.977 139.75C634.496 139.424 635.081 139.261 635.734 139.261C636.061 139.261 636.353 139.285 636.613 139.333C636.881 139.371 637.093 139.419 637.246 139.477C637.4 139.525 637.477 139.549 637.477 139.549L637.534 139.65C637.534 139.65 637.51 139.746 637.462 139.938C637.424 140.12 637.381 140.37 637.333 140.686C637.285 141.003 637.246 141.358 637.217 141.752L636.483 141.795V141.334C636.483 140.989 636.387 140.72 636.195 140.528C636.003 140.326 635.744 140.226 635.417 140.226C634.899 140.226 634.501 140.418 634.222 140.802C633.944 141.176 633.805 141.714 633.805 142.414C633.805 143.23 633.963 143.869 634.28 144.33C634.597 144.781 635.038 145.006 635.605 145.006C635.864 145.006 636.113 144.968 636.353 144.891C636.603 144.805 636.8 144.728 636.944 144.661C637.097 144.584 637.174 144.546 637.174 144.546L637.275 144.589L637.477 145.165C637.477 145.165 637.405 145.218 637.261 145.323C637.126 145.419 636.949 145.534 636.728 145.669C636.517 145.803 636.291 145.918 636.051 146.014C635.811 146.12 635.595 146.173 635.403 146.173Z" fill="#222222"/>
<path d="M376.128 214C375.824 214 375.512 214.016 375.192 214.048C374.872 214.08 374.576 214.112 374.304 214.144C374.032 214.176 373.808 214.208 373.632 214.24C373.472 214.272 373.392 214.288 373.392 214.288L373.536 213.184C374.288 213.04 374.784 212.832 375.024 212.56C375.28 212.272 375.408 211.792 375.408 211.12L375.432 201.04C375.432 200.528 375.376 200.184 375.264 200.008C375.152 199.832 374.912 199.744 374.544 199.744C374.4 199.744 374.224 199.752 374.016 199.768C373.824 199.784 373.728 199.792 373.728 199.792L373.68 199.696L373.848 198.64C373.848 198.64 373.936 198.648 374.112 198.664C374.304 198.664 374.544 198.672 374.832 198.688C375.12 198.688 375.416 198.696 375.72 198.712C376.024 198.712 376.288 198.712 376.512 198.712C376.688 198.712 376.896 198.712 377.136 198.712C377.376 198.696 377.624 198.688 377.88 198.688C378.136 198.672 378.376 198.664 378.6 198.664C378.824 198.648 379 198.64 379.128 198.64C379.272 198.624 379.344 198.616 379.344 198.616C380.864 198.616 382.032 198.928 382.848 199.552C383.664 200.176 384.072 201.08 384.072 202.264C384.072 203.048 383.832 203.768 383.352 204.424C382.872 205.064 382.184 205.576 381.288 205.96C382.072 206.12 382.736 206.376 383.28 206.728C383.84 207.08 384.264 207.504 384.552 208C384.856 208.48 385.008 209.016 385.008 209.608C385.008 210.44 384.744 211.208 384.216 211.912C383.704 212.616 383.016 213.184 382.152 213.616C381.304 214.032 380.376 214.24 379.368 214.24C379.112 214.24 378.848 214.224 378.576 214.192C378.32 214.176 378.064 214.152 377.808 214.12C377.552 214.088 377.28 214.056 376.992 214.024C376.72 214.008 376.432 214 376.128 214ZM377.208 206.848L377.112 211.336C377.112 211.944 377.32 212.376 377.736 212.632C378.152 212.888 378.856 213.016 379.848 213.016C380.808 213.016 381.56 212.752 382.104 212.224C382.664 211.68 382.944 210.952 382.944 210.04C382.944 208.264 381.864 207.184 379.704 206.8L377.208 206.848ZM377.256 205.576C377.256 205.576 377.368 205.584 377.592 205.6C377.832 205.616 378.112 205.64 378.432 205.672C378.752 205.704 379.048 205.728 379.32 205.744C379.592 205.76 379.776 205.768 379.872 205.768C379.872 205.768 379.984 205.728 380.208 205.648C380.432 205.552 380.696 205.4 381 205.192C381.304 204.968 381.568 204.656 381.792 204.256C382.016 203.84 382.128 203.312 382.128 202.672C382.128 201.632 381.784 200.872 381.096 200.392C380.408 199.896 379.344 199.648 377.904 199.648C377.744 199.648 377.632 199.688 377.568 199.768C377.52 199.832 377.488 199.976 377.472 200.2C377.44 200.712 377.408 201.264 377.376 201.856C377.36 202.432 377.336 203.032 377.304 203.656C377.288 204.264 377.272 204.904 377.256 205.576Z" fill="#222222"/>
<path d="M153.977 269.24L154.121 268.136C154.745 268.04 155.169 267.856 155.393 267.584C155.633 267.296 155.753 266.808 155.753 266.12L155.777 256.04C155.777 255.528 155.721 255.184 155.609 255.008C155.497 254.832 155.257 254.744 154.889 254.744C154.745 254.744 154.569 254.752 154.361 254.768C154.169 254.784 154.073 254.792 154.073 254.792L154.025 254.696L154.193 253.64C154.193 253.64 154.353 253.648 154.673 253.664C154.993 253.68 155.361 253.696 155.777 253.712C156.209 253.712 156.577 253.712 156.881 253.712C157.137 253.712 157.409 253.704 157.697 253.688C158.001 253.656 158.281 253.632 158.537 253.616C158.809 253.584 159.025 253.56 159.185 253.544C159.361 253.512 159.449 253.496 159.449 253.496L159.353 254.576C158.825 254.64 158.457 254.744 158.249 254.888C158.041 255.032 157.921 255.256 157.889 255.56C157.857 255.848 157.817 256.264 157.769 256.808C157.705 257.8 157.649 258.88 157.601 260.048C157.553 261.2 157.521 262.312 157.505 263.384C157.489 264.44 157.481 265.336 157.481 266.072C157.481 266.616 157.521 267.024 157.601 267.296C157.697 267.552 157.889 267.72 158.177 267.8C158.481 267.88 158.929 267.92 159.521 267.92C160.225 267.92 160.793 267.88 161.225 267.8C161.657 267.72 162.001 267.56 162.257 267.32C162.529 267.08 162.745 266.736 162.905 266.288C163.065 265.84 163.209 265.248 163.337 264.512L164.393 264.392L164.465 264.512C164.465 264.512 164.425 264.728 164.345 265.16C164.265 265.592 164.169 266.152 164.057 266.84C163.961 267.528 163.865 268.272 163.769 269.072L163.649 269.216C163.649 269.216 163.425 269.2 162.977 269.168C162.529 269.152 161.961 269.128 161.273 269.096C160.585 269.08 159.873 269.056 159.137 269.024C158.417 269.008 157.769 269 157.193 269C156.601 269 156.057 269.016 155.561 269.048C155.081 269.096 154.697 269.136 154.409 269.168C154.121 269.216 153.977 269.24 153.977 269.24ZM168.037 273.173C167.413 273.173 166.871 273.038 166.41 272.77C165.949 272.501 165.589 272.126 165.33 271.646C165.081 271.166 164.956 270.595 164.956 269.933C164.956 269.232 165.105 268.608 165.402 268.061C165.7 267.504 166.103 267.067 166.612 266.75C167.13 266.424 167.716 266.261 168.369 266.261C168.695 266.261 168.988 266.285 169.247 266.333C169.516 266.371 169.727 266.419 169.881 266.477C170.034 266.525 170.111 266.549 170.111 266.549L170.169 266.65C170.169 266.65 170.145 266.746 170.097 266.938C170.058 267.12 170.015 267.37 169.967 267.686C169.919 268.003 169.881 268.358 169.852 268.752L169.117 268.795V268.334C169.117 267.989 169.021 267.72 168.829 267.528C168.637 267.326 168.378 267.226 168.052 267.226C167.533 267.226 167.135 267.418 166.857 267.802C166.578 268.176 166.439 268.714 166.439 269.414C166.439 270.23 166.597 270.869 166.914 271.33C167.231 271.781 167.673 272.006 168.239 272.006C168.498 272.006 168.748 271.968 168.988 271.891C169.237 271.805 169.434 271.728 169.578 271.661C169.732 271.584 169.809 271.546 169.809 271.546L169.909 271.589L170.111 272.165C170.111 272.165 170.039 272.218 169.895 272.323C169.761 272.419 169.583 272.534 169.362 272.669C169.151 272.803 168.925 272.918 168.685 273.014C168.445 273.12 168.229 273.173 168.037 273.173Z" fill="#222222"/>
<line x1="51.5" y1="290" x2="51.5" y2="236" stroke="black"/>
<line x1="271.5" y1="290" x2="271.5" y2="236" stroke="black"/>
<line x1="392" y1="224.5" x2="312" y2="224.5" stroke="black"/>
<path d="M542 55L542.191 43.4546L532.097 49.0623L542 55ZM540.546 52.3834L539.672 52.869L539.672 52.869L540.546 52.3834ZM521.166 23.1324L520.378 23.748L520.378 23.748L521.166 23.1324ZM521.954 22.5167L520.288 20.3843L518.712 21.6156L520.378 23.748L521.954 22.5167ZM541.421 51.8977C535.707 41.6122 529.198 31.7887 521.954 22.5167L520.378 23.748C527.558 32.938 534.009 42.6745 539.672 52.869L541.421 51.8977Z" fill="black"/>
<path d="M549.475 96.2249L554.087 106.811L542.613 105.512L549.475 96.2249ZM549.138 99.1993L548.144 99.0868L548.144 99.0868L549.138 99.1993ZM542.484 133.651L541.52 133.386L541.52 133.386L542.484 133.651ZM543.449 133.917L542.73 136.526L540.802 135.995L541.52 133.386L543.449 133.917ZM550.132 99.3118C548.808 111.003 546.574 122.573 543.449 133.917L541.52 133.386C544.618 122.143 546.833 110.675 548.144 99.0868L550.132 99.3118Z" fill="black"/>
<path d="M546.928 85.288C546.288 85.288 545.784 85.128 545.416 84.808C545.064 84.472 544.856 83.984 544.792 83.344L544.696 83.32C544.312 83.704 543.944 84.04 543.592 84.328C543.256 84.6 542.952 84.816 542.68 84.976C542.424 85.12 542.216 85.192 542.056 85.192C541.464 85.192 540.936 85.064 540.472 84.808C540.008 84.552 539.64 84.2 539.368 83.752C539.112 83.304 538.984 82.792 538.984 82.216C538.984 81.752 539.096 81.344 539.32 80.992C539.56 80.64 539.872 80.408 540.256 80.296L544.816 79.048L544.84 77.992C544.84 77.192 544.656 76.568 544.288 76.12C543.92 75.672 543.4 75.448 542.728 75.448C542.28 75.448 541.808 75.552 541.312 75.76C540.816 75.968 540.328 76.264 539.848 76.648L539.728 76.576L539.44 75.544C539.856 75.304 540.32 75.056 540.832 74.8C541.344 74.528 541.832 74.304 542.296 74.128C542.76 73.952 543.112 73.864 543.352 73.864C544.056 73.864 544.656 73.992 545.152 74.248C545.648 74.488 546.024 74.84 546.28 75.304C546.552 75.752 546.688 76.304 546.688 76.96C546.688 77.168 546.664 77.504 546.616 77.968C546.584 78.432 546.536 78.952 546.472 79.528C546.408 80.088 546.352 80.632 546.304 81.16C546.272 81.688 546.256 82.128 546.256 82.48C546.256 82.832 546.344 83.104 546.52 83.296C546.696 83.488 546.936 83.584 547.24 83.584C547.512 83.584 547.784 83.52 548.056 83.392C548.328 83.248 548.536 83.112 548.68 82.984L549.016 83.368C548.888 83.576 548.712 83.816 548.488 84.088C548.28 84.344 548.04 84.584 547.768 84.808C547.512 85.032 547.232 85.192 546.928 85.288ZM542.464 83.56C542.768 83.56 543.12 83.456 543.52 83.248C543.936 83.024 544.312 82.744 544.648 82.408L544.768 79.96L541.504 80.944C541.04 81.088 540.808 81.424 540.808 81.952C540.808 82.4 540.96 82.784 541.264 83.104C541.584 83.408 541.984 83.56 542.464 83.56Z" fill="#222222"/>
<line x1="617" y1="95.5" x2="478" y2="95.5" stroke="black"/>
<line x1="617" y1="171.5" x2="478" y2="171.5" stroke="black"/>
<path d="M676 46L670.226 56L681.774 56L676 46ZM676 224L681.774 214L670.227 214L676 224ZM675 55L675 215L677 215L677 55L675 55Z" fill="black"/>
<path d="M691.608 143.288C691.608 143.288 691.488 143.272 691.248 143.24C691.008 143.208 690.704 143.176 690.336 143.144C689.968 143.112 689.584 143.08 689.184 143.048C688.8 143.016 688.456 143 688.152 143C687.752 143 687.336 143.024 686.904 143.072C686.488 143.12 686.128 143.168 685.824 143.216C685.536 143.264 685.392 143.288 685.392 143.288L685.536 142.184C686.288 142.04 686.784 141.832 687.024 141.56C687.28 141.272 687.408 140.792 687.408 140.12L687.432 130.04C687.432 129.528 687.376 129.184 687.264 129.008C687.152 128.832 686.912 128.744 686.544 128.744C686.4 128.744 686.224 128.752 686.016 128.768C685.824 128.784 685.728 128.792 685.728 128.792L685.68 128.696L685.848 127.64C685.848 127.64 685.936 127.648 686.112 127.664C686.288 127.664 686.504 127.672 686.76 127.688C687.032 127.688 687.312 127.696 687.6 127.712C687.888 127.712 688.144 127.712 688.368 127.712C688.64 127.712 688.976 127.712 689.376 127.712C689.792 127.696 690.2 127.68 690.6 127.664C691 127.648 691.336 127.64 691.608 127.64C691.88 127.624 692.016 127.616 692.016 127.616C693.584 127.616 694.96 127.92 696.144 128.528C697.328 129.12 698.248 129.96 698.904 131.048C699.576 132.12 699.912 133.368 699.912 134.792C699.912 135.992 699.696 137.104 699.264 138.128C698.848 139.152 698.256 140.056 697.488 140.84C696.736 141.608 695.856 142.208 694.848 142.64C693.856 143.072 692.776 143.288 691.608 143.288ZM690.36 128.792C690.024 128.792 689.8 128.824 689.688 128.888C689.576 128.952 689.512 129.096 689.496 129.32C689.384 132.088 689.296 134.4 689.232 136.256C689.168 138.112 689.136 139.312 689.136 139.856C689.136 140.432 689.216 140.88 689.376 141.2C689.552 141.52 689.856 141.744 690.288 141.872C690.736 142 691.36 142.064 692.16 142.064C693.888 142.064 695.248 141.472 696.24 140.288C697.232 139.088 697.728 137.448 697.728 135.368C697.728 133.96 697.44 132.768 696.864 131.792C696.304 130.816 695.472 130.072 694.368 129.56C693.28 129.048 691.944 128.792 690.36 128.792ZM704.461 147.173C703.827 147.173 703.275 147.038 702.805 146.77C702.334 146.501 701.969 146.126 701.71 145.646C701.451 145.157 701.321 144.586 701.321 143.933C701.321 143.424 701.408 142.949 701.581 142.507C701.753 142.066 701.989 141.677 702.286 141.341C702.593 141.005 702.944 140.741 703.337 140.549C703.731 140.357 704.153 140.261 704.605 140.261C706.121 140.261 706.88 141.01 706.88 142.507C706.88 142.642 706.865 142.781 706.837 142.925C706.817 143.069 706.798 143.184 706.779 143.27L706.606 143.429H702.747C702.747 144.197 702.901 144.802 703.208 145.243C703.515 145.685 703.947 145.934 704.504 145.992C705.07 146.05 705.733 145.906 706.491 145.56L706.577 145.603L706.779 146.15C706.577 146.294 706.337 146.448 706.059 146.611C705.79 146.765 705.512 146.894 705.224 147C704.945 147.115 704.691 147.173 704.461 147.173ZM702.776 142.781L705.094 142.666C705.219 142.646 705.301 142.618 705.339 142.579C705.387 142.531 705.411 142.44 705.411 142.306C705.411 141.931 705.32 141.648 705.137 141.456C704.955 141.264 704.691 141.168 704.345 141.168C703.933 141.168 703.582 141.312 703.294 141.6C703.016 141.878 702.843 142.272 702.776 142.781Z" fill="#222222"/>
<line x1="685" y1="43.5" x2="580" y2="43.5" stroke="black"/>
<line x1="685" y1="224.5" x2="580" y2="224.5" stroke="black"/>
<path d="M736.608 305.288C736.608 305.288 736.488 305.272 736.248 305.24C736.008 305.208 735.704 305.176 735.336 305.144C734.968 305.112 734.584 305.08 734.184 305.048C733.8 305.016 733.456 305 733.152 305C732.752 305 732.336 305.024 731.904 305.072C731.488 305.12 731.128 305.168 730.824 305.216C730.536 305.264 730.392 305.288 730.392 305.288L730.536 304.184C731.288 304.04 731.784 303.832 732.024 303.56C732.28 303.272 732.408 302.792 732.408 302.12L732.432 292.04C732.432 291.528 732.376 291.184 732.264 291.008C732.152 290.832 731.912 290.744 731.544 290.744C731.4 290.744 731.224 290.752 731.016 290.768C730.824 290.784 730.728 290.792 730.728 290.792L730.68 290.696L730.848 289.64C730.848 289.64 730.936 289.648 731.112 289.664C731.288 289.664 731.504 289.672 731.76 289.688C732.032 289.688 732.312 289.696 732.6 289.712C732.888 289.712 733.144 289.712 733.368 289.712C733.64 289.712 733.976 289.712 734.376 289.712C734.792 289.696 735.2 289.68 735.6 289.664C736 289.648 736.336 289.64 736.608 289.64C736.88 289.624 737.016 289.616 737.016 289.616C738.584 289.616 739.96 289.92 741.144 290.528C742.328 291.12 743.248 291.96 743.904 293.048C744.576 294.12 744.912 295.368 744.912 296.792C744.912 297.992 744.696 299.104 744.264 300.128C743.848 301.152 743.256 302.056 742.488 302.84C741.736 303.608 740.856 304.208 739.848 304.64C738.856 305.072 737.776 305.288 736.608 305.288ZM735.36 290.792C735.024 290.792 734.8 290.824 734.688 290.888C734.576 290.952 734.512 291.096 734.496 291.32C734.384 294.088 734.296 296.4 734.232 298.256C734.168 300.112 734.136 301.312 734.136 301.856C734.136 302.432 734.216 302.88 734.376 303.2C734.552 303.52 734.856 303.744 735.288 303.872C735.736 304 736.36 304.064 737.16 304.064C738.888 304.064 740.248 303.472 741.24 302.288C742.232 301.088 742.728 299.448 742.728 297.368C742.728 295.96 742.44 294.768 741.864 293.792C741.304 292.816 740.472 292.072 739.368 291.56C738.28 291.048 736.944 290.792 735.36 290.792ZM751.209 297.464L751.065 297.248L751.329 296.072C751.329 296.072 751.521 296.072 751.905 296.072C752.305 296.072 752.801 296.08 753.393 296.096C754.001 296.096 754.633 296.096 755.289 296.096C755.945 296.096 756.537 296.096 757.065 296.096C757.545 296.096 758.073 296.088 758.649 296.072C759.241 296.056 759.809 296.04 760.353 296.024C760.897 296.008 761.337 295.992 761.673 295.976C762.025 295.96 762.201 295.952 762.201 295.952L762.345 296.192L762.153 297.416L756.705 297.44C756.161 297.44 755.569 297.44 754.929 297.44C754.305 297.44 753.705 297.448 753.129 297.464C752.569 297.464 752.105 297.464 751.737 297.464C751.385 297.464 751.209 297.464 751.209 297.464ZM751.209 301.232L751.065 301.016L751.329 299.84C751.329 299.84 751.521 299.84 751.905 299.84C752.305 299.84 752.801 299.848 753.393 299.864C754.001 299.864 754.633 299.864 755.289 299.864C755.945 299.864 756.537 299.864 757.065 299.864C757.545 299.864 758.073 299.856 758.649 299.84C759.241 299.824 759.809 299.808 760.353 299.792C760.897 299.776 761.337 299.76 761.673 299.744C762.025 299.728 762.201 299.72 762.201 299.72L762.345 299.96L762.153 301.184L756.705 301.208C756.161 301.208 755.569 301.208 754.929 301.208C754.305 301.208 753.705 301.216 753.129 301.232C752.569 301.232 752.105 301.232 751.737 301.232C751.385 301.232 751.209 301.232 751.209 301.232ZM778.331 305.288C777.083 305.288 776.371 304.72 776.195 303.584L776.027 303.512C775.195 304.072 774.531 304.496 774.035 304.784C773.539 305.072 773.203 305.216 773.027 305.216C772.115 305.216 771.307 305.008 770.603 304.592C769.915 304.16 769.371 303.568 768.971 302.816C768.587 302.048 768.395 301.16 768.395 300.152C768.395 299 768.659 297.952 769.187 297.008C769.731 296.048 770.459 295.288 771.371 294.728C772.283 294.152 773.283 293.864 774.371 293.864C774.595 293.864 774.843 293.872 775.115 293.888C775.387 293.904 775.691 293.928 776.027 293.96V289.976C776.027 289.528 775.955 289.2 775.811 288.992C775.667 288.784 775.443 288.68 775.139 288.68C775.011 288.68 774.875 288.696 774.731 288.728C774.603 288.76 774.539 288.776 774.539 288.776L774.635 287.888C775.051 287.84 775.467 287.776 775.883 287.696C776.299 287.616 776.683 287.536 777.035 287.456C777.387 287.376 777.667 287.312 777.875 287.264C778.083 287.216 778.187 287.192 778.187 287.192L778.331 287.504C778.267 287.616 778.203 287.976 778.139 288.584C778.075 289.192 778.011 289.992 777.947 290.984C777.899 291.976 777.851 293.096 777.803 294.344C777.755 295.576 777.715 296.888 777.683 298.28C777.667 299.672 777.659 301.072 777.659 302.48C777.659 302.832 777.747 303.104 777.923 303.296C778.099 303.488 778.339 303.584 778.643 303.584C778.899 303.584 779.131 303.536 779.339 303.44C779.563 303.328 779.739 303.224 779.867 303.128C780.011 303.032 780.083 302.984 780.083 302.984L780.419 303.368C780.419 303.368 780.363 303.448 780.251 303.608C780.139 303.768 779.987 303.968 779.795 304.208C779.603 304.432 779.379 304.648 779.123 304.856C778.883 305.064 778.619 305.208 778.331 305.288ZM773.411 303.656C773.699 303.656 773.995 303.592 774.299 303.464C774.603 303.336 774.883 303.192 775.139 303.032C775.411 302.856 775.627 302.704 775.787 302.576C775.947 302.448 776.027 302.384 776.027 302.384V295.808C776.027 295.808 775.819 295.72 775.403 295.544C774.987 295.352 774.419 295.256 773.699 295.256C772.627 295.256 771.779 295.624 771.155 296.36C770.547 297.08 770.243 298.072 770.243 299.336C770.243 300.136 770.379 300.864 770.651 301.52C770.939 302.176 771.323 302.696 771.803 303.08C772.283 303.464 772.819 303.656 773.411 303.656ZM781.478 305.288L781.574 304.304C782.054 304.176 782.398 303.992 782.606 303.752C782.814 303.496 782.918 303.16 782.918 302.744V296.648C782.918 296.2 782.846 295.872 782.702 295.664C782.558 295.456 782.334 295.352 782.03 295.352C781.902 295.352 781.766 295.368 781.622 295.4C781.494 295.432 781.43 295.448 781.43 295.448L781.526 294.56C781.926 294.496 782.326 294.424 782.726 294.344C783.142 294.264 783.518 294.192 783.854 294.128C784.19 294.048 784.462 293.984 784.67 293.936C784.878 293.888 784.982 293.864 784.982 293.864L785.102 294.152C785.038 294.312 784.966 294.672 784.886 295.232C784.822 295.776 784.766 296.448 784.718 297.248C784.67 298.032 784.63 298.896 784.598 299.84C784.566 300.768 784.55 301.704 784.55 302.648C784.55 303.112 784.614 303.456 784.742 303.68C784.87 303.888 785.086 303.992 785.39 303.992C785.534 303.992 785.71 303.984 785.918 303.968C786.126 303.952 786.23 303.944 786.23 303.944L786.278 304.04L786.086 305.072C786.086 305.072 786.014 305.064 785.87 305.048C785.742 305.048 785.566 305.04 785.342 305.024C785.134 305.024 784.902 305.016 784.646 305C784.406 305 784.174 305 783.95 305C783.614 305 783.254 305.024 782.87 305.072C782.486 305.12 782.158 305.168 781.886 305.216C781.614 305.264 781.478 305.288 781.478 305.288ZM783.59 291.032C783.19 291.032 782.894 290.904 782.702 290.648C782.51 290.392 782.414 290.112 782.414 289.808C782.414 289.424 782.55 289.096 782.822 288.824C783.094 288.536 783.43 288.392 783.83 288.392C784.214 288.392 784.502 288.52 784.694 288.776C784.902 289.016 785.006 289.296 785.006 289.616C785.006 290 784.87 290.336 784.598 290.624C784.342 290.896 784.006 291.032 783.59 291.032ZM796.123 305.288C795.483 305.288 794.979 305.128 794.611 304.808C794.259 304.472 794.051 303.984 793.987 303.344L793.891 303.32C793.507 303.704 793.139 304.04 792.787 304.328C792.451 304.6 792.147 304.816 791.875 304.976C791.619 305.12 791.411 305.192 791.251 305.192C790.659 305.192 790.131 305.064 789.667 304.808C789.203 304.552 788.835 304.2 788.563 303.752C788.307 303.304 788.179 302.792 788.179 302.216C788.179 301.752 788.291 301.344 788.515 300.992C788.755 300.64 789.067 300.408 789.451 300.296L794.011 299.048L794.035 297.992C794.035 297.192 793.851 296.568 793.483 296.12C793.115 295.672 792.595 295.448 791.923 295.448C791.475 295.448 791.003 295.552 790.507 295.76C790.011 295.968 789.523 296.264 789.043 296.648L788.923 296.576L788.635 295.544C789.051 295.304 789.515 295.056 790.027 294.8C790.539 294.528 791.027 294.304 791.491 294.128C791.955 293.952 792.307 293.864 792.547 293.864C793.251 293.864 793.851 293.992 794.347 294.248C794.843 294.488 795.219 294.84 795.475 295.304C795.747 295.752 795.883 296.304 795.883 296.96C795.883 297.168 795.859 297.504 795.811 297.968C795.779 298.432 795.731 298.952 795.667 299.528C795.603 300.088 795.547 300.632 795.499 301.16C795.467 301.688 795.451 302.128 795.451 302.48C795.451 302.832 795.539 303.104 795.715 303.296C795.891 303.488 796.131 303.584 796.435 303.584C796.707 303.584 796.979 303.52 797.251 303.392C797.523 303.248 797.731 303.112 797.875 302.984L798.211 303.368C798.083 303.576 797.907 303.816 797.683 304.088C797.475 304.344 797.235 304.584 796.963 304.808C796.707 305.032 796.427 305.192 796.123 305.288ZM791.659 303.56C791.963 303.56 792.315 303.456 792.715 303.248C793.131 303.024 793.507 302.744 793.843 302.408L793.963 299.96L790.699 300.944C790.235 301.088 790.003 301.424 790.003 301.952C790.003 302.4 790.155 302.784 790.459 303.104C790.779 303.408 791.179 303.56 791.659 303.56ZM806.175 304.304C806.655 304.176 806.999 303.992 807.207 303.752C807.415 303.496 807.519 303.16 807.519 302.744L807.615 297.992C807.615 297.192 807.439 296.576 807.087 296.144C806.751 295.712 806.263 295.496 805.623 295.496C805.239 295.496 804.847 295.576 804.447 295.736C804.047 295.896 803.687 296.072 803.367 296.264C803.063 296.456 802.831 296.616 802.671 296.744C802.655 297.16 802.631 297.656 802.599 298.232C802.583 298.792 802.559 299.368 802.527 299.96C802.511 300.552 802.495 301.088 802.479 301.568C802.463 302.048 802.455 302.408 802.455 302.648C802.455 303.144 802.519 303.496 802.647 303.704C802.791 303.896 803.015 303.992 803.319 303.992C803.463 303.992 803.639 303.984 803.847 303.968C804.055 303.952 804.159 303.944 804.159 303.944L804.207 304.04L803.991 305.072C803.991 305.072 803.871 305.064 803.631 305.048C803.391 305.032 803.103 305.016 802.767 305C802.431 305 802.111 305 801.807 305C801.471 305 801.119 305 800.751 305C800.383 305.016 800.071 305.024 799.815 305.024C799.559 305.04 799.431 305.048 799.431 305.048L799.575 304.064C800.039 304.016 800.359 303.896 800.535 303.704C800.727 303.512 800.823 303.192 800.823 302.744V296.888C800.823 296.344 800.735 295.968 800.559 295.76C800.383 295.536 800.079 295.424 799.647 295.424H799.383L799.311 295.328L799.383 294.536C799.943 294.44 800.479 294.344 800.991 294.248C801.503 294.136 801.919 294.04 802.239 293.96C802.575 293.88 802.743 293.84 802.743 293.84L802.887 294.032C802.887 294.032 802.847 294.192 802.767 294.512C802.703 294.832 802.655 295.2 802.623 295.616L802.671 295.688C802.815 295.592 803.039 295.448 803.343 295.256C803.647 295.048 803.975 294.84 804.327 294.632C804.695 294.408 805.047 294.224 805.383 294.08C805.719 293.936 805.991 293.864 806.199 293.864C806.967 293.864 807.615 294.032 808.143 294.368C808.687 294.688 809.063 295.152 809.271 295.76C809.367 295.68 809.559 295.544 809.847 295.352C810.151 295.144 810.495 294.928 810.879 294.704C811.263 294.48 811.631 294.288 811.983 294.128C812.351 293.952 812.655 293.864 812.895 293.864C813.903 293.864 814.703 294.144 815.295 294.704C815.887 295.264 816.183 296.016 816.183 296.96C816.183 297.168 816.167 297.512 816.135 297.992C816.103 298.472 816.063 299.008 816.015 299.6C815.967 300.192 815.927 300.76 815.895 301.304C815.863 301.848 815.847 302.296 815.847 302.648C815.847 303.144 815.911 303.496 816.039 303.704C816.183 303.896 816.407 303.992 816.711 303.992C816.855 303.992 817.031 303.984 817.239 303.968C817.447 303.952 817.551 303.944 817.551 303.944L817.599 304.04L817.383 305.072C817.383 305.072 817.311 305.064 817.167 305.048C817.023 305.048 816.839 305.04 816.615 305.024C816.391 305.024 816.151 305.016 815.895 305C815.655 305 815.423 305 815.199 305C814.943 305 814.679 305.008 814.407 305.024C814.135 305.04 813.879 305.056 813.639 305.072C813.399 305.088 813.199 305.104 813.039 305.12C812.895 305.136 812.823 305.144 812.823 305.144L812.943 304.16C813.407 304.08 813.735 303.936 813.927 303.728C814.119 303.52 814.215 303.192 814.215 302.744L814.311 297.992C814.311 297.192 814.135 296.576 813.783 296.144C813.447 295.712 812.959 295.496 812.319 295.496C811.935 295.496 811.551 295.568 811.167 295.712C810.799 295.856 810.455 296.024 810.135 296.216C809.831 296.408 809.591 296.568 809.415 296.696L809.151 302.648C809.151 303.112 809.215 303.456 809.343 303.68C809.471 303.888 809.687 303.992 809.991 303.992C810.135 303.992 810.311 303.984 810.519 303.968C810.727 303.952 810.831 303.944 810.831 303.944L810.879 304.04L810.687 305.072C810.687 305.072 810.615 305.064 810.471 305.048C810.343 305.048 810.167 305.04 809.943 305.024C809.735 305.024 809.503 305.016 809.247 305C809.007 305 808.775 305 808.551 305C808.295 305 808.023 305.016 807.735 305.048C807.463 305.08 807.199 305.112 806.943 305.144C806.687 305.176 806.479 305.208 806.319 305.24C806.159 305.272 806.079 305.288 806.079 305.288L806.175 304.304ZM824.248 305.288C823.24 305.288 822.36 305.064 821.608 304.616C820.856 304.168 820.264 303.552 819.832 302.768C819.416 301.968 819.208 301.04 819.208 299.984C819.208 299.168 819.344 298.392 819.616 297.656C819.904 296.92 820.296 296.272 820.792 295.712C821.288 295.136 821.848 294.688 822.472 294.368C823.112 294.032 823.792 293.864 824.512 293.864C826.896 293.864 828.088 295.024 828.088 297.344C828.088 297.552 828.072 297.768 828.04 297.992C828.008 298.216 827.976 298.392 827.944 298.52L827.632 298.808H821.008C820.992 300.232 821.248 301.36 821.776 302.192C822.32 303.008 823.08 303.488 824.056 303.632C825.032 303.76 826.184 303.52 827.512 302.912L827.656 302.96L827.92 303.656C827.6 303.88 827.216 304.12 826.768 304.376C826.336 304.632 825.896 304.848 825.448 305.024C825 305.2 824.6 305.288 824.248 305.288ZM821.104 297.92L825.448 297.704C825.688 297.672 825.848 297.616 825.928 297.536C826.008 297.456 826.048 297.296 826.048 297.056C826.048 296.416 825.872 295.928 825.52 295.592C825.184 295.256 824.696 295.088 824.056 295.088C823.32 295.088 822.68 295.344 822.136 295.856C821.592 296.352 821.248 297.04 821.104 297.92ZM834.046 305.288C832.958 305.288 832.19 305.072 831.742 304.64C831.294 304.192 831.07 303.44 831.07 302.384V296.48C831.07 296.048 830.974 295.744 830.782 295.568C830.59 295.392 830.23 295.296 829.702 295.28L829.606 295.136L829.726 294.416C830.11 294.224 830.478 294.008 830.83 293.768C831.198 293.512 831.518 293.272 831.79 293.048C832.078 292.808 832.302 292.616 832.462 292.472C832.622 292.312 832.702 292.232 832.702 292.232L833.182 292.424C833.182 292.424 833.158 292.576 833.11 292.88C833.078 293.184 833.038 293.632 832.99 294.224L836.518 294.152L836.59 294.224L836.374 295.496L832.894 295.424C832.846 296.176 832.806 297.056 832.774 298.064C832.742 299.072 832.726 300.192 832.726 301.424C832.726 302.24 832.862 302.816 833.134 303.152C833.422 303.488 833.91 303.656 834.598 303.656C834.998 303.656 835.366 303.584 835.702 303.44C836.054 303.296 836.23 303.224 836.23 303.224L836.47 303.848C836.47 303.848 836.374 303.92 836.182 304.064C835.99 304.208 835.75 304.376 835.462 304.568C835.19 304.76 834.918 304.928 834.646 305.072C834.39 305.216 834.19 305.288 834.046 305.288ZM842.927 305.288C841.919 305.288 841.039 305.064 840.287 304.616C839.535 304.168 838.943 303.552 838.511 302.768C838.095 301.968 837.887 301.04 837.887 299.984C837.887 299.168 838.023 298.392 838.295 297.656C838.583 296.92 838.975 296.272 839.471 295.712C839.967 295.136 840.527 294.688 841.151 294.368C841.791 294.032 842.471 293.864 843.191 293.864C845.575 293.864 846.767 295.024 846.767 297.344C846.767 297.552 846.751 297.768 846.719 297.992C846.687 298.216 846.655 298.392 846.623 298.52L846.311 298.808H839.687C839.671 300.232 839.927 301.36 840.455 302.192C840.999 303.008 841.759 303.488 842.735 303.632C843.711 303.76 844.863 303.52 846.191 302.912L846.335 302.96L846.599 303.656C846.279 303.88 845.895 304.12 845.447 304.376C845.015 304.632 844.575 304.848 844.127 305.024C843.679 305.2 843.279 305.288 842.927 305.288ZM839.783 297.92L844.127 297.704C844.367 297.672 844.527 297.616 844.607 297.536C844.687 297.456 844.727 297.296 844.727 297.056C844.727 296.416 844.551 295.928 844.199 295.592C843.863 295.256 843.375 295.088 842.735 295.088C841.999 295.088 841.359 295.344 840.815 295.856C840.271 296.352 839.927 297.04 839.783 297.92ZM849.197 304.136C849.677 304.088 849.997 303.936 850.157 303.68C850.317 303.408 850.397 302.896 850.397 302.144V296.864C850.397 296.336 850.325 295.96 850.181 295.736C850.037 295.512 849.805 295.4 849.485 295.4C849.357 295.4 849.237 295.416 849.125 295.448C849.029 295.464 848.981 295.472 848.981 295.472L848.861 295.304L848.933 294.56C849.429 294.464 849.925 294.36 850.421 294.248C850.917 294.136 851.333 294.04 851.669 293.96C852.005 293.88 852.173 293.84 852.173 293.84L852.341 293.984C852.341 293.984 852.317 294.112 852.269 294.368C852.237 294.624 852.205 294.944 852.173 295.328C852.141 295.696 852.125 296.072 852.125 296.456L852.221 296.528C852.717 295.776 853.285 295.16 853.925 294.68C854.565 294.2 855.125 293.96 855.605 293.96C855.877 293.96 856.069 293.976 856.181 294.008C856.293 294.04 856.349 294.056 856.349 294.056L856.421 294.152C856.421 294.152 856.405 294.264 856.373 294.488C856.341 294.696 856.301 294.976 856.253 295.328C856.205 295.664 856.157 296.032 856.109 296.432C856.077 296.832 856.053 297.216 856.037 297.584L855.101 297.656C855.101 297 855.061 296.568 854.981 296.36C854.901 296.136 854.725 296.024 854.453 296.024C854.101 296.024 853.725 296.168 853.325 296.456C852.925 296.744 852.557 297.144 852.221 297.656C852.221 297.656 852.213 297.808 852.197 298.112C852.181 298.4 852.165 298.768 852.149 299.216C852.133 299.664 852.117 300.128 852.101 300.608C852.085 301.072 852.069 301.488 852.053 301.856C852.037 302.208 852.029 302.44 852.029 302.552C852.029 303.096 852.109 303.464 852.269 303.656C852.429 303.848 852.733 303.944 853.181 303.944C853.357 303.944 853.573 303.936 853.829 303.92C854.101 303.904 854.237 303.896 854.237 303.896L854.261 303.992L854.045 305.048C854.045 305.048 853.965 305.04 853.805 305.024C853.645 305.024 853.437 305.024 853.181 305.024C852.925 305.024 852.653 305.016 852.365 305C852.093 305 851.837 305 851.597 305C851.133 305 850.709 305.008 850.325 305.024C849.941 305.04 849.637 305.056 849.413 305.072C849.189 305.088 849.077 305.096 849.077 305.096L849.197 304.136ZM730.632 338.24L730.776 337.136C731.4 337.04 731.824 336.856 732.048 336.584C732.288 336.296 732.408 335.808 732.408 335.12L732.432 325.04C732.432 324.528 732.376 324.184 732.264 324.008C732.152 323.832 731.912 323.744 731.544 323.744C731.4 323.744 731.224 323.752 731.016 323.768C730.824 323.784 730.728 323.792 730.728 323.792L730.68 323.696L730.848 322.64C730.848 322.64 731.008 322.648 731.328 322.664C731.648 322.68 732.016 322.696 732.432 322.712C732.864 322.712 733.232 322.712 733.536 322.712C733.792 322.712 734.064 322.704 734.352 322.688C734.656 322.656 734.936 322.632 735.192 322.616C735.464 322.584 735.68 322.56 735.84 322.544C736.016 322.512 736.104 322.496 736.104 322.496L736.008 323.576C735.48 323.64 735.112 323.744 734.904 323.888C734.696 324.032 734.576 324.256 734.544 324.56C734.512 324.848 734.472 325.264 734.424 325.808C734.36 326.8 734.304 327.88 734.256 329.048C734.208 330.2 734.176 331.312 734.16 332.384C734.144 333.44 734.136 334.336 734.136 335.072C734.136 335.616 734.176 336.024 734.256 336.296C734.352 336.552 734.544 336.72 734.832 336.8C735.136 336.88 735.584 336.92 736.176 336.92C736.88 336.92 737.448 336.88 737.88 336.8C738.312 336.72 738.656 336.56 738.912 336.32C739.184 336.08 739.4 335.736 739.56 335.288C739.72 334.84 739.864 334.248 739.992 333.512L741.048 333.392L741.12 333.512C741.12 333.512 741.08 333.728 741 334.16C740.92 334.592 740.824 335.152 740.712 335.84C740.616 336.528 740.52 337.272 740.424 338.072L740.304 338.216C740.304 338.216 740.08 338.2 739.632 338.168C739.184 338.152 738.616 338.128 737.928 338.096C737.24 338.08 736.528 338.056 735.792 338.024C735.072 338.008 734.424 338 733.848 338C733.256 338 732.712 338.016 732.216 338.048C731.736 338.096 731.352 338.136 731.064 338.168C730.776 338.216 730.632 338.24 730.632 338.24ZM751.256 330.464L751.112 330.248L751.376 329.072C751.376 329.072 751.568 329.072 751.952 329.072C752.352 329.072 752.848 329.08 753.44 329.096C754.048 329.096 754.68 329.096 755.336 329.096C755.992 329.096 756.584 329.096 757.112 329.096C757.592 329.096 758.12 329.088 758.696 329.072C759.288 329.056 759.856 329.04 760.4 329.024C760.944 329.008 761.384 328.992 761.72 328.976C762.072 328.96 762.248 328.952 762.248 328.952L762.392 329.192L762.2 330.416L756.752 330.44C756.208 330.44 755.616 330.44 754.976 330.44C754.352 330.44 753.752 330.448 753.176 330.464C752.616 330.464 752.152 330.464 751.784 330.464C751.432 330.464 751.256 330.464 751.256 330.464ZM751.256 334.232L751.112 334.016L751.376 332.84C751.376 332.84 751.568 332.84 751.952 332.84C752.352 332.84 752.848 332.848 753.44 332.864C754.048 332.864 754.68 332.864 755.336 332.864C755.992 332.864 756.584 332.864 757.112 332.864C757.592 332.864 758.12 332.856 758.696 332.84C759.288 332.824 759.856 332.808 760.4 332.792C760.944 332.776 761.384 332.76 761.72 332.744C762.072 332.728 762.248 332.72 762.248 332.72L762.392 332.96L762.2 334.184L756.752 334.208C756.208 334.208 755.616 334.208 754.976 334.208C754.352 334.208 753.752 334.216 753.176 334.232C752.616 334.232 752.152 334.232 751.784 334.232C751.432 334.232 751.256 334.232 751.256 334.232ZM768.226 338.288L768.322 337.304C768.786 337.176 769.106 337.016 769.282 336.824C769.474 336.616 769.586 336.344 769.618 336.008C769.65 335.672 769.666 335.256 769.666 334.76V322.976C769.666 322.576 769.626 322.288 769.546 322.112C769.482 321.92 769.346 321.8 769.138 321.752C768.946 321.704 768.65 321.704 768.25 321.752L768.178 321.704L768.274 320.888C768.866 320.808 769.458 320.712 770.05 320.6C770.642 320.488 771.234 320.352 771.826 320.192L771.97 320.504C771.906 320.616 771.842 320.984 771.778 321.608C771.714 322.216 771.65 323.024 771.586 324.032C771.538 325.024 771.49 326.152 771.442 327.416C771.394 328.68 771.354 330.016 771.322 331.424C771.306 332.832 771.298 334.24 771.298 335.648C771.298 336.128 771.362 336.472 771.49 336.68C771.618 336.888 771.834 336.992 772.138 336.992L772.978 336.944L773.026 337.04L772.834 338.072C772.578 338.056 772.234 338.04 771.802 338.024C771.386 338.008 771.018 338 770.698 338C770.41 338 770.042 338.024 769.594 338.072C769.162 338.136 768.706 338.208 768.226 338.288ZM779.342 338.288C778.334 338.288 777.454 338.064 776.702 337.616C775.95 337.168 775.358 336.552 774.926 335.768C774.51 334.968 774.302 334.04 774.302 332.984C774.302 332.168 774.438 331.392 774.71 330.656C774.998 329.92 775.39 329.272 775.886 328.712C776.382 328.136 776.942 327.688 777.566 327.368C778.206 327.032 778.886 326.864 779.605 326.864C781.99 326.864 783.182 328.024 783.182 330.344C783.182 330.552 783.166 330.768 783.134 330.992C783.102 331.216 783.07 331.392 783.038 331.52L782.726 331.808H776.102C776.086 333.232 776.342 334.36 776.87 335.192C777.414 336.008 778.174 336.488 779.15 336.632C780.126 336.76 781.278 336.52 782.606 335.912L782.75 335.96L783.014 336.656C782.694 336.88 782.31 337.12 781.862 337.376C781.43 337.632 780.99 337.848 780.542 338.024C780.094 338.2 779.694 338.288 779.342 338.288ZM776.198 330.92L780.542 330.704C780.782 330.672 780.942 330.616 781.022 330.536C781.102 330.456 781.142 330.296 781.142 330.056C781.142 329.416 780.966 328.928 780.614 328.592C780.278 328.256 779.79 328.088 779.15 328.088C778.414 328.088 777.774 328.344 777.23 328.856C776.686 329.352 776.342 330.04 776.198 330.92ZM792.043 337.304C792.523 337.176 792.867 336.992 793.075 336.752C793.283 336.496 793.387 336.16 793.387 335.744L793.483 330.992C793.483 330.192 793.307 329.576 792.955 329.144C792.619 328.712 792.131 328.496 791.491 328.496C791.107 328.496 790.715 328.576 790.315 328.736C789.915 328.896 789.555 329.072 789.235 329.264C788.931 329.456 788.699 329.616 788.539 329.744C788.523 330.16 788.499 330.656 788.467 331.232C788.451 331.792 788.427 332.368 788.395 332.96C788.379 333.552 788.363 334.088 788.347 334.568C788.331 335.048 788.323 335.408 788.323 335.648C788.323 336.144 788.387 336.496 788.515 336.704C788.659 336.896 788.883 336.992 789.187 336.992C789.331 336.992 789.507 336.984 789.715 336.968C789.923 336.952 790.027 336.944 790.027 336.944L790.075 337.04L789.859 338.072C789.859 338.072 789.739 338.064 789.499 338.048C789.259 338.032 788.971 338.016 788.635 338C788.299 338 787.979 338 787.675 338C787.339 338 786.987 338.008 786.619 338.024C786.251 338.056 785.939 338.08 785.683 338.096C785.427 338.128 785.299 338.144 785.299 338.144L785.419 337.16C785.883 337.08 786.211 336.936 786.403 336.728C786.595 336.52 786.691 336.192 786.691 335.744V329.888C786.691 329.344 786.603 328.968 786.427 328.76C786.251 328.536 785.947 328.424 785.515 328.424H785.251L785.179 328.328L785.251 327.536C785.811 327.44 786.347 327.344 786.859 327.248C787.371 327.136 787.787 327.04 788.107 326.96C788.443 326.88 788.611 326.84 788.611 326.84L788.755 327.032C788.755 327.032 788.715 327.192 788.635 327.512C788.571 327.832 788.523 328.2 788.491 328.616L788.539 328.688C788.683 328.592 788.907 328.448 789.211 328.256C789.531 328.048 789.867 327.84 790.219 327.632C790.587 327.424 790.939 327.248 791.275 327.104C791.611 326.944 791.875 326.864 792.067 326.864C793.075 326.864 793.875 327.144 794.467 327.704C795.059 328.264 795.355 329.016 795.355 329.96C795.355 330.168 795.339 330.512 795.307 330.992C795.275 331.472 795.235 332.008 795.187 332.6C795.139 333.192 795.099 333.76 795.067 334.304C795.035 334.848 795.019 335.296 795.019 335.648C795.019 336.112 795.083 336.456 795.211 336.68C795.339 336.888 795.555 336.992 795.859 336.992C796.003 336.992 796.179 336.984 796.387 336.968C796.595 336.952 796.699 336.944 796.699 336.944L796.747 337.04L796.555 338.072C796.555 338.072 796.483 338.064 796.339 338.048C796.211 338.048 796.035 338.04 795.811 338.024C795.603 338.024 795.371 338.016 795.115 338C794.875 338 794.643 338 794.419 338C794.163 338 793.891 338.016 793.603 338.048C793.331 338.08 793.067 338.112 792.811 338.144C792.555 338.176 792.347 338.208 792.187 338.24C792.027 338.272 791.947 338.288 791.947 338.288L792.043 337.304ZM802.456 343.808C801.704 343.808 801.056 343.68 800.512 343.424C799.968 343.168 799.544 342.8 799.24 342.32C798.952 341.84 798.808 341.272 798.808 340.616C799.032 340.344 799.352 340.008 799.768 339.608C800.2 339.224 800.672 338.84 801.184 338.456V338.312C800.352 338.168 799.712 337.896 799.264 337.496C798.832 337.096 798.6 336.584 798.568 335.96C798.856 335.688 799.168 335.424 799.504 335.168C799.84 334.896 800.2 334.648 800.584 334.424V334.088L801.832 334.496C801.336 334.752 800.976 334.984 800.752 335.192C800.544 335.384 800.44 335.584 800.44 335.792C800.44 336.112 800.632 336.352 801.016 336.512C801.4 336.656 801.888 336.768 802.48 336.848C803.088 336.912 803.728 336.984 804.4 337.064C805.088 337.144 805.728 337.272 806.32 337.448C806.928 337.608 807.424 337.848 807.808 338.168C808.192 338.504 808.384 338.968 808.384 339.56C808.384 340.088 808.216 340.608 807.88 341.12C807.56 341.632 807.112 342.088 806.536 342.488C805.976 342.888 805.344 343.208 804.64 343.448C803.936 343.688 803.208 343.808 802.456 343.808ZM803.272 342.632C803.896 342.632 804.48 342.52 805.024 342.296C805.568 342.088 806.008 341.8 806.344 341.432C806.68 341.064 806.848 340.672 806.848 340.256C806.848 339.936 806.728 339.68 806.488 339.488C806.248 339.296 805.792 339.12 805.12 338.96C804.464 338.816 803.496 338.664 802.216 338.504C801.736 338.84 801.368 339.208 801.112 339.608C800.856 340.024 800.728 340.432 800.728 340.832C800.728 341.376 800.96 341.808 801.424 342.128C801.888 342.464 802.504 342.632 803.272 342.632ZM803.368 333.824C804.104 333.824 804.68 333.592 805.096 333.128C805.528 332.664 805.744 332.024 805.744 331.208C805.744 330.28 805.488 329.528 804.976 328.952C804.464 328.376 803.8 328.088 802.984 328.088C802.248 328.088 801.664 328.328 801.232 328.808C800.816 329.288 800.608 329.936 800.608 330.752C800.608 331.664 800.864 332.408 801.376 332.984C801.888 333.544 802.552 333.824 803.368 333.824ZM802.816 334.88C802.032 334.88 801.336 334.728 800.728 334.424C800.136 334.104 799.664 333.672 799.312 333.128C798.976 332.568 798.808 331.936 798.808 331.232C798.808 330.432 799.008 329.704 799.408 329.048C799.824 328.392 800.368 327.864 801.04 327.464C801.728 327.064 802.472 326.864 803.272 326.864C803.72 326.864 804.144 326.912 804.544 327.008C804.96 327.088 805.32 327.128 805.624 327.128C805.944 327.096 806.392 327.016 806.968 326.888C807.56 326.76 808.216 326.6 808.936 326.408L809.008 326.504L808.744 327.848C808.392 327.896 808.024 327.936 807.64 327.968C807.256 328 806.936 328.032 806.68 328.064L806.584 328.184C807.224 328.888 807.544 329.704 807.544 330.632C807.544 331.416 807.328 332.128 806.896 332.768C806.48 333.408 805.912 333.92 805.192 334.304C804.488 334.688 803.696 334.88 802.816 334.88ZM814.311 338.288C813.223 338.288 812.455 338.072 812.007 337.64C811.559 337.192 811.335 336.44 811.335 335.384V329.48C811.335 329.048 811.239 328.744 811.047 328.568C810.855 328.392 810.495 328.296 809.967 328.28L809.871 328.136L809.991 327.416C810.375 327.224 810.743 327.008 811.095 326.768C811.463 326.512 811.783 326.272 812.055 326.048C812.343 325.808 812.567 325.616 812.727 325.472C812.887 325.312 812.967 325.232 812.967 325.232L813.447 325.424C813.447 325.424 813.423 325.576 813.375 325.88C813.343 326.184 813.303 326.632 813.255 327.224L816.783 327.152L816.855 327.224L816.639 328.496L813.159 328.424C813.111 329.176 813.071 330.056 813.039 331.064C813.007 332.072 812.991 333.192 812.991 334.424C812.991 335.24 813.127 335.816 813.399 336.152C813.687 336.488 814.175 336.656 814.863 336.656C815.263 336.656 815.631 336.584 815.967 336.44C816.319 336.296 816.495 336.224 816.495 336.224L816.735 336.848C816.735 336.848 816.639 336.92 816.447 337.064C816.255 337.208 816.015 337.376 815.727 337.568C815.455 337.76 815.183 337.928 814.911 338.072C814.655 338.216 814.455 338.288 814.311 338.288ZM818.129 337.064C818.593 337.016 818.913 336.896 819.089 336.704C819.281 336.512 819.377 336.192 819.377 335.744V322.976C819.377 322.544 819.305 322.232 819.161 322.04C819.033 321.832 818.809 321.728 818.489 321.728H817.985L817.889 321.656L817.985 320.888C818.353 320.84 818.753 320.776 819.185 320.696C819.633 320.616 820.065 320.536 820.481 320.456C820.897 320.36 821.249 320.272 821.537 320.192L821.681 320.504C821.617 320.616 821.545 321.04 821.465 321.776C821.385 322.512 821.313 323.48 821.249 324.68C821.201 325.88 821.153 327.232 821.105 328.736C821.217 328.656 821.417 328.52 821.705 328.328C822.009 328.12 822.345 327.904 822.713 327.68C823.097 327.456 823.465 327.264 823.817 327.104C824.185 326.944 824.481 326.864 824.705 326.864C825.745 326.864 826.553 327.136 827.129 327.68C827.705 328.208 827.993 328.968 827.993 329.96C827.993 330.168 827.969 330.512 827.921 330.992C827.889 331.472 827.849 332.008 827.801 332.6C827.753 333.192 827.705 333.76 827.657 334.304C827.625 334.848 827.609 335.296 827.609 335.648C827.609 336.112 827.673 336.456 827.801 336.68C827.929 336.888 828.145 336.992 828.449 336.992C828.545 336.992 828.673 336.992 828.833 336.992C829.009 336.976 829.161 336.96 829.289 336.944L829.337 337.04L829.145 338.072C828.889 338.056 828.545 338.04 828.113 338.024C827.697 338.008 827.329 338 827.009 338C826.817 338 826.585 338.008 826.313 338.024C826.041 338.056 825.753 338.088 825.449 338.12C825.145 338.168 824.841 338.224 824.537 338.288L824.633 337.304C825.113 337.176 825.457 336.992 825.665 336.752C825.873 336.496 825.977 336.16 825.977 335.744L826.121 330.992C826.121 330.192 825.945 329.576 825.593 329.144C825.257 328.712 824.769 328.496 824.129 328.496C823.729 328.496 823.233 328.624 822.641 328.88C822.065 329.136 821.545 329.448 821.081 329.816C821.065 330.408 821.049 331.024 821.033 331.664C821.033 332.304 821.025 332.96 821.009 333.632C821.009 334.288 821.009 334.96 821.009 335.648C821.009 336.144 821.073 336.496 821.201 336.704C821.345 336.896 821.569 336.992 821.873 336.992C821.969 336.992 822.097 336.992 822.257 336.992C822.433 336.976 822.585 336.96 822.713 336.944L822.761 337.04L822.545 338.072C822.273 338.056 821.921 338.04 821.489 338.024C821.057 338.008 820.681 338 820.361 338C820.025 338 819.625 338 819.161 338C818.713 338.016 818.321 338.032 817.985 338.048L818.129 337.064ZM737.928 371.288C737.288 371.288 736.784 371.128 736.416 370.808C736.064 370.472 735.856 369.984 735.792 369.344L735.696 369.32C735.312 369.704 734.944 370.04 734.592 370.328C734.256 370.6 733.952 370.816 733.68 370.976C733.424 371.12 733.216 371.192 733.056 371.192C732.464 371.192 731.936 371.064 731.472 370.808C731.008 370.552 730.64 370.2 730.368 369.752C730.112 369.304 729.984 368.792 729.984 368.216C729.984 367.752 730.096 367.344 730.32 366.992C730.56 366.64 730.872 366.408 731.256 366.296L735.816 365.048L735.84 363.992C735.84 363.192 735.656 362.568 735.288 362.12C734.92 361.672 734.4 361.448 733.728 361.448C733.28 361.448 732.808 361.552 732.312 361.76C731.816 361.968 731.328 362.264 730.848 362.648L730.728 362.576L730.44 361.544C730.856 361.304 731.32 361.056 731.832 360.8C732.344 360.528 732.832 360.304 733.296 360.128C733.76 359.952 734.112 359.864 734.352 359.864C735.056 359.864 735.656 359.992 736.152 360.248C736.648 360.488 737.024 360.84 737.28 361.304C737.552 361.752 737.688 362.304 737.688 362.96C737.688 363.168 737.664 363.504 737.616 363.968C737.584 364.432 737.536 364.952 737.472 365.528C737.408 366.088 737.352 366.632 737.304 367.16C737.272 367.688 737.256 368.128 737.256 368.48C737.256 368.832 737.344 369.104 737.52 369.296C737.696 369.488 737.936 369.584 738.24 369.584C738.512 369.584 738.784 369.52 739.056 369.392C739.328 369.248 739.536 369.112 739.68 368.984L740.016 369.368C739.888 369.576 739.712 369.816 739.488 370.088C739.28 370.344 739.04 370.584 738.768 370.808C738.512 371.032 738.232 371.192 737.928 371.288ZM733.464 369.56C733.768 369.56 734.12 369.456 734.52 369.248C734.936 369.024 735.312 368.744 735.648 368.408L735.768 365.96L732.504 366.944C732.04 367.088 731.808 367.424 731.808 367.952C731.808 368.4 731.96 368.784 732.264 369.104C732.584 369.408 732.984 369.56 733.464 369.56ZM742.124 374.768L741.692 374.408V374.168C742.236 373.8 742.684 373.352 743.036 372.824C743.404 372.296 743.588 371.776 743.588 371.264C743.588 370.928 743.508 370.616 743.348 370.328C743.204 370.024 743.028 369.776 742.82 369.584L742.868 369.248C743.028 369.12 743.236 368.984 743.492 368.84C743.748 368.696 744.004 368.624 744.26 368.624C744.596 368.624 744.884 368.784 745.124 369.104C745.364 369.424 745.484 369.888 745.484 370.496C745.484 371.104 745.3 371.68 744.932 372.224C744.58 372.768 744.14 373.256 743.612 373.688C743.1 374.12 742.604 374.48 742.124 374.768ZM755.651 371C755.347 371 755.035 371.016 754.715 371.048C754.395 371.08 754.099 371.112 753.827 371.144C753.555 371.176 753.331 371.208 753.155 371.24C752.995 371.272 752.915 371.288 752.915 371.288L753.059 370.184C753.811 370.04 754.307 369.832 754.547 369.56C754.803 369.272 754.931 368.792 754.931 368.12L754.955 358.04C754.955 357.528 754.899 357.184 754.787 357.008C754.675 356.832 754.435 356.744 754.067 356.744C753.923 356.744 753.747 356.752 753.539 356.768C753.347 356.784 753.251 356.792 753.251 356.792L753.203 356.696L753.371 355.64C753.371 355.64 753.459 355.648 753.635 355.664C753.827 355.664 754.067 355.672 754.355 355.688C754.643 355.688 754.939 355.696 755.243 355.712C755.547 355.712 755.811 355.712 756.035 355.712C756.211 355.712 756.419 355.712 756.659 355.712C756.899 355.696 757.147 355.688 757.403 355.688C757.659 355.672 757.899 355.664 758.123 355.664C758.347 355.648 758.523 355.64 758.651 355.64C758.795 355.624 758.867 355.616 758.867 355.616C760.387 355.616 761.555 355.928 762.371 356.552C763.187 357.176 763.595 358.08 763.595 359.264C763.595 360.048 763.355 360.768 762.875 361.424C762.395 362.064 761.707 362.576 760.811 362.96C761.595 363.12 762.259 363.376 762.803 363.728C763.363 364.08 763.787 364.504 764.075 365C764.379 365.48 764.531 366.016 764.531 366.608C764.531 367.44 764.267 368.208 763.739 368.912C763.227 369.616 762.539 370.184 761.675 370.616C760.827 371.032 759.899 371.24 758.891 371.24C758.635 371.24 758.371 371.224 758.099 371.192C757.843 371.176 757.587 371.152 757.331 371.12C757.075 371.088 756.803 371.056 756.515 371.024C756.243 371.008 755.955 371 755.651 371ZM756.731 363.848L756.635 368.336C756.635 368.944 756.843 369.376 757.259 369.632C757.675 369.888 758.379 370.016 759.371 370.016C760.331 370.016 761.083 369.752 761.627 369.224C762.187 368.68 762.467 367.952 762.467 367.04C762.467 365.264 761.387 364.184 759.227 363.8L756.731 363.848ZM756.779 362.576C756.779 362.576 756.891 362.584 757.115 362.6C757.355 362.616 757.635 362.64 757.955 362.672C758.275 362.704 758.571 362.728 758.843 362.744C759.115 362.76 759.299 362.768 759.395 362.768C759.395 362.768 759.507 362.728 759.731 362.648C759.955 362.552 760.219 362.4 760.523 362.192C760.827 361.968 761.091 361.656 761.315 361.256C761.539 360.84 761.651 360.312 761.651 359.672C761.651 358.632 761.307 357.872 760.619 357.392C759.931 356.896 758.867 356.648 757.427 356.648C757.267 356.648 757.155 356.688 757.091 356.768C757.043 356.832 757.011 356.976 756.995 357.2C756.963 357.712 756.931 358.264 756.899 358.856C756.883 359.432 756.859 360.032 756.827 360.656C756.811 361.264 756.795 361.904 756.779 362.576ZM771.178 363.464L771.034 363.248L771.298 362.072C771.298 362.072 771.49 362.072 771.874 362.072C772.274 362.072 772.77 362.08 773.362 362.096C773.97 362.096 774.602 362.096 775.258 362.096C775.914 362.096 776.506 362.096 777.034 362.096C777.514 362.096 778.042 362.088 778.618 362.072C779.21 362.056 779.778 362.04 780.322 362.024C780.866 362.008 781.306 361.992 781.642 361.976C781.994 361.96 782.17 361.952 782.17 361.952L782.314 362.192L782.122 363.416L776.674 363.44C776.13 363.44 775.538 363.44 774.898 363.44C774.274 363.44 773.674 363.448 773.098 363.464C772.538 363.464 772.074 363.464 771.706 363.464C771.354 363.464 771.178 363.464 771.178 363.464ZM771.178 367.232L771.034 367.016L771.298 365.84C771.298 365.84 771.49 365.84 771.874 365.84C772.274 365.84 772.77 365.848 773.362 365.864C773.97 365.864 774.602 365.864 775.258 365.864C775.914 365.864 776.506 365.864 777.034 365.864C777.514 365.864 778.042 365.856 778.618 365.84C779.21 365.824 779.778 365.808 780.322 365.792C780.866 365.776 781.306 365.76 781.642 365.744C781.994 365.728 782.17 365.72 782.17 365.72L782.314 365.96L782.122 367.184L776.674 367.208C776.13 367.208 775.538 367.208 774.898 367.208C774.274 367.208 773.674 367.216 773.098 367.232C772.538 367.232 772.074 367.232 771.706 367.232C771.354 367.232 771.178 367.232 771.178 367.232ZM796.428 371.288C795.788 371.288 795.284 371.128 794.916 370.808C794.564 370.472 794.356 369.984 794.292 369.344L794.196 369.32C793.812 369.704 793.444 370.04 793.092 370.328C792.756 370.6 792.452 370.816 792.18 370.976C791.924 371.12 791.716 371.192 791.556 371.192C790.964 371.192 790.436 371.064 789.972 370.808C789.508 370.552 789.14 370.2 788.868 369.752C788.612 369.304 788.484 368.792 788.484 368.216C788.484 367.752 788.596 367.344 788.82 366.992C789.06 366.64 789.372 366.408 789.756 366.296L794.316 365.048L794.34 363.992C794.34 363.192 794.156 362.568 793.788 362.12C793.42 361.672 792.9 361.448 792.228 361.448C791.78 361.448 791.308 361.552 790.812 361.76C790.316 361.968 789.828 362.264 789.348 362.648L789.228 362.576L788.94 361.544C789.356 361.304 789.82 361.056 790.332 360.8C790.844 360.528 791.332 360.304 791.796 360.128C792.26 359.952 792.612 359.864 792.852 359.864C793.556 359.864 794.156 359.992 794.652 360.248C795.148 360.488 795.524 360.84 795.78 361.304C796.052 361.752 796.188 362.304 796.188 362.96C796.188 363.168 796.164 363.504 796.116 363.968C796.084 364.432 796.036 364.952 795.972 365.528C795.908 366.088 795.852 366.632 795.804 367.16C795.772 367.688 795.756 368.128 795.756 368.48C795.756 368.832 795.844 369.104 796.02 369.296C796.196 369.488 796.436 369.584 796.74 369.584C797.012 369.584 797.284 369.52 797.556 369.392C797.828 369.248 798.036 369.112 798.18 368.984L798.516 369.368C798.388 369.576 798.212 369.816 797.988 370.088C797.78 370.344 797.54 370.584 797.268 370.808C797.012 371.032 796.732 371.192 796.428 371.288ZM791.964 369.56C792.268 369.56 792.62 369.456 793.02 369.248C793.436 369.024 793.812 368.744 794.148 368.408L794.268 365.96L791.004 366.944C790.54 367.088 790.308 367.424 790.308 367.952C790.308 368.4 790.46 368.784 790.764 369.104C791.084 369.408 791.484 369.56 791.964 369.56ZM806.528 370.304C807.008 370.176 807.352 369.992 807.56 369.752C807.768 369.496 807.872 369.16 807.872 368.744L807.968 363.992C807.968 363.192 807.792 362.576 807.44 362.144C807.104 361.712 806.616 361.496 805.976 361.496C805.592 361.496 805.2 361.576 804.8 361.736C804.4 361.896 804.04 362.072 803.72 362.264C803.416 362.456 803.184 362.616 803.024 362.744C803.008 363.16 802.984 363.656 802.952 364.232C802.936 364.792 802.912 365.368 802.88 365.96C802.864 366.552 802.848 367.088 802.832 367.568C802.816 368.048 802.808 368.408 802.808 368.648C802.808 369.144 802.872 369.496 803 369.704C803.144 369.896 803.368 369.992 803.672 369.992C803.816 369.992 803.992 369.984 804.2 369.968C804.408 369.952 804.512 369.944 804.512 369.944L804.56 370.04L804.344 371.072C804.344 371.072 804.224 371.064 803.984 371.048C803.744 371.032 803.456 371.016 803.12 371C802.784 371 802.464 371 802.16 371C801.824 371 801.472 371.008 801.104 371.024C800.736 371.056 800.424 371.08 800.168 371.096C799.912 371.128 799.784 371.144 799.784 371.144L799.904 370.16C800.368 370.08 800.696 369.936 800.888 369.728C801.08 369.52 801.176 369.192 801.176 368.744V362.888C801.176 362.344 801.088 361.968 800.912 361.76C800.736 361.536 800.432 361.424 800 361.424H799.736L799.664 361.328L799.736 360.536C800.296 360.44 800.832 360.344 801.344 360.248C801.856 360.136 802.272 360.04 802.592 359.96C802.928 359.88 803.096 359.84 803.096 359.84L803.24 360.032C803.24 360.032 803.2 360.192 803.12 360.512C803.056 360.832 803.008 361.2 802.976 361.616L803.024 361.688C803.168 361.592 803.392 361.448 803.696 361.256C804.016 361.048 804.352 360.84 804.704 360.632C805.072 360.424 805.424 360.248 805.76 360.104C806.096 359.944 806.36 359.864 806.552 359.864C807.56 359.864 808.36 360.144 808.952 360.704C809.544 361.264 809.84 362.016 809.84 362.96C809.84 363.168 809.824 363.512 809.792 363.992C809.76 364.472 809.72 365.008 809.672 365.6C809.624 366.192 809.584 366.76 809.552 367.304C809.52 367.848 809.504 368.296 809.504 368.648C809.504 369.112 809.568 369.456 809.696 369.68C809.824 369.888 810.04 369.992 810.344 369.992C810.488 369.992 810.664 369.984 810.872 369.968C811.08 369.952 811.184 369.944 811.184 369.944L811.232 370.04L811.04 371.072C811.04 371.072 810.968 371.064 810.824 371.048C810.696 371.048 810.52 371.04 810.296 371.024C810.088 371.024 809.856 371.016 809.6 371C809.36 371 809.128 371 808.904 371C808.648 371 808.376 371.016 808.088 371.048C807.816 371.08 807.552 371.112 807.296 371.144C807.04 371.176 806.832 371.208 806.672 371.24C806.512 371.272 806.432 371.288 806.432 371.288L806.528 370.304ZM816.94 376.808C816.188 376.808 815.54 376.68 814.996 376.424C814.452 376.168 814.028 375.8 813.724 375.32C813.436 374.84 813.292 374.272 813.292 373.616C813.516 373.344 813.836 373.008 814.252 372.608C814.684 372.224 815.156 371.84 815.668 371.456V371.312C814.836 371.168 814.196 370.896 813.748 370.496C813.316 370.096 813.084 369.584 813.052 368.96C813.34 368.688 813.652 368.424 813.988 368.168C814.324 367.896 814.684 367.648 815.068 367.424V367.088L816.316 367.496C815.82 367.752 815.46 367.984 815.236 368.192C815.028 368.384 814.924 368.584 814.924 368.792C814.924 369.112 815.116 369.352 815.5 369.512C815.884 369.656 816.372 369.768 816.964 369.848C817.572 369.912 818.212 369.984 818.884 370.064C819.572 370.144 820.212 370.272 820.804 370.448C821.412 370.608 821.908 370.848 822.292 371.168C822.676 371.504 822.868 371.968 822.868 372.56C822.868 373.088 822.7 373.608 822.364 374.12C822.044 374.632 821.596 375.088 821.02 375.488C820.46 375.888 819.828 376.208 819.124 376.448C818.42 376.688 817.692 376.808 816.94 376.808ZM817.756 375.632C818.38 375.632 818.964 375.52 819.508 375.296C820.052 375.088 820.492 374.8 820.828 374.432C821.164 374.064 821.332 373.672 821.332 373.256C821.332 372.936 821.212 372.68 820.972 372.488C820.732 372.296 820.276 372.12 819.604 371.96C818.948 371.816 817.98 371.664 816.7 371.504C816.22 371.84 815.852 372.208 815.596 372.608C815.34 373.024 815.212 373.432 815.212 373.832C815.212 374.376 815.444 374.808 815.908 375.128C816.372 375.464 816.988 375.632 817.756 375.632ZM817.852 366.824C818.588 366.824 819.164 366.592 819.58 366.128C820.012 365.664 820.228 365.024 820.228 364.208C820.228 363.28 819.972 362.528 819.46 361.952C818.948 361.376 818.284 361.088 817.468 361.088C816.732 361.088 816.148 361.328 815.716 361.808C815.3 362.288 815.092 362.936 815.092 363.752C815.092 364.664 815.348 365.408 815.86 365.984C816.372 366.544 817.036 366.824 817.852 366.824ZM817.3 367.88C816.516 367.88 815.82 367.728 815.212 367.424C814.62 367.104 814.148 366.672 813.796 366.128C813.46 365.568 813.292 364.936 813.292 364.232C813.292 363.432 813.492 362.704 813.892 362.048C814.308 361.392 814.852 360.864 815.524 360.464C816.212 360.064 816.956 359.864 817.756 359.864C818.204 359.864 818.628 359.912 819.028 360.008C819.444 360.088 819.804 360.128 820.108 360.128C820.428 360.096 820.876 360.016 821.452 359.888C822.044 359.76 822.7 359.6 823.42 359.408L823.492 359.504L823.228 360.848C822.876 360.896 822.508 360.936 822.124 360.968C821.74 361 821.42 361.032 821.164 361.064L821.068 361.184C821.708 361.888 822.028 362.704 822.028 363.632C822.028 364.416 821.812 365.128 821.38 365.768C820.964 366.408 820.396 366.92 819.676 367.304C818.972 367.688 818.18 367.88 817.3 367.88ZM824.5 371.288L824.596 370.304C825.06 370.176 825.38 370.016 825.556 369.824C825.748 369.616 825.86 369.344 825.892 369.008C825.924 368.672 825.94 368.256 825.94 367.76V355.976C825.94 355.576 825.9 355.288 825.82 355.112C825.756 354.92 825.62 354.8 825.412 354.752C825.22 354.704 824.924 354.704 824.524 354.752L824.452 354.704L824.548 353.888C825.14 353.808 825.732 353.712 826.324 353.6C826.916 353.488 827.508 353.352 828.1 353.192L828.244 353.504C828.18 353.616 828.116 353.984 828.052 354.608C827.988 355.216 827.924 356.024 827.86 357.032C827.812 358.024 827.764 359.152 827.716 360.416C827.668 361.68 827.628 363.016 827.596 364.424C827.58 365.832 827.572 367.24 827.572 368.648C827.572 369.128 827.636 369.472 827.764 369.68C827.892 369.888 828.108 369.992 828.412 369.992L829.252 369.944L829.3 370.04L829.108 371.072C828.852 371.056 828.508 371.04 828.076 371.024C827.66 371.008 827.292 371 826.972 371C826.684 371 826.316 371.024 825.868 371.072C825.436 371.136 824.98 371.208 824.5 371.288ZM835.615 371.288C834.607 371.288 833.727 371.064 832.975 370.616C832.223 370.168 831.631 369.552 831.199 368.768C830.783 367.968 830.575 367.04 830.575 365.984C830.575 365.168 830.711 364.392 830.983 363.656C831.271 362.92 831.663 362.272 832.159 361.712C832.655 361.136 833.215 360.688 833.839 360.368C834.479 360.032 835.159 359.864 835.879 359.864C838.263 359.864 839.455 361.024 839.455 363.344C839.455 363.552 839.439 363.768 839.407 363.992C839.375 364.216 839.343 364.392 839.311 364.52L838.999 364.808H832.375C832.359 366.232 832.615 367.36 833.143 368.192C833.687 369.008 834.447 369.488 835.423 369.632C836.399 369.76 837.551 369.52 838.879 368.912L839.023 368.96L839.287 369.656C838.967 369.88 838.583 370.12 838.135 370.376C837.703 370.632 837.263 370.848 836.815 371.024C836.367 371.2 835.967 371.288 835.615 371.288ZM832.471 363.92L836.815 363.704C837.055 363.672 837.215 363.616 837.295 363.536C837.375 363.456 837.415 363.296 837.415 363.056C837.415 362.416 837.239 361.928 836.887 361.592C836.551 361.256 836.063 361.088 835.423 361.088C834.687 361.088 834.047 361.344 833.503 361.856C832.959 362.352 832.615 363.04 832.471 363.92ZM844.573 371.288C843.997 371.288 843.493 371.24 843.061 371.144C842.629 371.064 842.293 370.984 842.053 370.904C841.829 370.824 841.717 370.784 841.717 370.784L841.645 370.616C841.677 370.44 841.709 370.152 841.741 369.752C841.789 369.336 841.829 368.904 841.861 368.456C841.909 368.008 841.933 367.656 841.933 367.4L842.773 367.28C842.773 368.336 842.949 369.08 843.301 369.512C843.653 369.944 844.253 370.16 845.101 370.16C845.709 370.16 846.221 370.024 846.637 369.752C847.053 369.48 847.261 369.144 847.261 368.744C847.261 368.472 847.181 368.224 847.021 368C846.861 367.776 846.581 367.528 846.181 367.256C845.781 366.984 845.213 366.656 844.477 366.272C843.565 365.808 842.901 365.336 842.485 364.856C842.069 364.376 841.861 363.848 841.861 363.272C841.861 362.616 842.053 362.032 842.437 361.52C842.821 361.008 843.349 360.608 844.021 360.32C844.693 360.016 845.445 359.864 846.277 359.864C846.933 359.864 847.493 359.928 847.957 360.056C848.437 360.184 848.677 360.248 848.677 360.248L848.725 360.368C848.725 360.368 848.693 360.504 848.629 360.776C848.581 361.048 848.517 361.408 848.437 361.856C848.373 362.288 848.317 362.768 848.269 363.296L847.381 363.368C847.381 363.368 847.389 363.28 847.405 363.104C847.421 362.928 847.429 362.784 847.429 362.672C847.429 362.096 847.269 361.68 846.949 361.424C846.645 361.152 846.149 361.016 845.461 361.016C844.917 361.016 844.453 361.144 844.069 361.4C843.701 361.656 843.517 361.968 843.517 362.336C843.517 362.72 843.677 363.08 843.997 363.416C844.333 363.752 844.869 364.112 845.605 364.496C846.469 364.944 847.141 365.352 847.621 365.72C848.117 366.072 848.461 366.416 848.653 366.752C848.861 367.088 848.965 367.456 848.965 367.856C848.965 368.464 848.757 369.032 848.341 369.56C847.941 370.088 847.405 370.512 846.733 370.832C846.077 371.136 845.357 371.288 844.573 371.288Z" fill="black"/>
</svg>
