<svg width="887" height="409" viewBox="0 0 887 409" fill="none" xmlns="http://www.w3.org/2000/svg">
<path d="M799 176.953L689.09 222.749C667.247 231.85 642.699 231.983 620.759 223.118L524.721 183.507C514.007 179.178 502.56 176.953 491.005 176.953H275M799 357.953L689.09 312.157C667.247 303.056 642.699 302.923 620.759 311.788L524.721 351.399C514.007 355.728 502.56 357.953 491.005 357.953H275M275 176.953H231L231 357.953H275M275 176.953V357.953" stroke="black" stroke-width="4"/>
<path d="M297.826 52L297.826 51L297.12 51L296.884 51.6642L297.826 52ZM254.146 174.5L262.942 167.02L252.066 163.142L254.146 174.5ZM322.826 51L297.826 51L297.826 53L322.826 53L322.826 51ZM296.884 51.6642L256.226 165.687L258.11 166.359L298.767 52.3359L296.884 51.6642Z" fill="black"/>
<path d="M334.344 61.288L334.488 60.184C335.24 60.04 335.744 59.832 336 59.56C336.272 59.272 336.408 58.792 336.408 58.12L336.432 48.04C336.432 47.528 336.368 47.184 336.24 47.008C336.128 46.832 335.896 46.744 335.544 46.744C335.432 46.744 335.272 46.752 335.064 46.768C334.872 46.768 334.696 46.776 334.536 46.792L334.488 46.696L334.656 45.64C335.072 45.656 335.56 45.672 336.12 45.688C336.696 45.704 337.16 45.712 337.512 45.712C337.848 45.712 338.272 45.696 338.784 45.664C339.312 45.616 339.808 45.56 340.272 45.496L340.176 46.576C339.52 46.656 339.072 46.792 338.832 46.984C338.608 47.16 338.48 47.48 338.448 47.944C338.4 48.824 338.352 49.76 338.304 50.752C338.272 51.744 338.24 52.728 338.208 53.704C338.176 54.664 338.152 55.552 338.136 56.368C338.12 57.168 338.112 57.816 338.112 58.312C338.112 58.952 338.184 59.384 338.328 59.608C338.472 59.832 338.752 59.944 339.168 59.944C339.392 59.944 339.624 59.936 339.864 59.92C340.104 59.904 340.296 59.888 340.44 59.872L340.488 59.968L340.272 61.072C339.984 61.056 339.648 61.04 339.264 61.024C338.88 61.024 338.496 61.016 338.112 61C337.728 61 337.4 61 337.128 61C336.776 61 336.336 61.024 335.808 61.072C335.296 61.136 334.808 61.208 334.344 61.288ZM355.352 61.96C354.184 60.136 353.064 58.424 351.992 56.824C350.92 55.224 349.968 53.824 349.136 52.624C348.304 51.408 347.64 50.456 347.144 49.768C346.664 49.08 346.424 48.736 346.424 48.736H346.304L346.184 58.984C346.184 59.336 346.24 59.584 346.352 59.728C346.464 59.872 346.656 59.944 346.928 59.944C347.008 59.944 347.144 59.944 347.336 59.944C347.544 59.928 347.728 59.92 347.888 59.92C348.064 59.92 348.152 59.92 348.152 59.92L348.2 60.016L347.984 61.096C347.984 61.096 347.896 61.088 347.72 61.072C347.56 61.072 347.352 61.064 347.096 61.048C346.84 61.032 346.56 61.016 346.256 61C345.968 61 345.696 61 345.44 61C345.12 61 344.784 61.016 344.432 61.048C344.096 61.08 343.808 61.112 343.568 61.144C343.328 61.176 343.208 61.192 343.208 61.192L343.328 60.088C343.824 60.024 344.192 59.88 344.432 59.656C344.672 59.432 344.8 59.072 344.816 58.576L345.128 48.088C345.128 47.592 344.976 47.24 344.672 47.032C344.384 46.824 343.84 46.68 343.04 46.6L342.968 46.48L343.16 45.592C343.16 45.592 343.28 45.6 343.52 45.616C343.776 45.632 344.064 45.656 344.384 45.688C344.72 45.704 345 45.712 345.224 45.712C345.496 45.712 345.752 45.704 345.992 45.688C346.232 45.672 346.432 45.656 346.592 45.64C346.752 45.624 346.832 45.616 346.832 45.616C347.632 46.848 348.416 48.048 349.184 49.216C349.968 50.384 350.704 51.472 351.392 52.48C352.08 53.488 352.688 54.368 353.216 55.12C353.744 55.872 354.152 56.464 354.44 56.896C354.744 57.312 354.896 57.52 354.896 57.52H355.016V47.8C355.016 47.448 354.952 47.192 354.824 47.032C354.696 46.856 354.496 46.768 354.224 46.768C354.016 46.768 353.808 46.776 353.6 46.792C353.408 46.792 353.312 46.792 353.312 46.792L353.264 46.696L353.48 45.616C353.48 45.616 353.56 45.624 353.72 45.64C353.88 45.64 354.08 45.648 354.32 45.664C354.56 45.68 354.808 45.696 355.064 45.712C355.32 45.712 355.552 45.712 355.76 45.712C356.096 45.712 356.448 45.696 356.816 45.664C357.184 45.632 357.496 45.6 357.752 45.568C358.008 45.536 358.136 45.52 358.136 45.52L358.016 46.624C357.472 46.688 357.064 46.84 356.792 47.08C356.536 47.32 356.4 47.672 356.384 48.136L356.048 61.624L355.352 61.96ZM359.882 64.456L359.474 63.664L359.546 63.472C360.202 63.072 360.706 62.656 361.058 62.224C361.426 61.792 361.682 61.264 361.826 60.64C361.986 60 362.066 59.2 362.066 58.24L362.09 48.04C362.09 47.528 362.034 47.192 361.922 47.032C361.81 46.856 361.57 46.768 361.202 46.768C361.106 46.768 360.97 46.776 360.794 46.792C360.618 46.808 360.45 46.824 360.29 46.84C360.146 46.856 360.074 46.864 360.074 46.864L360.026 46.768L360.194 45.712H362.786C363.138 45.712 363.53 45.696 363.962 45.664C364.394 45.632 364.77 45.6 365.09 45.568C365.41 45.52 365.57 45.496 365.57 45.496L365.474 46.576C364.914 46.656 364.554 46.776 364.394 46.936C364.234 47.096 364.138 47.432 364.106 47.944C364.09 48.376 364.066 48.944 364.034 49.648C364.018 50.336 363.994 51.096 363.962 51.928C363.93 52.744 363.898 53.56 363.866 54.376C363.85 55.192 363.834 55.936 363.818 56.608C363.802 57.28 363.794 57.816 363.794 58.216C363.778 59.848 363.458 61.152 362.834 62.128C362.226 63.12 361.242 63.896 359.882 64.456ZM367.884 61.24L368.028 60.136C368.748 60.04 369.236 59.856 369.492 59.584C369.764 59.296 369.9 58.808 369.9 58.12L369.924 48.04C369.924 47.528 369.868 47.184 369.756 47.008C369.644 46.832 369.404 46.744 369.036 46.744C368.94 46.744 368.812 46.752 368.652 46.768C368.492 46.768 368.348 46.776 368.22 46.792L368.172 46.696L368.34 45.64C368.612 45.64 368.94 45.648 369.324 45.664C369.708 45.68 370.108 45.696 370.524 45.712C370.94 45.712 371.324 45.712 371.676 45.712C372.956 45.712 374.028 45.704 374.892 45.688C375.772 45.672 376.524 45.64 377.148 45.592C377.772 45.544 378.348 45.488 378.876 45.424L378.948 45.568C378.868 45.952 378.788 46.384 378.708 46.864C378.628 47.328 378.564 47.792 378.516 48.256C378.468 48.72 378.428 49.152 378.396 49.552L377.244 49.648C377.26 49.504 377.268 49.328 377.268 49.12C377.284 48.896 377.292 48.728 377.292 48.616C377.292 48.232 377.252 47.928 377.172 47.704C377.108 47.464 376.956 47.288 376.716 47.176C376.492 47.064 376.132 46.992 375.636 46.96C375.14 46.928 374.468 46.912 373.62 46.912C373.108 46.912 372.732 46.928 372.492 46.96C372.252 46.992 372.1 47.072 372.036 47.2C371.988 47.328 371.956 47.544 371.94 47.848L371.7 53.44L371.604 58.48C371.604 58.912 371.644 59.232 371.724 59.44C371.804 59.632 371.972 59.76 372.228 59.824C372.5 59.888 372.924 59.92 373.5 59.92C374.444 59.92 375.204 59.888 375.78 59.824C376.356 59.76 376.796 59.632 377.1 59.44C377.404 59.248 377.628 58.96 377.772 58.576C377.916 58.176 378.036 57.648 378.132 56.992L379.188 56.872L379.26 56.992C379.148 57.488 379.028 58.12 378.9 58.888C378.788 59.656 378.692 60.368 378.612 61.024L378.492 61.168C377.532 61.136 376.572 61.104 375.612 61.072C374.668 61.056 373.812 61.04 373.044 61.024C372.276 61.008 371.668 61 371.22 61C370.724 61 370.156 61.016 369.516 61.048C368.892 61.096 368.348 61.16 367.884 61.24ZM371.364 53.944L371.58 52.504C371.692 52.504 371.908 52.504 372.228 52.504C372.548 52.504 372.892 52.512 373.26 52.528C373.628 52.528 373.948 52.528 374.22 52.528C374.492 52.528 374.908 52.504 375.468 52.456C376.044 52.392 376.604 52.328 377.148 52.264L377.244 52.384L376.908 53.8C376.46 53.784 375.9 53.768 375.228 53.752C374.572 53.736 374.012 53.728 373.548 53.728C373.244 53.728 372.884 53.752 372.468 53.8C372.068 53.832 371.7 53.88 371.364 53.944ZM388.339 61.288C386.883 61.288 385.619 60.984 384.547 60.376C383.475 59.768 382.643 58.912 382.051 57.808C381.459 56.688 381.163 55.376 381.163 53.872C381.163 52.656 381.371 51.536 381.787 50.512C382.203 49.472 382.787 48.576 383.539 47.824C384.291 47.056 385.171 46.464 386.179 46.048C387.203 45.632 388.323 45.424 389.539 45.424C390.035 45.424 390.531 45.456 391.027 45.52C391.523 45.568 391.971 45.632 392.371 45.712C392.771 45.792 393.091 45.864 393.331 45.928C393.587 45.976 393.715 46 393.715 46L393.811 46.144C393.811 46.144 393.771 46.328 393.691 46.696C393.611 47.048 393.523 47.528 393.427 48.136C393.331 48.744 393.259 49.416 393.211 50.152L392.059 50.248C392.059 50.248 392.067 50.12 392.083 49.864C392.115 49.592 392.131 49.328 392.131 49.072C392.131 48.32 391.835 47.76 391.243 47.392C390.667 47.024 389.787 46.84 388.603 46.84C387.531 46.84 386.595 47.096 385.795 47.608C385.011 48.12 384.403 48.84 383.971 49.768C383.539 50.696 383.323 51.8 383.323 53.08C383.323 54.488 383.547 55.72 383.995 56.776C384.459 57.816 385.099 58.632 385.915 59.224C386.747 59.8 387.715 60.088 388.819 60.088C389.907 60.088 390.779 59.784 391.435 59.176C392.107 58.552 392.595 57.592 392.899 56.296L394.051 56.2C394.051 56.2 394.027 56.32 393.979 56.56C393.931 56.8 393.867 57.12 393.787 57.52C393.723 57.904 393.651 58.328 393.571 58.792C393.507 59.24 393.451 59.68 393.403 60.112L393.259 60.328C393.259 60.328 393.043 60.408 392.611 60.568C392.195 60.728 391.619 60.888 390.883 61.048C390.147 61.208 389.299 61.288 388.339 61.288ZM398.227 61.096L398.419 60.064C399.171 60 399.715 59.904 400.051 59.776C400.387 59.632 400.595 59.368 400.675 58.984C400.771 58.584 400.819 57.96 400.819 57.112V46.648C399.891 46.68 399.155 46.728 398.611 46.792C398.083 46.84 397.691 46.96 397.435 47.152C397.179 47.328 396.995 47.616 396.883 48.016C396.771 48.416 396.667 48.968 396.571 49.672L395.443 49.768C395.507 49.304 395.563 48.824 395.611 48.328C395.659 47.832 395.699 47.352 395.731 46.888C395.763 46.408 395.787 45.984 395.803 45.616L396.019 45.424L398.011 45.688H405.451L407.491 45.424L407.707 45.616C407.723 45.984 407.747 46.408 407.779 46.888C407.811 47.352 407.851 47.824 407.899 48.304C407.963 48.784 408.019 49.24 408.067 49.672L406.939 49.768C406.827 49.048 406.707 48.488 406.579 48.088C406.467 47.672 406.283 47.376 406.027 47.2C405.787 47.008 405.419 46.88 404.923 46.816C404.427 46.752 403.747 46.696 402.883 46.648C402.835 47.128 402.787 47.816 402.739 48.712C402.691 49.608 402.651 50.616 402.619 51.736C402.587 52.84 402.555 53.968 402.523 55.12C402.507 56.272 402.499 57.336 402.499 58.312C402.499 58.904 402.603 59.328 402.811 59.584C403.019 59.824 403.371 59.944 403.867 59.944C404.347 59.944 404.787 59.92 405.187 59.872L405.259 59.968L405.043 61.072C404.707 61.056 404.315 61.04 403.867 61.024C403.419 61.024 402.979 61.016 402.547 61C402.131 61 401.787 61 401.515 61C401.259 61 400.931 61 400.531 61C400.147 61.016 399.747 61.032 399.331 61.048C398.931 61.064 398.563 61.08 398.227 61.096ZM415.655 61.288C414.343 61.288 413.183 60.976 412.175 60.352C411.183 59.728 410.407 58.856 409.847 57.736C409.287 56.616 409.007 55.328 409.007 53.872C409.007 52.688 409.207 51.584 409.607 50.56C410.007 49.536 410.567 48.64 411.287 47.872C412.007 47.104 412.847 46.504 413.807 46.072C414.767 45.64 415.799 45.424 416.903 45.424C418.247 45.424 419.423 45.736 420.431 46.36C421.455 46.984 422.255 47.856 422.831 48.976C423.407 50.08 423.695 51.36 423.695 52.816C423.695 54.016 423.487 55.128 423.071 56.152C422.671 57.176 422.103 58.072 421.367 58.84C420.647 59.608 419.799 60.208 418.823 60.64C417.847 61.072 416.791 61.288 415.655 61.288ZM416.399 60.064C417.423 60.064 418.319 59.8 419.087 59.272C419.855 58.744 420.455 58.016 420.887 57.088C421.335 56.144 421.559 55.056 421.559 53.824C421.559 52.448 421.327 51.24 420.863 50.2C420.399 49.16 419.759 48.344 418.943 47.752C418.127 47.16 417.175 46.864 416.087 46.864C415.095 46.864 414.223 47.128 413.471 47.656C412.719 48.184 412.127 48.92 411.695 49.864C411.279 50.792 411.071 51.872 411.071 53.104C411.071 54.464 411.295 55.672 411.743 56.728C412.191 57.768 412.815 58.584 413.615 59.176C414.431 59.768 415.359 60.064 416.399 60.064ZM436.952 61.384C436.552 61.384 436.12 61.176 435.656 60.76C435.208 60.344 434.792 59.792 434.408 59.104L431.84 54.448H429.848L429.776 58.024C429.776 58.6 429.808 59.032 429.872 59.32C429.952 59.592 430.112 59.776 430.352 59.872C430.608 59.952 430.992 59.992 431.504 59.992L431.552 60.088L431.336 61.096C431.336 61.096 431.256 61.088 431.096 61.072C430.936 61.072 430.728 61.064 430.472 61.048C430.232 61.048 429.96 61.04 429.656 61.024C429.368 61.024 429.08 61.024 428.792 61.024C428.392 61.008 427.976 61.008 427.544 61.024C427.128 61.04 426.768 61.056 426.464 61.072C426.176 61.088 426.032 61.096 426.032 61.096L426.248 60.016C427 59.936 427.488 59.776 427.712 59.536C427.952 59.28 428.072 58.808 428.072 58.12L428.096 48.04C428.096 47.528 428.032 47.184 427.904 47.008C427.792 46.832 427.56 46.744 427.208 46.744C427.064 46.744 426.888 46.752 426.68 46.768C426.488 46.784 426.392 46.792 426.392 46.792L426.344 46.696L426.512 45.64C426.512 45.64 426.6 45.648 426.776 45.664C426.968 45.664 427.208 45.672 427.496 45.688C427.784 45.688 428.08 45.696 428.384 45.712C428.688 45.712 428.952 45.712 429.176 45.712C429.384 45.712 429.648 45.712 429.968 45.712C430.304 45.696 430.632 45.68 430.952 45.664C431.288 45.648 431.568 45.64 431.792 45.64C432.016 45.624 432.128 45.616 432.128 45.616C433.616 45.616 434.792 45.952 435.656 46.624C436.52 47.296 436.952 48.216 436.952 49.384C436.952 50.344 436.64 51.224 436.016 52.024C435.408 52.824 434.544 53.48 433.424 53.992L436.064 58.168C436.528 58.92 436.976 59.448 437.408 59.752C437.856 60.056 438.4 60.208 439.04 60.208L439.136 60.304L438.992 61.12L436.952 61.384ZM432.368 53.344C432.368 53.344 432.496 53.296 432.752 53.2C433.024 53.088 433.328 52.904 433.664 52.648C434 52.392 434.296 52.032 434.552 51.568C434.824 51.104 434.96 50.52 434.96 49.816C434.96 48.76 434.592 47.968 433.856 47.44C433.136 46.912 432.04 46.648 430.568 46.648C430.408 46.648 430.296 46.688 430.232 46.768C430.184 46.832 430.152 46.976 430.136 47.2C430.072 48.464 430.016 49.552 429.968 50.464C429.936 51.376 429.912 52.256 429.896 53.104L432.368 53.344Z" fill="#222222"/>
<path d="M698.826 105L698.826 104L698.12 104L697.884 104.664L698.826 105ZM655.146 227.5L663.942 220.02L653.066 216.142L655.146 227.5ZM723.826 104L698.826 104L698.826 106L723.826 106L723.826 104ZM697.884 104.664L657.226 218.687L659.11 219.359L699.767 105.336L697.884 104.664Z" fill="black"/>
<path d="M747.68 114.96C746.512 113.136 745.392 111.424 744.32 109.824C743.248 108.224 742.296 106.824 741.464 105.624C740.632 104.408 739.968 103.456 739.472 102.768C738.992 102.08 738.752 101.736 738.752 101.736H738.632L738.512 111.984C738.512 112.336 738.568 112.584 738.68 112.728C738.792 112.872 738.984 112.944 739.256 112.944C739.336 112.944 739.472 112.944 739.664 112.944C739.872 112.928 740.056 112.92 740.216 112.92C740.392 112.92 740.48 112.92 740.48 112.92L740.528 113.016L740.312 114.096C740.312 114.096 740.224 114.088 740.048 114.072C739.888 114.072 739.68 114.064 739.424 114.048C739.168 114.032 738.888 114.016 738.584 114C738.296 114 738.024 114 737.768 114C737.448 114 737.112 114.016 736.76 114.048C736.424 114.08 736.136 114.112 735.896 114.144C735.656 114.176 735.536 114.192 735.536 114.192L735.656 113.088C736.152 113.024 736.52 112.88 736.76 112.656C737 112.432 737.128 112.072 737.144 111.576L737.456 101.088C737.456 100.592 737.304 100.24 737 100.032C736.712 99.824 736.168 99.68 735.368 99.6L735.296 99.48L735.488 98.592C735.488 98.592 735.608 98.6 735.848 98.616C736.104 98.632 736.392 98.656 736.712 98.688C737.048 98.704 737.328 98.712 737.552 98.712C737.824 98.712 738.08 98.704 738.32 98.688C738.56 98.672 738.76 98.656 738.92 98.64C739.08 98.624 739.16 98.616 739.16 98.616C739.96 99.848 740.744 101.048 741.512 102.216C742.296 103.384 743.032 104.472 743.72 105.48C744.408 106.488 745.016 107.368 745.544 108.12C746.072 108.872 746.48 109.464 746.768 109.896C747.072 110.312 747.224 110.52 747.224 110.52H747.344V100.8C747.344 100.448 747.28 100.192 747.152 100.032C747.024 99.856 746.824 99.768 746.552 99.768C746.344 99.768 746.136 99.776 745.928 99.792C745.736 99.792 745.64 99.792 745.64 99.792L745.592 99.696L745.808 98.616C745.808 98.616 745.888 98.624 746.048 98.64C746.208 98.64 746.408 98.648 746.648 98.664C746.888 98.68 747.136 98.696 747.392 98.712C747.648 98.712 747.88 98.712 748.088 98.712C748.424 98.712 748.776 98.696 749.144 98.664C749.512 98.632 749.824 98.6 750.08 98.568C750.336 98.536 750.464 98.52 750.464 98.52L750.344 99.624C749.8 99.688 749.392 99.84 749.12 100.08C748.864 100.32 748.728 100.672 748.712 101.136L748.376 114.624L747.68 114.96ZM758.858 114.288C757.546 114.288 756.386 113.976 755.378 113.352C754.386 112.728 753.61 111.856 753.05 110.736C752.49 109.616 752.21 108.328 752.21 106.872C752.21 105.688 752.41 104.584 752.81 103.56C753.21 102.536 753.77 101.64 754.49 100.872C755.21 100.104 756.05 99.504 757.01 99.072C757.97 98.64 759.002 98.424 760.106 98.424C761.45 98.424 762.626 98.736 763.634 99.36C764.658 99.984 765.458 100.856 766.034 101.976C766.61 103.08 766.898 104.36 766.898 105.816C766.898 107.016 766.69 108.128 766.274 109.152C765.874 110.176 765.306 111.072 764.57 111.84C763.85 112.608 763.002 113.208 762.026 113.64C761.05 114.072 759.994 114.288 758.858 114.288ZM759.602 113.064C760.626 113.064 761.522 112.8 762.29 112.272C763.058 111.744 763.658 111.016 764.09 110.088C764.538 109.144 764.762 108.056 764.762 106.824C764.762 105.448 764.53 104.24 764.066 103.2C763.602 102.16 762.962 101.344 762.146 100.752C761.33 100.16 760.378 99.864 759.29 99.864C758.298 99.864 757.426 100.128 756.674 100.656C755.922 101.184 755.33 101.92 754.898 102.864C754.482 103.792 754.274 104.872 754.274 106.104C754.274 107.464 754.498 108.672 754.946 109.728C755.394 110.768 756.018 111.584 756.818 112.176C757.634 112.768 758.562 113.064 759.602 113.064ZM769.019 114.072L768.683 113.304L777.635 99.768L773.483 99.912C772.747 99.944 772.155 100.072 771.707 100.296C771.275 100.504 770.947 100.84 770.723 101.304C770.499 101.768 770.339 102.408 770.243 103.224L769.115 103.32C769.115 103.32 769.131 103.184 769.163 102.912C769.211 102.64 769.259 102.272 769.307 101.808C769.371 101.344 769.419 100.84 769.451 100.296C769.499 99.736 769.531 99.184 769.547 98.64L769.787 98.424L773.987 98.688L780.179 98.856L780.443 99.552C779.307 101.056 778.235 102.528 777.227 103.968C776.219 105.392 775.307 106.72 774.491 107.952C773.675 109.168 772.979 110.216 772.403 111.096C771.843 111.976 771.435 112.624 771.179 113.04L776.051 112.872C776.883 112.856 777.555 112.528 778.067 111.888C778.579 111.248 778.963 110.248 779.219 108.888L780.347 108.768C780.347 108.768 780.323 108.912 780.275 109.2C780.227 109.488 780.163 109.88 780.083 110.376C780.019 110.856 779.955 111.384 779.891 111.96C779.827 112.536 779.779 113.112 779.747 113.688L779.387 114.072L770.699 113.928L769.019 114.072ZM782.66 114.072L782.324 113.304L791.276 99.768L787.124 99.912C786.388 99.944 785.796 100.072 785.348 100.296C784.916 100.504 784.588 100.84 784.364 101.304C784.14 101.768 783.98 102.408 783.884 103.224L782.756 103.32C782.756 103.32 782.772 103.184 782.804 102.912C782.852 102.64 782.9 102.272 782.948 101.808C783.012 101.344 783.06 100.84 783.092 100.296C783.14 99.736 783.172 99.184 783.188 98.64L783.428 98.424L787.628 98.688L793.82 98.856L794.084 99.552C792.948 101.056 791.876 102.528 790.868 103.968C789.86 105.392 788.948 106.72 788.132 107.952C787.316 109.168 786.62 110.216 786.044 111.096C785.484 111.976 785.076 112.624 784.82 113.04L789.692 112.872C790.524 112.856 791.196 112.528 791.708 111.888C792.22 111.248 792.604 110.248 792.86 108.888L793.988 108.768C793.988 108.768 793.964 108.912 793.916 109.2C793.868 109.488 793.804 109.88 793.724 110.376C793.66 110.856 793.596 111.384 793.532 111.96C793.468 112.536 793.42 113.112 793.388 113.688L793.028 114.072L784.34 113.928L782.66 114.072ZM796.78 114.24L796.924 113.136C797.548 113.04 797.972 112.856 798.196 112.584C798.436 112.296 798.556 111.808 798.556 111.12L798.58 101.04C798.58 100.528 798.524 100.184 798.412 100.008C798.3 99.832 798.06 99.744 797.692 99.744C797.548 99.744 797.372 99.752 797.164 99.768C796.972 99.784 796.876 99.792 796.876 99.792L796.828 99.696L796.996 98.64C796.996 98.64 797.156 98.648 797.476 98.664C797.796 98.68 798.164 98.696 798.58 98.712C799.012 98.712 799.38 98.712 799.684 98.712C799.94 98.712 800.212 98.704 800.5 98.688C800.804 98.656 801.084 98.632 801.34 98.616C801.612 98.584 801.828 98.56 801.988 98.544C802.164 98.512 802.252 98.496 802.252 98.496L802.156 99.576C801.628 99.64 801.26 99.744 801.052 99.888C800.844 100.032 800.724 100.256 800.692 100.56C800.66 100.848 800.62 101.264 800.572 101.808C800.508 102.8 800.452 103.88 800.404 105.048C800.356 106.2 800.324 107.312 800.308 108.384C800.292 109.44 800.284 110.336 800.284 111.072C800.284 111.616 800.324 112.024 800.404 112.296C800.5 112.552 800.692 112.72 800.98 112.8C801.284 112.88 801.732 112.92 802.324 112.92C803.028 112.92 803.596 112.88 804.028 112.8C804.46 112.72 804.804 112.56 805.06 112.32C805.332 112.08 805.548 111.736 805.708 111.288C805.868 110.84 806.012 110.248 806.14 109.512L807.196 109.392L807.268 109.512C807.268 109.512 807.228 109.728 807.148 110.16C807.068 110.592 806.972 111.152 806.86 111.84C806.764 112.528 806.668 113.272 806.572 114.072L806.452 114.216C806.452 114.216 806.228 114.2 805.78 114.168C805.332 114.152 804.764 114.128 804.076 114.096C803.388 114.08 802.676 114.056 801.94 114.024C801.22 114.008 800.572 114 799.996 114C799.404 114 798.86 114.016 798.364 114.048C797.884 114.096 797.5 114.136 797.212 114.168C796.924 114.216 796.78 114.24 796.78 114.24ZM808.236 114.24L808.38 113.136C809.1 113.04 809.588 112.856 809.844 112.584C810.116 112.296 810.252 111.808 810.252 111.12L810.276 101.04C810.276 100.528 810.22 100.184 810.108 100.008C809.996 99.832 809.756 99.744 809.388 99.744C809.292 99.744 809.164 99.752 809.004 99.768C808.844 99.768 808.7 99.776 808.572 99.792L808.524 99.696L808.692 98.64C808.964 98.64 809.292 98.648 809.676 98.664C810.06 98.68 810.46 98.696 810.876 98.712C811.292 98.712 811.676 98.712 812.028 98.712C813.308 98.712 814.38 98.704 815.244 98.688C816.124 98.672 816.876 98.64 817.5 98.592C818.124 98.544 818.7 98.488 819.228 98.424L819.3 98.568C819.22 98.952 819.14 99.384 819.06 99.864C818.98 100.328 818.916 100.792 818.868 101.256C818.82 101.72 818.78 102.152 818.748 102.552L817.596 102.648C817.612 102.504 817.62 102.328 817.62 102.12C817.636 101.896 817.644 101.728 817.644 101.616C817.644 101.232 817.604 100.928 817.524 100.704C817.46 100.464 817.308 100.288 817.068 100.176C816.844 100.064 816.484 99.992 815.988 99.96C815.492 99.928 814.82 99.912 813.972 99.912C813.46 99.912 813.084 99.928 812.844 99.96C812.604 99.992 812.452 100.072 812.388 100.2C812.34 100.328 812.308 100.544 812.292 100.848L812.052 106.44L811.956 111.48C811.956 111.912 811.996 112.232 812.076 112.44C812.156 112.632 812.324 112.76 812.58 112.824C812.852 112.888 813.276 112.92 813.852 112.92C814.796 112.92 815.556 112.888 816.132 112.824C816.708 112.76 817.148 112.632 817.452 112.44C817.756 112.248 817.98 111.96 818.124 111.576C818.268 111.176 818.388 110.648 818.484 109.992L819.54 109.872L819.612 109.992C819.5 110.488 819.38 111.12 819.252 111.888C819.14 112.656 819.044 113.368 818.964 114.024L818.844 114.168C817.884 114.136 816.924 114.104 815.964 114.072C815.02 114.056 814.164 114.04 813.396 114.024C812.628 114.008 812.02 114 811.572 114C811.076 114 810.508 114.016 809.868 114.048C809.244 114.096 808.7 114.16 808.236 114.24ZM811.716 106.944L811.932 105.504C812.044 105.504 812.26 105.504 812.58 105.504C812.9 105.504 813.244 105.512 813.612 105.528C813.98 105.528 814.3 105.528 814.572 105.528C814.844 105.528 815.26 105.504 815.82 105.456C816.396 105.392 816.956 105.328 817.5 105.264L817.596 105.384L817.26 106.8C816.812 106.784 816.252 106.768 815.58 106.752C814.924 106.736 814.364 106.728 813.9 106.728C813.596 106.728 813.236 106.752 812.82 106.8C812.42 106.832 812.052 106.88 811.716 106.944Z" fill="#222222"/>
<path d="M422.884 94.5L422.884 93.5L422.18 93.5L421.942 94.1633L422.884 94.5ZM393.204 177.5L402.007 170.028L391.134 166.14L393.204 177.5ZM447.884 93.4999L422.884 93.5L422.884 95.5L447.884 95.4999L447.884 93.4999ZM421.942 94.1633L395.293 168.689L397.176 169.362L423.826 94.8367L421.942 94.1633Z" fill="black"/>
<path d="M469.215 87.288C467.759 87.288 466.495 86.984 465.423 86.376C464.351 85.768 463.519 84.912 462.927 83.808C462.335 82.688 462.039 81.376 462.039 79.872C462.039 78.656 462.247 77.536 462.663 76.512C463.079 75.472 463.663 74.576 464.415 73.824C465.167 73.056 466.047 72.464 467.055 72.048C468.079 71.632 469.199 71.424 470.415 71.424C470.911 71.424 471.407 71.456 471.903 71.52C472.399 71.568 472.847 71.632 473.247 71.712C473.647 71.792 473.967 71.864 474.207 71.928C474.463 71.976 474.591 72 474.591 72L474.687 72.144C474.687 72.144 474.647 72.328 474.567 72.696C474.487 73.048 474.399 73.528 474.303 74.136C474.207 74.744 474.135 75.416 474.087 76.152L472.935 76.248C472.935 76.248 472.943 76.12 472.959 75.864C472.991 75.592 473.007 75.328 473.007 75.072C473.007 74.32 472.711 73.76 472.119 73.392C471.543 73.024 470.663 72.84 469.479 72.84C468.407 72.84 467.471 73.096 466.671 73.608C465.887 74.12 465.279 74.84 464.847 75.768C464.415 76.696 464.199 77.8 464.199 79.08C464.199 80.488 464.423 81.72 464.871 82.776C465.335 83.816 465.975 84.632 466.791 85.224C467.623 85.8 468.591 86.088 469.695 86.088C470.783 86.088 471.655 85.784 472.311 85.176C472.983 84.552 473.471 83.592 473.775 82.296L474.927 82.2C474.927 82.2 474.903 82.32 474.855 82.56C474.807 82.8 474.743 83.12 474.663 83.52C474.599 83.904 474.527 84.328 474.447 84.792C474.383 85.24 474.327 85.68 474.279 86.112L474.135 86.328C474.135 86.328 473.919 86.408 473.487 86.568C473.071 86.728 472.495 86.888 471.759 87.048C471.023 87.208 470.175 87.288 469.215 87.288ZM483.429 87.288C482.117 87.288 480.957 86.976 479.949 86.352C478.957 85.728 478.181 84.856 477.621 83.736C477.061 82.616 476.781 81.328 476.781 79.872C476.781 78.688 476.981 77.584 477.381 76.56C477.781 75.536 478.341 74.64 479.061 73.872C479.781 73.104 480.621 72.504 481.581 72.072C482.541 71.64 483.573 71.424 484.677 71.424C486.021 71.424 487.197 71.736 488.205 72.36C489.229 72.984 490.029 73.856 490.605 74.976C491.181 76.08 491.469 77.36 491.469 78.816C491.469 80.016 491.261 81.128 490.845 82.152C490.445 83.176 489.877 84.072 489.141 84.84C488.421 85.608 487.573 86.208 486.597 86.64C485.621 87.072 484.565 87.288 483.429 87.288ZM484.173 86.064C485.197 86.064 486.093 85.8 486.861 85.272C487.629 84.744 488.229 84.016 488.661 83.088C489.109 82.144 489.333 81.056 489.333 79.824C489.333 78.448 489.101 77.24 488.637 76.2C488.173 75.16 487.533 74.344 486.717 73.752C485.901 73.16 484.949 72.864 483.861 72.864C482.869 72.864 481.997 73.128 481.245 73.656C480.493 74.184 479.901 74.92 479.469 75.864C479.053 76.792 478.845 77.872 478.845 79.104C478.845 80.464 479.069 81.672 479.517 82.728C479.965 83.768 480.589 84.584 481.389 85.176C482.205 85.768 483.133 86.064 484.173 86.064ZM501.966 87.456C501.454 86.016 500.942 84.576 500.43 83.136C499.918 81.696 499.406 80.264 498.894 78.84C498.382 77.4 497.87 75.96 497.358 74.52H497.238C497.238 74.52 497.214 74.768 497.166 75.264C497.134 75.744 497.086 76.376 497.022 77.16C496.958 77.928 496.886 78.752 496.806 79.632C496.726 80.512 496.654 81.36 496.59 82.176C496.526 82.976 496.47 83.656 496.422 84.216C496.39 84.76 496.374 85.088 496.374 85.2C496.374 85.696 496.622 85.944 497.118 85.944C497.246 85.944 497.438 85.944 497.694 85.944C497.966 85.928 498.102 85.92 498.102 85.92L498.15 86.016L497.934 87.096C497.934 87.096 497.79 87.088 497.502 87.072C497.23 87.056 496.91 87.04 496.542 87.024C496.19 87.008 495.878 87 495.606 87C495.366 87 495.126 87.008 494.886 87.024C494.646 87.04 494.422 87.064 494.214 87.096C494.006 87.128 493.838 87.152 493.71 87.168C493.598 87.184 493.542 87.192 493.542 87.192L493.662 86.088C494.174 86.024 494.542 85.864 494.766 85.608C494.99 85.336 495.134 84.88 495.198 84.24C495.23 83.952 495.278 83.52 495.342 82.944C495.406 82.352 495.478 81.688 495.558 80.952C495.638 80.2 495.71 79.44 495.774 78.672C495.854 77.904 495.926 77.176 495.99 76.488C496.07 75.8 496.126 75.224 496.158 74.76C496.206 74.28 496.23 73.984 496.23 73.872C496.23 73.584 496.158 73.352 496.014 73.176C495.87 73 495.646 72.864 495.342 72.768C495.038 72.656 494.646 72.584 494.166 72.552L494.094 72.432L494.286 71.592C494.286 71.592 494.446 71.6 494.766 71.616C495.102 71.632 495.478 71.656 495.894 71.688C496.31 71.704 496.646 71.712 496.902 71.712C497.142 71.712 497.382 71.704 497.622 71.688C497.878 71.672 498.094 71.656 498.27 71.64C498.446 71.624 498.534 71.616 498.534 71.616C499.078 73.36 499.59 74.96 500.07 76.416C500.566 77.872 500.998 79.128 501.366 80.184C501.75 81.24 502.046 82.064 502.254 82.656C502.478 83.232 502.59 83.52 502.59 83.52H502.71C502.71 83.52 502.814 83.232 503.022 82.656C503.246 82.064 503.55 81.24 503.934 80.184C504.318 79.112 504.758 77.856 505.254 76.416C505.75 74.976 506.286 73.392 506.862 71.664C506.862 71.648 506.958 71.648 507.15 71.664C507.358 71.68 507.582 71.696 507.822 71.712C508.078 71.712 508.286 71.712 508.446 71.712C508.686 71.712 509.014 71.704 509.43 71.688C509.846 71.656 510.214 71.632 510.534 71.616C510.87 71.584 511.038 71.568 511.038 71.568L511.086 71.664L510.966 72.552C510.278 72.632 509.79 72.776 509.502 72.984C509.214 73.176 509.07 73.472 509.07 73.872C509.07 74.016 509.078 74.336 509.094 74.832C509.126 75.328 509.166 75.936 509.214 76.656C509.262 77.376 509.31 78.152 509.358 78.984C509.422 79.8 509.478 80.616 509.526 81.432C509.59 82.248 509.646 82.992 509.694 83.664C509.806 84.592 509.934 85.208 510.078 85.512C510.222 85.8 510.486 85.944 510.87 85.944C511.014 85.944 511.158 85.936 511.302 85.92C511.462 85.904 511.542 85.896 511.542 85.896L511.59 85.992L511.374 87.072C511.374 87.072 511.246 87.064 510.99 87.048C510.734 87.032 510.422 87.016 510.054 87C509.702 87 509.382 87 509.094 87C508.838 87 508.566 87.008 508.278 87.024C507.99 87.04 507.718 87.064 507.462 87.096C507.206 87.128 506.998 87.152 506.838 87.168C506.678 87.184 506.598 87.192 506.598 87.192L506.694 86.088C507.19 86.024 507.55 85.896 507.774 85.704C507.998 85.512 508.11 85.24 508.11 84.888C508.11 84.744 508.086 84.4 508.038 83.856C508.006 83.296 507.958 82.624 507.894 81.84C507.83 81.056 507.766 80.24 507.702 79.392C507.638 78.544 507.574 77.752 507.51 77.016C507.446 76.28 507.39 75.68 507.342 75.216C507.31 74.752 507.294 74.52 507.294 74.52H507.174C506.79 75.576 506.406 76.64 506.022 77.712C505.638 78.768 505.246 79.832 504.846 80.904C504.462 81.976 504.078 83.048 503.694 84.12C503.31 85.176 502.926 86.232 502.542 87.288L501.966 87.456ZM516.886 87C516.582 87 516.27 87.016 515.95 87.048C515.63 87.08 515.334 87.112 515.062 87.144C514.79 87.176 514.566 87.208 514.39 87.24C514.23 87.272 514.15 87.288 514.15 87.288L514.294 86.184C515.046 86.04 515.542 85.832 515.782 85.56C516.038 85.272 516.166 84.792 516.166 84.12L516.19 74.04C516.19 73.528 516.134 73.184 516.022 73.008C515.91 72.832 515.67 72.744 515.302 72.744C515.158 72.744 514.982 72.752 514.774 72.768C514.582 72.784 514.486 72.792 514.486 72.792L514.438 72.696L514.606 71.64C514.606 71.64 514.694 71.648 514.87 71.664C515.062 71.664 515.302 71.672 515.59 71.688C515.878 71.688 516.174 71.696 516.478 71.712C516.782 71.712 517.046 71.712 517.27 71.712C517.446 71.712 517.654 71.712 517.894 71.712C518.134 71.696 518.382 71.688 518.638 71.688C518.894 71.672 519.134 71.664 519.358 71.664C519.582 71.648 519.758 71.64 519.886 71.64C520.03 71.624 520.102 71.616 520.102 71.616C521.622 71.616 522.79 71.928 523.606 72.552C524.422 73.176 524.83 74.08 524.83 75.264C524.83 76.048 524.59 76.768 524.11 77.424C523.63 78.064 522.942 78.576 522.046 78.96C522.83 79.12 523.494 79.376 524.038 79.728C524.598 80.08 525.022 80.504 525.31 81C525.614 81.48 525.766 82.016 525.766 82.608C525.766 83.44 525.502 84.208 524.974 84.912C524.462 85.616 523.774 86.184 522.91 86.616C522.062 87.032 521.134 87.24 520.126 87.24C519.87 87.24 519.606 87.224 519.334 87.192C519.078 87.176 518.822 87.152 518.566 87.12C518.31 87.088 518.038 87.056 517.75 87.024C517.478 87.008 517.19 87 516.886 87ZM517.966 79.848L517.87 84.336C517.87 84.944 518.078 85.376 518.494 85.632C518.91 85.888 519.614 86.016 520.606 86.016C521.566 86.016 522.318 85.752 522.862 85.224C523.422 84.68 523.702 83.952 523.702 83.04C523.702 81.264 522.622 80.184 520.462 79.8L517.966 79.848ZM518.014 78.576C518.014 78.576 518.126 78.584 518.35 78.6C518.59 78.616 518.87 78.64 519.19 78.672C519.51 78.704 519.806 78.728 520.078 78.744C520.35 78.76 520.534 78.768 520.63 78.768C520.63 78.768 520.742 78.728 520.966 78.648C521.19 78.552 521.454 78.4 521.758 78.192C522.062 77.968 522.326 77.656 522.55 77.256C522.774 76.84 522.886 76.312 522.886 75.672C522.886 74.632 522.542 73.872 521.854 73.392C521.166 72.896 520.102 72.648 518.662 72.648C518.502 72.648 518.39 72.688 518.326 72.768C518.278 72.832 518.246 72.976 518.23 73.2C518.198 73.712 518.166 74.264 518.134 74.856C518.118 75.432 518.094 76.032 518.062 76.656C518.046 77.264 518.03 77.904 518.014 78.576ZM534.927 87.288C533.247 87.288 531.951 86.832 531.039 85.92C530.127 84.992 529.671 83.68 529.671 81.984V74.04C529.671 73.528 529.615 73.184 529.503 73.008C529.391 72.832 529.151 72.744 528.783 72.744C528.639 72.744 528.463 72.752 528.255 72.768C528.063 72.784 527.967 72.792 527.967 72.792L527.919 72.696L528.087 71.64C528.087 71.64 528.247 71.648 528.567 71.664C528.903 71.68 529.279 71.696 529.695 71.712C530.127 71.712 530.495 71.712 530.799 71.712C531.055 71.712 531.327 71.704 531.615 71.688C531.919 71.656 532.199 71.632 532.455 71.616C532.711 71.584 532.919 71.56 533.079 71.544C533.239 71.512 533.319 71.496 533.319 71.496L533.223 72.576C532.631 72.656 532.231 72.792 532.023 72.984C531.831 73.16 531.719 73.48 531.687 73.944L531.495 81C531.495 82.584 531.839 83.8 532.527 84.648C533.215 85.496 534.207 85.92 535.503 85.92C536.815 85.92 537.815 85.576 538.503 84.888C539.191 84.184 539.535 83.176 539.535 81.864C539.535 81.528 539.527 81.048 539.511 80.424C539.511 79.8 539.503 79.128 539.487 78.408C539.471 77.672 539.455 76.976 539.439 76.32C539.423 75.648 539.407 75.104 539.391 74.688C539.391 74.256 539.391 74.04 539.391 74.04C539.359 73.48 539.287 73.128 539.175 72.984C539.079 72.824 538.855 72.744 538.503 72.744C538.359 72.744 538.151 72.752 537.879 72.768C537.607 72.784 537.471 72.792 537.471 72.792L537.423 72.696L537.591 71.64C537.591 71.64 537.687 71.648 537.879 71.664C538.071 71.664 538.311 71.672 538.599 71.688C538.887 71.688 539.183 71.696 539.487 71.712C539.807 71.712 540.079 71.712 540.303 71.712C540.655 71.712 541.007 71.696 541.359 71.664C541.711 71.632 542.007 71.6 542.247 71.568C542.503 71.52 542.631 71.496 542.631 71.496L542.535 72.576C541.847 72.672 541.399 72.8 541.191 72.96C540.983 73.12 540.879 73.448 540.879 73.944V82.008C540.879 83.688 540.359 84.992 539.319 85.92C538.279 86.832 536.815 87.288 534.927 87.288ZM548.671 87.288C547.919 87.288 547.255 87.216 546.679 87.072C546.119 86.944 545.679 86.816 545.359 86.688C545.055 86.544 544.903 86.472 544.903 86.472L544.783 86.232C544.783 86.232 544.799 86.128 544.831 85.92C544.863 85.696 544.895 85.4 544.927 85.032C544.959 84.648 544.991 84.2 545.023 83.688C545.055 83.176 545.071 82.632 545.071 82.056L546.151 81.936C546.151 83.088 546.231 83.968 546.391 84.576C546.551 85.168 546.855 85.576 547.303 85.8C547.751 86.008 548.407 86.112 549.271 86.112C550.263 86.112 551.063 85.88 551.671 85.416C552.295 84.936 552.607 84.288 552.607 83.472C552.607 82.944 552.431 82.488 552.079 82.104C551.727 81.72 551.271 81.368 550.711 81.048C550.167 80.728 549.583 80.408 548.959 80.088C548.319 79.752 547.695 79.392 547.087 79.008C546.495 78.624 546.007 78.184 545.623 77.688C545.239 77.176 545.047 76.576 545.047 75.888C545.047 75.04 545.287 74.28 545.767 73.608C546.263 72.936 546.927 72.408 547.759 72.024C548.591 71.624 549.527 71.424 550.567 71.424C551.287 71.424 551.919 71.472 552.463 71.568C553.023 71.664 553.455 71.768 553.759 71.88C554.079 71.976 554.239 72.024 554.239 72.024L554.311 72.168C554.311 72.168 554.271 72.352 554.191 72.72C554.127 73.088 554.055 73.584 553.975 74.208C553.895 74.816 553.831 75.488 553.783 76.224L552.847 76.32L552.703 76.2C552.703 76.2 552.711 76.088 552.727 75.864C552.759 75.624 552.775 75.32 552.775 74.952C552.775 74.104 552.567 73.52 552.151 73.2C551.751 72.88 551.007 72.72 549.919 72.72C549.039 72.72 548.311 72.944 547.735 73.392C547.175 73.824 546.895 74.368 546.895 75.024C546.895 75.504 547.047 75.936 547.351 76.32C547.655 76.688 548.055 77.024 548.551 77.328C549.047 77.632 549.583 77.936 550.159 78.24C550.863 78.592 551.551 78.968 552.223 79.368C552.911 79.768 553.479 80.224 553.927 80.736C554.375 81.248 554.599 81.872 554.599 82.608C554.599 83.52 554.343 84.328 553.831 85.032C553.335 85.736 552.639 86.288 551.743 86.688C550.863 87.088 549.839 87.288 548.671 87.288ZM559.141 87.096L559.333 86.064C560.085 86 560.629 85.904 560.965 85.776C561.301 85.632 561.509 85.368 561.589 84.984C561.685 84.584 561.733 83.96 561.733 83.112V72.648C560.805 72.68 560.069 72.728 559.525 72.792C558.997 72.84 558.605 72.96 558.349 73.152C558.093 73.328 557.909 73.616 557.797 74.016C557.685 74.416 557.581 74.968 557.485 75.672L556.357 75.768C556.421 75.304 556.477 74.824 556.525 74.328C556.573 73.832 556.613 73.352 556.645 72.888C556.677 72.408 556.701 71.984 556.717 71.616L556.933 71.424L558.925 71.688H566.365L568.405 71.424L568.621 71.616C568.637 71.984 568.661 72.408 568.693 72.888C568.725 73.352 568.765 73.824 568.813 74.304C568.877 74.784 568.933 75.24 568.981 75.672L567.853 75.768C567.741 75.048 567.621 74.488 567.493 74.088C567.381 73.672 567.197 73.376 566.941 73.2C566.701 73.008 566.333 72.88 565.837 72.816C565.341 72.752 564.661 72.696 563.797 72.648C563.749 73.128 563.701 73.816 563.653 74.712C563.605 75.608 563.565 76.616 563.533 77.736C563.501 78.84 563.469 79.968 563.437 81.12C563.421 82.272 563.413 83.336 563.413 84.312C563.413 84.904 563.517 85.328 563.725 85.584C563.933 85.824 564.285 85.944 564.781 85.944C565.261 85.944 565.701 85.92 566.101 85.872L566.173 85.968L565.957 87.072C565.621 87.056 565.229 87.04 564.781 87.024C564.333 87.024 563.893 87.016 563.461 87C563.045 87 562.701 87 562.429 87C562.173 87 561.845 87 561.445 87C561.061 87.016 560.661 87.032 560.245 87.048C559.845 87.064 559.477 87.08 559.141 87.096ZM570.587 87.288L570.731 86.184C571.483 86.04 571.987 85.832 572.243 85.56C572.515 85.272 572.651 84.792 572.651 84.12L572.675 74.04C572.675 73.528 572.611 73.184 572.483 73.008C572.371 72.832 572.139 72.744 571.787 72.744C571.675 72.744 571.515 72.752 571.307 72.768C571.115 72.768 570.939 72.776 570.779 72.792L570.731 72.696L570.899 71.64C571.315 71.656 571.803 71.672 572.363 71.688C572.939 71.704 573.403 71.712 573.755 71.712C574.091 71.712 574.515 71.696 575.027 71.664C575.555 71.616 576.051 71.56 576.515 71.496L576.419 72.576C575.763 72.656 575.315 72.792 575.075 72.984C574.851 73.16 574.723 73.48 574.691 73.944C574.643 74.824 574.595 75.76 574.547 76.752C574.515 77.744 574.483 78.728 574.451 79.704C574.419 80.664 574.395 81.552 574.379 82.368C574.363 83.168 574.355 83.816 574.355 84.312C574.355 84.952 574.427 85.384 574.571 85.608C574.715 85.832 574.995 85.944 575.411 85.944C575.635 85.944 575.867 85.936 576.107 85.92C576.347 85.904 576.539 85.888 576.683 85.872L576.731 85.968L576.515 87.072C576.227 87.056 575.891 87.04 575.507 87.024C575.123 87.024 574.739 87.016 574.355 87C573.971 87 573.643 87 573.371 87C573.019 87 572.579 87.024 572.051 87.072C571.539 87.136 571.051 87.208 570.587 87.288ZM585.523 87.288C584.211 87.288 583.051 86.976 582.043 86.352C581.051 85.728 580.275 84.856 579.715 83.736C579.155 82.616 578.875 81.328 578.875 79.872C578.875 78.688 579.075 77.584 579.475 76.56C579.875 75.536 580.435 74.64 581.155 73.872C581.875 73.104 582.715 72.504 583.675 72.072C584.635 71.64 585.667 71.424 586.771 71.424C588.115 71.424 589.291 71.736 590.299 72.36C591.323 72.984 592.123 73.856 592.699 74.976C593.275 76.08 593.563 77.36 593.563 78.816C593.563 80.016 593.355 81.128 592.939 82.152C592.539 83.176 591.971 84.072 591.235 84.84C590.515 85.608 589.667 86.208 588.691 86.64C587.715 87.072 586.659 87.288 585.523 87.288ZM586.267 86.064C587.291 86.064 588.187 85.8 588.955 85.272C589.723 84.744 590.323 84.016 590.755 83.088C591.203 82.144 591.427 81.056 591.427 79.824C591.427 78.448 591.195 77.24 590.731 76.2C590.267 75.16 589.627 74.344 588.811 73.752C587.995 73.16 587.043 72.864 585.955 72.864C584.963 72.864 584.091 73.128 583.339 73.656C582.587 74.184 581.995 74.92 581.563 75.864C581.147 76.792 580.939 77.872 580.939 79.104C580.939 80.464 581.163 81.672 581.611 82.728C582.059 83.768 582.683 84.584 583.483 85.176C584.299 85.768 585.227 86.064 586.267 86.064ZM608.212 87.96C607.044 86.136 605.924 84.424 604.852 82.824C603.78 81.224 602.828 79.824 601.996 78.624C601.164 77.408 600.5 76.456 600.004 75.768C599.524 75.08 599.284 74.736 599.284 74.736H599.164L599.044 84.984C599.044 85.336 599.1 85.584 599.212 85.728C599.324 85.872 599.516 85.944 599.788 85.944C599.868 85.944 600.004 85.944 600.196 85.944C600.404 85.928 600.588 85.92 600.748 85.92C600.924 85.92 601.012 85.92 601.012 85.92L601.06 86.016L600.844 87.096C600.844 87.096 600.756 87.088 600.58 87.072C600.42 87.072 600.212 87.064 599.956 87.048C599.7 87.032 599.42 87.016 599.116 87C598.828 87 598.556 87 598.3 87C597.98 87 597.644 87.016 597.292 87.048C596.956 87.08 596.668 87.112 596.428 87.144C596.188 87.176 596.068 87.192 596.068 87.192L596.188 86.088C596.684 86.024 597.052 85.88 597.292 85.656C597.532 85.432 597.66 85.072 597.676 84.576L597.988 74.088C597.988 73.592 597.836 73.24 597.532 73.032C597.244 72.824 596.7 72.68 595.9 72.6L595.828 72.48L596.02 71.592C596.02 71.592 596.14 71.6 596.38 71.616C596.636 71.632 596.924 71.656 597.244 71.688C597.58 71.704 597.86 71.712 598.084 71.712C598.356 71.712 598.612 71.704 598.852 71.688C599.092 71.672 599.292 71.656 599.452 71.64C599.612 71.624 599.692 71.616 599.692 71.616C600.492 72.848 601.276 74.048 602.044 75.216C602.828 76.384 603.564 77.472 604.252 78.48C604.94 79.488 605.548 80.368 606.076 81.12C606.604 81.872 607.012 82.464 607.3 82.896C607.604 83.312 607.756 83.52 607.756 83.52H607.876V73.8C607.876 73.448 607.812 73.192 607.684 73.032C607.556 72.856 607.356 72.768 607.084 72.768C606.876 72.768 606.668 72.776 606.46 72.792C606.268 72.792 606.172 72.792 606.172 72.792L606.124 72.696L606.34 71.616C606.34 71.616 606.42 71.624 606.58 71.64C606.74 71.64 606.94 71.648 607.18 71.664C607.42 71.68 607.668 71.696 607.924 71.712C608.18 71.712 608.412 71.712 608.62 71.712C608.956 71.712 609.308 71.696 609.676 71.664C610.044 71.632 610.356 71.6 610.612 71.568C610.868 71.536 610.996 71.52 610.996 71.52L610.876 72.624C610.332 72.688 609.924 72.84 609.652 73.08C609.396 73.32 609.26 73.672 609.244 74.136L608.908 87.624L608.212 87.96ZM469.215 120.288C467.759 120.288 466.495 119.984 465.423 119.376C464.351 118.768 463.519 117.912 462.927 116.808C462.335 115.688 462.039 114.376 462.039 112.872C462.039 111.656 462.247 110.536 462.663 109.512C463.079 108.472 463.663 107.576 464.415 106.824C465.167 106.056 466.047 105.464 467.055 105.048C468.079 104.632 469.199 104.424 470.415 104.424C470.911 104.424 471.407 104.456 471.903 104.52C472.399 104.568 472.847 104.632 473.247 104.712C473.647 104.792 473.967 104.864 474.207 104.928C474.463 104.976 474.591 105 474.591 105L474.687 105.144C474.687 105.144 474.647 105.328 474.567 105.696C474.487 106.048 474.399 106.528 474.303 107.136C474.207 107.744 474.135 108.416 474.087 109.152L472.935 109.248C472.935 109.248 472.943 109.12 472.959 108.864C472.991 108.592 473.007 108.328 473.007 108.072C473.007 107.32 472.711 106.76 472.119 106.392C471.543 106.024 470.663 105.84 469.479 105.84C468.407 105.84 467.471 106.096 466.671 106.608C465.887 107.12 465.279 107.84 464.847 108.768C464.415 109.696 464.199 110.8 464.199 112.08C464.199 113.488 464.423 114.72 464.871 115.776C465.335 116.816 465.975 117.632 466.791 118.224C467.623 118.8 468.591 119.088 469.695 119.088C470.783 119.088 471.655 118.784 472.311 118.176C472.983 117.552 473.471 116.592 473.775 115.296L474.927 115.2C474.927 115.2 474.903 115.32 474.855 115.56C474.807 115.8 474.743 116.12 474.663 116.52C474.599 116.904 474.527 117.328 474.447 117.792C474.383 118.24 474.327 118.68 474.279 119.112L474.135 119.328C474.135 119.328 473.919 119.408 473.487 119.568C473.071 119.728 472.495 119.888 471.759 120.048C471.023 120.208 470.175 120.288 469.215 120.288ZM477.494 120.288L477.638 119.184C478.39 119.04 478.886 118.832 479.126 118.56C479.382 118.272 479.51 117.792 479.51 117.12L479.534 107.04C479.534 106.528 479.478 106.184 479.366 106.008C479.254 105.832 479.014 105.744 478.646 105.744C478.55 105.744 478.422 105.752 478.262 105.768C478.102 105.768 477.958 105.776 477.83 105.792L477.782 105.696L477.95 104.64C478.318 104.656 478.766 104.672 479.294 104.688C479.838 104.704 480.278 104.712 480.614 104.712C480.918 104.712 481.31 104.696 481.79 104.664C482.286 104.616 482.75 104.56 483.182 104.496L483.086 105.576C482.638 105.64 482.302 105.736 482.078 105.864C481.87 105.976 481.726 106.176 481.646 106.464C481.582 106.736 481.534 107.16 481.502 107.736L481.358 111.624L485.39 111.648C485.918 111.648 486.438 111.632 486.95 111.6C487.462 111.568 488.126 111.504 488.942 111.408L488.966 107.04C488.966 106.528 488.91 106.184 488.798 106.008C488.686 105.832 488.446 105.744 488.078 105.744C487.966 105.744 487.83 105.752 487.67 105.768C487.526 105.768 487.39 105.776 487.262 105.792L487.214 105.696L487.382 104.64C487.382 104.64 487.526 104.648 487.814 104.664C488.102 104.68 488.43 104.696 488.798 104.712C489.166 104.712 489.478 104.712 489.734 104.712C490.086 104.712 490.534 104.696 491.078 104.664C491.622 104.616 492.134 104.56 492.614 104.496L492.518 105.576C491.926 105.656 491.526 105.792 491.318 105.984C491.126 106.16 491.014 106.48 490.982 106.944C490.934 107.872 490.886 108.848 490.838 109.872C490.806 110.88 490.774 111.872 490.742 112.848C490.71 113.808 490.686 114.688 490.67 115.488C490.654 116.288 490.646 116.944 490.646 117.456C490.646 118.048 490.718 118.448 490.862 118.656C491.006 118.848 491.286 118.944 491.702 118.944C491.878 118.944 492.07 118.936 492.278 118.92C492.486 118.904 492.654 118.888 492.782 118.872L492.83 118.968L492.614 120.072C492.214 120.056 491.718 120.04 491.126 120.024C490.534 120.008 490.046 120 489.662 120C489.47 120 489.206 120 488.87 120C488.55 120.016 488.214 120.024 487.862 120.024C487.51 120.024 487.19 120.032 486.902 120.048L487.118 118.968C487.63 118.952 488.014 118.88 488.27 118.752C488.526 118.624 488.702 118.376 488.798 118.008C488.894 117.64 488.942 117.104 488.942 116.4V112.776C488.574 112.776 488.158 112.776 487.694 112.776C487.23 112.76 486.782 112.752 486.35 112.752C485.918 112.752 485.566 112.752 485.294 112.752C485.134 112.752 484.838 112.768 484.406 112.8C483.99 112.816 483.502 112.848 482.942 112.896C482.398 112.928 481.854 112.968 481.31 113.016L481.214 117.312C481.214 117.952 481.286 118.384 481.43 118.608C481.574 118.832 481.854 118.944 482.27 118.944C482.446 118.944 482.638 118.936 482.846 118.92C483.054 118.904 483.222 118.888 483.35 118.872L483.398 118.968L483.182 120.072C483.182 120.056 483.062 120.04 482.822 120.024C482.582 120.024 482.302 120.016 481.982 120C481.662 120 481.382 120 481.142 120C480.662 120 480.134 120.016 479.558 120.048C478.998 120.08 478.518 120.112 478.118 120.144C477.718 120.192 477.51 120.24 477.494 120.288ZM501.929 120.24L501.857 120.072L501.953 119.136C502.513 119.088 502.945 119.032 503.249 118.968C503.553 118.904 503.769 118.816 503.897 118.704C504.025 118.576 504.089 118.416 504.089 118.224C504.089 118.064 504.073 117.888 504.041 117.696C504.009 117.504 503.953 117.296 503.873 117.072L503.081 114.456C502.793 114.44 502.385 114.432 501.857 114.432C501.345 114.432 500.921 114.432 500.585 114.432C500.121 114.432 499.633 114.456 499.121 114.504C498.625 114.552 498.241 114.592 497.969 114.624L497.081 117.12C496.937 117.552 496.865 117.864 496.865 118.056C496.865 118.408 496.977 118.664 497.201 118.824C497.441 118.968 497.809 119.04 498.305 119.04H499.673L499.721 119.136L499.577 120.168C499.577 120.168 499.409 120.152 499.073 120.12C498.737 120.088 498.313 120.056 497.801 120.024C497.289 120.008 496.769 120 496.241 120C495.857 120 495.457 120 495.041 120C494.641 120.016 494.297 120.032 494.009 120.048C493.737 120.064 493.601 120.072 493.601 120.072L493.793 118.944C494.241 118.896 494.601 118.744 494.873 118.488C495.145 118.232 495.409 117.768 495.665 117.096L500.345 104.832L501.857 104.424H502.049C502.049 104.424 502.097 104.616 502.193 105C502.305 105.368 502.449 105.888 502.625 106.56C502.817 107.216 503.033 107.976 503.273 108.84C503.529 109.688 503.793 110.592 504.065 111.552C504.353 112.512 504.649 113.488 504.953 114.48C505.257 115.456 505.561 116.392 505.865 117.288C506.057 117.88 506.313 118.296 506.633 118.536C506.969 118.776 507.481 118.928 508.169 118.992L508.217 119.088L508.049 120.072C508.049 120.072 507.889 120.064 507.569 120.048C507.265 120.032 506.913 120.016 506.513 120C506.113 120 505.777 120 505.505 120C504.897 120 504.313 120.016 503.753 120.048C503.209 120.096 502.769 120.136 502.433 120.168C502.097 120.216 501.929 120.24 501.929 120.24ZM498.401 113.448H500.513C500.833 113.448 501.217 113.432 501.665 113.4C502.113 113.368 502.473 113.344 502.745 113.328L500.849 107.04H500.681L498.401 113.448ZM517.505 120.456C516.993 119.016 516.481 117.576 515.969 116.136C515.457 114.696 514.945 113.264 514.433 111.84C513.921 110.4 513.409 108.96 512.897 107.52H512.777C512.777 107.52 512.753 107.768 512.705 108.264C512.673 108.744 512.625 109.376 512.561 110.16C512.497 110.928 512.425 111.752 512.345 112.632C512.265 113.512 512.193 114.36 512.129 115.176C512.065 115.976 512.009 116.656 511.961 117.216C511.929 117.76 511.913 118.088 511.913 118.2C511.913 118.696 512.161 118.944 512.657 118.944C512.785 118.944 512.977 118.944 513.233 118.944C513.505 118.928 513.641 118.92 513.641 118.92L513.689 119.016L513.473 120.096C513.473 120.096 513.329 120.088 513.041 120.072C512.769 120.056 512.449 120.04 512.081 120.024C511.729 120.008 511.417 120 511.145 120C510.905 120 510.665 120.008 510.425 120.024C510.185 120.04 509.961 120.064 509.753 120.096C509.545 120.128 509.377 120.152 509.249 120.168C509.137 120.184 509.081 120.192 509.081 120.192L509.201 119.088C509.713 119.024 510.081 118.864 510.305 118.608C510.529 118.336 510.673 117.88 510.737 117.24C510.769 116.952 510.817 116.52 510.881 115.944C510.945 115.352 511.017 114.688 511.097 113.952C511.177 113.2 511.249 112.44 511.313 111.672C511.393 110.904 511.465 110.176 511.529 109.488C511.609 108.8 511.665 108.224 511.697 107.76C511.745 107.28 511.769 106.984 511.769 106.872C511.769 106.584 511.697 106.352 511.553 106.176C511.409 106 511.185 105.864 510.881 105.768C510.577 105.656 510.185 105.584 509.705 105.552L509.633 105.432L509.825 104.592C509.825 104.592 509.985 104.6 510.305 104.616C510.641 104.632 511.017 104.656 511.433 104.688C511.849 104.704 512.185 104.712 512.441 104.712C512.681 104.712 512.921 104.704 513.161 104.688C513.417 104.672 513.633 104.656 513.809 104.64C513.985 104.624 514.073 104.616 514.073 104.616C514.617 106.36 515.129 107.96 515.609 109.416C516.105 110.872 516.537 112.128 516.905 113.184C517.289 114.24 517.585 115.064 517.793 115.656C518.017 116.232 518.129 116.52 518.129 116.52H518.249C518.249 116.52 518.353 116.232 518.561 115.656C518.785 115.064 519.089 114.24 519.473 113.184C519.857 112.112 520.297 110.856 520.793 109.416C521.289 107.976 521.825 106.392 522.401 104.664C522.401 104.648 522.497 104.648 522.689 104.664C522.897 104.68 523.121 104.696 523.361 104.712C523.617 104.712 523.825 104.712 523.985 104.712C524.225 104.712 524.553 104.704 524.969 104.688C525.385 104.656 525.753 104.632 526.073 104.616C526.409 104.584 526.577 104.568 526.577 104.568L526.625 104.664L526.505 105.552C525.817 105.632 525.329 105.776 525.041 105.984C524.753 106.176 524.609 106.472 524.609 106.872C524.609 107.016 524.617 107.336 524.633 107.832C524.665 108.328 524.705 108.936 524.753 109.656C524.801 110.376 524.849 111.152 524.897 111.984C524.961 112.8 525.017 113.616 525.065 114.432C525.129 115.248 525.185 115.992 525.233 116.664C525.345 117.592 525.473 118.208 525.617 118.512C525.761 118.8 526.025 118.944 526.409 118.944C526.553 118.944 526.697 118.936 526.841 118.92C527.001 118.904 527.081 118.896 527.081 118.896L527.129 118.992L526.913 120.072C526.913 120.072 526.785 120.064 526.529 120.048C526.273 120.032 525.961 120.016 525.593 120C525.241 120 524.921 120 524.633 120C524.377 120 524.105 120.008 523.817 120.024C523.529 120.04 523.257 120.064 523.001 120.096C522.745 120.128 522.537 120.152 522.377 120.168C522.217 120.184 522.137 120.192 522.137 120.192L522.233 119.088C522.729 119.024 523.089 118.896 523.313 118.704C523.537 118.512 523.649 118.24 523.649 117.888C523.649 117.744 523.625 117.4 523.577 116.856C523.545 116.296 523.497 115.624 523.433 114.84C523.369 114.056 523.305 113.24 523.241 112.392C523.177 111.544 523.113 110.752 523.049 110.016C522.985 109.28 522.929 108.68 522.881 108.216C522.849 107.752 522.833 107.52 522.833 107.52H522.713C522.329 108.576 521.945 109.64 521.561 110.712C521.177 111.768 520.785 112.832 520.385 113.904C520.001 114.976 519.617 116.048 519.233 117.12C518.849 118.176 518.465 119.232 518.081 120.288L517.505 120.456ZM532.425 120C532.121 120 531.809 120.016 531.489 120.048C531.169 120.08 530.873 120.112 530.601 120.144C530.329 120.176 530.105 120.208 529.929 120.24C529.769 120.272 529.689 120.288 529.689 120.288L529.833 119.184C530.585 119.04 531.081 118.832 531.321 118.56C531.577 118.272 531.705 117.792 531.705 117.12L531.729 107.04C531.729 106.528 531.673 106.184 531.561 106.008C531.449 105.832 531.209 105.744 530.841 105.744C530.697 105.744 530.521 105.752 530.313 105.768C530.121 105.784 530.025 105.792 530.025 105.792L529.977 105.696L530.145 104.64C530.145 104.64 530.233 104.648 530.409 104.664C530.601 104.664 530.841 104.672 531.129 104.688C531.417 104.688 531.713 104.696 532.017 104.712C532.321 104.712 532.585 104.712 532.809 104.712C532.985 104.712 533.193 104.712 533.433 104.712C533.673 104.696 533.921 104.688 534.177 104.688C534.433 104.672 534.673 104.664 534.897 104.664C535.121 104.648 535.297 104.64 535.425 104.64C535.569 104.624 535.641 104.616 535.641 104.616C537.161 104.616 538.329 104.928 539.145 105.552C539.961 106.176 540.369 107.08 540.369 108.264C540.369 109.048 540.129 109.768 539.649 110.424C539.169 111.064 538.481 111.576 537.585 111.96C538.369 112.12 539.033 112.376 539.577 112.728C540.137 113.08 540.561 113.504 540.849 114C541.153 114.48 541.305 115.016 541.305 115.608C541.305 116.44 541.041 117.208 540.513 117.912C540.001 118.616 539.313 119.184 538.449 119.616C537.601 120.032 536.673 120.24 535.665 120.24C535.409 120.24 535.145 120.224 534.873 120.192C534.617 120.176 534.361 120.152 534.105 120.12C533.849 120.088 533.577 120.056 533.289 120.024C533.017 120.008 532.729 120 532.425 120ZM533.505 112.848L533.409 117.336C533.409 117.944 533.617 118.376 534.033 118.632C534.449 118.888 535.153 119.016 536.145 119.016C537.105 119.016 537.857 118.752 538.401 118.224C538.961 117.68 539.241 116.952 539.241 116.04C539.241 114.264 538.161 113.184 536.001 112.8L533.505 112.848ZM533.553 111.576C533.553 111.576 533.665 111.584 533.889 111.6C534.129 111.616 534.409 111.64 534.729 111.672C535.049 111.704 535.345 111.728 535.617 111.744C535.889 111.76 536.073 111.768 536.169 111.768C536.169 111.768 536.281 111.728 536.505 111.648C536.729 111.552 536.993 111.4 537.297 111.192C537.601 110.968 537.865 110.656 538.089 110.256C538.313 109.84 538.425 109.312 538.425 108.672C538.425 107.632 538.081 106.872 537.393 106.392C536.705 105.896 535.641 105.648 534.201 105.648C534.041 105.648 533.929 105.688 533.865 105.768C533.817 105.832 533.785 105.976 533.769 106.2C533.737 106.712 533.705 107.264 533.673 107.856C533.657 108.432 533.633 109.032 533.601 109.656C533.585 110.264 533.569 110.904 533.553 111.576ZM544.01 120.24L544.154 119.136C544.874 119.04 545.362 118.856 545.618 118.584C545.89 118.296 546.026 117.808 546.026 117.12L546.05 107.04C546.05 106.528 545.994 106.184 545.882 106.008C545.77 105.832 545.53 105.744 545.162 105.744C545.066 105.744 544.938 105.752 544.778 105.768C544.618 105.768 544.474 105.776 544.346 105.792L544.298 105.696L544.466 104.64C544.738 104.64 545.066 104.648 545.45 104.664C545.834 104.68 546.234 104.696 546.65 104.712C547.066 104.712 547.45 104.712 547.802 104.712C549.082 104.712 550.154 104.704 551.018 104.688C551.898 104.672 552.65 104.64 553.274 104.592C553.898 104.544 554.474 104.488 555.002 104.424L555.074 104.568C554.994 104.952 554.914 105.384 554.834 105.864C554.754 106.328 554.69 106.792 554.642 107.256C554.594 107.72 554.554 108.152 554.522 108.552L553.37 108.648C553.386 108.504 553.394 108.328 553.394 108.12C553.41 107.896 553.418 107.728 553.418 107.616C553.418 107.232 553.378 106.928 553.298 106.704C553.234 106.464 553.082 106.288 552.842 106.176C552.618 106.064 552.258 105.992 551.762 105.96C551.266 105.928 550.594 105.912 549.746 105.912C549.234 105.912 548.858 105.928 548.618 105.96C548.378 105.992 548.226 106.072 548.162 106.2C548.114 106.328 548.082 106.544 548.066 106.848L547.826 112.44L547.73 117.48C547.73 117.912 547.77 118.232 547.85 118.44C547.93 118.632 548.098 118.76 548.354 118.824C548.626 118.888 549.05 118.92 549.626 118.92C550.57 118.92 551.33 118.888 551.906 118.824C552.482 118.76 552.922 118.632 553.226 118.44C553.53 118.248 553.754 117.96 553.898 117.576C554.042 117.176 554.162 116.648 554.258 115.992L555.314 115.872L555.386 115.992C555.274 116.488 555.154 117.12 555.026 117.888C554.914 118.656 554.818 119.368 554.738 120.024L554.618 120.168C553.658 120.136 552.698 120.104 551.738 120.072C550.794 120.056 549.938 120.04 549.17 120.024C548.402 120.008 547.794 120 547.346 120C546.85 120 546.282 120.016 545.642 120.048C545.018 120.096 544.474 120.16 544.01 120.24ZM547.49 112.944L547.706 111.504C547.818 111.504 548.034 111.504 548.354 111.504C548.674 111.504 549.018 111.512 549.386 111.528C549.754 111.528 550.074 111.528 550.346 111.528C550.618 111.528 551.034 111.504 551.594 111.456C552.17 111.392 552.73 111.328 553.274 111.264L553.37 111.384L553.034 112.8C552.586 112.784 552.026 112.768 551.354 112.752C550.698 112.736 550.138 112.728 549.674 112.728C549.37 112.728 549.01 112.752 548.594 112.8C548.194 112.832 547.826 112.88 547.49 112.944ZM569.085 120.384C568.685 120.384 568.253 120.176 567.789 119.76C567.341 119.344 566.925 118.792 566.541 118.104L563.973 113.448H561.981L561.909 117.024C561.909 117.6 561.941 118.032 562.005 118.32C562.085 118.592 562.245 118.776 562.485 118.872C562.741 118.952 563.125 118.992 563.637 118.992L563.685 119.088L563.469 120.096C563.469 120.096 563.389 120.088 563.229 120.072C563.069 120.072 562.861 120.064 562.605 120.048C562.365 120.048 562.093 120.04 561.789 120.024C561.501 120.024 561.213 120.024 560.925 120.024C560.525 120.008 560.109 120.008 559.677 120.024C559.261 120.04 558.901 120.056 558.597 120.072C558.309 120.088 558.165 120.096 558.165 120.096L558.381 119.016C559.133 118.936 559.621 118.776 559.845 118.536C560.085 118.28 560.205 117.808 560.205 117.12L560.229 107.04C560.229 106.528 560.165 106.184 560.037 106.008C559.925 105.832 559.693 105.744 559.341 105.744C559.197 105.744 559.021 105.752 558.813 105.768C558.621 105.784 558.525 105.792 558.525 105.792L558.477 105.696L558.645 104.64C558.645 104.64 558.733 104.648 558.909 104.664C559.101 104.664 559.341 104.672 559.629 104.688C559.917 104.688 560.213 104.696 560.517 104.712C560.821 104.712 561.085 104.712 561.309 104.712C561.517 104.712 561.781 104.712 562.101 104.712C562.437 104.696 562.765 104.68 563.085 104.664C563.421 104.648 563.701 104.64 563.925 104.64C564.149 104.624 564.261 104.616 564.261 104.616C565.749 104.616 566.925 104.952 567.789 105.624C568.653 106.296 569.085 107.216 569.085 108.384C569.085 109.344 568.773 110.224 568.149 111.024C567.541 111.824 566.677 112.48 565.557 112.992L568.197 117.168C568.661 117.92 569.109 118.448 569.541 118.752C569.989 119.056 570.533 119.208 571.173 119.208L571.269 119.304L571.125 120.12L569.085 120.384ZM564.501 112.344C564.501 112.344 564.629 112.296 564.885 112.2C565.157 112.088 565.461 111.904 565.797 111.648C566.133 111.392 566.429 111.032 566.685 110.568C566.957 110.104 567.093 109.52 567.093 108.816C567.093 107.76 566.725 106.968 565.989 106.44C565.269 105.912 564.173 105.648 562.701 105.648C562.541 105.648 562.429 105.688 562.365 105.768C562.317 105.832 562.285 105.976 562.269 106.2C562.205 107.464 562.149 108.552 562.101 109.464C562.069 110.376 562.045 111.256 562.029 112.104L564.501 112.344Z" fill="#222222"/>
<path d="M31.7799 317.288C30.4679 317.288 29.3079 316.976 28.2999 316.352C27.3079 315.728 26.5319 314.856 25.9719 313.736C25.4119 312.616 25.1319 311.328 25.1319 309.872C25.1319 308.688 25.3319 307.584 25.7319 306.56C26.1319 305.536 26.6919 304.64 27.4119 303.872C28.1319 303.104 28.9719 302.504 29.9319 302.072C30.8919 301.64 31.9239 301.424 33.0279 301.424C34.3719 301.424 35.5479 301.736 36.5559 302.36C37.5799 302.984 38.3799 303.856 38.9559 304.976C39.5319 306.08 39.8199 307.36 39.8199 308.816C39.8199 310.016 39.6119 311.128 39.1959 312.152C38.7959 313.176 38.2279 314.072 37.4919 314.84C36.7719 315.608 35.9239 316.208 34.9479 316.64C33.9719 317.072 32.9159 317.288 31.7799 317.288ZM32.5239 316.064C33.5479 316.064 34.4439 315.8 35.2119 315.272C35.9799 314.744 36.5799 314.016 37.0119 313.088C37.4599 312.144 37.6839 311.056 37.6839 309.824C37.6839 308.448 37.4519 307.24 36.9879 306.2C36.5239 305.16 35.8839 304.344 35.0679 303.752C34.2519 303.16 33.2999 302.864 32.2119 302.864C31.2199 302.864 30.3479 303.128 29.5959 303.656C28.8439 304.184 28.2519 304.92 27.8199 305.864C27.4039 306.792 27.1959 307.872 27.1959 309.104C27.1959 310.464 27.4199 311.672 27.8679 312.728C28.3159 313.768 28.9399 314.584 29.7399 315.176C30.5559 315.768 31.4839 316.064 32.5239 316.064ZM49.1272 317.192L49.0552 317.024L49.1512 316.088C49.7912 316.056 50.2632 315.976 50.5672 315.848C50.8712 315.72 51.0232 315.52 51.0232 315.248C51.0232 315.104 50.9832 314.952 50.9032 314.792C50.8232 314.616 50.7032 314.416 50.5432 314.192L47.9272 310.256L45.7192 313.184C45.2552 313.808 44.9352 314.264 44.7592 314.552C44.5832 314.84 44.4952 315.096 44.4952 315.32C44.4952 315.736 44.9592 315.976 45.8872 316.04L45.9352 316.136L45.7672 317.168C45.7672 317.168 45.6712 317.16 45.4792 317.144C45.3032 317.128 45.0712 317.104 44.7832 317.072C44.4952 317.056 44.1992 317.04 43.8952 317.024C43.6072 317.008 43.3512 317 43.1272 317C42.8872 317 42.6312 317 42.3592 317C42.0872 317.016 41.8312 317.032 41.5912 317.048C41.3512 317.064 41.1512 317.072 40.9912 317.072C40.8312 317.088 40.7512 317.096 40.7512 317.096L40.6552 316.928L40.8232 315.944C41.3032 315.8 41.7432 315.584 42.1432 315.296C42.5592 315.008 42.9672 314.64 43.3672 314.192C43.7832 313.744 44.2312 313.224 44.7112 312.632L47.3512 309.368L44.2072 304.664C43.9512 304.264 43.6552 303.928 43.3192 303.656C42.9992 303.384 42.6392 303.168 42.2392 303.008C41.8552 302.848 41.4152 302.736 40.9192 302.672L40.8712 302.576L41.0152 301.64C41.0152 301.64 41.1352 301.648 41.3752 301.664C41.6312 301.664 41.9432 301.672 42.3112 301.688C42.6952 301.688 43.0792 301.696 43.4632 301.712C43.8632 301.712 44.1992 301.712 44.4712 301.712C44.9512 301.712 45.3832 301.704 45.7672 301.688C46.1672 301.672 46.5112 301.648 46.7992 301.616C47.0872 301.584 47.3112 301.56 47.4712 301.544C47.6312 301.528 47.7112 301.52 47.7112 301.52L47.7832 301.688L47.7112 302.528C47.0552 302.576 46.5752 302.664 46.2712 302.792C45.9832 302.92 45.8392 303.12 45.8392 303.392C45.8392 303.584 46.0872 304.088 46.5832 304.904C47.0952 305.704 47.7512 306.72 48.5512 307.952C48.8232 307.584 49.1352 307.168 49.4872 306.704C49.8392 306.24 50.1832 305.784 50.5192 305.336C50.8552 304.872 51.1352 304.456 51.3592 304.088C51.5832 303.72 51.6952 303.456 51.6952 303.296C51.6952 303.072 51.5832 302.912 51.3592 302.816C51.1512 302.704 50.7992 302.624 50.3032 302.576L50.2552 302.48L50.3992 301.544C50.3992 301.544 50.5592 301.56 50.8792 301.592C51.1992 301.608 51.5592 301.632 51.9592 301.664C52.3752 301.696 52.7352 301.712 53.0392 301.712C53.3592 301.712 53.6952 301.704 54.0472 301.688C54.4152 301.672 54.7272 301.656 54.9832 301.64C55.2392 301.624 55.3672 301.616 55.3672 301.616L55.4632 301.784L55.3192 302.672C54.8392 302.768 54.4392 302.904 54.1192 303.08C53.7992 303.256 53.4872 303.512 53.1832 303.848C52.8792 304.168 52.5032 304.608 52.0552 305.168L49.1512 308.84L52.6552 313.952C53.0872 314.576 53.5512 315.048 54.0472 315.368C54.5592 315.672 55.1912 315.864 55.9432 315.944L55.9912 316.04L55.8232 317.072C55.8232 317.072 55.7192 317.064 55.5112 317.048C55.3192 317.048 55.0632 317.04 54.7432 317.024C54.4392 317.024 54.1112 317.016 53.7592 317C53.4232 317 53.1192 317 52.8472 317C52.5752 317 52.2712 317.008 51.9352 317.024C51.6152 317.04 51.2872 317.056 50.9512 317.072C50.6312 317.088 50.3272 317.104 50.0392 317.12C49.7672 317.136 49.5432 317.152 49.3672 317.168C49.2072 317.184 49.1272 317.192 49.1272 317.192ZM59.5732 317.288L59.7172 316.184C60.2932 316.072 60.7092 315.928 60.9652 315.752C61.2372 315.576 61.4052 315.32 61.4692 314.984C61.5492 314.648 61.5892 314.184 61.5892 313.592V312.536C61.5892 312.072 61.5412 311.648 61.4452 311.264C61.3652 310.88 61.1812 310.4 60.8932 309.824L58.7332 305.432C58.4132 304.776 58.1412 304.256 57.9172 303.872C57.7092 303.488 57.4452 303.208 57.1252 303.032C56.8052 302.84 56.3332 302.72 55.7092 302.672L55.6612 302.576L55.8052 301.64C55.8052 301.64 55.8932 301.648 56.0692 301.664C56.2292 301.664 56.4372 301.672 56.6932 301.688C56.9652 301.688 57.2532 301.696 57.5572 301.712C57.8772 301.712 58.1732 301.712 58.4452 301.712C58.7812 301.712 59.1412 301.704 59.5252 301.688C59.9252 301.672 60.3012 301.648 60.6532 301.616C61.0052 301.584 61.2932 301.56 61.5172 301.544C61.7412 301.528 61.8532 301.52 61.8532 301.52L61.9252 301.688L61.8532 302.528C61.1332 302.592 60.6452 302.688 60.3892 302.816C60.1492 302.928 60.0292 303.12 60.0292 303.392C60.0292 303.536 60.1172 303.84 60.2932 304.304C60.4692 304.752 60.6932 305.272 60.9652 305.864C61.2372 306.456 61.5012 307.04 61.7572 307.616C62.0292 308.176 62.2532 308.648 62.4292 309.032C62.6212 309.4 62.7172 309.584 62.7172 309.584H62.8372L65.5732 304.496C65.8292 304.032 65.9572 303.632 65.9572 303.296C65.9572 303.088 65.8292 302.928 65.5732 302.816C65.3332 302.688 64.9572 302.608 64.4452 302.576L64.3972 302.48L64.5412 301.544C64.5412 301.544 64.7012 301.56 65.0212 301.592C65.3412 301.608 65.7092 301.632 66.1252 301.664C66.5572 301.696 66.9172 301.712 67.2052 301.712C67.5252 301.712 67.8532 301.704 68.1892 301.688C68.5252 301.672 68.8132 301.656 69.0532 301.64C69.2932 301.624 69.4132 301.616 69.4132 301.616L69.5092 301.784L69.3652 302.672C68.8212 302.768 68.3972 302.92 68.0932 303.128C67.7892 303.32 67.5092 303.624 67.2532 304.04C66.9972 304.44 66.6532 305.024 66.2212 305.792L63.8212 310.016C63.6612 310.304 63.5412 310.616 63.4612 310.952C63.3972 311.272 63.3572 311.696 63.3412 312.224C63.3252 312.736 63.3092 313.432 63.2932 314.312C63.2772 314.92 63.3412 315.344 63.4852 315.584C63.6452 315.824 63.9332 315.944 64.3492 315.944C64.5892 315.944 64.8452 315.936 65.1172 315.92C65.3892 315.888 65.5252 315.872 65.5252 315.872L65.5732 315.968L65.3572 317.072C65.3572 317.072 65.2452 317.064 65.0212 317.048C64.8132 317.048 64.5492 317.04 64.2292 317.024C63.9092 317.024 63.5732 317.016 63.2212 317C62.8852 317 62.5812 317 62.3092 317C62.0052 317 61.6932 317.016 61.3732 317.048C61.0532 317.08 60.7572 317.112 60.4852 317.144C60.2132 317.176 59.9892 317.208 59.8132 317.24C59.6532 317.272 59.5732 317.288 59.5732 317.288ZM76.5305 317.288C75.1065 317.288 73.8665 316.984 72.8105 316.376C71.7705 315.768 70.9625 314.912 70.3865 313.808C69.8105 312.688 69.5225 311.376 69.5225 309.872C69.5225 308.192 69.8745 306.72 70.5785 305.456C71.2825 304.192 72.2665 303.208 73.5305 302.504C74.8105 301.784 76.2825 301.424 77.9465 301.424C78.4425 301.424 78.9625 301.456 79.5065 301.52C80.0505 301.568 80.5545 301.632 81.0185 301.712C81.4825 301.792 81.8585 301.864 82.1465 301.928C82.4505 301.976 82.6025 302 82.6025 302L82.6985 302.144C82.6985 302.144 82.6585 302.328 82.5785 302.696C82.4985 303.048 82.4025 303.528 82.2905 304.136C82.1945 304.744 82.1225 305.416 82.0745 306.152L80.9465 306.248C80.9465 306.248 80.9545 306.112 80.9705 305.84C81.0025 305.568 81.0185 305.272 81.0185 304.952C81.0185 304.2 80.7305 303.664 80.1545 303.344C79.5945 303.008 78.6745 302.84 77.3945 302.84C76.1785 302.84 75.1385 303.088 74.2745 303.584C73.4105 304.064 72.7465 304.776 72.2825 305.72C71.8345 306.648 71.6105 307.776 71.6105 309.104C71.6105 310.512 71.8345 311.744 72.2825 312.8C72.7465 313.84 73.3865 314.648 74.2025 315.224C75.0185 315.8 75.9785 316.088 77.0825 316.088C77.7225 316.088 78.2905 316.016 78.7865 315.872C79.2825 315.712 79.6665 315.56 79.9385 315.416C80.2265 315.256 80.3705 315.176 80.3705 315.176V312.248C80.3705 311.704 80.2825 311.352 80.1065 311.192C79.9465 311.032 79.5945 310.952 79.0505 310.952C78.8745 310.952 78.6505 310.952 78.3785 310.952C78.1225 310.952 77.8905 310.952 77.6825 310.952C77.4905 310.952 77.3945 310.952 77.3945 310.952L77.3465 310.856L77.5625 309.656C77.5625 309.656 77.7145 309.664 78.0185 309.68C78.3385 309.696 78.7305 309.712 79.1945 309.728C79.6745 309.744 80.1465 309.752 80.6105 309.752C80.9625 309.752 81.2905 309.744 81.5945 309.728C81.9145 309.696 82.1705 309.672 82.3625 309.656C82.5705 309.64 82.6745 309.632 82.6745 309.632L82.7705 310.16C82.5785 310.32 82.4265 310.536 82.3145 310.808C82.2185 311.08 82.1465 311.456 82.0985 311.936C82.0505 312.416 82.0265 313.056 82.0265 313.856C82.0265 314.272 82.0425 314.68 82.0745 315.08C82.1065 315.464 82.1465 315.76 82.1945 315.968L82.0505 316.184C82.0505 316.184 81.8025 316.28 81.3065 316.472C80.8105 316.648 80.1465 316.824 79.3145 317C78.4825 317.192 77.5545 317.288 76.5305 317.288ZM85.9623 317.24L86.1063 316.136C86.8263 316.04 87.3143 315.856 87.5703 315.584C87.8423 315.296 87.9783 314.808 87.9783 314.12L88.0023 304.04C88.0023 303.528 87.9463 303.184 87.8343 303.008C87.7223 302.832 87.4823 302.744 87.1143 302.744C87.0183 302.744 86.8903 302.752 86.7303 302.768C86.5703 302.768 86.4263 302.776 86.2983 302.792L86.2503 302.696L86.4183 301.64C86.6903 301.64 87.0183 301.648 87.4023 301.664C87.7863 301.68 88.1863 301.696 88.6023 301.712C89.0183 301.712 89.4023 301.712 89.7543 301.712C91.0343 301.712 92.1063 301.704 92.9703 301.688C93.8503 301.672 94.6023 301.64 95.2263 301.592C95.8503 301.544 96.4263 301.488 96.9543 301.424L97.0263 301.568C96.9463 301.952 96.8663 302.384 96.7863 302.864C96.7063 303.328 96.6423 303.792 96.5943 304.256C96.5463 304.72 96.5063 305.152 96.4743 305.552L95.3223 305.648C95.3383 305.504 95.3463 305.328 95.3463 305.12C95.3623 304.896 95.3703 304.728 95.3703 304.616C95.3703 304.232 95.3303 303.928 95.2503 303.704C95.1863 303.464 95.0343 303.288 94.7943 303.176C94.5703 303.064 94.2103 302.992 93.7143 302.96C93.2183 302.928 92.5463 302.912 91.6983 302.912C91.1863 302.912 90.8103 302.928 90.5703 302.96C90.3303 302.992 90.1783 303.072 90.1143 303.2C90.0663 303.328 90.0343 303.544 90.0183 303.848L89.7783 309.44L89.6823 314.48C89.6823 314.912 89.7223 315.232 89.8023 315.44C89.8823 315.632 90.0503 315.76 90.3063 315.824C90.5783 315.888 91.0023 315.92 91.5783 315.92C92.5223 315.92 93.2823 315.888 93.8583 315.824C94.4343 315.76 94.8743 315.632 95.1783 315.44C95.4823 315.248 95.7063 314.96 95.8503 314.576C95.9943 314.176 96.1143 313.648 96.2103 312.992L97.2663 312.872L97.3383 312.992C97.2263 313.488 97.1063 314.12 96.9783 314.888C96.8663 315.656 96.7703 316.368 96.6903 317.024L96.5703 317.168C95.6103 317.136 94.6503 317.104 93.6903 317.072C92.7463 317.056 91.8903 317.04 91.1223 317.024C90.3543 317.008 89.7463 317 89.2983 317C88.8023 317 88.2343 317.016 87.5943 317.048C86.9703 317.096 86.4263 317.16 85.9623 317.24ZM89.4423 309.944L89.6583 308.504C89.7703 308.504 89.9863 308.504 90.3063 308.504C90.6263 308.504 90.9703 308.512 91.3383 308.528C91.7063 308.528 92.0263 308.528 92.2983 308.528C92.5703 308.528 92.9863 308.504 93.5463 308.456C94.1223 308.392 94.6823 308.328 95.2263 308.264L95.3223 308.384L94.9863 309.8C94.5383 309.784 93.9783 309.768 93.3063 309.752C92.6503 309.736 92.0903 309.728 91.6263 309.728C91.3223 309.728 90.9623 309.752 90.5463 309.8C90.1463 309.832 89.7783 309.88 89.4423 309.944ZM112.43 317.96C111.262 316.136 110.142 314.424 109.07 312.824C107.998 311.224 107.046 309.824 106.214 308.624C105.382 307.408 104.718 306.456 104.222 305.768C103.742 305.08 103.502 304.736 103.502 304.736H103.382L103.262 314.984C103.262 315.336 103.318 315.584 103.43 315.728C103.542 315.872 103.734 315.944 104.006 315.944C104.086 315.944 104.222 315.944 104.414 315.944C104.622 315.928 104.806 315.92 104.966 315.92C105.142 315.92 105.23 315.92 105.23 315.92L105.278 316.016L105.062 317.096C105.062 317.096 104.974 317.088 104.798 317.072C104.638 317.072 104.43 317.064 104.174 317.048C103.918 317.032 103.638 317.016 103.334 317C103.046 317 102.774 317 102.518 317C102.198 317 101.862 317.016 101.51 317.048C101.174 317.08 100.886 317.112 100.646 317.144C100.406 317.176 100.286 317.192 100.286 317.192L100.406 316.088C100.902 316.024 101.27 315.88 101.51 315.656C101.75 315.432 101.878 315.072 101.894 314.576L102.206 304.088C102.206 303.592 102.054 303.24 101.75 303.032C101.462 302.824 100.918 302.68 100.118 302.6L100.046 302.48L100.238 301.592C100.238 301.592 100.358 301.6 100.598 301.616C100.854 301.632 101.142 301.656 101.462 301.688C101.798 301.704 102.078 301.712 102.302 301.712C102.574 301.712 102.83 301.704 103.07 301.688C103.31 301.672 103.51 301.656 103.67 301.64C103.83 301.624 103.91 301.616 103.91 301.616C104.71 302.848 105.494 304.048 106.262 305.216C107.046 306.384 107.782 307.472 108.47 308.48C109.158 309.488 109.766 310.368 110.294 311.12C110.822 311.872 111.23 312.464 111.518 312.896C111.822 313.312 111.974 313.52 111.974 313.52H112.094V303.8C112.094 303.448 112.03 303.192 111.902 303.032C111.774 302.856 111.574 302.768 111.302 302.768C111.094 302.768 110.886 302.776 110.678 302.792C110.486 302.792 110.39 302.792 110.39 302.792L110.342 302.696L110.558 301.616C110.558 301.616 110.638 301.624 110.798 301.64C110.958 301.64 111.158 301.648 111.398 301.664C111.638 301.68 111.886 301.696 112.142 301.712C112.398 301.712 112.63 301.712 112.838 301.712C113.174 301.712 113.526 301.696 113.894 301.664C114.262 301.632 114.574 301.6 114.83 301.568C115.086 301.536 115.214 301.52 115.214 301.52L115.094 302.624C114.55 302.688 114.142 302.84 113.87 303.08C113.614 303.32 113.478 303.672 113.462 304.136L113.126 317.624L112.43 317.96Z" fill="#222222"/>
<path d="M128 299.667H178.89C180.547 299.667 181.89 298.324 181.89 296.667V291.702C181.89 290.907 182.774 290.43 183.439 290.866L207.933 306.919C208.531 307.311 208.537 308.186 207.944 308.585L183.449 325.073C182.785 325.52 181.89 325.044 181.89 324.243V319.333C181.89 317.676 180.547 316.333 178.89 316.333H128C127.448 316.333 127 315.886 127 315.333V300.667C127 300.114 127.448 299.667 128 299.667Z" fill="white" stroke="black" stroke-width="2"/>
<path d="M62.4311 236.288L62.5751 235.184C63.3271 235.04 63.8231 234.832 64.0631 234.56C64.3191 234.272 64.4471 233.792 64.4471 233.12L64.4711 223.04C64.4711 222.528 64.4151 222.184 64.3031 222.008C64.1911 221.832 63.9511 221.744 63.5831 221.744C63.4391 221.744 63.2631 221.752 63.0551 221.768C62.8631 221.784 62.7671 221.792 62.7671 221.792L62.7191 221.696L62.8871 220.64C62.8871 220.64 62.9911 220.648 63.1991 220.664C63.4071 220.664 63.6791 220.672 64.0151 220.688C64.3511 220.688 64.7111 220.696 65.0951 220.712C65.4951 220.712 65.8711 220.712 66.2231 220.712C67.3271 220.712 68.2871 220.704 69.1031 220.688C69.9191 220.672 70.6391 220.64 71.2631 220.592C71.9031 220.544 72.4711 220.488 72.9671 220.424L73.0391 220.568C73.0391 220.568 72.9991 220.752 72.9191 221.12C72.8551 221.488 72.7751 221.984 72.6791 222.608C72.5991 223.216 72.5351 223.888 72.4871 224.624L71.3351 224.72C71.3351 224.72 71.3431 224.576 71.3591 224.288C71.3751 224 71.3831 223.776 71.3831 223.616C71.3831 223.088 71.3191 222.704 71.1911 222.464C71.0631 222.224 70.7671 222.072 70.3031 222.008C69.8551 221.944 69.1431 221.912 68.1671 221.912C67.6551 221.912 67.2791 221.928 67.0391 221.96C66.7991 221.992 66.6471 222.072 66.5831 222.2C66.5351 222.328 66.5031 222.544 66.4871 222.848L66.2951 227.912L68.7671 227.936C69.0231 227.936 69.3431 227.912 69.7271 227.864C70.1271 227.816 70.4871 227.776 70.8071 227.744C71.1271 227.696 71.2871 227.672 71.2871 227.672L71.3831 227.792L71.0471 229.232C71.0471 229.232 70.8791 229.224 70.5431 229.208C70.2071 229.192 69.8071 229.184 69.3431 229.184C68.8951 229.168 68.4791 229.16 68.0951 229.16C67.7431 229.16 67.3991 229.184 67.0631 229.232C66.7271 229.264 66.4551 229.296 66.2471 229.328L66.1511 233.312C66.1511 233.952 66.2231 234.384 66.3671 234.608C66.5111 234.832 66.7911 234.944 67.2071 234.944C67.3671 234.944 67.5831 234.936 67.8551 234.92C68.1271 234.904 68.3671 234.896 68.5751 234.896C68.7991 234.88 68.9111 234.872 68.9111 234.872L68.9591 234.968L68.7431 236.096C68.7431 236.096 68.6151 236.088 68.3591 236.072C68.1191 236.072 67.8071 236.064 67.4231 236.048C67.0551 236.032 66.6631 236.016 66.2471 236C65.8471 236 65.4871 236 65.1671 236C64.7671 236 64.3511 236.024 63.9191 236.072C63.5031 236.12 63.1511 236.168 62.8631 236.216C62.5751 236.264 62.4311 236.288 62.4311 236.288ZM81.1683 236.288C79.4883 236.288 78.1923 235.832 77.2803 234.92C76.3683 233.992 75.9123 232.68 75.9123 230.984V223.04C75.9123 222.528 75.8563 222.184 75.7443 222.008C75.6323 221.832 75.3923 221.744 75.0243 221.744C74.8803 221.744 74.7043 221.752 74.4963 221.768C74.3043 221.784 74.2083 221.792 74.2083 221.792L74.1603 221.696L74.3283 220.64C74.3283 220.64 74.4883 220.648 74.8083 220.664C75.1443 220.68 75.5203 220.696 75.9363 220.712C76.3683 220.712 76.7363 220.712 77.0403 220.712C77.2963 220.712 77.5683 220.704 77.8563 220.688C78.1603 220.656 78.4403 220.632 78.6963 220.616C78.9523 220.584 79.1603 220.56 79.3203 220.544C79.4803 220.512 79.5603 220.496 79.5603 220.496L79.4643 221.576C78.8723 221.656 78.4723 221.792 78.2643 221.984C78.0723 222.16 77.9603 222.48 77.9283 222.944L77.7363 230C77.7363 231.584 78.0803 232.8 78.7683 233.648C79.4563 234.496 80.4483 234.92 81.7443 234.92C83.0563 234.92 84.0563 234.576 84.7443 233.888C85.4323 233.184 85.7763 232.176 85.7763 230.864C85.7763 230.528 85.7683 230.048 85.7523 229.424C85.7523 228.8 85.7443 228.128 85.7283 227.408C85.7123 226.672 85.6963 225.976 85.6803 225.32C85.6643 224.648 85.6483 224.104 85.6323 223.688C85.6323 223.256 85.6323 223.04 85.6323 223.04C85.6003 222.48 85.5283 222.128 85.4163 221.984C85.3203 221.824 85.0963 221.744 84.7443 221.744C84.6003 221.744 84.3923 221.752 84.1203 221.768C83.8483 221.784 83.7123 221.792 83.7123 221.792L83.6643 221.696L83.8323 220.64C83.8323 220.64 83.9283 220.648 84.1203 220.664C84.3123 220.664 84.5523 220.672 84.8403 220.688C85.1283 220.688 85.4243 220.696 85.7283 220.712C86.0483 220.712 86.3203 220.712 86.5443 220.712C86.8963 220.712 87.2483 220.696 87.6003 220.664C87.9523 220.632 88.2483 220.6 88.4883 220.568C88.7443 220.52 88.8723 220.496 88.8723 220.496L88.7763 221.576C88.0883 221.672 87.6403 221.8 87.4323 221.96C87.2243 222.12 87.1203 222.448 87.1203 222.944V231.008C87.1203 232.688 86.6003 233.992 85.5603 234.92C84.5203 235.832 83.0563 236.288 81.1683 236.288ZM91.0483 236.24L91.1923 235.136C91.9123 235.04 92.4003 234.856 92.6562 234.584C92.9283 234.296 93.0643 233.808 93.0643 233.12L93.0883 223.04C93.0883 222.528 93.0323 222.184 92.9203 222.008C92.8083 221.832 92.5683 221.744 92.2003 221.744C92.1043 221.744 91.9763 221.752 91.8163 221.768C91.6563 221.768 91.5123 221.776 91.3843 221.792L91.3363 221.696L91.5043 220.64C91.7763 220.64 92.1043 220.648 92.4883 220.664C92.8723 220.68 93.2723 220.696 93.6883 220.712C94.1043 220.712 94.4883 220.712 94.8403 220.712C96.1203 220.712 97.1923 220.704 98.0563 220.688C98.9363 220.672 99.6883 220.64 100.312 220.592C100.936 220.544 101.512 220.488 102.04 220.424L102.112 220.568C102.032 220.952 101.952 221.384 101.872 221.864C101.792 222.328 101.728 222.792 101.68 223.256C101.632 223.72 101.592 224.152 101.56 224.552L100.408 224.648C100.424 224.504 100.432 224.328 100.432 224.12C100.448 223.896 100.456 223.728 100.456 223.616C100.456 223.232 100.416 222.928 100.336 222.704C100.272 222.464 100.12 222.288 99.8803 222.176C99.6563 222.064 99.2963 221.992 98.8003 221.96C98.3043 221.928 97.6323 221.912 96.7843 221.912C96.2723 221.912 95.8963 221.928 95.6562 221.96C95.4163 221.992 95.2643 222.072 95.2003 222.2C95.1523 222.328 95.1203 222.544 95.1043 222.848L94.8643 228.44L94.7683 233.48C94.7683 233.912 94.8083 234.232 94.8883 234.44C94.9683 234.632 95.1363 234.76 95.3923 234.824C95.6643 234.888 96.0883 234.92 96.6643 234.92C97.6083 234.92 98.3683 234.888 98.9443 234.824C99.5203 234.76 99.9603 234.632 100.264 234.44C100.568 234.248 100.792 233.96 100.936 233.576C101.08 233.176 101.2 232.648 101.296 231.992L102.352 231.872L102.424 231.992C102.312 232.488 102.192 233.12 102.064 233.888C101.952 234.656 101.856 235.368 101.776 236.024L101.656 236.168C100.696 236.136 99.7363 236.104 98.7763 236.072C97.8323 236.056 96.9763 236.04 96.2083 236.024C95.4403 236.008 94.8323 236 94.3843 236C93.8883 236 93.3203 236.016 92.6803 236.048C92.0563 236.096 91.5123 236.16 91.0483 236.24ZM94.5283 228.944L94.7443 227.504C94.8563 227.504 95.0723 227.504 95.3923 227.504C95.7123 227.504 96.0563 227.512 96.4243 227.528C96.7923 227.528 97.1123 227.528 97.3843 227.528C97.6563 227.528 98.0723 227.504 98.6323 227.456C99.2083 227.392 99.7683 227.328 100.312 227.264L100.408 227.384L100.072 228.8C99.6243 228.784 99.0643 228.768 98.3923 228.752C97.7363 228.736 97.1763 228.728 96.7122 228.728C96.4083 228.728 96.0483 228.752 95.6323 228.8C95.2323 228.832 94.8643 228.88 94.5283 228.944ZM105.468 236.24L105.612 235.136C106.236 235.04 106.66 234.856 106.884 234.584C107.124 234.296 107.244 233.808 107.244 233.12L107.268 223.04C107.268 222.528 107.212 222.184 107.1 222.008C106.988 221.832 106.748 221.744 106.38 221.744C106.236 221.744 106.06 221.752 105.852 221.768C105.66 221.784 105.564 221.792 105.564 221.792L105.516 221.696L105.684 220.64C105.684 220.64 105.844 220.648 106.164 220.664C106.484 220.68 106.852 220.696 107.268 220.712C107.7 220.712 108.068 220.712 108.372 220.712C108.628 220.712 108.9 220.704 109.188 220.688C109.492 220.656 109.772 220.632 110.028 220.616C110.3 220.584 110.516 220.56 110.676 220.544C110.852 220.512 110.94 220.496 110.94 220.496L110.844 221.576C110.316 221.64 109.948 221.744 109.74 221.888C109.532 222.032 109.412 222.256 109.38 222.56C109.348 222.848 109.308 223.264 109.26 223.808C109.196 224.8 109.14 225.88 109.092 227.048C109.044 228.2 109.012 229.312 108.996 230.384C108.98 231.44 108.972 232.336 108.972 233.072C108.972 233.616 109.012 234.024 109.092 234.296C109.188 234.552 109.38 234.72 109.668 234.8C109.972 234.88 110.42 234.92 111.012 234.92C111.716 234.92 112.284 234.88 112.716 234.8C113.148 234.72 113.492 234.56 113.748 234.32C114.02 234.08 114.236 233.736 114.396 233.288C114.556 232.84 114.7 232.248 114.828 231.512L115.884 231.392L115.956 231.512C115.956 231.512 115.916 231.728 115.836 232.16C115.756 232.592 115.66 233.152 115.548 233.84C115.452 234.528 115.356 235.272 115.26 236.072L115.14 236.216C115.14 236.216 114.916 236.2 114.468 236.168C114.02 236.152 113.452 236.128 112.764 236.096C112.076 236.08 111.364 236.056 110.628 236.024C109.908 236.008 109.26 236 108.684 236C108.092 236 107.548 236.016 107.052 236.048C106.572 236.096 106.188 236.136 105.9 236.168C105.612 236.216 105.468 236.24 105.468 236.24Z" fill="#222222"/>
<path d="M128 218.667H178.89C180.547 218.667 181.89 217.324 181.89 215.667V210.702C181.89 209.907 182.774 209.43 183.439 209.866L207.933 225.919C208.531 226.311 208.537 227.186 207.944 227.585L183.449 244.073C182.785 244.52 181.89 244.044 181.89 243.243V238.333C181.89 236.676 180.547 235.333 178.89 235.333H128C127.448 235.333 127 234.886 127 234.333V219.667C127 219.114 127.448 218.667 128 218.667Z" fill="white" stroke="black" stroke-width="2"/>
<path d="M719.218 276.288C717.794 276.288 716.554 275.984 715.498 275.376C714.458 274.768 713.65 273.912 713.074 272.808C712.498 271.688 712.21 270.376 712.21 268.872C712.21 267.192 712.562 265.72 713.266 264.456C713.97 263.192 714.954 262.208 716.218 261.504C717.498 260.784 718.97 260.424 720.634 260.424C721.13 260.424 721.65 260.456 722.194 260.52C722.738 260.568 723.242 260.632 723.706 260.712C724.17 260.792 724.546 260.864 724.834 260.928C725.138 260.976 725.29 261 725.29 261L725.386 261.144C725.386 261.144 725.346 261.328 725.266 261.696C725.186 262.048 725.09 262.528 724.978 263.136C724.882 263.744 724.81 264.416 724.762 265.152L723.634 265.248C723.634 265.248 723.642 265.112 723.658 264.84C723.69 264.568 723.706 264.272 723.706 263.952C723.706 263.2 723.418 262.664 722.842 262.344C722.282 262.008 721.362 261.84 720.082 261.84C718.866 261.84 717.826 262.088 716.962 262.584C716.098 263.064 715.434 263.776 714.97 264.72C714.522 265.648 714.298 266.776 714.298 268.104C714.298 269.512 714.522 270.744 714.97 271.8C715.434 272.84 716.074 273.648 716.89 274.224C717.706 274.8 718.666 275.088 719.77 275.088C720.41 275.088 720.978 275.016 721.474 274.872C721.97 274.712 722.354 274.56 722.626 274.416C722.914 274.256 723.058 274.176 723.058 274.176V271.248C723.058 270.704 722.97 270.352 722.794 270.192C722.634 270.032 722.282 269.952 721.738 269.952C721.562 269.952 721.338 269.952 721.066 269.952C720.81 269.952 720.578 269.952 720.37 269.952C720.178 269.952 720.082 269.952 720.082 269.952L720.034 269.856L720.25 268.656C720.25 268.656 720.402 268.664 720.706 268.68C721.026 268.696 721.418 268.712 721.882 268.728C722.362 268.744 722.834 268.752 723.298 268.752C723.65 268.752 723.978 268.744 724.282 268.728C724.602 268.696 724.858 268.672 725.05 268.656C725.258 268.64 725.362 268.632 725.362 268.632L725.458 269.16C725.266 269.32 725.114 269.536 725.002 269.808C724.906 270.08 724.834 270.456 724.786 270.936C724.738 271.416 724.714 272.056 724.714 272.856C724.714 273.272 724.73 273.68 724.762 274.08C724.794 274.464 724.834 274.76 724.882 274.968L724.738 275.184C724.738 275.184 724.49 275.28 723.994 275.472C723.498 275.648 722.834 275.824 722.002 276C721.17 276.192 720.242 276.288 719.218 276.288ZM735.226 276.24L735.154 276.072L735.25 275.136C735.81 275.088 736.242 275.032 736.546 274.968C736.85 274.904 737.066 274.816 737.194 274.704C737.322 274.576 737.386 274.416 737.386 274.224C737.386 274.064 737.37 273.888 737.338 273.696C737.306 273.504 737.25 273.296 737.17 273.072L736.378 270.456C736.09 270.44 735.682 270.432 735.154 270.432C734.642 270.432 734.218 270.432 733.882 270.432C733.418 270.432 732.93 270.456 732.418 270.504C731.922 270.552 731.538 270.592 731.266 270.624L730.378 273.12C730.234 273.552 730.162 273.864 730.162 274.056C730.162 274.408 730.274 274.664 730.498 274.824C730.738 274.968 731.106 275.04 731.602 275.04H732.97L733.018 275.136L732.874 276.168C732.874 276.168 732.706 276.152 732.37 276.12C732.034 276.088 731.61 276.056 731.098 276.024C730.586 276.008 730.066 276 729.538 276C729.154 276 728.754 276 728.338 276C727.938 276.016 727.594 276.032 727.306 276.048C727.034 276.064 726.898 276.072 726.898 276.072L727.09 274.944C727.538 274.896 727.898 274.744 728.17 274.488C728.442 274.232 728.706 273.768 728.962 273.096L733.642 260.832L735.154 260.424H735.346C735.346 260.424 735.394 260.616 735.49 261C735.602 261.368 735.746 261.888 735.922 262.56C736.114 263.216 736.33 263.976 736.57 264.84C736.826 265.688 737.09 266.592 737.362 267.552C737.65 268.512 737.946 269.488 738.25 270.48C738.554 271.456 738.858 272.392 739.162 273.288C739.354 273.88 739.61 274.296 739.93 274.536C740.266 274.776 740.778 274.928 741.466 274.992L741.514 275.088L741.346 276.072C741.346 276.072 741.186 276.064 740.866 276.048C740.562 276.032 740.21 276.016 739.81 276C739.41 276 739.074 276 738.802 276C738.194 276 737.61 276.016 737.05 276.048C736.506 276.096 736.066 276.136 735.73 276.168C735.394 276.216 735.226 276.24 735.226 276.24ZM731.698 269.448H733.81C734.13 269.448 734.514 269.432 734.962 269.4C735.41 269.368 735.77 269.344 736.042 269.328L734.146 263.04H733.978L731.698 269.448ZM746.529 276.288C745.777 276.288 745.113 276.216 744.537 276.072C743.977 275.944 743.537 275.816 743.217 275.688C742.913 275.544 742.761 275.472 742.761 275.472L742.641 275.232C742.641 275.232 742.657 275.128 742.689 274.92C742.721 274.696 742.753 274.4 742.785 274.032C742.817 273.648 742.849 273.2 742.881 272.688C742.913 272.176 742.929 271.632 742.929 271.056L744.009 270.936C744.009 272.088 744.089 272.968 744.249 273.576C744.409 274.168 744.713 274.576 745.161 274.8C745.609 275.008 746.265 275.112 747.129 275.112C748.121 275.112 748.921 274.88 749.529 274.416C750.153 273.936 750.465 273.288 750.465 272.472C750.465 271.944 750.289 271.488 749.937 271.104C749.585 270.72 749.129 270.368 748.569 270.048C748.025 269.728 747.441 269.408 746.817 269.088C746.177 268.752 745.553 268.392 744.945 268.008C744.353 267.624 743.865 267.184 743.481 266.688C743.097 266.176 742.905 265.576 742.905 264.888C742.905 264.04 743.145 263.28 743.625 262.608C744.121 261.936 744.785 261.408 745.617 261.024C746.449 260.624 747.385 260.424 748.425 260.424C749.145 260.424 749.777 260.472 750.321 260.568C750.881 260.664 751.313 260.768 751.617 260.88C751.937 260.976 752.097 261.024 752.097 261.024L752.169 261.168C752.169 261.168 752.129 261.352 752.049 261.72C751.985 262.088 751.913 262.584 751.833 263.208C751.753 263.816 751.689 264.488 751.641 265.224L750.705 265.32L750.561 265.2C750.561 265.2 750.569 265.088 750.585 264.864C750.617 264.624 750.633 264.32 750.633 263.952C750.633 263.104 750.425 262.52 750.009 262.2C749.609 261.88 748.865 261.72 747.777 261.72C746.897 261.72 746.169 261.944 745.593 262.392C745.033 262.824 744.753 263.368 744.753 264.024C744.753 264.504 744.905 264.936 745.209 265.32C745.513 265.688 745.913 266.024 746.409 266.328C746.905 266.632 747.441 266.936 748.017 267.24C748.721 267.592 749.409 267.968 750.081 268.368C750.769 268.768 751.337 269.224 751.785 269.736C752.233 270.248 752.457 270.872 752.457 271.608C752.457 272.52 752.201 273.328 751.689 274.032C751.193 274.736 750.497 275.288 749.601 275.688C748.721 276.088 747.697 276.288 746.529 276.288Z" fill="black"/>
<path d="M766 258.667H816.89C818.547 258.667 819.89 257.324 819.89 255.667V250.702C819.89 249.907 820.774 249.43 821.439 249.866L845.933 265.919C846.531 266.311 846.537 267.186 845.944 267.585L821.449 284.073C820.785 284.52 819.89 284.044 819.89 283.243V278.333C819.89 276.676 818.547 275.333 816.89 275.333H766C765.448 275.333 765 274.886 765 274.333V259.667C765 259.114 765.448 258.667 766 258.667Z" fill="white" stroke="black" stroke-width="2"/>
</svg>
