<svg width="887" height="409" viewBox="0 0 887 409" fill="none" xmlns="http://www.w3.org/2000/svg">
<g clip-path="url(#clip0_3_16)">
<rect width="887" height="409" fill="white"/>
<path d="M231 176.953L231 357.953H275V176.953H231Z" fill="white"/>
<path d="M799 176.953L689.09 222.749C667.247 231.85 642.699 231.983 620.759 223.118L524.721 183.507C514.007 179.178 502.56 176.953 491.005 176.953H275M799 357.953L689.09 312.157C667.247 303.056 642.699 302.923 620.759 311.788L524.721 351.399C514.007 355.728 502.56 357.953 491.005 357.953H275M275 176.953H231L231 357.953H275M275 176.953V357.953" stroke="black" stroke-width="4"/>
<path d="M297.826 52L297.826 51L297.12 51L296.884 51.6642L297.826 52ZM254.146 174.5L262.942 167.02L252.066 163.142L254.146 174.5ZM322.826 51L297.826 51L297.826 53L322.826 53L322.826 51ZM296.884 51.6642L256.226 165.687L258.11 166.359L298.767 52.3359L296.884 51.6642Z" fill="black"/>
<path d="M336.093 60.168C335.773 60.168 335.525 60.08 335.349 59.904C335.189 59.712 335.109 59.456 335.109 59.136V43.944C335.109 43.608 335.189 43.352 335.349 43.176C335.525 43 335.773 42.912 336.093 42.912C336.413 42.912 336.653 43 336.813 43.176C336.989 43.352 337.077 43.608 337.077 43.944V59.136C337.077 59.456 336.997 59.712 336.837 59.904C336.677 60.08 336.429 60.168 336.093 60.168ZM342.209 60.168C341.905 60.168 341.673 60.088 341.513 59.928C341.353 59.752 341.273 59.504 341.273 59.184V43.92C341.273 43.6 341.353 43.352 341.513 43.176C341.673 43 341.881 42.912 342.137 42.912C342.393 42.912 342.577 42.96 342.689 43.056C342.817 43.136 342.961 43.288 343.121 43.512L353.585 57.456H353.009V43.872C353.009 43.568 353.089 43.336 353.249 43.176C353.409 43 353.641 42.912 353.945 42.912C354.233 42.912 354.449 43 354.593 43.176C354.753 43.336 354.833 43.568 354.833 43.872V59.208C354.833 59.512 354.761 59.752 354.617 59.928C354.489 60.088 354.297 60.168 354.041 60.168C353.801 60.168 353.609 60.12 353.465 60.024C353.321 59.928 353.169 59.776 353.009 59.568L342.569 45.624H343.121V59.184C343.121 59.504 343.041 59.752 342.881 59.928C342.721 60.088 342.497 60.168 342.209 60.168ZM357.622 60.144C357.318 60.16 357.086 60.08 356.926 59.904C356.75 59.728 356.662 59.512 356.662 59.256C356.662 59.064 356.726 58.888 356.854 58.728C356.966 58.568 357.15 58.48 357.406 58.464L358.15 58.416C358.966 58.352 359.59 58.072 360.022 57.576C360.454 57.064 360.67 56.368 360.67 55.488V43.92C360.67 43.584 360.75 43.336 360.91 43.176C361.086 43 361.334 42.912 361.654 42.912C361.974 42.912 362.214 43 362.374 43.176C362.55 43.336 362.638 43.584 362.638 43.92V55.512C362.638 56.424 362.478 57.216 362.158 57.888C361.838 58.544 361.358 59.056 360.718 59.424C360.094 59.792 359.326 60.008 358.414 60.072L357.622 60.144ZM367.9 60C367.548 60 367.276 59.912 367.084 59.736C366.908 59.544 366.82 59.272 366.82 58.92V44.16C366.82 43.808 366.908 43.544 367.084 43.368C367.276 43.176 367.548 43.08 367.9 43.08H376.828C377.1 43.08 377.308 43.152 377.452 43.296C377.596 43.44 377.668 43.64 377.668 43.896C377.668 44.168 377.596 44.376 377.452 44.52C377.308 44.664 377.1 44.736 376.828 44.736H368.74V50.592H376.324C376.596 50.592 376.804 50.664 376.948 50.808C377.092 50.936 377.164 51.136 377.164 51.408C377.164 51.68 377.092 51.888 376.948 52.032C376.804 52.176 376.596 52.248 376.324 52.248H368.74V58.344H376.828C377.1 58.344 377.308 58.416 377.452 58.56C377.596 58.704 377.668 58.904 377.668 59.16C377.668 59.432 377.596 59.64 377.452 59.784C377.308 59.928 377.1 60 376.828 60H367.9ZM388.061 60.216C386.397 60.216 384.973 59.864 383.789 59.16C382.605 58.456 381.693 57.456 381.053 56.16C380.429 54.864 380.117 53.32 380.117 51.528C380.117 50.184 380.293 48.984 380.645 47.928C381.013 46.856 381.533 45.952 382.205 45.216C382.893 44.464 383.733 43.888 384.725 43.488C385.717 43.072 386.829 42.864 388.061 42.864C389.053 42.864 389.997 43.008 390.893 43.296C391.789 43.568 392.565 43.976 393.221 44.52C393.429 44.68 393.565 44.864 393.629 45.072C393.709 45.264 393.717 45.456 393.653 45.648C393.605 45.824 393.509 45.976 393.365 46.104C393.237 46.216 393.077 46.272 392.885 46.272C392.693 46.272 392.477 46.192 392.237 46.032C391.661 45.568 391.029 45.224 390.341 45C389.653 44.776 388.909 44.664 388.109 44.664C386.845 44.664 385.773 44.936 384.893 45.48C384.013 46.008 383.349 46.784 382.901 47.808C382.453 48.832 382.229 50.072 382.229 51.528C382.229 52.984 382.453 54.232 382.901 55.272C383.349 56.296 384.013 57.08 384.893 57.624C385.773 58.152 386.845 58.416 388.109 58.416C388.893 58.416 389.637 58.304 390.341 58.08C391.045 57.84 391.693 57.488 392.285 57.024C392.525 56.864 392.741 56.792 392.933 56.808C393.125 56.808 393.285 56.864 393.413 56.976C393.541 57.088 393.629 57.232 393.677 57.408C393.741 57.584 393.741 57.768 393.677 57.96C393.629 58.152 393.509 58.32 393.317 58.464C392.645 59.04 391.853 59.48 390.941 59.784C390.045 60.072 389.085 60.216 388.061 60.216ZM401.791 60.168C401.487 60.168 401.247 60.08 401.071 59.904C400.895 59.712 400.807 59.456 400.807 59.136V44.784H395.407C395.119 44.784 394.895 44.704 394.735 44.544C394.575 44.384 394.495 44.176 394.495 43.92C394.495 43.648 394.575 43.44 394.735 43.296C394.895 43.152 395.119 43.08 395.407 43.08H408.199C408.487 43.08 408.711 43.152 408.871 43.296C409.031 43.44 409.111 43.648 409.111 43.92C409.111 44.192 409.031 44.408 408.871 44.568C408.711 44.712 408.487 44.784 408.199 44.784H402.799V59.136C402.799 59.456 402.711 59.712 402.535 59.904C402.375 60.08 402.127 60.168 401.791 60.168ZM417.142 60.216C415.574 60.216 414.206 59.864 413.038 59.16C411.886 58.44 410.99 57.432 410.35 56.136C409.726 54.84 409.414 53.304 409.414 51.528C409.414 50.184 409.59 48.984 409.942 47.928C410.31 46.856 410.83 45.952 411.502 45.216C412.174 44.464 412.982 43.888 413.926 43.488C414.886 43.072 415.958 42.864 417.142 42.864C418.742 42.864 420.118 43.216 421.27 43.92C422.438 44.624 423.334 45.624 423.958 46.92C424.598 48.2 424.918 49.728 424.918 51.504C424.918 52.848 424.734 54.056 424.366 55.128C423.998 56.2 423.478 57.112 422.806 57.864C422.134 58.616 421.318 59.2 420.358 59.616C419.414 60.016 418.342 60.216 417.142 60.216ZM417.142 58.464C418.358 58.464 419.382 58.192 420.214 57.648C421.062 57.104 421.71 56.312 422.158 55.272C422.606 54.232 422.83 52.984 422.83 51.528C422.83 49.336 422.334 47.64 421.342 46.44C420.366 45.224 418.966 44.616 417.142 44.616C415.958 44.616 414.942 44.888 414.094 45.432C413.262 45.976 412.622 46.768 412.174 47.808C411.726 48.832 411.502 50.072 411.502 51.528C411.502 53.704 411.998 55.408 412.99 56.64C413.982 57.856 415.366 58.464 417.142 58.464ZM429.421 60.168C429.101 60.168 428.853 60.08 428.677 59.904C428.517 59.712 428.437 59.456 428.437 59.136V44.088C428.437 43.752 428.525 43.504 428.701 43.344C428.877 43.168 429.125 43.08 429.445 43.08H435.133C436.941 43.08 438.333 43.504 439.309 44.352C440.285 45.2 440.773 46.408 440.773 47.976C440.773 48.968 440.549 49.832 440.101 50.568C439.669 51.288 439.029 51.84 438.181 52.224C437.333 52.592 436.317 52.776 435.133 52.776L435.373 52.464H435.853C436.477 52.464 437.021 52.624 437.485 52.944C437.949 53.264 438.373 53.776 438.757 54.48L441.061 58.776C441.189 59 441.245 59.224 441.229 59.448C441.229 59.656 441.157 59.832 441.013 59.976C440.869 60.104 440.661 60.168 440.389 60.168C440.117 60.168 439.893 60.104 439.717 59.976C439.541 59.848 439.389 59.664 439.261 59.424L436.645 54.576C436.277 53.888 435.853 53.432 435.373 53.208C434.893 52.968 434.261 52.848 433.477 52.848H430.405V59.136C430.405 59.456 430.325 59.712 430.165 59.904C430.005 60.08 429.757 60.168 429.421 60.168ZM430.405 51.288H434.845C436.157 51.288 437.149 51.016 437.821 50.472C438.493 49.912 438.829 49.08 438.829 47.976C438.829 46.904 438.493 46.096 437.821 45.552C437.149 44.992 436.157 44.712 434.845 44.712H430.405V51.288Z" fill="black"/>
<path d="M698.826 105L698.826 104L698.12 104L697.884 104.664L698.826 105ZM655.146 227.5L663.942 220.02L653.066 216.142L655.146 227.5ZM723.826 104L698.826 104L698.826 106L723.826 106L723.826 104ZM697.884 104.664L657.226 218.687L659.11 219.359L699.767 105.336L697.884 104.664Z" fill="black"/>
<path d="M737.045 113.168C736.741 113.168 736.509 113.088 736.349 112.928C736.189 112.752 736.109 112.504 736.109 112.184V96.92C736.109 96.6 736.189 96.352 736.349 96.176C736.509 96 736.717 95.912 736.973 95.912C737.229 95.912 737.413 95.96 737.525 96.056C737.653 96.136 737.797 96.288 737.957 96.512L748.421 110.456H747.845V96.872C747.845 96.568 747.925 96.336 748.085 96.176C748.245 96 748.477 95.912 748.781 95.912C749.069 95.912 749.285 96 749.429 96.176C749.589 96.336 749.669 96.568 749.669 96.872V112.208C749.669 112.512 749.597 112.752 749.453 112.928C749.325 113.088 749.133 113.168 748.877 113.168C748.637 113.168 748.445 113.12 748.301 113.024C748.157 112.928 748.005 112.776 747.845 112.568L737.405 98.624H737.957V112.184C737.957 112.504 737.877 112.752 737.717 112.928C737.557 113.088 737.333 113.168 737.045 113.168ZM760.978 113.216C759.41 113.216 758.042 112.864 756.874 112.16C755.722 111.44 754.826 110.432 754.186 109.136C753.562 107.84 753.25 106.304 753.25 104.528C753.25 103.184 753.426 101.984 753.778 100.928C754.146 99.856 754.666 98.952 755.338 98.216C756.01 97.464 756.818 96.888 757.762 96.488C758.722 96.072 759.794 95.864 760.978 95.864C762.578 95.864 763.954 96.216 765.106 96.92C766.274 97.624 767.17 98.624 767.794 99.92C768.434 101.2 768.754 102.728 768.754 104.504C768.754 105.848 768.57 107.056 768.202 108.128C767.834 109.2 767.314 110.112 766.642 110.864C765.97 111.616 765.154 112.2 764.194 112.616C763.25 113.016 762.178 113.216 760.978 113.216ZM760.978 111.464C762.194 111.464 763.218 111.192 764.05 110.648C764.898 110.104 765.546 109.312 765.994 108.272C766.442 107.232 766.666 105.984 766.666 104.528C766.666 102.336 766.17 100.64 765.178 99.44C764.202 98.224 762.802 97.616 760.978 97.616C759.794 97.616 758.778 97.888 757.93 98.432C757.098 98.976 756.458 99.768 756.01 100.808C755.562 101.832 755.338 103.072 755.338 104.528C755.338 106.704 755.834 108.408 756.826 109.64C757.818 110.856 759.202 111.464 760.978 111.464ZM771.897 113C771.641 113 771.433 112.952 771.273 112.856C771.113 112.744 771.001 112.6 770.937 112.424C770.873 112.232 770.865 112.024 770.913 111.8C770.977 111.56 771.105 111.32 771.297 111.08L781.281 97.016V97.784H771.753C771.449 97.784 771.217 97.712 771.057 97.568C770.897 97.408 770.817 97.192 770.817 96.92C770.817 96.648 770.897 96.44 771.057 96.296C771.217 96.152 771.449 96.08 771.753 96.08H782.169C782.425 96.08 782.633 96.136 782.793 96.248C782.969 96.344 783.081 96.48 783.129 96.656C783.193 96.832 783.193 97.04 783.129 97.28C783.081 97.52 782.969 97.76 782.793 98L772.809 112.04V111.296H782.673C782.977 111.296 783.209 111.368 783.369 111.512C783.529 111.656 783.609 111.864 783.609 112.136C783.609 112.424 783.529 112.64 783.369 112.784C783.209 112.928 782.977 113 782.673 113H771.897ZM786.03 113C785.774 113 785.566 112.952 785.406 112.856C785.246 112.744 785.134 112.6 785.07 112.424C785.006 112.232 784.998 112.024 785.046 111.8C785.11 111.56 785.238 111.32 785.43 111.08L795.414 97.016V97.784H785.886C785.582 97.784 785.35 97.712 785.19 97.568C785.03 97.408 784.95 97.192 784.95 96.92C784.95 96.648 785.03 96.44 785.19 96.296C785.35 96.152 785.582 96.08 785.886 96.08H796.302C796.558 96.08 796.766 96.136 796.926 96.248C797.102 96.344 797.214 96.48 797.262 96.656C797.326 96.832 797.326 97.04 797.262 97.28C797.214 97.52 797.102 97.76 796.926 98L786.942 112.04V111.296H796.806C797.11 111.296 797.342 111.368 797.502 111.512C797.662 111.656 797.742 111.864 797.742 112.136C797.742 112.424 797.662 112.64 797.502 112.784C797.342 112.928 797.11 113 796.806 113H786.03ZM801.195 113C800.875 113 800.627 112.912 800.451 112.736C800.275 112.544 800.187 112.288 800.187 111.968V96.992C800.187 96.656 800.267 96.4 800.427 96.224C800.603 96.048 800.851 95.96 801.171 95.96C801.491 95.96 801.731 96.048 801.891 96.224C802.067 96.4 802.155 96.656 802.155 96.992V111.272H810.027C810.315 111.272 810.539 111.352 810.699 111.512C810.859 111.656 810.939 111.864 810.939 112.136C810.939 112.408 810.859 112.624 810.699 112.784C810.539 112.928 810.315 113 810.027 113H801.195ZM814.298 113C813.946 113 813.674 112.912 813.482 112.736C813.306 112.544 813.218 112.272 813.218 111.92V97.16C813.218 96.808 813.306 96.544 813.482 96.368C813.674 96.176 813.946 96.08 814.298 96.08H823.226C823.498 96.08 823.706 96.152 823.85 96.296C823.994 96.44 824.066 96.64 824.066 96.896C824.066 97.168 823.994 97.376 823.85 97.52C823.706 97.664 823.498 97.736 823.226 97.736H815.138V103.592H822.722C822.994 103.592 823.202 103.664 823.346 103.808C823.49 103.936 823.562 104.136 823.562 104.408C823.562 104.68 823.49 104.888 823.346 105.032C823.202 105.176 822.994 105.248 822.722 105.248H815.138V111.344H823.226C823.498 111.344 823.706 111.416 823.85 111.56C823.994 111.704 824.066 111.904 824.066 112.16C824.066 112.432 823.994 112.64 823.85 112.784C823.706 112.928 823.498 113 823.226 113H814.298Z" fill="black"/>
<path d="M416.338 91.5L416.338 90.5L415.654 90.5L415.406 91.1382L416.338 91.5ZM384.125 174.5L393.126 167.266L382.361 163.089L384.125 174.5ZM441.338 90.4999L416.338 90.5L416.338 92.5L441.338 92.4999L441.338 90.4999ZM415.406 91.1382L386.449 165.748L388.314 166.472L417.271 91.8618L415.406 91.1382Z" fill="black"/>
<path d="M460.408 83.216C458.744 83.216 457.32 82.864 456.136 82.16C454.952 81.456 454.04 80.456 453.4 79.16C452.776 77.864 452.464 76.32 452.464 74.528C452.464 73.184 452.64 71.984 452.992 70.928C453.36 69.856 453.88 68.952 454.552 68.216C455.24 67.464 456.08 66.888 457.072 66.488C458.064 66.072 459.176 65.864 460.408 65.864C461.4 65.864 462.344 66.008 463.24 66.296C464.136 66.568 464.912 66.976 465.568 67.52C465.776 67.68 465.912 67.864 465.976 68.072C466.056 68.264 466.064 68.456 466 68.648C465.952 68.824 465.856 68.976 465.712 69.104C465.584 69.216 465.424 69.272 465.232 69.272C465.04 69.272 464.824 69.192 464.584 69.032C464.008 68.568 463.376 68.224 462.688 68C462 67.776 461.256 67.664 460.456 67.664C459.192 67.664 458.12 67.936 457.24 68.48C456.36 69.008 455.696 69.784 455.248 70.808C454.8 71.832 454.576 73.072 454.576 74.528C454.576 75.984 454.8 77.232 455.248 78.272C455.696 79.296 456.36 80.08 457.24 80.624C458.12 81.152 459.192 81.416 460.456 81.416C461.24 81.416 461.984 81.304 462.688 81.08C463.392 80.84 464.04 80.488 464.632 80.024C464.872 79.864 465.088 79.792 465.28 79.808C465.472 79.808 465.632 79.864 465.76 79.976C465.888 80.088 465.976 80.232 466.024 80.408C466.088 80.584 466.088 80.768 466.024 80.96C465.976 81.152 465.856 81.32 465.664 81.464C464.992 82.04 464.2 82.48 463.288 82.784C462.392 83.072 461.432 83.216 460.408 83.216ZM475.848 83.216C474.28 83.216 472.912 82.864 471.744 82.16C470.592 81.44 469.696 80.432 469.056 79.136C468.432 77.84 468.12 76.304 468.12 74.528C468.12 73.184 468.296 71.984 468.648 70.928C469.016 69.856 469.536 68.952 470.208 68.216C470.88 67.464 471.688 66.888 472.632 66.488C473.592 66.072 474.664 65.864 475.848 65.864C477.448 65.864 478.824 66.216 479.976 66.92C481.144 67.624 482.04 68.624 482.664 69.92C483.304 71.2 483.624 72.728 483.624 74.504C483.624 75.848 483.44 77.056 483.072 78.128C482.704 79.2 482.184 80.112 481.512 80.864C480.84 81.616 480.024 82.2 479.064 82.616C478.12 83.016 477.048 83.216 475.848 83.216ZM475.848 81.464C477.064 81.464 478.088 81.192 478.92 80.648C479.768 80.104 480.416 79.312 480.864 78.272C481.312 77.232 481.536 75.984 481.536 74.528C481.536 72.336 481.04 70.64 480.048 69.44C479.072 68.224 477.672 67.616 475.848 67.616C474.664 67.616 473.648 67.888 472.8 68.432C471.968 68.976 471.328 69.768 470.88 70.808C470.432 71.832 470.208 73.072 470.208 74.528C470.208 76.704 470.704 78.408 471.696 79.64C472.688 80.856 474.072 81.464 475.848 81.464ZM488.103 83.168C487.815 83.168 487.591 83.088 487.431 82.928C487.271 82.752 487.191 82.512 487.191 82.208V66.872C487.191 66.552 487.271 66.312 487.431 66.152C487.591 65.992 487.815 65.912 488.103 65.912C488.359 65.912 488.559 65.968 488.703 66.08C488.863 66.176 489.007 66.344 489.135 66.584L495.711 78.968H494.991L501.543 66.584C501.671 66.344 501.807 66.176 501.951 66.08C502.095 65.968 502.303 65.912 502.575 65.912C502.847 65.912 503.063 65.992 503.223 66.152C503.383 66.312 503.463 66.552 503.463 66.872V82.208C503.463 82.512 503.383 82.752 503.223 82.928C503.079 83.088 502.855 83.168 502.551 83.168C502.263 83.168 502.039 83.088 501.879 82.928C501.719 82.752 501.639 82.512 501.639 82.208V68.72H502.215L496.215 79.976C496.103 80.184 495.983 80.336 495.855 80.432C495.743 80.512 495.575 80.552 495.351 80.552C495.127 80.552 494.951 80.504 494.823 80.408C494.695 80.312 494.583 80.168 494.487 79.976L488.415 68.696H488.991V82.208C488.991 82.512 488.911 82.752 488.751 82.928C488.607 83.088 488.391 83.168 488.103 83.168ZM508.754 83C508.402 83 508.13 82.912 507.938 82.736C507.762 82.544 507.674 82.272 507.674 81.92V67.16C507.674 66.808 507.762 66.544 507.938 66.368C508.13 66.176 508.402 66.08 508.754 66.08H514.442C515.61 66.08 516.594 66.256 517.394 66.608C518.21 66.944 518.834 67.44 519.266 68.096C519.698 68.752 519.914 69.552 519.914 70.496C519.914 71.552 519.602 72.432 518.978 73.136C518.37 73.84 517.538 74.304 516.482 74.528V74.192C517.682 74.336 518.618 74.768 519.29 75.488C519.978 76.208 520.322 77.16 520.322 78.344C520.322 79.848 519.834 81 518.858 81.8C517.882 82.6 516.506 83 514.73 83H508.754ZM509.594 81.416H514.538C515.818 81.416 516.778 81.16 517.418 80.648C518.058 80.136 518.378 79.36 518.378 78.32C518.378 77.264 518.058 76.488 517.418 75.992C516.778 75.48 515.818 75.224 514.538 75.224H509.594V81.416ZM509.594 73.64H514.154C515.402 73.64 516.346 73.384 516.986 72.872C517.642 72.36 517.97 71.624 517.97 70.664C517.97 69.672 517.642 68.928 516.986 68.432C516.346 67.92 515.402 67.664 514.154 67.664H509.594V73.64ZM530.565 83.216C529.445 83.216 528.461 83.072 527.613 82.784C526.781 82.48 526.077 82.04 525.501 81.464C524.925 80.872 524.493 80.144 524.205 79.28C523.917 78.416 523.773 77.424 523.773 76.304V66.92C523.773 66.584 523.853 66.336 524.013 66.176C524.189 66 524.437 65.912 524.757 65.912C525.077 65.912 525.317 66 525.477 66.176C525.653 66.336 525.741 66.584 525.741 66.92V76.208C525.741 77.968 526.149 79.288 526.965 80.168C527.781 81.032 528.981 81.464 530.565 81.464C532.149 81.464 533.341 81.032 534.141 80.168C534.941 79.288 535.341 77.968 535.341 76.208V66.92C535.341 66.584 535.429 66.336 535.605 66.176C535.781 66 536.029 65.912 536.349 65.912C536.653 65.912 536.885 66 537.045 66.176C537.221 66.336 537.309 66.584 537.309 66.92V76.304C537.309 77.792 537.053 79.056 536.541 80.096C536.045 81.136 535.293 81.92 534.285 82.448C533.277 82.96 532.037 83.216 530.565 83.216ZM546.826 83.216C546.074 83.216 545.338 83.152 544.618 83.024C543.898 82.896 543.226 82.712 542.602 82.472C541.994 82.232 541.442 81.928 540.946 81.56C540.754 81.416 540.618 81.256 540.538 81.08C540.474 80.888 540.458 80.704 540.49 80.528C540.538 80.336 540.618 80.176 540.73 80.048C540.858 79.92 541.01 79.848 541.186 79.832C541.362 79.816 541.554 79.872 541.762 80C542.482 80.512 543.25 80.888 544.066 81.128C544.882 81.352 545.802 81.464 546.826 81.464C548.266 81.464 549.33 81.2 550.018 80.672C550.722 80.128 551.074 79.416 551.074 78.536C551.074 77.816 550.818 77.256 550.306 76.856C549.81 76.44 548.97 76.112 547.786 75.872L545.29 75.368C543.786 75.048 542.658 74.528 541.906 73.808C541.17 73.072 540.802 72.096 540.802 70.88C540.802 70.128 540.954 69.448 541.258 68.84C541.562 68.216 541.986 67.688 542.53 67.256C543.074 66.808 543.722 66.464 544.474 66.224C545.226 65.984 546.058 65.864 546.97 65.864C547.978 65.864 548.914 66.008 549.778 66.296C550.658 66.568 551.45 66.984 552.154 67.544C552.33 67.688 552.45 67.856 552.514 68.048C552.578 68.224 552.586 68.4 552.538 68.576C552.49 68.736 552.402 68.872 552.274 68.984C552.162 69.096 552.01 69.16 551.818 69.176C551.642 69.192 551.442 69.128 551.218 68.984C550.578 68.504 549.914 68.16 549.226 67.952C548.538 67.728 547.778 67.616 546.946 67.616C546.098 67.616 545.362 67.744 544.738 68C544.13 68.256 543.65 68.632 543.298 69.128C542.962 69.608 542.794 70.168 542.794 70.808C542.794 71.576 543.026 72.184 543.49 72.632C543.97 73.08 544.746 73.408 545.818 73.616L548.314 74.144C549.93 74.48 551.122 74.992 551.89 75.68C552.674 76.352 553.066 77.272 553.066 78.44C553.066 79.144 552.922 79.792 552.634 80.384C552.346 80.976 551.93 81.488 551.386 81.92C550.842 82.336 550.186 82.656 549.418 82.88C548.65 83.104 547.786 83.216 546.826 83.216ZM560.904 83.168C560.6 83.168 560.36 83.08 560.184 82.904C560.008 82.712 559.92 82.456 559.92 82.136V67.784H554.52C554.232 67.784 554.008 67.704 553.848 67.544C553.688 67.384 553.608 67.176 553.608 66.92C553.608 66.648 553.688 66.44 553.848 66.296C554.008 66.152 554.232 66.08 554.52 66.08H567.312C567.6 66.08 567.824 66.152 567.984 66.296C568.144 66.44 568.224 66.648 568.224 66.92C568.224 67.192 568.144 67.408 567.984 67.568C567.824 67.712 567.6 67.784 567.312 67.784H561.912V82.136C561.912 82.456 561.824 82.712 561.648 82.904C561.488 83.08 561.24 83.168 560.904 83.168ZM571.189 83.168C570.869 83.168 570.621 83.08 570.445 82.904C570.285 82.712 570.205 82.456 570.205 82.136V66.944C570.205 66.608 570.285 66.352 570.445 66.176C570.621 66 570.869 65.912 571.189 65.912C571.509 65.912 571.749 66 571.909 66.176C572.085 66.352 572.173 66.608 572.173 66.944V82.136C572.173 82.456 572.093 82.712 571.933 82.904C571.773 83.08 571.525 83.168 571.189 83.168ZM583.473 83.216C581.905 83.216 580.537 82.864 579.369 82.16C578.217 81.44 577.321 80.432 576.681 79.136C576.057 77.84 575.745 76.304 575.745 74.528C575.745 73.184 575.921 71.984 576.273 70.928C576.641 69.856 577.161 68.952 577.833 68.216C578.505 67.464 579.313 66.888 580.257 66.488C581.217 66.072 582.289 65.864 583.473 65.864C585.073 65.864 586.449 66.216 587.601 66.92C588.769 67.624 589.665 68.624 590.289 69.92C590.929 71.2 591.249 72.728 591.249 74.504C591.249 75.848 591.065 77.056 590.697 78.128C590.329 79.2 589.809 80.112 589.137 80.864C588.465 81.616 587.649 82.2 586.689 82.616C585.745 83.016 584.673 83.216 583.473 83.216ZM583.473 81.464C584.689 81.464 585.713 81.192 586.545 80.648C587.393 80.104 588.041 79.312 588.489 78.272C588.937 77.232 589.161 75.984 589.161 74.528C589.161 72.336 588.665 70.64 587.673 69.44C586.697 68.224 585.297 67.616 583.473 67.616C582.289 67.616 581.273 67.888 580.425 68.432C579.593 68.976 578.953 69.768 578.505 70.808C578.057 71.832 577.833 73.072 577.833 74.528C577.833 76.704 578.329 78.408 579.321 79.64C580.313 80.856 581.697 81.464 583.473 81.464ZM595.704 83.168C595.4 83.168 595.168 83.088 595.008 82.928C594.848 82.752 594.768 82.504 594.768 82.184V66.92C594.768 66.6 594.848 66.352 595.008 66.176C595.168 66 595.376 65.912 595.632 65.912C595.888 65.912 596.072 65.96 596.184 66.056C596.312 66.136 596.456 66.288 596.616 66.512L607.08 80.456H606.504V66.872C606.504 66.568 606.584 66.336 606.744 66.176C606.904 66 607.136 65.912 607.44 65.912C607.728 65.912 607.944 66 608.088 66.176C608.248 66.336 608.328 66.568 608.328 66.872V82.208C608.328 82.512 608.256 82.752 608.112 82.928C607.984 83.088 607.792 83.168 607.536 83.168C607.296 83.168 607.104 83.12 606.96 83.024C606.816 82.928 606.664 82.776 606.504 82.568L596.064 68.624H596.616V82.184C596.616 82.504 596.536 82.752 596.376 82.928C596.216 83.088 595.992 83.168 595.704 83.168ZM460.408 116.216C458.744 116.216 457.32 115.864 456.136 115.16C454.952 114.456 454.04 113.456 453.4 112.16C452.776 110.864 452.464 109.32 452.464 107.528C452.464 106.184 452.64 104.984 452.992 103.928C453.36 102.856 453.88 101.952 454.552 101.216C455.24 100.464 456.08 99.888 457.072 99.488C458.064 99.072 459.176 98.864 460.408 98.864C461.4 98.864 462.344 99.008 463.24 99.296C464.136 99.568 464.912 99.976 465.568 100.52C465.776 100.68 465.912 100.864 465.976 101.072C466.056 101.264 466.064 101.456 466 101.648C465.952 101.824 465.856 101.976 465.712 102.104C465.584 102.216 465.424 102.272 465.232 102.272C465.04 102.272 464.824 102.192 464.584 102.032C464.008 101.568 463.376 101.224 462.688 101C462 100.776 461.256 100.664 460.456 100.664C459.192 100.664 458.12 100.936 457.24 101.48C456.36 102.008 455.696 102.784 455.248 103.808C454.8 104.832 454.576 106.072 454.576 107.528C454.576 108.984 454.8 110.232 455.248 111.272C455.696 112.296 456.36 113.08 457.24 113.624C458.12 114.152 459.192 114.416 460.456 114.416C461.24 114.416 461.984 114.304 462.688 114.08C463.392 113.84 464.04 113.488 464.632 113.024C464.872 112.864 465.088 112.792 465.28 112.808C465.472 112.808 465.632 112.864 465.76 112.976C465.888 113.088 465.976 113.232 466.024 113.408C466.088 113.584 466.088 113.768 466.024 113.96C465.976 114.152 465.856 114.32 465.664 114.464C464.992 115.04 464.2 115.48 463.288 115.784C462.392 116.072 461.432 116.216 460.408 116.216ZM470.22 116.168C469.9 116.168 469.652 116.08 469.476 115.904C469.316 115.712 469.236 115.456 469.236 115.136V99.944C469.236 99.608 469.316 99.352 469.476 99.176C469.652 99 469.9 98.912 470.22 98.912C470.54 98.912 470.78 99 470.94 99.176C471.116 99.352 471.204 99.608 471.204 99.944V106.568H481.356V99.944C481.356 99.608 481.436 99.352 481.596 99.176C481.772 99 482.02 98.912 482.34 98.912C482.66 98.912 482.9 99 483.06 99.176C483.236 99.352 483.324 99.608 483.324 99.944V115.136C483.324 115.456 483.236 115.712 483.06 115.904C482.9 116.08 482.66 116.168 482.34 116.168C482.02 116.168 481.772 116.08 481.596 115.904C481.436 115.712 481.356 115.456 481.356 115.136V108.272H471.204V115.136C471.204 115.456 471.124 115.712 470.964 115.904C470.804 116.08 470.556 116.168 470.22 116.168ZM487.134 116.168C486.878 116.168 486.67 116.112 486.51 116C486.366 115.872 486.278 115.712 486.246 115.52C486.23 115.312 486.278 115.08 486.39 114.824L492.99 99.8C493.134 99.48 493.302 99.256 493.494 99.128C493.702 98.984 493.926 98.912 494.166 98.912C494.406 98.912 494.622 98.984 494.814 99.128C495.022 99.256 495.19 99.48 495.318 99.8L501.942 114.824C502.07 115.08 502.118 115.312 502.086 115.52C502.07 115.728 501.99 115.888 501.846 116C501.702 116.112 501.502 116.168 501.246 116.168C500.958 116.168 500.726 116.096 500.55 115.952C500.374 115.792 500.23 115.568 500.118 115.28L498.342 111.176L499.302 111.68H488.982L489.966 111.176L488.214 115.28C488.07 115.584 487.918 115.808 487.758 115.952C487.598 116.096 487.39 116.168 487.134 116.168ZM494.142 101.384L490.278 110.48L489.702 110.024H498.582L498.054 110.48L494.19 101.384H494.142ZM505.939 116.168C505.651 116.168 505.427 116.088 505.267 115.928C505.107 115.752 505.027 115.512 505.027 115.208V99.872C505.027 99.552 505.107 99.312 505.267 99.152C505.427 98.992 505.651 98.912 505.939 98.912C506.195 98.912 506.395 98.968 506.539 99.08C506.699 99.176 506.843 99.344 506.971 99.584L513.547 111.968H512.827L519.379 99.584C519.507 99.344 519.643 99.176 519.787 99.08C519.931 98.968 520.139 98.912 520.411 98.912C520.683 98.912 520.899 98.992 521.059 99.152C521.219 99.312 521.299 99.552 521.299 99.872V115.208C521.299 115.512 521.219 115.752 521.059 115.928C520.915 116.088 520.691 116.168 520.387 116.168C520.099 116.168 519.875 116.088 519.715 115.928C519.555 115.752 519.475 115.512 519.475 115.208V101.72H520.051L514.051 112.976C513.939 113.184 513.819 113.336 513.691 113.432C513.579 113.512 513.411 113.552 513.187 113.552C512.963 113.552 512.787 113.504 512.659 113.408C512.531 113.312 512.419 113.168 512.323 112.976L506.251 101.696H506.827V115.208C506.827 115.512 506.747 115.752 506.587 115.928C506.443 116.088 506.227 116.168 505.939 116.168ZM526.59 116C526.238 116 525.966 115.912 525.774 115.736C525.598 115.544 525.51 115.272 525.51 114.92V100.16C525.51 99.808 525.598 99.544 525.774 99.368C525.966 99.176 526.238 99.08 526.59 99.08H532.278C533.446 99.08 534.43 99.256 535.23 99.608C536.046 99.944 536.67 100.44 537.102 101.096C537.534 101.752 537.75 102.552 537.75 103.496C537.75 104.552 537.438 105.432 536.814 106.136C536.206 106.84 535.374 107.304 534.318 107.528V107.192C535.518 107.336 536.454 107.768 537.126 108.488C537.814 109.208 538.158 110.16 538.158 111.344C538.158 112.848 537.67 114 536.694 114.8C535.718 115.6 534.342 116 532.566 116H526.59ZM527.43 114.416H532.374C533.654 114.416 534.614 114.16 535.254 113.648C535.894 113.136 536.214 112.36 536.214 111.32C536.214 110.264 535.894 109.488 535.254 108.992C534.614 108.48 533.654 108.224 532.374 108.224H527.43V114.416ZM527.43 106.64H531.99C533.238 106.64 534.182 106.384 534.822 105.872C535.478 105.36 535.806 104.624 535.806 103.664C535.806 102.672 535.478 101.928 534.822 101.432C534.182 100.92 533.238 100.664 531.99 100.664H527.43V106.64ZM542.809 116C542.457 116 542.185 115.912 541.993 115.736C541.817 115.544 541.729 115.272 541.729 114.92V100.16C541.729 99.808 541.817 99.544 541.993 99.368C542.185 99.176 542.457 99.08 542.809 99.08H551.737C552.009 99.08 552.217 99.152 552.361 99.296C552.505 99.44 552.577 99.64 552.577 99.896C552.577 100.168 552.505 100.376 552.361 100.52C552.217 100.664 552.009 100.736 551.737 100.736H543.649V106.592H551.233C551.505 106.592 551.713 106.664 551.857 106.808C552.001 106.936 552.073 107.136 552.073 107.408C552.073 107.68 552.001 107.888 551.857 108.032C551.713 108.176 551.505 108.248 551.233 108.248H543.649V114.344H551.737C552.009 114.344 552.217 114.416 552.361 114.56C552.505 114.704 552.577 114.904 552.577 115.16C552.577 115.432 552.505 115.64 552.361 115.784C552.217 115.928 552.009 116 551.737 116H542.809ZM556.705 116.168C556.385 116.168 556.137 116.08 555.961 115.904C555.801 115.712 555.721 115.456 555.721 115.136V100.088C555.721 99.752 555.809 99.504 555.985 99.344C556.161 99.168 556.409 99.08 556.729 99.08H562.417C564.225 99.08 565.617 99.504 566.593 100.352C567.569 101.2 568.057 102.408 568.057 103.976C568.057 104.968 567.833 105.832 567.385 106.568C566.953 107.288 566.313 107.84 565.465 108.224C564.617 108.592 563.601 108.776 562.417 108.776L562.657 108.464H563.137C563.761 108.464 564.305 108.624 564.769 108.944C565.233 109.264 565.657 109.776 566.041 110.48L568.345 114.776C568.473 115 568.529 115.224 568.513 115.448C568.513 115.656 568.441 115.832 568.297 115.976C568.153 116.104 567.945 116.168 567.673 116.168C567.401 116.168 567.177 116.104 567.001 115.976C566.825 115.848 566.673 115.664 566.545 115.424L563.929 110.576C563.561 109.888 563.137 109.432 562.657 109.208C562.177 108.968 561.545 108.848 560.761 108.848H557.689V115.136C557.689 115.456 557.609 115.712 557.449 115.904C557.289 116.08 557.041 116.168 556.705 116.168ZM557.689 107.288H562.129C563.441 107.288 564.433 107.016 565.105 106.472C565.777 105.912 566.113 105.08 566.113 103.976C566.113 102.904 565.777 102.096 565.105 101.552C564.433 100.992 563.441 100.712 562.129 100.712H557.689V107.288Z" fill="black"/>
<path d="M49.4967 316.216C47.9287 316.216 46.5607 315.864 45.3927 315.16C44.2407 314.44 43.3447 313.432 42.7047 312.136C42.0807 310.84 41.7687 309.304 41.7687 307.528C41.7687 306.184 41.9447 304.984 42.2967 303.928C42.6647 302.856 43.1847 301.952 43.8567 301.216C44.5287 300.464 45.3367 299.888 46.2807 299.488C47.2407 299.072 48.3127 298.864 49.4967 298.864C51.0967 298.864 52.4727 299.216 53.6247 299.92C54.7927 300.624 55.6887 301.624 56.3127 302.92C56.9527 304.2 57.2727 305.728 57.2727 307.504C57.2727 308.848 57.0887 310.056 56.7207 311.128C56.3527 312.2 55.8327 313.112 55.1607 313.864C54.4887 314.616 53.6727 315.2 52.7127 315.616C51.7687 316.016 50.6967 316.216 49.4967 316.216ZM49.4967 314.464C50.7127 314.464 51.7367 314.192 52.5687 313.648C53.4167 313.104 54.0647 312.312 54.5127 311.272C54.9607 310.232 55.1847 308.984 55.1847 307.528C55.1847 305.336 54.6887 303.64 53.6967 302.44C52.7207 301.224 51.3207 300.616 49.4967 300.616C48.3127 300.616 47.2967 300.888 46.4487 301.432C45.6167 301.976 44.9767 302.768 44.5287 303.808C44.0807 304.832 43.8567 306.072 43.8567 307.528C43.8567 309.704 44.3527 311.408 45.3447 312.64C46.3367 313.856 47.7207 314.464 49.4967 314.464ZM59.9423 316.168C59.6703 316.168 59.4463 316.096 59.2703 315.952C59.1103 315.808 59.0143 315.632 58.9823 315.424C58.9663 315.216 59.0463 315.008 59.2223 314.8L65.0303 306.976V307.72L59.5583 300.328C59.3823 300.088 59.3023 299.864 59.3183 299.656C59.3343 299.448 59.4223 299.272 59.5823 299.128C59.7583 298.984 59.9663 298.912 60.2063 298.912C60.4303 298.912 60.6223 298.96 60.7823 299.056C60.9423 299.152 61.1103 299.32 61.2863 299.56L66.2063 306.304H65.5823L70.4783 299.56C70.6383 299.32 70.7983 299.152 70.9583 299.056C71.1183 298.96 71.3103 298.912 71.5343 298.912C71.7903 298.912 71.9983 298.984 72.1583 299.128C72.3343 299.256 72.4303 299.432 72.4463 299.656C72.4623 299.864 72.3823 300.088 72.2063 300.328L66.7343 307.72V306.976L72.5423 314.8C72.7023 315.008 72.7663 315.216 72.7343 315.424C72.7183 315.632 72.6303 315.808 72.4703 315.952C72.3103 316.096 72.0943 316.168 71.8223 316.168C71.6143 316.168 71.4223 316.112 71.2463 316C71.0863 315.904 70.9183 315.744 70.7423 315.52L65.4863 308.344H66.2543L60.9983 315.52C60.8383 315.744 60.6703 315.904 60.4943 316C60.3183 316.112 60.1343 316.168 59.9423 316.168ZM80.7379 316.168C80.4179 316.168 80.1699 316.08 79.9939 315.904C79.8339 315.712 79.7539 315.448 79.7539 315.112V307.24L80.1859 308.608L74.1619 300.304C74.0179 300.096 73.9459 299.888 73.9459 299.68C73.9619 299.456 74.0499 299.272 74.2099 299.128C74.3699 298.984 74.5779 298.912 74.8339 298.912C75.0579 298.912 75.2579 298.968 75.4339 299.08C75.6099 299.176 75.7699 299.336 75.9139 299.56L81.0259 306.616H80.5219L85.6339 299.56C85.8099 299.32 85.9779 299.152 86.1379 299.056C86.2979 298.96 86.4899 298.912 86.7139 298.912C86.9699 298.912 87.1699 298.984 87.3139 299.128C87.4579 299.256 87.5299 299.432 87.5299 299.656C87.5459 299.864 87.4739 300.088 87.3139 300.328L81.3139 308.608L81.7219 307.24V315.112C81.7219 315.816 81.3939 316.168 80.7379 316.168ZM96.6441 316.216C94.8361 316.216 93.3081 315.872 92.0601 315.184C90.8281 314.496 89.8921 313.504 89.2521 312.208C88.6121 310.912 88.2921 309.36 88.2921 307.552C88.2921 306.208 88.4681 305 88.8201 303.928C89.1881 302.856 89.7161 301.952 90.4041 301.216C91.1081 300.464 91.9561 299.888 92.9481 299.488C93.9561 299.072 95.0921 298.864 96.3561 298.864C97.3641 298.864 98.3401 299.008 99.2841 299.296C100.228 299.568 101.068 300.008 101.804 300.616C101.996 300.76 102.116 300.92 102.164 301.096C102.212 301.272 102.204 301.448 102.14 301.624C102.092 301.8 102.004 301.952 101.876 302.08C101.764 302.192 101.612 302.256 101.42 302.272C101.244 302.288 101.06 302.232 100.868 302.104C100.212 301.592 99.5161 301.224 98.7801 301C98.0441 300.76 97.2281 300.64 96.3321 300.64C95.0521 300.64 93.9641 300.912 93.0681 301.456C92.1881 302 91.5161 302.784 91.0521 303.808C90.6041 304.832 90.3801 306.08 90.3801 307.552C90.3801 309.792 90.9001 311.504 91.9401 312.688C92.9961 313.872 94.5801 314.464 96.6921 314.464C97.4601 314.464 98.2121 314.392 98.9481 314.248C99.6841 314.088 100.38 313.872 101.036 313.6L100.604 314.728V308.752H97.1721C96.8841 308.752 96.6681 308.68 96.5241 308.536C96.3801 308.392 96.3081 308.2 96.3081 307.96C96.3081 307.704 96.3801 307.512 96.5241 307.384C96.6681 307.256 96.8841 307.192 97.1721 307.192H101.468C101.74 307.192 101.948 307.264 102.092 307.408C102.236 307.552 102.308 307.76 102.308 308.032V314.296C102.308 314.536 102.268 314.736 102.188 314.896C102.108 315.056 101.972 315.176 101.78 315.256C101.108 315.528 100.3 315.76 99.3561 315.952C98.4281 316.128 97.5241 316.216 96.6441 316.216ZM107.41 316C107.058 316 106.786 315.912 106.594 315.736C106.418 315.544 106.33 315.272 106.33 314.92V300.16C106.33 299.808 106.418 299.544 106.594 299.368C106.786 299.176 107.058 299.08 107.41 299.08H116.338C116.61 299.08 116.818 299.152 116.962 299.296C117.106 299.44 117.178 299.64 117.178 299.896C117.178 300.168 117.106 300.376 116.962 300.52C116.818 300.664 116.61 300.736 116.338 300.736H108.25V306.592H115.834C116.106 306.592 116.314 306.664 116.458 306.808C116.602 306.936 116.674 307.136 116.674 307.408C116.674 307.68 116.602 307.888 116.458 308.032C116.314 308.176 116.106 308.248 115.834 308.248H108.25V314.344H116.338C116.61 314.344 116.818 314.416 116.962 314.56C117.106 314.704 117.178 314.904 117.178 315.16C117.178 315.432 117.106 315.64 116.962 315.784C116.818 315.928 116.61 316 116.338 316H107.41ZM121.258 316.168C120.954 316.168 120.722 316.088 120.562 315.928C120.402 315.752 120.322 315.504 120.322 315.184V299.92C120.322 299.6 120.402 299.352 120.562 299.176C120.722 299 120.93 298.912 121.186 298.912C121.442 298.912 121.626 298.96 121.738 299.056C121.866 299.136 122.01 299.288 122.17 299.512L132.634 313.456H132.058V299.872C132.058 299.568 132.138 299.336 132.298 299.176C132.458 299 132.69 298.912 132.994 298.912C133.282 298.912 133.498 299 133.642 299.176C133.802 299.336 133.882 299.568 133.882 299.872V315.208C133.882 315.512 133.81 315.752 133.666 315.928C133.538 316.088 133.346 316.168 133.09 316.168C132.85 316.168 132.658 316.12 132.514 316.024C132.37 315.928 132.218 315.776 132.058 315.568L121.618 301.624H122.17V315.184C122.17 315.504 122.09 315.752 121.93 315.928C121.77 316.088 121.546 316.168 121.258 316.168Z" fill="black"/>
<path d="M200.89 316.333H147V299.667H200.89H201.89V298.667V289.851L229.193 307.744L201.89 326.121V317.333V316.333H200.89Z" fill="white" stroke="black" stroke-width="2"/>
<path d="M81.5112 235.168C81.1752 235.168 80.9112 235.08 80.7192 234.904C80.5432 234.712 80.4552 234.44 80.4552 234.088V219.16C80.4552 218.808 80.5432 218.544 80.7192 218.368C80.9112 218.176 81.1832 218.08 81.5352 218.08H90.2472C90.5192 218.08 90.7272 218.152 90.8712 218.296C91.0152 218.44 91.0872 218.64 91.0872 218.896C91.0872 219.168 91.0152 219.376 90.8712 219.52C90.7272 219.664 90.5192 219.736 90.2472 219.736H82.4232V225.64H89.7432C90.0152 225.64 90.2232 225.712 90.3672 225.856C90.5272 226 90.6072 226.2 90.6072 226.456C90.6072 226.728 90.5272 226.936 90.3672 227.08C90.2232 227.224 90.0152 227.296 89.7432 227.296H82.4232V234.088C82.4232 234.808 82.1192 235.168 81.5112 235.168ZM100.276 235.216C99.1556 235.216 98.1716 235.072 97.3236 234.784C96.4916 234.48 95.7876 234.04 95.2116 233.464C94.6356 232.872 94.2036 232.144 93.9156 231.28C93.6276 230.416 93.4836 229.424 93.4836 228.304V218.92C93.4836 218.584 93.5636 218.336 93.7236 218.176C93.8996 218 94.1476 217.912 94.4676 217.912C94.7876 217.912 95.0276 218 95.1876 218.176C95.3636 218.336 95.4516 218.584 95.4516 218.92V228.208C95.4516 229.968 95.8596 231.288 96.6756 232.168C97.4916 233.032 98.6916 233.464 100.276 233.464C101.86 233.464 103.052 233.032 103.852 232.168C104.652 231.288 105.052 229.968 105.052 228.208V218.92C105.052 218.584 105.14 218.336 105.316 218.176C105.492 218 105.74 217.912 106.06 217.912C106.364 217.912 106.596 218 106.756 218.176C106.932 218.336 107.02 218.584 107.02 218.92V228.304C107.02 229.792 106.764 231.056 106.252 232.096C105.756 233.136 105.004 233.92 103.996 234.448C102.988 234.96 101.748 235.216 100.276 235.216ZM112.145 235C111.793 235 111.521 234.912 111.329 234.736C111.153 234.544 111.065 234.272 111.065 233.92V219.16C111.065 218.808 111.153 218.544 111.329 218.368C111.521 218.176 111.793 218.08 112.145 218.08H121.073C121.345 218.08 121.553 218.152 121.697 218.296C121.841 218.44 121.913 218.64 121.913 218.896C121.913 219.168 121.841 219.376 121.697 219.52C121.553 219.664 121.345 219.736 121.073 219.736H112.985V225.592H120.569C120.841 225.592 121.049 225.664 121.193 225.808C121.337 225.936 121.409 226.136 121.409 226.408C121.409 226.68 121.337 226.888 121.193 227.032C121.049 227.176 120.841 227.248 120.569 227.248H112.985V233.344H121.073C121.345 233.344 121.553 233.416 121.697 233.56C121.841 233.704 121.913 233.904 121.913 234.16C121.913 234.432 121.841 234.64 121.697 234.784C121.553 234.928 121.345 235 121.073 235H112.145ZM126.065 235C125.745 235 125.497 234.912 125.321 234.736C125.145 234.544 125.057 234.288 125.057 233.968V218.992C125.057 218.656 125.137 218.4 125.297 218.224C125.473 218.048 125.721 217.96 126.041 217.96C126.361 217.96 126.601 218.048 126.761 218.224C126.937 218.4 127.025 218.656 127.025 218.992V233.272H134.897C135.185 233.272 135.409 233.352 135.569 233.512C135.729 233.656 135.809 233.864 135.809 234.136C135.809 234.408 135.729 234.624 135.569 234.784C135.409 234.928 135.185 235 134.897 235H126.065Z" fill="black"/>
<path d="M200.89 235.333H147V218.667H200.89H201.89V217.667V208.851L229.193 226.744L201.89 245.121V236.333V235.333H200.89Z" fill="white" stroke="black" stroke-width="2"/>
<path d="M714.293 275.216C712.485 275.216 710.957 274.872 709.709 274.184C708.477 273.496 707.541 272.504 706.901 271.208C706.261 269.912 705.941 268.36 705.941 266.552C705.941 265.208 706.117 264 706.469 262.928C706.837 261.856 707.365 260.952 708.053 260.216C708.757 259.464 709.605 258.888 710.597 258.488C711.605 258.072 712.741 257.864 714.005 257.864C715.013 257.864 715.989 258.008 716.933 258.296C717.877 258.568 718.717 259.008 719.453 259.616C719.645 259.76 719.765 259.92 719.813 260.096C719.861 260.272 719.853 260.448 719.789 260.624C719.741 260.8 719.653 260.952 719.525 261.08C719.413 261.192 719.261 261.256 719.069 261.272C718.893 261.288 718.709 261.232 718.517 261.104C717.861 260.592 717.165 260.224 716.429 260C715.693 259.76 714.877 259.64 713.981 259.64C712.701 259.64 711.613 259.912 710.717 260.456C709.837 261 709.165 261.784 708.701 262.808C708.253 263.832 708.029 265.08 708.029 266.552C708.029 268.792 708.549 270.504 709.589 271.688C710.645 272.872 712.229 273.464 714.341 273.464C715.109 273.464 715.861 273.392 716.597 273.248C717.333 273.088 718.029 272.872 718.685 272.6L718.253 273.728V267.752H714.821C714.533 267.752 714.317 267.68 714.173 267.536C714.029 267.392 713.957 267.2 713.957 266.96C713.957 266.704 714.029 266.512 714.173 266.384C714.317 266.256 714.533 266.192 714.821 266.192H719.117C719.389 266.192 719.597 266.264 719.741 266.408C719.885 266.552 719.957 266.76 719.957 267.032V273.296C719.957 273.536 719.917 273.736 719.837 273.896C719.757 274.056 719.621 274.176 719.429 274.256C718.757 274.528 717.949 274.76 717.005 274.952C716.077 275.128 715.173 275.216 714.293 275.216ZM723.619 275.168C723.363 275.168 723.155 275.112 722.995 275C722.851 274.872 722.763 274.712 722.731 274.52C722.715 274.312 722.763 274.08 722.875 273.824L729.475 258.8C729.619 258.48 729.787 258.256 729.979 258.128C730.187 257.984 730.411 257.912 730.651 257.912C730.891 257.912 731.107 257.984 731.299 258.128C731.507 258.256 731.675 258.48 731.803 258.8L738.427 273.824C738.555 274.08 738.603 274.312 738.571 274.52C738.555 274.728 738.475 274.888 738.331 275C738.187 275.112 737.987 275.168 737.731 275.168C737.443 275.168 737.211 275.096 737.035 274.952C736.859 274.792 736.715 274.568 736.603 274.28L734.827 270.176L735.787 270.68H725.467L726.451 270.176L724.699 274.28C724.555 274.584 724.403 274.808 724.243 274.952C724.083 275.096 723.875 275.168 723.619 275.168ZM730.627 260.384L726.763 269.48L726.187 269.024H735.067L734.539 269.48L730.675 260.384H730.627ZM746.794 275.216C746.042 275.216 745.306 275.152 744.586 275.024C743.866 274.896 743.194 274.712 742.57 274.472C741.962 274.232 741.41 273.928 740.914 273.56C740.722 273.416 740.586 273.256 740.506 273.08C740.442 272.888 740.426 272.704 740.458 272.528C740.506 272.336 740.586 272.176 740.698 272.048C740.826 271.92 740.978 271.848 741.154 271.832C741.33 271.816 741.522 271.872 741.73 272C742.45 272.512 743.218 272.888 744.034 273.128C744.85 273.352 745.77 273.464 746.794 273.464C748.234 273.464 749.298 273.2 749.986 272.672C750.69 272.128 751.042 271.416 751.042 270.536C751.042 269.816 750.786 269.256 750.274 268.856C749.778 268.44 748.938 268.112 747.754 267.872L745.258 267.368C743.754 267.048 742.626 266.528 741.874 265.808C741.138 265.072 740.77 264.096 740.77 262.88C740.77 262.128 740.922 261.448 741.226 260.84C741.53 260.216 741.954 259.688 742.498 259.256C743.042 258.808 743.69 258.464 744.442 258.224C745.194 257.984 746.026 257.864 746.938 257.864C747.946 257.864 748.882 258.008 749.746 258.296C750.626 258.568 751.418 258.984 752.122 259.544C752.298 259.688 752.418 259.856 752.482 260.048C752.546 260.224 752.554 260.4 752.506 260.576C752.458 260.736 752.37 260.872 752.242 260.984C752.13 261.096 751.978 261.16 751.786 261.176C751.61 261.192 751.41 261.128 751.186 260.984C750.546 260.504 749.882 260.16 749.194 259.952C748.506 259.728 747.746 259.616 746.914 259.616C746.066 259.616 745.33 259.744 744.706 260C744.098 260.256 743.618 260.632 743.266 261.128C742.93 261.608 742.762 262.168 742.762 262.808C742.762 263.576 742.994 264.184 743.458 264.632C743.938 265.08 744.714 265.408 745.786 265.616L748.282 266.144C749.898 266.48 751.09 266.992 751.858 267.68C752.642 268.352 753.034 269.272 753.034 270.44C753.034 271.144 752.89 271.792 752.602 272.384C752.314 272.976 751.898 273.488 751.354 273.92C750.81 274.336 750.154 274.656 749.386 274.88C748.618 275.104 747.754 275.216 746.794 275.216Z" fill="black"/>
<path d="M818.89 275.333H765V258.667H818.89H819.89V257.667V248.851L847.193 266.744L819.89 285.121V276.333V275.333H818.89Z" fill="white" stroke="black" stroke-width="2"/>
</g>
<defs>
<clipPath id="clip0_3_16">
<rect width="887" height="409" fill="white"/>
</clipPath>
</defs>
</svg>
