<svg width="887" height="1074" viewBox="0 0 887 1074" fill="none" xmlns="http://www.w3.org/2000/svg">
<path d="M94 52H158V309C158 326.673 143.673 341 126 341C108.327 341 94 326.673 94 309V52Z" stroke="black" stroke-width="2"/>
<path d="M178 52H242V309C242 326.673 227.673 341 210 341C192.327 341 178 326.673 178 309V52Z" stroke="black" stroke-width="2"/>
<path d="M678 52H742V309C742 326.673 727.673 341 710 341C692.327 341 678 326.673 678 309V52Z" stroke="black" stroke-width="2"/>
<circle cx="125.5" cy="367.5" r="17.5" stroke="black" stroke-width="2"/>
<line x1="113.646" y1="379.646" x2="137.646" y2="355.646" stroke="black"/>
<line x1="137.644" y1="379.354" x2="113.644" y2="355.354" stroke="black"/>
<circle cx="209.5" cy="367.5" r="17.5" stroke="black" stroke-width="2"/>
<line x1="197.646" y1="379.646" x2="221.646" y2="355.646" stroke="black"/>
<line x1="221.644" y1="379.354" x2="197.644" y2="355.354" stroke="black"/>
<circle cx="709.5" cy="367.5" r="17.5" stroke="black" stroke-width="2"/>
<line x1="697.646" y1="379.646" x2="721.646" y2="355.646" stroke="black"/>
<line x1="721.644" y1="379.354" x2="697.644" y2="355.354" stroke="black"/>
<circle cx="453.5" cy="367.5" r="17.5" stroke="black" stroke-width="2"/>
<path d="M447.248 376V358.545H454.134C455.458 358.545 456.586 358.798 457.517 359.304C458.449 359.804 459.159 360.5 459.648 361.392C460.142 362.278 460.39 363.301 460.39 364.46C460.39 365.619 460.14 366.642 459.64 367.528C459.14 368.415 458.415 369.105 457.466 369.599C456.523 370.094 455.381 370.341 454.04 370.341H449.651V367.384H453.444C454.154 367.384 454.739 367.261 455.199 367.017C455.665 366.767 456.012 366.423 456.239 365.986C456.472 365.543 456.588 365.034 456.588 364.46C456.588 363.881 456.472 363.375 456.239 362.943C456.012 362.506 455.665 362.168 455.199 361.929C454.733 361.685 454.142 361.562 453.426 361.562H450.938V376H447.248Z" fill="black"/>
<circle cx="777.5" cy="415.5" r="17.5" stroke="black" stroke-width="2"/>
<path d="M771.248 424V406.545H778.134C779.458 406.545 780.586 406.798 781.517 407.304C782.449 407.804 783.159 408.5 783.648 409.392C784.142 410.278 784.39 411.301 784.39 412.46C784.39 413.619 784.14 414.642 783.64 415.528C783.14 416.415 782.415 417.105 781.466 417.599C780.523 418.094 779.381 418.341 778.04 418.341H773.651V415.384H777.444C778.154 415.384 778.739 415.261 779.199 415.017C779.665 414.767 780.012 414.423 780.239 413.986C780.472 413.543 780.588 413.034 780.588 412.46C780.588 411.881 780.472 411.375 780.239 410.943C780.012 410.506 779.665 410.168 779.199 409.929C778.733 409.685 778.142 409.562 777.426 409.562H774.938V424H771.248Z" fill="black"/>
<circle cx="261.5" cy="415.5" r="17.5" stroke="black" stroke-width="2"/>
<path d="M255.248 424V406.545H262.134C263.458 406.545 264.586 406.798 265.517 407.304C266.449 407.804 267.159 408.5 267.648 409.392C268.142 410.278 268.39 411.301 268.39 412.46C268.39 413.619 268.14 414.642 267.64 415.528C267.14 416.415 266.415 417.105 265.466 417.599C264.523 418.094 263.381 418.341 262.04 418.341H257.651V415.384H261.444C262.154 415.384 262.739 415.261 263.199 415.017C263.665 414.767 264.012 414.423 264.239 413.986C264.472 413.543 264.588 413.034 264.588 412.46C264.588 411.881 264.472 411.375 264.239 410.943C264.012 410.506 263.665 410.168 263.199 409.929C262.733 409.685 262.142 409.562 261.426 409.562H258.938V424H255.248Z" fill="black"/>
<circle cx="651.5" cy="893.5" r="17.5" stroke="black" stroke-width="2"/>
<path d="M645.248 902V884.545H652.134C653.458 884.545 654.586 884.798 655.517 885.304C656.449 885.804 657.159 886.5 657.648 887.392C658.142 888.278 658.39 889.301 658.39 890.46C658.39 891.619 658.14 892.642 657.64 893.528C657.14 894.415 656.415 895.105 655.466 895.599C654.523 896.094 653.381 896.341 652.04 896.341H647.651V893.384H651.444C652.154 893.384 652.739 893.261 653.199 893.017C653.665 892.767 654.012 892.423 654.239 891.986C654.472 891.543 654.588 891.034 654.588 890.46C654.588 889.881 654.472 889.375 654.239 888.943C654.012 888.506 653.665 888.168 653.199 887.929C652.733 887.685 652.142 887.562 651.426 887.562H648.938V902H645.248Z" fill="black"/>
<circle cx="261.5" cy="957.5" r="17.5" stroke="black" stroke-width="2"/>
<path d="M255.248 966V948.545H262.134C263.458 948.545 264.586 948.798 265.517 949.304C266.449 949.804 267.159 950.5 267.648 951.392C268.142 952.278 268.39 953.301 268.39 954.46C268.39 955.619 268.14 956.642 267.64 957.528C267.14 958.415 266.415 959.105 265.466 959.599C264.523 960.094 263.381 960.341 262.04 960.341H257.651V957.384H261.444C262.154 957.384 262.739 957.261 263.199 957.017C263.665 956.767 264.012 956.423 264.239 955.986C264.472 955.543 264.588 955.034 264.588 954.46C264.588 953.881 264.472 953.375 264.239 952.943C264.012 952.506 263.665 952.168 263.199 951.929C262.733 951.685 262.142 951.562 261.426 951.562H258.938V966H255.248Z" fill="black"/>
<rect x="141" y="450" width="52" height="52" stroke="black" stroke-width="2"/>
<line x1="141.646" y1="501.646" x2="192.646" y2="450.646" stroke="black"/>
<line x1="192.646" y1="501.354" x2="141.646" y2="450.354" stroke="black"/>
<rect x="614" y="389" width="52" height="52" stroke="black" stroke-width="2"/>
<line x1="614.646" y1="440.646" x2="665.646" y2="389.646" stroke="black"/>
<line x1="665.646" y1="440.354" x2="614.646" y2="389.354" stroke="black"/>
<rect x="400" y="953" width="24" height="24" stroke="black" stroke-width="2"/>
<line x1="399.61" y1="977.165" x2="424.165" y2="952.609" stroke="black"/>
<line x1="424.165" y1="977.391" x2="399.609" y2="952.835" stroke="black"/>
<rect x="400" y="993" width="24" height="24" stroke="black" stroke-width="2"/>
<line x1="399.61" y1="1017.16" x2="424.165" y2="992.609" stroke="black"/>
<line x1="424.165" y1="1017.39" x2="399.609" y2="992.835" stroke="black"/>
<rect x="583" y="763" width="24" height="24" stroke="black" stroke-width="2"/>
<line x1="582.609" y1="787.165" x2="607.165" y2="762.609" stroke="black"/>
<line x1="607.165" y1="787.391" x2="582.609" y2="762.835" stroke="black"/>
<rect x="470" y="763" width="24" height="24" stroke="black" stroke-width="2"/>
<line x1="469.61" y1="787.165" x2="494.165" y2="762.609" stroke="black"/>
<line x1="494.165" y1="787.391" x2="469.609" y2="762.835" stroke="black"/>
<rect x="375" y="356" width="24" height="24" stroke="black" stroke-width="2"/>
<line x1="374.61" y1="380.165" x2="399.165" y2="355.609" stroke="black"/>
<line x1="399.165" y1="380.391" x2="374.609" y2="355.835" stroke="black"/>
<path d="M452.25 953.772L471.05 965L452.25 976.228L452.25 953.772Z" stroke="black" stroke-width="2"/>
<rect x="502" y="957" width="35" height="16" stroke="black" stroke-width="2"/>
<rect x="430.5" y="912.5" width="35" height="16" transform="rotate(-90 430.5 912.5)" stroke="black" stroke-width="2"/>
<rect x="446" y="464" width="35" height="16" transform="rotate(-90 446 464)" stroke="black" stroke-width="2"/>
<rect x="502" y="997" width="35" height="16" stroke="black" stroke-width="2"/>
<rect x="307" y="429" width="18" height="18" stroke="black" stroke-width="2"/>
<path fill-rule="evenodd" clip-rule="evenodd" d="M736.978 976.798L747.588 968.185L745.698 965.856L735.087 974.468C733.07 976.106 730.55 977 727.951 977C725.138 977 722.426 975.953 720.342 974.062L697.009 952.889L696.58 952.5L696.001 952.5L569 952.5L567.5 952.5L567.5 954L567.5 984.035L567.5 984.5V985.535L567.5 986L567.5 1016.04L567.5 1017.54H569L696.001 1017.54H696.58L697.009 1017.15L720.342 995.973C722.426 994.082 725.138 993.035 727.951 993.035C730.55 993.035 733.07 993.929 735.087 995.567L745.698 1004.18L747.588 1001.85L736.978 993.238C734.426 991.166 731.239 990.035 727.951 990.035C724.393 990.035 720.962 991.36 718.326 993.751L695.421 1014.54L570.5 1014.54L570.5 986L570.5 985.535V984.5L570.5 984.035L570.5 955.5L695.421 955.5L718.326 976.284C720.962 978.675 724.393 980 727.951 980C731.239 980 734.426 978.869 736.978 976.798Z" fill="black"/>
<rect x="344" y="482" width="143" height="236" stroke="black" stroke-width="2"/>
<line x1="386.5" y1="380" x2="386.5" y2="482" stroke="black" stroke-width="3"/>
<line x1="595.5" y1="415" x2="595.5" y2="763" stroke="black" stroke-width="3"/>
<path d="M325 438H365V482" stroke="black" stroke-width="3"/>
<path d="M244 416H126V385" stroke="black" stroke-width="3"/>
<path d="M400 1005L167 1004.5L167 502" stroke="black" stroke-width="3"/>
<path d="M400 965L382 964.755L382 718" stroke="black" stroke-width="3"/>
<path d="M470 775L446 774.943L446 718" stroke="black" stroke-width="3"/>
<line x1="386.5" y1="331" x2="386.5" y2="356" stroke="black" stroke-width="3"/>
<line x1="519" y1="775.5" x2="494" y2="775.5" stroke="black" stroke-width="3"/>
<line x1="307" y1="438.5" x2="291" y2="438.5" stroke="black" stroke-width="3"/>
<line x1="209.5" y1="385" x2="209.5" y2="415" stroke="black" stroke-width="3"/>
<line x1="209.5" y1="341" x2="209.5" y2="350" stroke="black" stroke-width="3"/>
<line x1="709.5" y1="340" x2="709.5" y2="350" stroke="black" stroke-width="3"/>
<line x1="709.5" y1="385" x2="709.5" y2="415" stroke="black" stroke-width="3"/>
<line x1="125.5" y1="341" x2="125.5" y2="350" stroke="black" stroke-width="3"/>
<line x1="167.5" y1="416" x2="167.5" y2="450" stroke="black" stroke-width="3"/>
<line x1="453.5" y1="385" x2="453.5" y2="429" stroke="black" stroke-width="3"/>
<path d="M502 1005H424" stroke="black" stroke-width="3"/>
<path d="M614 415H454" stroke="black" stroke-width="3"/>
<path d="M760 415H666" stroke="black" stroke-width="3"/>
<path d="M569 1005H537" stroke="black" stroke-width="3"/>
<path d="M569 965H537" stroke="black" stroke-width="3"/>
<path d="M502 965H470" stroke="black" stroke-width="3"/>
<path d="M439 965L439 913" stroke="black" stroke-width="3"/>
<path d="M262 1005L262 975" stroke="black" stroke-width="3"/>
<path d="M652 954L652 911" stroke="black" stroke-width="3"/>
<path d="M439 878L439 846.096L595 846.096L595 787" stroke="black" stroke-width="3"/>
<path d="M452 965H424" stroke="black" stroke-width="3"/>
<line x1="453.5" y1="464" x2="453.5" y2="482" stroke="black" stroke-width="3"/>
<path d="M344 518.5H344.126C344.697 518.5 345.256 518.337 345.737 518.031L348.889 516.025C349.872 515.4 351.128 515.4 352.111 516.025L355.263 518.031C355.744 518.337 356.303 518.5 356.874 518.5H357" stroke="black"/>
<path d="M357 518.5H357.126C357.697 518.5 358.256 518.337 358.737 518.031L361.889 516.025C362.872 515.4 364.128 515.4 365.111 516.025L368.263 518.031C368.744 518.337 369.303 518.5 369.874 518.5H370" stroke="black"/>
<path d="M370 518.5H370.126C370.697 518.5 371.256 518.337 371.737 518.031L374.889 516.025C375.872 515.4 377.128 515.4 378.111 516.025L381.263 518.031C381.744 518.337 382.303 518.5 382.874 518.5H383" stroke="black"/>
<path d="M383 518.5H383.126C383.697 518.5 384.256 518.337 384.737 518.031L387.889 516.025C388.872 515.4 390.128 515.4 391.111 516.025L394.263 518.031C394.744 518.337 395.303 518.5 395.874 518.5H396" stroke="black"/>
<path d="M396 518.5H396.126C396.697 518.5 397.256 518.337 397.737 518.031L400.889 516.025C401.872 515.4 403.128 515.4 404.111 516.025L407.263 518.031C407.744 518.337 408.303 518.5 408.874 518.5H409" stroke="black"/>
<path d="M409 518.5H409.126C409.697 518.5 410.256 518.337 410.737 518.031L413.889 516.025C414.872 515.4 416.128 515.4 417.111 516.025L420.263 518.031C420.744 518.337 421.303 518.5 421.874 518.5H422" stroke="black"/>
<path d="M422 518.5H422.126C422.697 518.5 423.256 518.337 423.737 518.031L426.889 516.025C427.872 515.4 429.128 515.4 430.111 516.025L433.263 518.031C433.744 518.337 434.303 518.5 434.874 518.5H435" stroke="black"/>
<path d="M435 518.5H435.126C435.697 518.5 436.256 518.337 436.737 518.031L439.889 516.025C440.872 515.4 442.128 515.4 443.111 516.025L446.263 518.031C446.744 518.337 447.303 518.5 447.874 518.5H448" stroke="black"/>
<path d="M448 518.5H448.126C448.697 518.5 449.256 518.337 449.737 518.031L452.889 516.025C453.872 515.4 455.128 515.4 456.111 516.025L459.263 518.031C459.744 518.337 460.303 518.5 460.874 518.5H461" stroke="black"/>
<path d="M461 518.5H461.126C461.697 518.5 462.256 518.337 462.737 518.031L465.889 516.025C466.872 515.4 468.128 515.4 469.111 516.025L472.263 518.031C472.744 518.337 473.303 518.5 473.874 518.5H474" stroke="black"/>
<path d="M474 518.5H474.126C474.697 518.5 475.256 518.337 475.737 518.031L478.889 516.025C479.872 515.4 481.128 515.4 482.111 516.025L485.263 518.031C485.744 518.337 486.303 518.5 486.874 518.5H487" stroke="black"/>
<line x1="351" y1="528.5" x2="431" y2="528.5" stroke="black" stroke-dasharray="4 2 5 4 2 5"/>
<line x1="401" y1="538.5" x2="481" y2="538.5" stroke="black" stroke-dasharray="4 2 5 4 2 5"/>
<line x1="391" y1="698.5" x2="471" y2="698.5" stroke="black" stroke-dasharray="4 2 5 4 2 5"/>
<line x1="377" y1="547.5" x2="423" y2="547.5" stroke="black" stroke-dasharray="4 2 5 4 2 5"/>
<line x1="404" y1="648.5" x2="481" y2="648.5" stroke="black" stroke-dasharray="4 2 5 4 2 5"/>
<line x1="364" y1="673.5" x2="391" y2="673.5" stroke="black" stroke-dasharray="4 2 5 4 2 5"/>
<line x1="364" y1="593.5" x2="391" y2="593.5" stroke="black" stroke-dasharray="4 2 5 4 2 5"/>
<line x1="371" y1="688.5" x2="446" y2="688.5" stroke="black" stroke-dasharray="4 2 5 4 2 5"/>
<line x1="407" y1="617.5" x2="453" y2="617.5" stroke="black" stroke-dasharray="4 2 5 4 2 5"/>
<line x1="348" y1="636.5" x2="378" y2="636.5" stroke="black" stroke-dasharray="4 2 5 4 2 5"/>
<line x1="365" y1="566.5" x2="445" y2="566.5" stroke="black" stroke-dasharray="4 2 5 4 2 5"/>
<line x1="452" y1="591.5" x2="484" y2="591.5" stroke="black" stroke-dasharray="4 2 5 4 2 5"/>
<line x1="374" y1="623.5" x2="405" y2="623.5" stroke="black" stroke-dasharray="4 2 5 4 2 5"/>
<path d="M119.896 207.52C119.448 207.52 119.088 207.4 118.816 207.16C118.56 206.936 118.416 206.472 118.384 205.768L118.504 205.624C118.84 205.688 119.168 205.736 119.488 205.768C119.824 205.816 120.144 205.84 120.448 205.84C121.296 205.84 122.056 205.704 122.728 205.432C123.4 205.16 123.928 204.784 124.312 204.304C124.712 203.824 124.912 203.272 124.912 202.648C124.912 202.12 124.752 201.672 124.432 201.304C124.128 200.936 123.608 200.616 122.872 200.344C122.152 200.072 121.16 199.832 119.896 199.624L119.68 199.36C119.744 198.656 119.8 197.96 119.848 197.272C119.896 196.568 119.936 195.936 119.968 195.376C120.016 194.8 120.048 194.344 120.064 194.008C120.08 193.672 120.088 193.504 120.088 193.504L120.28 193.312L124.816 193.12C125.28 193.088 125.616 193.016 125.824 192.904C126.032 192.776 126.2 192.536 126.328 192.184L127.12 192.088L126.544 194.92L126.4 195.064C126.4 195.064 126.152 195.048 125.656 195.016C125.176 194.984 124.536 194.952 123.736 194.92C122.936 194.888 122.072 194.872 121.144 194.872L120.976 197.896C122.048 198.136 123.016 198.424 123.88 198.76C124.76 199.096 125.456 199.52 125.968 200.032C126.48 200.528 126.736 201.16 126.736 201.928C126.736 202.664 126.52 203.368 126.088 204.04C125.656 204.696 125.088 205.288 124.384 205.816C123.696 206.344 122.952 206.76 122.152 207.064C121.368 207.368 120.616 207.52 119.896 207.52Z" fill="black"/>
<path d="M202.453 483.856L204.349 481.744C205.245 480.72 205.981 479.808 206.557 479.008C207.133 478.208 207.557 477.504 207.829 476.896C208.117 476.288 208.261 475.76 208.261 475.312C208.261 474.736 208.101 474.288 207.781 473.968C207.461 473.648 207.021 473.488 206.461 473.488C205.917 473.488 205.381 473.68 204.853 474.064C204.325 474.448 203.877 474.968 203.509 475.624H203.293L203.029 474.544C203.301 474.032 203.653 473.576 204.085 473.176C204.533 472.776 205.013 472.464 205.525 472.24C206.053 472 206.573 471.88 207.085 471.88C208.077 471.88 208.869 472.144 209.461 472.672C210.069 473.2 210.373 473.896 210.373 474.76C210.373 475.24 210.213 475.792 209.893 476.416C209.589 477.024 209.069 477.8 208.333 478.744C207.597 479.688 206.573 480.896 205.261 482.368L205.357 482.536H209.029C209.621 482.536 210.077 482.48 210.397 482.368C210.733 482.256 210.997 482.048 211.189 481.744C211.381 481.424 211.557 480.96 211.717 480.352L212.677 480.232C212.677 480.232 212.645 480.344 212.581 480.568C212.533 480.792 212.469 481.088 212.389 481.456C212.325 481.824 212.253 482.232 212.173 482.68C212.093 483.128 212.029 483.568 211.981 484L211.693 484.168C211.693 484.168 211.493 484.16 211.093 484.144C210.709 484.144 210.205 484.128 209.581 484.096C208.957 484.08 208.293 484.064 207.589 484.048C206.885 484.032 206.213 484.016 205.573 484C204.933 484 204.405 484 203.989 484L202.693 484.288L202.453 483.856Z" fill="black"/>
<path d="M332.853 378.52L331.413 378.088L331.173 377.56L337.173 365.8L333.021 365.968C332.477 365.984 332.061 366.064 331.773 366.208C331.501 366.336 331.301 366.56 331.173 366.88C331.045 367.184 330.925 367.624 330.813 368.2L329.877 368.344C329.877 368.344 329.893 368.216 329.925 367.96C329.957 367.704 329.997 367.368 330.045 366.952C330.109 366.536 330.165 366.088 330.213 365.608C330.261 365.112 330.301 364.64 330.333 364.192L330.477 364.072C330.477 364.072 330.613 364.08 330.885 364.096C331.173 364.112 331.541 364.128 331.989 364.144C332.437 364.16 332.909 364.168 333.405 364.168H338.469L338.997 364.84C338.309 366.232 337.685 367.52 337.125 368.704C336.565 369.888 336.061 370.968 335.613 371.944C335.181 372.904 334.797 373.768 334.461 374.536C334.141 375.288 333.861 375.928 333.621 376.456L333.021 378.52H332.853ZM340.987 379.768L340.555 379.408V379.168C341.099 378.8 341.547 378.352 341.899 377.824C342.267 377.296 342.451 376.776 342.451 376.264C342.451 375.928 342.371 375.616 342.211 375.328C342.067 375.024 341.891 374.776 341.683 374.584L341.731 374.248C341.891 374.12 342.099 373.984 342.355 373.84C342.611 373.696 342.867 373.624 343.123 373.624C343.459 373.624 343.747 373.784 343.987 374.104C344.227 374.424 344.347 374.888 344.347 375.496C344.347 376.104 344.163 376.68 343.795 377.224C343.443 377.768 343.003 378.256 342.475 378.688C341.963 379.12 341.467 379.48 340.987 379.768ZM355.835 376.288C355.115 376.288 354.443 376.168 353.819 375.928C353.195 375.672 352.691 375.304 352.307 374.824C351.923 374.328 351.731 373.728 351.731 373.024C351.731 372.272 351.915 371.632 352.283 371.104C352.651 370.576 353.075 370.144 353.555 369.808C354.051 369.472 354.475 369.224 354.827 369.064C354.123 368.68 353.499 368.224 352.955 367.696C352.427 367.152 352.163 366.44 352.163 365.56C352.163 364.888 352.347 364.256 352.715 363.664C353.083 363.056 353.587 362.568 354.227 362.2C354.883 361.832 355.635 361.648 356.483 361.648C357.107 361.648 357.699 361.768 358.259 362.008C358.835 362.232 359.307 362.584 359.675 363.064C360.043 363.544 360.227 364.144 360.227 364.864C360.227 365.472 360.099 366.008 359.843 366.472C359.587 366.92 359.275 367.304 358.907 367.624C358.539 367.928 358.187 368.168 357.851 368.344C358.363 368.616 358.835 368.92 359.267 369.256C359.699 369.592 360.051 369.984 360.323 370.432C360.595 370.864 360.731 371.392 360.731 372.016C360.731 372.8 360.515 373.52 360.083 374.176C359.651 374.816 359.067 375.328 358.331 375.712C357.595 376.096 356.763 376.288 355.835 376.288ZM356.411 375.256C357.115 375.256 357.731 375.016 358.259 374.536C358.803 374.056 359.075 373.448 359.075 372.712C359.075 372.168 358.907 371.712 358.571 371.344C358.251 370.96 357.827 370.632 357.299 370.36C356.787 370.072 356.243 369.784 355.667 369.496C355.411 369.608 355.107 369.784 354.755 370.024C354.419 370.248 354.123 370.56 353.867 370.96C353.611 371.344 353.483 371.84 353.483 372.448C353.483 372.928 353.603 373.384 353.843 373.816C354.099 374.248 354.451 374.6 354.899 374.872C355.347 375.128 355.851 375.256 356.411 375.256ZM356.987 367.912C357.307 367.72 357.627 367.424 357.947 367.024C358.267 366.624 358.427 366.072 358.427 365.368C358.427 364.52 358.195 363.872 357.731 363.424C357.283 362.976 356.731 362.752 356.075 362.752C355.387 362.752 354.843 362.968 354.443 363.4C354.043 363.816 353.843 364.296 353.843 364.84C353.843 365.336 353.995 365.76 354.299 366.112C354.603 366.464 354.995 366.784 355.475 367.072C355.955 367.344 356.459 367.624 356.987 367.912Z" fill="black"/>
<path d="M315.477 476.288C314.629 476.288 313.877 476.08 313.221 475.664C312.581 475.232 312.077 474.64 311.709 473.888C311.341 473.12 311.157 472.248 311.157 471.272C311.157 470.216 311.333 469.208 311.685 468.248C312.053 467.272 312.581 466.368 313.269 465.536C313.957 464.704 314.789 463.96 315.765 463.304C316.757 462.648 317.877 462.096 319.125 461.648L319.293 461.768L319.557 462.488C317.493 463.368 315.893 464.56 314.757 466.064C313.637 467.552 313.077 469.24 313.077 471.128C313.077 472.36 313.333 473.336 313.845 474.056C314.373 474.776 315.077 475.136 315.957 475.136C316.741 475.136 317.357 474.88 317.805 474.368C318.253 473.84 318.477 473.136 318.477 472.256C318.477 471.68 318.341 471.16 318.069 470.696C317.813 470.232 317.469 469.864 317.037 469.592C316.605 469.304 316.117 469.16 315.573 469.16C315.157 469.16 314.693 469.264 314.181 469.472C313.685 469.664 313.269 469.912 312.933 470.216L313.101 468.824L313.437 468.992C314.045 468.608 314.589 468.304 315.069 468.08C315.549 467.856 315.893 467.744 316.101 467.744C316.885 467.744 317.589 467.92 318.213 468.272C318.837 468.608 319.333 469.072 319.701 469.664C320.069 470.256 320.253 470.928 320.253 471.68C320.253 472.56 320.045 473.344 319.629 474.032C319.213 474.72 318.645 475.272 317.925 475.688C317.205 476.088 316.389 476.288 315.477 476.288Z" fill="black"/>
<path d="M402.176 944.288L402.32 943.184C402.912 943.136 403.36 943.032 403.664 942.872C403.984 942.712 404.2 942.448 404.312 942.08C404.424 941.696 404.48 941.152 404.48 940.448V934.976C404.48 934.368 404.368 933.992 404.144 933.848C403.92 933.688 403.6 933.608 403.184 933.608C402.928 933.608 402.648 933.632 402.344 933.68C402.056 933.728 401.912 933.752 401.912 933.752L401.84 933.68L401.936 932.672C401.936 932.672 402.072 932.656 402.344 932.624C402.616 932.592 402.952 932.552 403.352 932.504C403.768 932.44 404.176 932.376 404.576 932.312C405.376 932.184 405.936 932.088 406.256 932.024C406.592 931.96 406.792 931.92 406.856 931.904C406.936 931.888 406.984 931.88 407 931.88L407.144 932.288C406.84 932.544 406.624 932.808 406.496 933.08C406.368 933.336 406.288 933.744 406.256 934.304C406.224 935.152 406.192 936.04 406.16 936.968C406.144 937.896 406.128 938.752 406.112 939.536C406.112 940.304 406.112 940.896 406.112 941.312C406.112 941.952 406.192 942.384 406.352 942.608C406.512 942.832 406.824 942.944 407.288 942.944C407.576 942.944 407.856 942.936 408.128 942.92C408.416 942.888 408.56 942.872 408.56 942.872L408.608 942.968L408.392 944.072C408.392 944.072 408.28 944.064 408.056 944.048C407.848 944.048 407.576 944.04 407.24 944.024C406.904 944.024 406.552 944.016 406.184 944C405.816 944 405.488 944 405.2 944C404.896 944 404.568 944.016 404.216 944.048C403.864 944.08 403.536 944.112 403.232 944.144C402.928 944.176 402.672 944.208 402.464 944.24C402.272 944.272 402.176 944.288 402.176 944.288ZM415.275 944.288C414.251 944.288 413.347 944.04 412.563 943.544C411.795 943.048 411.195 942.36 410.763 941.48C410.331 940.584 410.115 939.544 410.115 938.36C410.115 937.112 410.363 936 410.859 935.024C411.371 934.048 412.067 933.28 412.947 932.72C413.827 932.16 414.827 931.88 415.947 931.88C416.955 931.88 417.843 932.128 418.611 932.624C419.395 933.104 420.003 933.784 420.435 934.664C420.867 935.528 421.083 936.536 421.083 937.688C421.083 938.952 420.827 940.088 420.315 941.096C419.819 942.088 419.131 942.872 418.251 943.448C417.387 944.008 416.395 944.288 415.275 944.288ZM415.707 942.464C416.907 942.464 417.875 942.088 418.611 941.336C419.363 940.568 419.739 939.576 419.739 938.36C419.739 937.464 419.555 936.68 419.187 936.008C418.819 935.32 418.315 934.784 417.675 934.4C417.035 934.016 416.291 933.824 415.443 933.824C414.243 933.824 413.275 934.208 412.539 934.976C411.819 935.728 411.459 936.736 411.459 938C411.459 938.88 411.635 939.656 411.987 940.328C412.355 941 412.859 941.528 413.499 941.912C414.139 942.28 414.875 942.464 415.707 942.464Z" fill="black"/>
<path d="M402.176 1042.29L402.32 1041.18C402.912 1041.14 403.36 1041.03 403.664 1040.87C403.984 1040.71 404.2 1040.45 404.312 1040.08C404.424 1039.7 404.48 1039.15 404.48 1038.45V1032.98C404.48 1032.37 404.368 1031.99 404.144 1031.85C403.92 1031.69 403.6 1031.61 403.184 1031.61C402.928 1031.61 402.648 1031.63 402.344 1031.68C402.056 1031.73 401.912 1031.75 401.912 1031.75L401.84 1031.68L401.936 1030.67C401.936 1030.67 402.072 1030.66 402.344 1030.62C402.616 1030.59 402.952 1030.55 403.352 1030.5C403.768 1030.44 404.176 1030.38 404.576 1030.31C405.376 1030.18 405.936 1030.09 406.256 1030.02C406.592 1029.96 406.792 1029.92 406.856 1029.9C406.936 1029.89 406.984 1029.88 407 1029.88L407.144 1030.29C406.84 1030.54 406.624 1030.81 406.496 1031.08C406.368 1031.34 406.288 1031.74 406.256 1032.3C406.224 1033.15 406.192 1034.04 406.16 1034.97C406.144 1035.9 406.128 1036.75 406.112 1037.54C406.112 1038.3 406.112 1038.9 406.112 1039.31C406.112 1039.95 406.192 1040.38 406.352 1040.61C406.512 1040.83 406.824 1040.94 407.288 1040.94C407.576 1040.94 407.856 1040.94 408.128 1040.92C408.416 1040.89 408.56 1040.87 408.56 1040.87L408.608 1040.97L408.392 1042.07C408.392 1042.07 408.28 1042.06 408.056 1042.05C407.848 1042.05 407.576 1042.04 407.24 1042.02C406.904 1042.02 406.552 1042.02 406.184 1042C405.816 1042 405.488 1042 405.2 1042C404.896 1042 404.568 1042.02 404.216 1042.05C403.864 1042.08 403.536 1042.11 403.232 1042.14C402.928 1042.18 402.672 1042.21 402.464 1042.24C402.272 1042.27 402.176 1042.29 402.176 1042.29ZM415.275 1042.29C414.251 1042.29 413.347 1042.04 412.563 1041.54C411.795 1041.05 411.195 1040.36 410.763 1039.48C410.331 1038.58 410.115 1037.54 410.115 1036.36C410.115 1035.11 410.363 1034 410.859 1033.02C411.371 1032.05 412.067 1031.28 412.947 1030.72C413.827 1030.16 414.827 1029.88 415.947 1029.88C416.955 1029.88 417.843 1030.13 418.611 1030.62C419.395 1031.1 420.003 1031.78 420.435 1032.66C420.867 1033.53 421.083 1034.54 421.083 1035.69C421.083 1036.95 420.827 1038.09 420.315 1039.1C419.819 1040.09 419.131 1040.87 418.251 1041.45C417.387 1042.01 416.395 1042.29 415.275 1042.29ZM415.707 1040.46C416.907 1040.46 417.875 1040.09 418.611 1039.34C419.363 1038.57 419.739 1037.58 419.739 1036.36C419.739 1035.46 419.555 1034.68 419.187 1034.01C418.819 1033.32 418.315 1032.78 417.675 1032.4C417.035 1032.02 416.291 1031.82 415.443 1031.82C414.243 1031.82 413.275 1032.21 412.539 1032.98C411.819 1033.73 411.459 1034.74 411.459 1036C411.459 1036.88 411.635 1037.66 411.987 1038.33C412.355 1039 412.859 1039.53 413.499 1039.91C414.139 1040.28 414.875 1040.46 415.707 1040.46Z" fill="black"/>
<path d="M624.082 993.288L624.226 992.184C624.818 992.136 625.266 992.032 625.57 991.872C625.89 991.712 626.106 991.448 626.218 991.08C626.33 990.696 626.386 990.152 626.386 989.448V983.976C626.386 983.368 626.274 982.992 626.05 982.848C625.826 982.688 625.506 982.608 625.09 982.608C624.834 982.608 624.554 982.632 624.25 982.68C623.962 982.728 623.818 982.752 623.818 982.752L623.746 982.68L623.842 981.672C623.842 981.672 623.978 981.656 624.25 981.624C624.522 981.592 624.858 981.552 625.258 981.504C625.674 981.44 626.082 981.376 626.482 981.312C627.282 981.184 627.842 981.088 628.162 981.024C628.498 980.96 628.698 980.92 628.762 980.904C628.842 980.888 628.89 980.88 628.906 980.88L629.05 981.288C628.746 981.544 628.53 981.808 628.402 982.08C628.274 982.336 628.194 982.744 628.162 983.304C628.13 984.152 628.098 985.04 628.066 985.968C628.05 986.896 628.034 987.752 628.018 988.536C628.018 989.304 628.018 989.896 628.018 990.312C628.018 990.952 628.098 991.384 628.258 991.608C628.418 991.832 628.73 991.944 629.194 991.944C629.482 991.944 629.762 991.936 630.034 991.92C630.322 991.888 630.466 991.872 630.466 991.872L630.514 991.968L630.298 993.072C630.298 993.072 630.186 993.064 629.962 993.048C629.754 993.048 629.482 993.04 629.146 993.024C628.81 993.024 628.458 993.016 628.09 993C627.722 993 627.394 993 627.106 993C626.802 993 626.474 993.016 626.122 993.048C625.77 993.08 625.442 993.112 625.138 993.144C624.834 993.176 624.578 993.208 624.37 993.24C624.178 993.272 624.082 993.288 624.082 993.288ZM633.197 995.52C632.653 995.52 632.261 995.384 632.021 995.112C631.797 994.84 631.677 994.392 631.661 993.768L631.781 993.624C632.453 993.768 633.093 993.84 633.701 993.84C634.501 993.84 635.221 993.696 635.861 993.408C636.501 993.136 637.005 992.76 637.373 992.28C637.757 991.8 637.949 991.256 637.949 990.648C637.949 989.832 637.597 989.232 636.893 988.848C636.205 988.448 635.125 988.24 633.653 988.224L633.533 988.104L633.413 987.264L634.973 986.88C635.613 986.576 636.133 986.168 636.533 985.656C636.949 985.128 637.157 984.6 637.157 984.072C637.157 983.56 636.973 983.152 636.605 982.848C636.253 982.544 635.813 982.392 635.285 982.392C634.837 982.392 634.357 982.504 633.845 982.728C633.349 982.952 632.917 983.248 632.549 983.616C632.517 983.616 632.477 983.616 632.429 983.616C632.381 983.616 632.341 983.616 632.309 983.616L632.069 982.608C632.069 982.608 632.189 982.52 632.429 982.344C632.669 982.168 632.981 981.968 633.365 981.744C633.765 981.52 634.197 981.32 634.661 981.144C635.125 980.968 635.581 980.88 636.029 980.88C636.973 980.88 637.725 981.128 638.285 981.624C638.861 982.104 639.149 982.752 639.149 983.568C639.149 984.208 638.909 984.832 638.429 985.44C637.949 986.048 637.309 986.56 636.509 986.976V987.096C637.597 987.352 638.405 987.728 638.933 988.224C639.477 988.72 639.749 989.336 639.749 990.072C639.749 990.712 639.557 991.352 639.173 991.992C638.789 992.632 638.269 993.216 637.613 993.744C636.973 994.288 636.269 994.72 635.501 995.04C634.733 995.36 633.965 995.52 633.197 995.52Z" fill="black"/>
<path d="M416.303 610.52L416.159 610.304C416.159 610.304 416.167 610.168 416.183 609.896C416.199 609.624 416.215 609.264 416.23 608.816C416.247 608.384 416.263 607.92 416.279 607.424C416.295 606.912 416.303 606.424 416.303 605.96C415.375 605.928 414.391 605.904 413.351 605.888C412.311 605.872 411.319 605.864 410.375 605.864C410.391 605.72 410.407 605.576 410.423 605.432C410.439 605.272 410.455 605.12 410.471 604.976L417.095 595.904C417.111 595.904 417.127 595.904 417.143 595.904C417.159 595.888 417.175 595.88 417.191 595.88L417.959 596.12V604.568H420.191L420.335 604.76L420.143 606.08C420.143 606.08 419.943 606.072 419.543 606.056C419.143 606.04 418.615 606.024 417.959 606.008C417.975 606.648 417.991 607.28 418.007 607.904C418.039 608.528 418.063 609.04 418.079 609.44C418.111 609.856 418.127 610.064 418.127 610.064L418.007 610.232L416.303 610.52ZM412.223 604.568H416.303V599.192H416.087L412.223 604.568Z" fill="black"/>
<path d="M460.473 948.288L460.617 947.184C461.209 947.136 461.657 947.032 461.961 946.872C462.281 946.712 462.497 946.448 462.609 946.08C462.721 945.696 462.777 945.152 462.777 944.448V938.976C462.777 938.368 462.665 937.992 462.441 937.848C462.217 937.688 461.897 937.608 461.481 937.608C461.225 937.608 460.945 937.632 460.641 937.68C460.353 937.728 460.209 937.752 460.209 937.752L460.137 937.68L460.233 936.672C460.233 936.672 460.369 936.656 460.641 936.624C460.913 936.592 461.249 936.552 461.649 936.504C462.065 936.44 462.473 936.376 462.873 936.312C463.673 936.184 464.233 936.088 464.553 936.024C464.889 935.96 465.089 935.92 465.153 935.904C465.233 935.888 465.281 935.88 465.297 935.88L465.441 936.288C465.137 936.544 464.921 936.808 464.793 937.08C464.665 937.336 464.585 937.744 464.553 938.304C464.521 939.152 464.489 940.04 464.457 940.968C464.441 941.896 464.425 942.752 464.409 943.536C464.409 944.304 464.409 944.896 464.409 945.312C464.409 945.952 464.489 946.384 464.649 946.608C464.809 946.832 465.121 946.944 465.585 946.944C465.873 946.944 466.153 946.936 466.425 946.92C466.713 946.888 466.857 946.872 466.857 946.872L466.905 946.968L466.689 948.072C466.689 948.072 466.577 948.064 466.353 948.048C466.145 948.048 465.873 948.04 465.537 948.024C465.201 948.024 464.849 948.016 464.481 948C464.113 948 463.785 948 463.497 948C463.193 948 462.865 948.016 462.513 948.048C462.161 948.08 461.833 948.112 461.529 948.144C461.225 948.176 460.969 948.208 460.761 948.24C460.569 948.272 460.473 948.288 460.473 948.288ZM468.676 948.288L468.82 947.184C469.412 947.136 469.86 947.032 470.164 946.872C470.484 946.712 470.7 946.448 470.812 946.08C470.924 945.696 470.98 945.152 470.98 944.448V938.976C470.98 938.368 470.868 937.992 470.644 937.848C470.42 937.688 470.1 937.608 469.684 937.608C469.428 937.608 469.148 937.632 468.844 937.68C468.556 937.728 468.412 937.752 468.412 937.752L468.34 937.68L468.436 936.672C468.436 936.672 468.572 936.656 468.844 936.624C469.116 936.592 469.452 936.552 469.852 936.504C470.268 936.44 470.676 936.376 471.076 936.312C471.876 936.184 472.436 936.088 472.756 936.024C473.092 935.96 473.292 935.92 473.356 935.904C473.436 935.888 473.484 935.88 473.5 935.88L473.644 936.288C473.34 936.544 473.124 936.808 472.996 937.08C472.868 937.336 472.788 937.744 472.756 938.304C472.724 939.152 472.692 940.04 472.66 940.968C472.644 941.896 472.628 942.752 472.612 943.536C472.612 944.304 472.612 944.896 472.612 945.312C472.612 945.952 472.692 946.384 472.852 946.608C473.012 946.832 473.324 946.944 473.788 946.944C474.076 946.944 474.356 946.936 474.628 946.92C474.916 946.888 475.06 946.872 475.06 946.872L475.108 946.968L474.892 948.072C474.892 948.072 474.78 948.064 474.556 948.048C474.348 948.048 474.076 948.04 473.74 948.024C473.404 948.024 473.052 948.016 472.684 948C472.316 948 471.988 948 471.7 948C471.396 948 471.068 948.016 470.716 948.048C470.364 948.08 470.036 948.112 469.732 948.144C469.428 948.176 469.172 948.208 468.964 948.24C468.772 948.272 468.676 948.288 468.676 948.288Z" fill="black"/>
<path d="M516.596 950.52C516.052 950.52 515.66 950.384 515.42 950.112C515.196 949.84 515.076 949.392 515.06 948.768L515.18 948.624C515.852 948.768 516.492 948.84 517.1 948.84C517.9 948.84 518.62 948.696 519.26 948.408C519.9 948.136 520.404 947.76 520.772 947.28C521.156 946.8 521.348 946.256 521.348 945.648C521.348 944.832 520.996 944.232 520.292 943.848C519.604 943.448 518.524 943.24 517.052 943.224L516.932 943.104L516.812 942.264L518.372 941.88C519.012 941.576 519.532 941.168 519.932 940.656C520.348 940.128 520.556 939.6 520.556 939.072C520.556 938.56 520.372 938.152 520.004 937.848C519.652 937.544 519.212 937.392 518.684 937.392C518.236 937.392 517.756 937.504 517.244 937.728C516.748 937.952 516.316 938.248 515.948 938.616C515.916 938.616 515.876 938.616 515.828 938.616C515.78 938.616 515.74 938.616 515.708 938.616L515.468 937.608C515.468 937.608 515.588 937.52 515.828 937.344C516.068 937.168 516.38 936.968 516.764 936.744C517.164 936.52 517.596 936.32 518.06 936.144C518.524 935.968 518.98 935.88 519.428 935.88C520.372 935.88 521.124 936.128 521.684 936.624C522.26 937.104 522.548 937.752 522.548 938.568C522.548 939.208 522.308 939.832 521.828 940.44C521.348 941.048 520.708 941.56 519.908 941.976V942.096C520.996 942.352 521.804 942.728 522.332 943.224C522.876 943.72 523.148 944.336 523.148 945.072C523.148 945.712 522.956 946.352 522.572 946.992C522.188 947.632 521.668 948.216 521.012 948.744C520.372 949.288 519.668 949.72 518.9 950.04C518.132 950.36 517.364 950.52 516.596 950.52Z" fill="black"/>
<path d="M516.596 1040.52C516.052 1040.52 515.66 1040.38 515.42 1040.11C515.196 1039.84 515.076 1039.39 515.06 1038.77L515.18 1038.62C515.852 1038.77 516.492 1038.84 517.1 1038.84C517.9 1038.84 518.62 1038.7 519.26 1038.41C519.9 1038.14 520.404 1037.76 520.772 1037.28C521.156 1036.8 521.348 1036.26 521.348 1035.65C521.348 1034.83 520.996 1034.23 520.292 1033.85C519.604 1033.45 518.524 1033.24 517.052 1033.22L516.932 1033.1L516.812 1032.26L518.372 1031.88C519.012 1031.58 519.532 1031.17 519.932 1030.66C520.348 1030.13 520.556 1029.6 520.556 1029.07C520.556 1028.56 520.372 1028.15 520.004 1027.85C519.652 1027.54 519.212 1027.39 518.684 1027.39C518.236 1027.39 517.756 1027.5 517.244 1027.73C516.748 1027.95 516.316 1028.25 515.948 1028.62C515.916 1028.62 515.876 1028.62 515.828 1028.62C515.78 1028.62 515.74 1028.62 515.708 1028.62L515.468 1027.61C515.468 1027.61 515.588 1027.52 515.828 1027.34C516.068 1027.17 516.38 1026.97 516.764 1026.74C517.164 1026.52 517.596 1026.32 518.06 1026.14C518.524 1025.97 518.98 1025.88 519.428 1025.88C520.372 1025.88 521.124 1026.13 521.684 1026.62C522.26 1027.1 522.548 1027.75 522.548 1028.57C522.548 1029.21 522.308 1029.83 521.828 1030.44C521.348 1031.05 520.708 1031.56 519.908 1031.98V1032.1C520.996 1032.35 521.804 1032.73 522.332 1033.22C522.876 1033.72 523.148 1034.34 523.148 1035.07C523.148 1035.71 522.956 1036.35 522.572 1036.99C522.188 1037.63 521.668 1038.22 521.012 1038.74C520.372 1039.29 519.668 1039.72 518.9 1040.04C518.132 1040.36 517.364 1040.52 516.596 1040.52Z" fill="black"/>
<path d="M634.453 470.856L636.349 468.744C637.245 467.72 637.981 466.808 638.557 466.008C639.133 465.208 639.557 464.504 639.829 463.896C640.117 463.288 640.261 462.76 640.261 462.312C640.261 461.736 640.101 461.288 639.781 460.968C639.461 460.648 639.021 460.488 638.461 460.488C637.917 460.488 637.381 460.68 636.853 461.064C636.325 461.448 635.877 461.968 635.509 462.624H635.293L635.029 461.544C635.301 461.032 635.653 460.576 636.085 460.176C636.533 459.776 637.013 459.464 637.525 459.24C638.053 459 638.573 458.88 639.085 458.88C640.077 458.88 640.869 459.144 641.461 459.672C642.069 460.2 642.373 460.896 642.373 461.76C642.373 462.24 642.213 462.792 641.893 463.416C641.589 464.024 641.069 464.8 640.333 465.744C639.597 466.688 638.573 467.896 637.261 469.368L637.357 469.536H641.029C641.621 469.536 642.077 469.48 642.397 469.368C642.733 469.256 642.997 469.048 643.189 468.744C643.381 468.424 643.557 467.96 643.717 467.352L644.677 467.232C644.677 467.232 644.645 467.344 644.581 467.568C644.533 467.792 644.469 468.088 644.389 468.456C644.325 468.824 644.253 469.232 644.173 469.68C644.093 470.128 644.029 470.568 643.981 471L643.693 471.168C643.693 471.168 643.493 471.16 643.093 471.144C642.709 471.144 642.205 471.128 641.581 471.096C640.957 471.08 640.293 471.064 639.589 471.048C638.885 471.032 638.213 471.016 637.573 471C636.933 471 636.405 471 635.989 471L634.693 471.288L634.453 470.856Z" fill="black"/>
<path d="M474.596 457.52C474.052 457.52 473.66 457.384 473.42 457.112C473.196 456.84 473.076 456.392 473.06 455.768L473.18 455.624C473.852 455.768 474.492 455.84 475.1 455.84C475.9 455.84 476.62 455.696 477.26 455.408C477.9 455.136 478.404 454.76 478.772 454.28C479.156 453.8 479.348 453.256 479.348 452.648C479.348 451.832 478.996 451.232 478.292 450.848C477.604 450.448 476.524 450.24 475.052 450.224L474.932 450.104L474.812 449.264L476.372 448.88C477.012 448.576 477.532 448.168 477.932 447.656C478.348 447.128 478.556 446.6 478.556 446.072C478.556 445.56 478.372 445.152 478.004 444.848C477.652 444.544 477.212 444.392 476.684 444.392C476.236 444.392 475.756 444.504 475.244 444.728C474.748 444.952 474.316 445.248 473.948 445.616C473.916 445.616 473.876 445.616 473.828 445.616C473.78 445.616 473.74 445.616 473.708 445.616L473.468 444.608C473.468 444.608 473.588 444.52 473.828 444.344C474.068 444.168 474.38 443.968 474.764 443.744C475.164 443.52 475.596 443.32 476.06 443.144C476.524 442.968 476.98 442.88 477.428 442.88C478.372 442.88 479.124 443.128 479.684 443.624C480.26 444.104 480.548 444.752 480.548 445.568C480.548 446.208 480.308 446.832 479.828 447.44C479.348 448.048 478.708 448.56 477.908 448.976V449.096C478.996 449.352 479.804 449.728 480.332 450.224C480.876 450.72 481.148 451.336 481.148 452.072C481.148 452.712 480.956 453.352 480.572 453.992C480.188 454.632 479.668 455.216 479.012 455.744C478.372 456.288 477.668 456.72 476.9 457.04C476.132 457.36 475.364 457.52 474.596 457.52Z" fill="black"/>
<path d="M458.596 906.52C458.052 906.52 457.66 906.384 457.42 906.112C457.196 905.84 457.076 905.392 457.06 904.768L457.18 904.624C457.852 904.768 458.492 904.84 459.1 904.84C459.9 904.84 460.62 904.696 461.26 904.408C461.9 904.136 462.404 903.76 462.772 903.28C463.156 902.8 463.348 902.256 463.348 901.648C463.348 900.832 462.996 900.232 462.292 899.848C461.604 899.448 460.524 899.24 459.052 899.224L458.932 899.104L458.812 898.264L460.372 897.88C461.012 897.576 461.532 897.168 461.932 896.656C462.348 896.128 462.556 895.6 462.556 895.072C462.556 894.56 462.372 894.152 462.004 893.848C461.652 893.544 461.212 893.392 460.684 893.392C460.236 893.392 459.756 893.504 459.244 893.728C458.748 893.952 458.316 894.248 457.948 894.616C457.916 894.616 457.876 894.616 457.828 894.616C457.78 894.616 457.74 894.616 457.708 894.616L457.468 893.608C457.468 893.608 457.588 893.52 457.828 893.344C458.068 893.168 458.38 892.968 458.764 892.744C459.164 892.52 459.596 892.32 460.06 892.144C460.524 891.968 460.98 891.88 461.428 891.88C462.372 891.88 463.124 892.128 463.684 892.624C464.26 893.104 464.548 893.752 464.548 894.568C464.548 895.208 464.308 895.832 463.828 896.44C463.348 897.048 462.708 897.56 461.908 897.976V898.096C462.996 898.352 463.804 898.728 464.332 899.224C464.876 899.72 465.148 900.336 465.148 901.072C465.148 901.712 464.956 902.352 464.572 902.992C464.188 903.632 463.668 904.216 463.012 904.744C462.372 905.288 461.668 905.72 460.9 906.04C460.132 906.36 459.364 906.52 458.596 906.52Z" fill="black"/>
<path d="M478.507 814.52L478.339 814.4L478.075 813.68C480.139 812.8 481.731 811.616 482.851 810.128C483.987 808.624 484.555 806.928 484.555 805.04C484.555 803.808 484.299 802.832 483.787 802.112C483.275 801.392 482.571 801.032 481.675 801.032C480.891 801.032 480.275 801.288 479.827 801.8C479.379 802.312 479.155 803.016 479.155 803.912C479.155 804.472 479.283 804.992 479.539 805.472C479.811 805.936 480.163 806.312 480.595 806.6C481.043 806.872 481.531 807.008 482.059 807.008C482.475 807.008 482.931 806.912 483.427 806.72C483.939 806.512 484.363 806.256 484.699 805.952L484.531 807.344L484.195 807.176C483.587 807.56 483.043 807.864 482.563 808.088C482.083 808.312 481.739 808.424 481.531 808.424C480.747 808.424 480.043 808.256 479.419 807.92C478.795 807.568 478.299 807.096 477.931 806.504C477.563 805.896 477.379 805.224 477.379 804.488C477.379 803.608 477.587 802.824 478.003 802.136C478.419 801.448 478.987 800.904 479.707 800.504C480.443 800.088 481.259 799.88 482.155 799.88C483.003 799.88 483.747 800.096 484.387 800.528C485.043 800.944 485.555 801.528 485.923 802.28C486.291 803.032 486.475 803.904 486.475 804.896C486.475 805.952 486.291 806.968 485.923 807.944C485.571 808.904 485.051 809.8 484.363 810.632C483.675 811.464 482.835 812.208 481.843 812.864C480.867 813.52 479.755 814.072 478.507 814.52Z" fill="black"/>
<path d="M621.379 783.288L621.523 782.184C622.115 782.136 622.563 782.032 622.867 781.872C623.187 781.712 623.403 781.448 623.515 781.08C623.627 780.696 623.683 780.152 623.683 779.448V773.976C623.683 773.368 623.571 772.992 623.347 772.848C623.123 772.688 622.803 772.608 622.387 772.608C622.131 772.608 621.851 772.632 621.547 772.68C621.259 772.728 621.115 772.752 621.115 772.752L621.043 772.68L621.139 771.672C621.139 771.672 621.275 771.656 621.547 771.624C621.819 771.592 622.155 771.552 622.555 771.504C622.971 771.44 623.379 771.376 623.779 771.312C624.579 771.184 625.139 771.088 625.459 771.024C625.795 770.96 625.995 770.92 626.059 770.904C626.139 770.888 626.187 770.88 626.203 770.88L626.347 771.288C626.043 771.544 625.827 771.808 625.699 772.08C625.571 772.336 625.491 772.744 625.459 773.304C625.427 774.152 625.395 775.04 625.363 775.968C625.347 776.896 625.331 777.752 625.315 778.536C625.315 779.304 625.315 779.896 625.315 780.312C625.315 780.952 625.395 781.384 625.555 781.608C625.715 781.832 626.027 781.944 626.491 781.944C626.779 781.944 627.059 781.936 627.331 781.92C627.619 781.888 627.763 781.872 627.763 781.872L627.811 781.968L627.595 783.072C627.595 783.072 627.483 783.064 627.259 783.048C627.051 783.048 626.779 783.04 626.443 783.024C626.107 783.024 625.755 783.016 625.387 783C625.019 783 624.691 783 624.403 783C624.099 783 623.771 783.016 623.419 783.048C623.067 783.08 622.739 783.112 622.435 783.144C622.131 783.176 621.875 783.208 621.667 783.24C621.475 783.272 621.379 783.288 621.379 783.288ZM629.054 782.856L630.95 780.744C631.846 779.72 632.582 778.808 633.158 778.008C633.734 777.208 634.158 776.504 634.43 775.896C634.718 775.288 634.862 774.76 634.862 774.312C634.862 773.736 634.702 773.288 634.382 772.968C634.062 772.648 633.622 772.488 633.062 772.488C632.518 772.488 631.982 772.68 631.454 773.064C630.926 773.448 630.478 773.968 630.11 774.624H629.894L629.63 773.544C629.902 773.032 630.254 772.576 630.686 772.176C631.134 771.776 631.614 771.464 632.126 771.24C632.654 771 633.174 770.88 633.686 770.88C634.678 770.88 635.47 771.144 636.062 771.672C636.67 772.2 636.974 772.896 636.974 773.76C636.974 774.24 636.814 774.792 636.494 775.416C636.19 776.024 635.67 776.8 634.934 777.744C634.198 778.688 633.174 779.896 631.862 781.368L631.958 781.536H635.63C636.222 781.536 636.678 781.48 636.998 781.368C637.334 781.256 637.598 781.048 637.79 780.744C637.982 780.424 638.158 779.96 638.318 779.352L639.278 779.232C639.278 779.232 639.246 779.344 639.182 779.568C639.134 779.792 639.07 780.088 638.99 780.456C638.926 780.824 638.854 781.232 638.774 781.68C638.694 782.128 638.63 782.568 638.582 783L638.294 783.168C638.294 783.168 638.094 783.16 637.694 783.144C637.31 783.144 636.806 783.128 636.182 783.096C635.558 783.08 634.894 783.064 634.19 783.048C633.486 783.032 632.814 783.016 632.174 783C631.534 783 631.006 783 630.59 783L629.294 783.288L629.054 782.856Z" fill="black"/>
<path d="M203.896 207.52C203.448 207.52 203.088 207.4 202.816 207.16C202.56 206.936 202.416 206.472 202.384 205.768L202.504 205.624C202.84 205.688 203.168 205.736 203.488 205.768C203.824 205.816 204.144 205.84 204.448 205.84C205.296 205.84 206.056 205.704 206.728 205.432C207.4 205.16 207.928 204.784 208.312 204.304C208.712 203.824 208.912 203.272 208.912 202.648C208.912 202.12 208.752 201.672 208.432 201.304C208.128 200.936 207.608 200.616 206.872 200.344C206.152 200.072 205.16 199.832 203.896 199.624L203.68 199.36C203.744 198.656 203.8 197.96 203.848 197.272C203.896 196.568 203.936 195.936 203.968 195.376C204.016 194.8 204.048 194.344 204.064 194.008C204.08 193.672 204.088 193.504 204.088 193.504L204.28 193.312L208.816 193.12C209.28 193.088 209.616 193.016 209.824 192.904C210.032 192.776 210.2 192.536 210.328 192.184L211.12 192.088L210.544 194.92L210.4 195.064C210.4 195.064 210.152 195.048 209.656 195.016C209.176 194.984 208.536 194.952 207.736 194.92C206.936 194.888 206.072 194.872 205.144 194.872L204.976 197.896C206.048 198.136 207.016 198.424 207.88 198.76C208.76 199.096 209.456 199.52 209.968 200.032C210.48 200.528 210.736 201.16 210.736 201.928C210.736 202.664 210.52 203.368 210.088 204.04C209.656 204.696 209.088 205.288 208.384 205.816C207.696 206.344 206.952 206.76 206.152 207.064C205.368 207.368 204.616 207.52 203.896 207.52Z" fill="black"/>
<path d="M706.574 205.288L706.718 204.184C707.31 204.136 707.758 204.032 708.062 203.872C708.382 203.712 708.598 203.448 708.71 203.08C708.822 202.696 708.878 202.152 708.878 201.448V195.976C708.878 195.368 708.766 194.992 708.542 194.848C708.318 194.688 707.998 194.608 707.582 194.608C707.326 194.608 707.046 194.632 706.742 194.68C706.454 194.728 706.31 194.752 706.31 194.752L706.238 194.68L706.334 193.672C706.334 193.672 706.47 193.656 706.742 193.624C707.014 193.592 707.35 193.552 707.75 193.504C708.166 193.44 708.574 193.376 708.974 193.312C709.774 193.184 710.334 193.088 710.654 193.024C710.99 192.96 711.19 192.92 711.254 192.904C711.334 192.888 711.382 192.88 711.398 192.88L711.542 193.288C711.238 193.544 711.022 193.808 710.894 194.08C710.766 194.336 710.686 194.744 710.654 195.304C710.622 196.152 710.59 197.04 710.558 197.968C710.542 198.896 710.526 199.752 710.51 200.536C710.51 201.304 710.51 201.896 710.51 202.312C710.51 202.952 710.59 203.384 710.75 203.608C710.91 203.832 711.222 203.944 711.686 203.944C711.974 203.944 712.254 203.936 712.526 203.92C712.814 203.888 712.958 203.872 712.958 203.872L713.006 203.968L712.79 205.072C712.79 205.072 712.678 205.064 712.454 205.048C712.246 205.048 711.974 205.04 711.638 205.024C711.302 205.024 710.95 205.016 710.582 205C710.214 205 709.886 205 709.598 205C709.294 205 708.966 205.016 708.614 205.048C708.262 205.08 707.934 205.112 707.63 205.144C707.326 205.176 707.07 205.208 706.862 205.24C706.67 205.272 706.574 205.288 706.574 205.288Z" fill="black"/>
<path d="M314 432L311.113 437L316.887 437L314 432ZM313.5 436.5L313.5 444L314.5 444L314.5 436.5L313.5 436.5Z" fill="black"/>
</svg>
