<svg width="887" height="409" viewBox="0 0 887 409" fill="none" xmlns="http://www.w3.org/2000/svg">
<line x1="199.354" y1="18.6464" x2="256.354" y2="75.6464" stroke="#C2C2C2"/>
<line x1="209.354" y1="18.6464" x2="256.354" y2="65.6464" stroke="#C2C2C2"/>
<line x1="219.354" y1="18.6464" x2="256.354" y2="55.6464" stroke="#C2C2C2"/>
<line x1="229.354" y1="18.6464" x2="256.354" y2="45.6464" stroke="#C2C2C2"/>
<line x1="239.354" y1="18.6464" x2="256.354" y2="35.6464" stroke="#C2C2C2"/>
<line x1="249.354" y1="18.6464" x2="256.354" y2="25.6464" stroke="#C2C2C2"/>
<line x1="189.354" y1="18.6464" x2="256.354" y2="85.6464" stroke="#C2C2C2"/>
<line x1="179.354" y1="18.6464" x2="256.354" y2="95.6464" stroke="#C2C2C2"/>
<line x1="169.354" y1="18.6464" x2="256.354" y2="105.646" stroke="#C2C2C2"/>
<line x1="160.354" y1="19.6464" x2="256.354" y2="115.646" stroke="#C2C2C2"/>
<line x1="149.354" y1="18.6464" x2="256.354" y2="125.646" stroke="#C2C2C2"/>
<line x1="148.354" y1="27.6464" x2="256.354" y2="135.646" stroke="#C2C2C2"/>
<line x1="148.354" y1="37.6464" x2="256.354" y2="145.646" stroke="#C2C2C2"/>
<line x1="148.354" y1="47.6464" x2="256.354" y2="155.646" stroke="#C2C2C2"/>
<line x1="149.354" y1="58.6464" x2="256.354" y2="165.646" stroke="#C2C2C2"/>
<line x1="149.354" y1="68.6464" x2="256.354" y2="175.646" stroke="#C2C2C2"/>
<line x1="149.354" y1="78.6464" x2="256.354" y2="185.646" stroke="#C2C2C2"/>
<line x1="149.354" y1="88.6464" x2="256.354" y2="195.646" stroke="#C2C2C2"/>
<line x1="149.354" y1="98.6464" x2="256.354" y2="205.646" stroke="#C2C2C2"/>
<line x1="148.354" y1="107.646" x2="256.354" y2="215.646" stroke="#C2C2C2"/>
<line x1="148.354" y1="117.646" x2="256.354" y2="225.646" stroke="#C2C2C2"/>
<line x1="148.354" y1="127.646" x2="256.354" y2="235.646" stroke="#C2C2C2"/>
<line x1="148.354" y1="137.646" x2="256.354" y2="245.646" stroke="#C2C2C2"/>
<line x1="148.354" y1="147.646" x2="256.354" y2="255.646" stroke="#C2C2C2"/>
<line x1="148.354" y1="157.646" x2="256.354" y2="265.646" stroke="#C2C2C2"/>
<line x1="148.354" y1="167.646" x2="256.354" y2="275.646" stroke="#C2C2C2"/>
<line x1="148.354" y1="177.646" x2="256.354" y2="285.646" stroke="#C2C2C2"/>
<line x1="148.354" y1="187.646" x2="256.354" y2="295.646" stroke="#C2C2C2"/>
<line x1="148.354" y1="197.646" x2="256.354" y2="305.646" stroke="#C2C2C2"/>
<line x1="148.354" y1="207.646" x2="245.354" y2="304.646" stroke="#C2C2C2"/>
<line x1="148.354" y1="217.646" x2="235.354" y2="304.646" stroke="#C2C2C2"/>
<line x1="148.354" y1="227.646" x2="225.354" y2="304.646" stroke="#C2C2C2"/>
<line x1="148.354" y1="237.646" x2="215.354" y2="304.646" stroke="#C2C2C2"/>
<line x1="148.354" y1="247.646" x2="205.354" y2="304.646" stroke="#C2C2C2"/>
<line x1="148.354" y1="257.646" x2="195.354" y2="304.646" stroke="#C2C2C2"/>
<line x1="148.354" y1="267.646" x2="185.354" y2="304.646" stroke="#C2C2C2"/>
<line x1="148.354" y1="277.646" x2="175.354" y2="304.646" stroke="#C2C2C2"/>
<line x1="148.354" y1="287.646" x2="165.354" y2="304.646" stroke="#C2C2C2"/>
<line x1="148.354" y1="297.646" x2="155.354" y2="304.646" stroke="#C2C2C2"/>
<rect x="147.5" y="58.5" width="43" height="43" fill="white" stroke="black"/>
<rect x="191" y="39" width="45" height="82" fill="white" stroke="black" stroke-width="2"/>
<rect x="190.5" y="150.5" width="41" height="23" fill="white" stroke="black"/>
<rect x="191" y="203" width="45" height="82" fill="white" stroke="black" stroke-width="2"/>
<path d="M236.5 87.4974V78.8915L255.5 90.5026V99.1085L236.5 87.4974Z" fill="white" stroke="black"/>
<path d="M236.5 236.503V245.108L255.5 233.497V224.892L236.5 236.503Z" fill="white" stroke="black"/>
<line x1="260" y1="159.5" x2="344" y2="159.5" stroke="black" stroke-dasharray="4 4"/>
<line x1="260" y1="164.5" x2="344" y2="164.5" stroke="black" stroke-dasharray="4 4"/>
<line x1="258.734" y1="227.577" x2="347.734" y2="171.577" stroke="black" stroke-dasharray="4 4"/>
<line y1="-0.5" x2="105.152" y2="-0.5" transform="matrix(0.846392 0.532561 0.532561 -0.846392 259 96)" stroke="black" stroke-dasharray="4 4"/>
<path d="M93.4221 381.288L93.5661 380.184C94.3181 380.04 94.8221 379.832 95.0781 379.56C95.3501 379.272 95.4861 378.792 95.4861 378.12L95.5101 368.04C95.5101 367.528 95.4461 367.184 95.3181 367.008C95.2061 366.832 94.9741 366.744 94.6221 366.744C94.5101 366.744 94.3501 366.752 94.1421 366.768C93.9501 366.768 93.7741 366.776 93.6141 366.792L93.5661 366.696L93.7341 365.64C94.1501 365.656 94.6381 365.672 95.1981 365.688C95.7741 365.704 96.2381 365.712 96.5901 365.712C96.9261 365.712 97.3501 365.696 97.8621 365.664C98.3901 365.616 98.8861 365.56 99.3501 365.496L99.2541 366.576C98.5981 366.656 98.1501 366.792 97.9101 366.984C97.6861 367.16 97.5581 367.48 97.5261 367.944C97.4781 368.824 97.4301 369.76 97.3821 370.752C97.3501 371.744 97.3181 372.728 97.2861 373.704C97.2541 374.664 97.2301 375.552 97.2141 376.368C97.1981 377.168 97.1901 377.816 97.1901 378.312C97.1901 378.952 97.2621 379.384 97.4061 379.608C97.5501 379.832 97.8301 379.944 98.2461 379.944C98.4701 379.944 98.7021 379.936 98.9421 379.92C99.1821 379.904 99.3741 379.888 99.5181 379.872L99.5661 379.968L99.3501 381.072C99.0621 381.056 98.7261 381.04 98.3421 381.024C97.9581 381.024 97.5741 381.016 97.1901 381C96.8061 381 96.4781 381 96.2061 381C95.8541 381 95.4141 381.024 94.8861 381.072C94.3741 381.136 93.8861 381.208 93.4221 381.288ZM110.278 381.456C109.766 380.016 109.254 378.576 108.742 377.136C108.23 375.696 107.718 374.264 107.206 372.84C106.694 371.4 106.182 369.96 105.67 368.52H105.55C105.55 368.52 105.526 368.768 105.478 369.264C105.446 369.744 105.398 370.376 105.334 371.16C105.27 371.928 105.198 372.752 105.118 373.632C105.038 374.512 104.966 375.36 104.902 376.176C104.838 376.976 104.782 377.656 104.734 378.216C104.702 378.76 104.686 379.088 104.686 379.2C104.686 379.696 104.934 379.944 105.43 379.944C105.558 379.944 105.75 379.944 106.006 379.944C106.278 379.928 106.414 379.92 106.414 379.92L106.462 380.016L106.246 381.096C106.246 381.096 106.102 381.088 105.814 381.072C105.542 381.056 105.222 381.04 104.854 381.024C104.502 381.008 104.19 381 103.918 381C103.678 381 103.438 381.008 103.198 381.024C102.958 381.04 102.734 381.064 102.526 381.096C102.318 381.128 102.15 381.152 102.022 381.168C101.91 381.184 101.854 381.192 101.854 381.192L101.974 380.088C102.486 380.024 102.854 379.864 103.078 379.608C103.302 379.336 103.446 378.88 103.51 378.24C103.542 377.952 103.59 377.52 103.654 376.944C103.718 376.352 103.79 375.688 103.87 374.952C103.95 374.2 104.022 373.44 104.086 372.672C104.166 371.904 104.238 371.176 104.302 370.488C104.382 369.8 104.438 369.224 104.47 368.76C104.518 368.28 104.542 367.984 104.542 367.872C104.542 367.584 104.47 367.352 104.326 367.176C104.182 367 103.958 366.864 103.654 366.768C103.35 366.656 102.958 366.584 102.478 366.552L102.406 366.432L102.598 365.592C102.598 365.592 102.758 365.6 103.078 365.616C103.414 365.632 103.79 365.656 104.206 365.688C104.622 365.704 104.958 365.712 105.214 365.712C105.454 365.712 105.694 365.704 105.934 365.688C106.19 365.672 106.406 365.656 106.582 365.64C106.758 365.624 106.846 365.616 106.846 365.616C107.39 367.36 107.902 368.96 108.382 370.416C108.878 371.872 109.31 373.128 109.678 374.184C110.062 375.24 110.358 376.064 110.566 376.656C110.79 377.232 110.902 377.52 110.902 377.52H111.022C111.022 377.52 111.126 377.232 111.334 376.656C111.558 376.064 111.862 375.24 112.246 374.184C112.63 373.112 113.07 371.856 113.566 370.416C114.062 368.976 114.598 367.392 115.174 365.664C115.174 365.648 115.27 365.648 115.462 365.664C115.67 365.68 115.894 365.696 116.134 365.712C116.39 365.712 116.598 365.712 116.758 365.712C116.998 365.712 117.326 365.704 117.742 365.688C118.158 365.656 118.526 365.632 118.846 365.616C119.182 365.584 119.35 365.568 119.35 365.568L119.398 365.664L119.278 366.552C118.59 366.632 118.102 366.776 117.814 366.984C117.526 367.176 117.382 367.472 117.382 367.872C117.382 368.016 117.39 368.336 117.406 368.832C117.438 369.328 117.478 369.936 117.526 370.656C117.574 371.376 117.622 372.152 117.67 372.984C117.734 373.8 117.79 374.616 117.838 375.432C117.902 376.248 117.958 376.992 118.006 377.664C118.118 378.592 118.246 379.208 118.39 379.512C118.534 379.8 118.798 379.944 119.182 379.944C119.326 379.944 119.47 379.936 119.614 379.92C119.774 379.904 119.854 379.896 119.854 379.896L119.902 379.992L119.686 381.072C119.686 381.072 119.558 381.064 119.302 381.048C119.046 381.032 118.734 381.016 118.366 381C118.014 381 117.694 381 117.406 381C117.15 381 116.878 381.008 116.59 381.024C116.302 381.04 116.03 381.064 115.774 381.096C115.518 381.128 115.31 381.152 115.15 381.168C114.99 381.184 114.91 381.192 114.91 381.192L115.006 380.088C115.502 380.024 115.862 379.896 116.086 379.704C116.31 379.512 116.422 379.24 116.422 378.888C116.422 378.744 116.398 378.4 116.35 377.856C116.318 377.296 116.27 376.624 116.206 375.84C116.142 375.056 116.078 374.24 116.014 373.392C115.95 372.544 115.886 371.752 115.822 371.016C115.758 370.28 115.702 369.68 115.654 369.216C115.622 368.752 115.606 368.52 115.606 368.52H115.486C115.102 369.576 114.718 370.64 114.334 371.712C113.95 372.768 113.558 373.832 113.158 374.904C112.774 375.976 112.39 377.048 112.006 378.12C111.622 379.176 111.238 380.232 110.854 381.288L110.278 381.456ZM122.582 381.192L122.75 380.088C123.454 379.96 123.918 379.776 124.142 379.536C124.366 379.28 124.478 378.808 124.478 378.12L124.502 368.04C124.502 367.528 124.438 367.184 124.31 367.008C124.198 366.832 123.966 366.744 123.614 366.744C123.47 366.744 123.294 366.752 123.086 366.768C122.894 366.784 122.798 366.792 122.798 366.792L122.75 366.696L122.918 365.64C122.918 365.64 123.078 365.648 123.398 365.664C123.718 365.68 124.086 365.696 124.502 365.712C124.918 365.712 125.278 365.712 125.582 365.712C125.742 365.712 125.982 365.712 126.302 365.712C126.638 365.696 126.982 365.68 127.334 365.664C127.686 365.648 127.982 365.64 128.222 365.64C128.478 365.624 128.606 365.616 128.606 365.616C129.438 365.616 130.166 365.712 130.79 365.904C131.43 366.08 131.966 366.352 132.398 366.72C132.846 367.088 133.182 367.536 133.406 368.064C133.63 368.592 133.742 369.2 133.742 369.888C133.742 370.576 133.59 371.232 133.286 371.856C132.982 372.48 132.574 373.04 132.062 373.536C131.55 374.032 130.966 374.424 130.31 374.712C129.654 375 128.966 375.144 128.246 375.144H126.23L126.182 377.496C126.182 378.216 126.206 378.752 126.254 379.104C126.302 379.456 126.398 379.688 126.542 379.8C126.702 379.896 126.934 379.944 127.238 379.944C127.478 379.944 127.75 379.936 128.054 379.92C128.374 379.888 128.534 379.872 128.534 379.872L128.582 379.968L128.366 381.072C128.366 381.072 128.286 381.064 128.126 381.048C127.982 381.048 127.79 381.04 127.55 381.024C127.326 381.024 127.086 381.016 126.83 381C126.59 381 126.366 381 126.158 381C125.838 381 125.47 381.008 125.054 381.024C124.654 381.04 124.27 381.056 123.902 381.072C123.534 381.088 123.222 381.104 122.966 381.12C122.726 381.152 122.598 381.176 122.582 381.192ZM128.822 374.088C130.758 373.768 131.726 372.52 131.726 370.344C131.726 369.112 131.366 368.216 130.646 367.656C129.926 367.08 128.782 366.792 127.214 366.792C126.926 366.792 126.75 366.808 126.686 366.84C126.622 366.856 126.582 366.952 126.566 367.128C126.502 368.2 126.446 369.312 126.398 370.464C126.35 371.6 126.31 372.688 126.278 373.728L128.822 374.088ZM135.633 381.288L135.777 380.184C136.529 380.04 137.033 379.832 137.289 379.56C137.561 379.272 137.697 378.792 137.697 378.12L137.721 368.04C137.721 367.528 137.657 367.184 137.529 367.008C137.417 366.832 137.185 366.744 136.833 366.744C136.721 366.744 136.561 366.752 136.353 366.768C136.161 366.768 135.985 366.776 135.825 366.792L135.777 366.696L135.945 365.64C136.361 365.656 136.849 365.672 137.409 365.688C137.985 365.704 138.449 365.712 138.801 365.712C139.137 365.712 139.561 365.696 140.073 365.664C140.601 365.616 141.097 365.56 141.561 365.496L141.465 366.576C140.809 366.656 140.361 366.792 140.121 366.984C139.897 367.16 139.769 367.48 139.737 367.944C139.689 368.824 139.641 369.76 139.593 370.752C139.561 371.744 139.529 372.728 139.497 373.704C139.465 374.664 139.441 375.552 139.425 376.368C139.409 377.168 139.401 377.816 139.401 378.312C139.401 378.952 139.473 379.384 139.617 379.608C139.761 379.832 140.041 379.944 140.457 379.944C140.681 379.944 140.913 379.936 141.153 379.92C141.393 379.904 141.585 379.888 141.729 379.872L141.777 379.968L141.561 381.072C141.273 381.056 140.937 381.04 140.553 381.024C140.169 381.024 139.785 381.016 139.401 381C139.017 381 138.689 381 138.417 381C138.065 381 137.625 381.024 137.097 381.072C136.585 381.136 136.097 381.208 135.633 381.288ZM156.641 381.96C155.473 380.136 154.353 378.424 153.281 376.824C152.209 375.224 151.257 373.824 150.425 372.624C149.593 371.408 148.929 370.456 148.433 369.768C147.953 369.08 147.713 368.736 147.713 368.736H147.593L147.473 378.984C147.473 379.336 147.529 379.584 147.641 379.728C147.753 379.872 147.945 379.944 148.217 379.944C148.297 379.944 148.433 379.944 148.625 379.944C148.833 379.928 149.017 379.92 149.177 379.92C149.353 379.92 149.441 379.92 149.441 379.92L149.489 380.016L149.273 381.096C149.273 381.096 149.185 381.088 149.009 381.072C148.849 381.072 148.641 381.064 148.385 381.048C148.129 381.032 147.849 381.016 147.545 381C147.257 381 146.985 381 146.729 381C146.409 381 146.073 381.016 145.721 381.048C145.385 381.08 145.097 381.112 144.857 381.144C144.617 381.176 144.497 381.192 144.497 381.192L144.617 380.088C145.113 380.024 145.481 379.88 145.721 379.656C145.961 379.432 146.089 379.072 146.105 378.576L146.417 368.088C146.417 367.592 146.265 367.24 145.961 367.032C145.673 366.824 145.129 366.68 144.329 366.6L144.257 366.48L144.449 365.592C144.449 365.592 144.569 365.6 144.809 365.616C145.065 365.632 145.353 365.656 145.673 365.688C146.009 365.704 146.289 365.712 146.513 365.712C146.785 365.712 147.041 365.704 147.281 365.688C147.521 365.672 147.721 365.656 147.881 365.64C148.041 365.624 148.121 365.616 148.121 365.616C148.921 366.848 149.705 368.048 150.473 369.216C151.257 370.384 151.993 371.472 152.681 372.48C153.369 373.488 153.977 374.368 154.505 375.12C155.033 375.872 155.441 376.464 155.729 376.896C156.033 377.312 156.185 377.52 156.185 377.52H156.305V367.8C156.305 367.448 156.241 367.192 156.113 367.032C155.985 366.856 155.785 366.768 155.513 366.768C155.305 366.768 155.097 366.776 154.889 366.792C154.697 366.792 154.601 366.792 154.601 366.792L154.553 366.696L154.769 365.616C154.769 365.616 154.849 365.624 155.009 365.64C155.169 365.64 155.369 365.648 155.609 365.664C155.849 365.68 156.097 365.696 156.353 365.712C156.609 365.712 156.841 365.712 157.049 365.712C157.385 365.712 157.737 365.696 158.105 365.664C158.473 365.632 158.785 365.6 159.041 365.568C159.297 365.536 159.425 365.52 159.425 365.52L159.305 366.624C158.761 366.688 158.353 366.84 158.081 367.08C157.825 367.32 157.689 367.672 157.673 368.136L157.337 381.624L156.641 381.96ZM168.179 381.288C166.755 381.288 165.515 380.984 164.459 380.376C163.419 379.768 162.611 378.912 162.035 377.808C161.459 376.688 161.171 375.376 161.171 373.872C161.171 372.192 161.523 370.72 162.227 369.456C162.931 368.192 163.915 367.208 165.179 366.504C166.459 365.784 167.931 365.424 169.595 365.424C170.091 365.424 170.611 365.456 171.155 365.52C171.699 365.568 172.203 365.632 172.667 365.712C173.131 365.792 173.507 365.864 173.795 365.928C174.099 365.976 174.251 366 174.251 366L174.347 366.144C174.347 366.144 174.307 366.328 174.227 366.696C174.147 367.048 174.051 367.528 173.939 368.136C173.843 368.744 173.771 369.416 173.723 370.152L172.595 370.248C172.595 370.248 172.603 370.112 172.619 369.84C172.651 369.568 172.667 369.272 172.667 368.952C172.667 368.2 172.379 367.664 171.803 367.344C171.243 367.008 170.323 366.84 169.043 366.84C167.827 366.84 166.787 367.088 165.923 367.584C165.059 368.064 164.395 368.776 163.931 369.72C163.483 370.648 163.259 371.776 163.259 373.104C163.259 374.512 163.483 375.744 163.931 376.8C164.395 377.84 165.035 378.648 165.851 379.224C166.667 379.8 167.627 380.088 168.731 380.088C169.371 380.088 169.939 380.016 170.435 379.872C170.931 379.712 171.315 379.56 171.587 379.416C171.875 379.256 172.019 379.176 172.019 379.176V376.248C172.019 375.704 171.931 375.352 171.755 375.192C171.595 375.032 171.243 374.952 170.699 374.952C170.523 374.952 170.299 374.952 170.027 374.952C169.771 374.952 169.539 374.952 169.331 374.952C169.139 374.952 169.043 374.952 169.043 374.952L168.995 374.856L169.211 373.656C169.211 373.656 169.363 373.664 169.667 373.68C169.987 373.696 170.379 373.712 170.843 373.728C171.323 373.744 171.795 373.752 172.259 373.752C172.611 373.752 172.939 373.744 173.243 373.728C173.563 373.696 173.819 373.672 174.011 373.656C174.219 373.64 174.323 373.632 174.323 373.632L174.419 374.16C174.227 374.32 174.075 374.536 173.963 374.808C173.867 375.08 173.795 375.456 173.747 375.936C173.699 376.416 173.675 377.056 173.675 377.856C173.675 378.272 173.691 378.68 173.723 379.08C173.755 379.464 173.795 379.76 173.843 379.968L173.699 380.184C173.699 380.184 173.451 380.28 172.955 380.472C172.459 380.648 171.795 380.824 170.963 381C170.131 381.192 169.203 381.288 168.179 381.288ZM177.563 381.288L177.707 380.184C178.459 380.04 178.963 379.832 179.219 379.56C179.491 379.272 179.627 378.792 179.627 378.12L179.651 368.04C179.651 367.528 179.587 367.184 179.459 367.008C179.347 366.832 179.115 366.744 178.763 366.744C178.651 366.744 178.491 366.752 178.283 366.768C178.091 366.768 177.915 366.776 177.755 366.792L177.707 366.696L177.875 365.64C178.291 365.656 178.779 365.672 179.339 365.688C179.915 365.704 180.379 365.712 180.731 365.712C181.067 365.712 181.491 365.696 182.003 365.664C182.531 365.616 183.027 365.56 183.491 365.496L183.395 366.576C182.739 366.656 182.291 366.792 182.051 366.984C181.827 367.16 181.699 367.48 181.667 367.944C181.619 368.824 181.571 369.76 181.523 370.752C181.491 371.744 181.459 372.728 181.427 373.704C181.395 374.664 181.371 375.552 181.355 376.368C181.339 377.168 181.331 377.816 181.331 378.312C181.331 378.952 181.403 379.384 181.547 379.608C181.691 379.832 181.971 379.944 182.387 379.944C182.611 379.944 182.843 379.936 183.083 379.92C183.323 379.904 183.515 379.888 183.659 379.872L183.707 379.968L183.491 381.072C183.203 381.056 182.867 381.04 182.483 381.024C182.099 381.024 181.715 381.016 181.331 381C180.947 381 180.619 381 180.347 381C179.995 381 179.555 381.024 179.027 381.072C178.515 381.136 178.027 381.208 177.563 381.288ZM198.571 381.96C197.403 380.136 196.283 378.424 195.211 376.824C194.139 375.224 193.187 373.824 192.355 372.624C191.523 371.408 190.859 370.456 190.363 369.768C189.883 369.08 189.643 368.736 189.643 368.736H189.523L189.403 378.984C189.403 379.336 189.459 379.584 189.571 379.728C189.683 379.872 189.875 379.944 190.147 379.944C190.227 379.944 190.363 379.944 190.555 379.944C190.763 379.928 190.947 379.92 191.107 379.92C191.283 379.92 191.371 379.92 191.371 379.92L191.419 380.016L191.203 381.096C191.203 381.096 191.115 381.088 190.939 381.072C190.779 381.072 190.571 381.064 190.315 381.048C190.059 381.032 189.779 381.016 189.475 381C189.187 381 188.915 381 188.659 381C188.339 381 188.003 381.016 187.651 381.048C187.315 381.08 187.027 381.112 186.787 381.144C186.547 381.176 186.427 381.192 186.427 381.192L186.547 380.088C187.043 380.024 187.411 379.88 187.651 379.656C187.891 379.432 188.019 379.072 188.035 378.576L188.347 368.088C188.347 367.592 188.195 367.24 187.891 367.032C187.603 366.824 187.059 366.68 186.259 366.6L186.187 366.48L186.379 365.592C186.379 365.592 186.499 365.6 186.739 365.616C186.995 365.632 187.283 365.656 187.603 365.688C187.939 365.704 188.219 365.712 188.443 365.712C188.715 365.712 188.971 365.704 189.211 365.688C189.451 365.672 189.651 365.656 189.811 365.64C189.971 365.624 190.051 365.616 190.051 365.616C190.851 366.848 191.635 368.048 192.403 369.216C193.187 370.384 193.923 371.472 194.611 372.48C195.299 373.488 195.907 374.368 196.435 375.12C196.963 375.872 197.371 376.464 197.659 376.896C197.963 377.312 198.115 377.52 198.115 377.52H198.235V367.8C198.235 367.448 198.171 367.192 198.043 367.032C197.915 366.856 197.715 366.768 197.443 366.768C197.235 366.768 197.027 366.776 196.819 366.792C196.627 366.792 196.531 366.792 196.531 366.792L196.483 366.696L196.699 365.616C196.699 365.616 196.779 365.624 196.939 365.64C197.099 365.64 197.299 365.648 197.539 365.664C197.779 365.68 198.027 365.696 198.283 365.712C198.539 365.712 198.771 365.712 198.979 365.712C199.315 365.712 199.667 365.696 200.035 365.664C200.403 365.632 200.715 365.6 200.971 365.568C201.227 365.536 201.355 365.52 201.355 365.52L201.235 366.624C200.691 366.688 200.283 366.84 200.011 367.08C199.755 367.32 199.619 367.672 199.603 368.136L199.267 381.624L198.571 381.96ZM210.109 381.288C208.685 381.288 207.445 380.984 206.389 380.376C205.349 379.768 204.541 378.912 203.965 377.808C203.389 376.688 203.101 375.376 203.101 373.872C203.101 372.192 203.453 370.72 204.157 369.456C204.861 368.192 205.845 367.208 207.109 366.504C208.389 365.784 209.861 365.424 211.525 365.424C212.021 365.424 212.541 365.456 213.085 365.52C213.629 365.568 214.133 365.632 214.597 365.712C215.061 365.792 215.437 365.864 215.725 365.928C216.029 365.976 216.181 366 216.181 366L216.277 366.144C216.277 366.144 216.237 366.328 216.157 366.696C216.077 367.048 215.981 367.528 215.869 368.136C215.773 368.744 215.701 369.416 215.653 370.152L214.525 370.248C214.525 370.248 214.533 370.112 214.549 369.84C214.581 369.568 214.597 369.272 214.597 368.952C214.597 368.2 214.309 367.664 213.733 367.344C213.173 367.008 212.253 366.84 210.973 366.84C209.757 366.84 208.717 367.088 207.853 367.584C206.989 368.064 206.325 368.776 205.861 369.72C205.413 370.648 205.189 371.776 205.189 373.104C205.189 374.512 205.413 375.744 205.861 376.8C206.325 377.84 206.965 378.648 207.781 379.224C208.597 379.8 209.557 380.088 210.661 380.088C211.301 380.088 211.869 380.016 212.365 379.872C212.861 379.712 213.245 379.56 213.517 379.416C213.805 379.256 213.949 379.176 213.949 379.176V376.248C213.949 375.704 213.861 375.352 213.685 375.192C213.525 375.032 213.173 374.952 212.629 374.952C212.453 374.952 212.229 374.952 211.957 374.952C211.701 374.952 211.469 374.952 211.261 374.952C211.069 374.952 210.973 374.952 210.973 374.952L210.925 374.856L211.141 373.656C211.141 373.656 211.293 373.664 211.597 373.68C211.917 373.696 212.309 373.712 212.773 373.728C213.253 373.744 213.725 373.752 214.189 373.752C214.541 373.752 214.869 373.744 215.173 373.728C215.493 373.696 215.749 373.672 215.941 373.656C216.149 373.64 216.253 373.632 216.253 373.632L216.349 374.16C216.157 374.32 216.005 374.536 215.893 374.808C215.797 375.08 215.725 375.456 215.677 375.936C215.629 376.416 215.605 377.056 215.605 377.856C215.605 378.272 215.621 378.68 215.653 379.08C215.685 379.464 215.725 379.76 215.773 379.968L215.629 380.184C215.629 380.184 215.381 380.28 214.885 380.472C214.389 380.648 213.725 380.824 212.893 381C212.061 381.192 211.133 381.288 210.109 381.288ZM228.162 381.288C227.41 381.288 226.746 381.216 226.17 381.072C225.61 380.944 225.17 380.816 224.85 380.688C224.546 380.544 224.394 380.472 224.394 380.472L224.274 380.232C224.274 380.232 224.29 380.128 224.322 379.92C224.354 379.696 224.386 379.4 224.418 379.032C224.45 378.648 224.482 378.2 224.514 377.688C224.546 377.176 224.562 376.632 224.562 376.056L225.642 375.936C225.642 377.088 225.722 377.968 225.882 378.576C226.042 379.168 226.346 379.576 226.794 379.8C227.242 380.008 227.898 380.112 228.762 380.112C229.754 380.112 230.554 379.88 231.162 379.416C231.786 378.936 232.098 378.288 232.098 377.472C232.098 376.944 231.922 376.488 231.57 376.104C231.218 375.72 230.762 375.368 230.202 375.048C229.658 374.728 229.074 374.408 228.45 374.088C227.81 373.752 227.186 373.392 226.578 373.008C225.986 372.624 225.498 372.184 225.114 371.688C224.73 371.176 224.538 370.576 224.538 369.888C224.538 369.04 224.778 368.28 225.258 367.608C225.754 366.936 226.418 366.408 227.25 366.024C228.082 365.624 229.018 365.424 230.058 365.424C230.778 365.424 231.41 365.472 231.954 365.568C232.514 365.664 232.946 365.768 233.25 365.88C233.57 365.976 233.73 366.024 233.73 366.024L233.802 366.168C233.802 366.168 233.762 366.352 233.682 366.72C233.618 367.088 233.546 367.584 233.466 368.208C233.386 368.816 233.322 369.488 233.274 370.224L232.338 370.32L232.194 370.2C232.194 370.2 232.202 370.088 232.218 369.864C232.25 369.624 232.266 369.32 232.266 368.952C232.266 368.104 232.058 367.52 231.642 367.2C231.242 366.88 230.498 366.72 229.41 366.72C228.53 366.72 227.802 366.944 227.226 367.392C226.666 367.824 226.386 368.368 226.386 369.024C226.386 369.504 226.538 369.936 226.842 370.32C227.146 370.688 227.546 371.024 228.042 371.328C228.538 371.632 229.074 371.936 229.65 372.24C230.354 372.592 231.042 372.968 231.714 373.368C232.402 373.768 232.97 374.224 233.418 374.736C233.866 375.248 234.09 375.872 234.09 376.608C234.09 377.52 233.834 378.328 233.322 379.032C232.826 379.736 232.13 380.288 231.234 380.688C230.354 381.088 229.33 381.288 228.162 381.288ZM238.633 381.096L238.825 380.064C239.577 380 240.121 379.904 240.457 379.776C240.793 379.632 241.001 379.368 241.081 378.984C241.177 378.584 241.225 377.96 241.225 377.112V366.648C240.297 366.68 239.561 366.728 239.017 366.792C238.489 366.84 238.097 366.96 237.841 367.152C237.585 367.328 237.401 367.616 237.289 368.016C237.177 368.416 237.073 368.968 236.977 369.672L235.849 369.768C235.913 369.304 235.969 368.824 236.017 368.328C236.065 367.832 236.105 367.352 236.137 366.888C236.169 366.408 236.193 365.984 236.209 365.616L236.425 365.424L238.417 365.688H245.857L247.897 365.424L248.113 365.616C248.129 365.984 248.153 366.408 248.185 366.888C248.217 367.352 248.257 367.824 248.305 368.304C248.369 368.784 248.425 369.24 248.473 369.672L247.345 369.768C247.233 369.048 247.113 368.488 246.985 368.088C246.873 367.672 246.689 367.376 246.433 367.2C246.193 367.008 245.825 366.88 245.329 366.816C244.833 366.752 244.153 366.696 243.289 366.648C243.241 367.128 243.193 367.816 243.145 368.712C243.097 369.608 243.057 370.616 243.025 371.736C242.993 372.84 242.961 373.968 242.929 375.12C242.913 376.272 242.905 377.336 242.905 378.312C242.905 378.904 243.009 379.328 243.217 379.584C243.425 379.824 243.777 379.944 244.273 379.944C244.753 379.944 245.193 379.92 245.593 379.872L245.665 379.968L245.449 381.072C245.113 381.056 244.721 381.04 244.273 381.024C243.825 381.024 243.385 381.016 242.953 381C242.537 381 242.193 381 241.921 381C241.665 381 241.337 381 240.937 381C240.553 381.016 240.153 381.032 239.737 381.048C239.337 381.064 238.969 381.08 238.633 381.096ZM261.022 381.384C260.622 381.384 260.19 381.176 259.726 380.76C259.278 380.344 258.862 379.792 258.478 379.104L255.91 374.448H253.918L253.846 378.024C253.846 378.6 253.878 379.032 253.942 379.32C254.022 379.592 254.182 379.776 254.422 379.872C254.678 379.952 255.062 379.992 255.574 379.992L255.622 380.088L255.406 381.096C255.406 381.096 255.326 381.088 255.166 381.072C255.006 381.072 254.798 381.064 254.542 381.048C254.302 381.048 254.03 381.04 253.726 381.024C253.438 381.024 253.15 381.024 252.862 381.024C252.462 381.008 252.046 381.008 251.614 381.024C251.198 381.04 250.838 381.056 250.534 381.072C250.246 381.088 250.102 381.096 250.102 381.096L250.318 380.016C251.07 379.936 251.558 379.776 251.782 379.536C252.022 379.28 252.142 378.808 252.142 378.12L252.166 368.04C252.166 367.528 252.102 367.184 251.974 367.008C251.862 366.832 251.63 366.744 251.278 366.744C251.134 366.744 250.958 366.752 250.75 366.768C250.558 366.784 250.462 366.792 250.462 366.792L250.414 366.696L250.582 365.64C250.582 365.64 250.67 365.648 250.846 365.664C251.038 365.664 251.278 365.672 251.566 365.688C251.854 365.688 252.15 365.696 252.454 365.712C252.758 365.712 253.022 365.712 253.246 365.712C253.454 365.712 253.718 365.712 254.038 365.712C254.374 365.696 254.702 365.68 255.022 365.664C255.358 365.648 255.638 365.64 255.862 365.64C256.086 365.624 256.198 365.616 256.198 365.616C257.686 365.616 258.862 365.952 259.726 366.624C260.59 367.296 261.022 368.216 261.022 369.384C261.022 370.344 260.71 371.224 260.086 372.024C259.478 372.824 258.614 373.48 257.494 373.992L260.134 378.168C260.598 378.92 261.046 379.448 261.478 379.752C261.926 380.056 262.47 380.208 263.11 380.208L263.206 380.304L263.062 381.12L261.022 381.384ZM256.438 373.344C256.438 373.344 256.566 373.296 256.822 373.2C257.094 373.088 257.398 372.904 257.734 372.648C258.07 372.392 258.366 372.032 258.622 371.568C258.894 371.104 259.03 370.52 259.03 369.816C259.03 368.76 258.662 367.968 257.926 367.44C257.206 366.912 256.11 366.648 254.638 366.648C254.478 366.648 254.366 366.688 254.302 366.768C254.254 366.832 254.222 366.976 254.206 367.2C254.142 368.464 254.086 369.552 254.038 370.464C254.006 371.376 253.982 372.256 253.966 373.104L256.438 373.344ZM264.798 381.24L264.942 380.136C265.662 380.04 266.15 379.856 266.406 379.584C266.678 379.296 266.814 378.808 266.814 378.12L266.838 368.04C266.838 367.528 266.782 367.184 266.67 367.008C266.558 366.832 266.318 366.744 265.95 366.744C265.854 366.744 265.726 366.752 265.566 366.768C265.406 366.768 265.262 366.776 265.134 366.792L265.086 366.696L265.254 365.64C265.526 365.64 265.854 365.648 266.238 365.664C266.622 365.68 267.022 365.696 267.438 365.712C267.854 365.712 268.238 365.712 268.59 365.712C269.87 365.712 270.942 365.704 271.806 365.688C272.686 365.672 273.438 365.64 274.062 365.592C274.686 365.544 275.262 365.488 275.79 365.424L275.862 365.568C275.782 365.952 275.702 366.384 275.622 366.864C275.542 367.328 275.478 367.792 275.43 368.256C275.382 368.72 275.342 369.152 275.31 369.552L274.158 369.648C274.174 369.504 274.182 369.328 274.182 369.12C274.198 368.896 274.206 368.728 274.206 368.616C274.206 368.232 274.166 367.928 274.086 367.704C274.022 367.464 273.87 367.288 273.63 367.176C273.406 367.064 273.046 366.992 272.55 366.96C272.054 366.928 271.382 366.912 270.534 366.912C270.022 366.912 269.646 366.928 269.406 366.96C269.166 366.992 269.014 367.072 268.95 367.2C268.902 367.328 268.87 367.544 268.854 367.848L268.614 373.44L268.518 378.48C268.518 378.912 268.558 379.232 268.638 379.44C268.718 379.632 268.886 379.76 269.142 379.824C269.414 379.888 269.838 379.92 270.414 379.92C271.358 379.92 272.118 379.888 272.694 379.824C273.27 379.76 273.71 379.632 274.014 379.44C274.318 379.248 274.542 378.96 274.686 378.576C274.83 378.176 274.95 377.648 275.046 376.992L276.102 376.872L276.174 376.992C276.062 377.488 275.942 378.12 275.814 378.888C275.702 379.656 275.606 380.368 275.526 381.024L275.406 381.168C274.446 381.136 273.486 381.104 272.526 381.072C271.582 381.056 270.726 381.04 269.958 381.024C269.19 381.008 268.582 381 268.134 381C267.638 381 267.07 381.016 266.43 381.048C265.806 381.096 265.262 381.16 264.798 381.24ZM268.278 373.944L268.494 372.504C268.606 372.504 268.822 372.504 269.142 372.504C269.462 372.504 269.806 372.512 270.174 372.528C270.542 372.528 270.862 372.528 271.134 372.528C271.406 372.528 271.822 372.504 272.382 372.456C272.958 372.392 273.518 372.328 274.062 372.264L274.158 372.384L273.822 373.8C273.374 373.784 272.814 373.768 272.142 373.752C271.486 373.736 270.926 373.728 270.462 373.728C270.158 373.728 269.798 373.752 269.382 373.8C268.982 373.832 268.614 373.88 268.278 373.944ZM285.554 381.24L285.482 381.072L285.578 380.136C286.138 380.088 286.57 380.032 286.874 379.968C287.178 379.904 287.394 379.816 287.522 379.704C287.65 379.576 287.714 379.416 287.714 379.224C287.714 379.064 287.698 378.888 287.666 378.696C287.634 378.504 287.578 378.296 287.498 378.072L286.706 375.456C286.418 375.44 286.01 375.432 285.482 375.432C284.97 375.432 284.546 375.432 284.21 375.432C283.746 375.432 283.258 375.456 282.746 375.504C282.25 375.552 281.866 375.592 281.594 375.624L280.706 378.12C280.562 378.552 280.49 378.864 280.49 379.056C280.49 379.408 280.602 379.664 280.826 379.824C281.066 379.968 281.434 380.04 281.93 380.04H283.298L283.346 380.136L283.202 381.168C283.202 381.168 283.034 381.152 282.698 381.12C282.362 381.088 281.938 381.056 281.426 381.024C280.914 381.008 280.394 381 279.866 381C279.482 381 279.082 381 278.666 381C278.266 381.016 277.922 381.032 277.634 381.048C277.362 381.064 277.226 381.072 277.226 381.072L277.418 379.944C277.866 379.896 278.226 379.744 278.498 379.488C278.77 379.232 279.034 378.768 279.29 378.096L283.97 365.832L285.482 365.424H285.674C285.674 365.424 285.722 365.616 285.818 366C285.93 366.368 286.074 366.888 286.25 367.56C286.442 368.216 286.658 368.976 286.898 369.84C287.154 370.688 287.418 371.592 287.69 372.552C287.978 373.512 288.274 374.488 288.578 375.48C288.882 376.456 289.186 377.392 289.49 378.288C289.682 378.88 289.938 379.296 290.258 379.536C290.594 379.776 291.106 379.928 291.794 379.992L291.842 380.088L291.674 381.072C291.674 381.072 291.514 381.064 291.194 381.048C290.89 381.032 290.538 381.016 290.138 381C289.738 381 289.402 381 289.13 381C288.522 381 287.938 381.016 287.378 381.048C286.834 381.096 286.394 381.136 286.058 381.168C285.722 381.216 285.554 381.24 285.554 381.24ZM282.026 374.448H284.138C284.458 374.448 284.842 374.432 285.29 374.4C285.738 374.368 286.098 374.344 286.37 374.328L284.474 368.04H284.306L282.026 374.448ZM301.13 381.456C300.618 380.016 300.106 378.576 299.594 377.136C299.082 375.696 298.57 374.264 298.058 372.84C297.546 371.4 297.034 369.96 296.522 368.52H296.402C296.402 368.52 296.378 368.768 296.33 369.264C296.298 369.744 296.25 370.376 296.186 371.16C296.122 371.928 296.05 372.752 295.97 373.632C295.89 374.512 295.818 375.36 295.754 376.176C295.69 376.976 295.634 377.656 295.586 378.216C295.554 378.76 295.538 379.088 295.538 379.2C295.538 379.696 295.786 379.944 296.282 379.944C296.41 379.944 296.602 379.944 296.858 379.944C297.13 379.928 297.266 379.92 297.266 379.92L297.314 380.016L297.098 381.096C297.098 381.096 296.954 381.088 296.666 381.072C296.394 381.056 296.074 381.04 295.706 381.024C295.354 381.008 295.042 381 294.77 381C294.53 381 294.29 381.008 294.05 381.024C293.81 381.04 293.586 381.064 293.378 381.096C293.17 381.128 293.002 381.152 292.874 381.168C292.762 381.184 292.706 381.192 292.706 381.192L292.826 380.088C293.338 380.024 293.706 379.864 293.93 379.608C294.154 379.336 294.298 378.88 294.362 378.24C294.394 377.952 294.442 377.52 294.506 376.944C294.57 376.352 294.642 375.688 294.722 374.952C294.802 374.2 294.874 373.44 294.938 372.672C295.018 371.904 295.09 371.176 295.154 370.488C295.234 369.8 295.29 369.224 295.322 368.76C295.37 368.28 295.394 367.984 295.394 367.872C295.394 367.584 295.322 367.352 295.178 367.176C295.034 367 294.81 366.864 294.506 366.768C294.202 366.656 293.81 366.584 293.33 366.552L293.258 366.432L293.45 365.592C293.45 365.592 293.61 365.6 293.93 365.616C294.266 365.632 294.642 365.656 295.058 365.688C295.474 365.704 295.81 365.712 296.066 365.712C296.306 365.712 296.546 365.704 296.786 365.688C297.042 365.672 297.258 365.656 297.434 365.64C297.61 365.624 297.698 365.616 297.698 365.616C298.242 367.36 298.754 368.96 299.234 370.416C299.73 371.872 300.162 373.128 300.53 374.184C300.914 375.24 301.21 376.064 301.418 376.656C301.642 377.232 301.754 377.52 301.754 377.52H301.874C301.874 377.52 301.978 377.232 302.186 376.656C302.41 376.064 302.714 375.24 303.098 374.184C303.482 373.112 303.922 371.856 304.418 370.416C304.914 368.976 305.45 367.392 306.026 365.664C306.026 365.648 306.122 365.648 306.314 365.664C306.522 365.68 306.746 365.696 306.986 365.712C307.242 365.712 307.45 365.712 307.61 365.712C307.85 365.712 308.178 365.704 308.594 365.688C309.01 365.656 309.378 365.632 309.698 365.616C310.034 365.584 310.202 365.568 310.202 365.568L310.25 365.664L310.13 366.552C309.442 366.632 308.954 366.776 308.666 366.984C308.378 367.176 308.234 367.472 308.234 367.872C308.234 368.016 308.242 368.336 308.258 368.832C308.29 369.328 308.33 369.936 308.378 370.656C308.426 371.376 308.474 372.152 308.522 372.984C308.586 373.8 308.642 374.616 308.69 375.432C308.754 376.248 308.81 376.992 308.858 377.664C308.97 378.592 309.098 379.208 309.242 379.512C309.386 379.8 309.65 379.944 310.034 379.944C310.178 379.944 310.322 379.936 310.466 379.92C310.626 379.904 310.706 379.896 310.706 379.896L310.754 379.992L310.538 381.072C310.538 381.072 310.41 381.064 310.154 381.048C309.898 381.032 309.586 381.016 309.218 381C308.866 381 308.546 381 308.258 381C308.002 381 307.73 381.008 307.442 381.024C307.154 381.04 306.882 381.064 306.626 381.096C306.37 381.128 306.162 381.152 306.002 381.168C305.842 381.184 305.762 381.192 305.762 381.192L305.858 380.088C306.354 380.024 306.714 379.896 306.938 379.704C307.162 379.512 307.274 379.24 307.274 378.888C307.274 378.744 307.25 378.4 307.202 377.856C307.17 377.296 307.122 376.624 307.058 375.84C306.994 375.056 306.93 374.24 306.866 373.392C306.802 372.544 306.738 371.752 306.674 371.016C306.61 370.28 306.554 369.68 306.506 369.216C306.474 368.752 306.458 368.52 306.458 368.52H306.338C305.954 369.576 305.57 370.64 305.186 371.712C304.802 372.768 304.41 373.832 304.01 374.904C303.626 375.976 303.242 377.048 302.858 378.12C302.474 379.176 302.09 380.232 301.706 381.288L301.13 381.456Z" fill="black"/>
<path d="M517.572 381.288C516.82 381.288 516.156 381.216 515.58 381.072C515.02 380.944 514.58 380.816 514.26 380.688C513.956 380.544 513.804 380.472 513.804 380.472L513.684 380.232C513.684 380.232 513.7 380.128 513.732 379.92C513.764 379.696 513.796 379.4 513.828 379.032C513.86 378.648 513.892 378.2 513.924 377.688C513.956 377.176 513.972 376.632 513.972 376.056L515.052 375.936C515.052 377.088 515.132 377.968 515.292 378.576C515.452 379.168 515.756 379.576 516.204 379.8C516.652 380.008 517.308 380.112 518.172 380.112C519.164 380.112 519.964 379.88 520.572 379.416C521.196 378.936 521.508 378.288 521.508 377.472C521.508 376.944 521.332 376.488 520.98 376.104C520.628 375.72 520.172 375.368 519.612 375.048C519.068 374.728 518.484 374.408 517.86 374.088C517.22 373.752 516.596 373.392 515.988 373.008C515.396 372.624 514.908 372.184 514.524 371.688C514.14 371.176 513.948 370.576 513.948 369.888C513.948 369.04 514.188 368.28 514.668 367.608C515.164 366.936 515.828 366.408 516.66 366.024C517.492 365.624 518.428 365.424 519.468 365.424C520.188 365.424 520.82 365.472 521.364 365.568C521.924 365.664 522.356 365.768 522.66 365.88C522.98 365.976 523.14 366.024 523.14 366.024L523.212 366.168C523.212 366.168 523.172 366.352 523.092 366.72C523.028 367.088 522.956 367.584 522.876 368.208C522.796 368.816 522.732 369.488 522.684 370.224L521.748 370.32L521.604 370.2C521.604 370.2 521.612 370.088 521.628 369.864C521.66 369.624 521.676 369.32 521.676 368.952C521.676 368.104 521.468 367.52 521.052 367.2C520.652 366.88 519.908 366.72 518.82 366.72C517.94 366.72 517.212 366.944 516.636 367.392C516.076 367.824 515.796 368.368 515.796 369.024C515.796 369.504 515.948 369.936 516.252 370.32C516.556 370.688 516.956 371.024 517.452 371.328C517.948 371.632 518.484 371.936 519.06 372.24C519.764 372.592 520.452 372.968 521.124 373.368C521.812 373.768 522.38 374.224 522.828 374.736C523.276 375.248 523.5 375.872 523.5 376.608C523.5 377.52 523.244 378.328 522.732 379.032C522.236 379.736 521.54 380.288 520.644 380.688C519.764 381.088 518.74 381.288 517.572 381.288ZM526.555 381.192L526.723 380.088C527.427 379.96 527.891 379.776 528.115 379.536C528.339 379.28 528.451 378.808 528.451 378.12L528.475 368.04C528.475 367.528 528.411 367.184 528.283 367.008C528.171 366.832 527.939 366.744 527.587 366.744C527.443 366.744 527.267 366.752 527.059 366.768C526.867 366.784 526.771 366.792 526.771 366.792L526.723 366.696L526.891 365.64C526.891 365.64 527.051 365.648 527.371 365.664C527.691 365.68 528.059 365.696 528.475 365.712C528.891 365.712 529.251 365.712 529.555 365.712C529.715 365.712 529.955 365.712 530.275 365.712C530.611 365.696 530.955 365.68 531.307 365.664C531.659 365.648 531.955 365.64 532.195 365.64C532.451 365.624 532.579 365.616 532.579 365.616C533.411 365.616 534.139 365.712 534.763 365.904C535.403 366.08 535.939 366.352 536.371 366.72C536.819 367.088 537.155 367.536 537.379 368.064C537.603 368.592 537.715 369.2 537.715 369.888C537.715 370.576 537.563 371.232 537.259 371.856C536.955 372.48 536.547 373.04 536.035 373.536C535.523 374.032 534.939 374.424 534.283 374.712C533.627 375 532.939 375.144 532.219 375.144H530.203L530.155 377.496C530.155 378.216 530.179 378.752 530.227 379.104C530.275 379.456 530.371 379.688 530.515 379.8C530.675 379.896 530.907 379.944 531.211 379.944C531.451 379.944 531.723 379.936 532.027 379.92C532.347 379.888 532.507 379.872 532.507 379.872L532.555 379.968L532.339 381.072C532.339 381.072 532.259 381.064 532.099 381.048C531.955 381.048 531.763 381.04 531.523 381.024C531.299 381.024 531.059 381.016 530.803 381C530.563 381 530.339 381 530.131 381C529.811 381 529.443 381.008 529.027 381.024C528.627 381.04 528.243 381.056 527.875 381.072C527.507 381.088 527.195 381.104 526.939 381.12C526.699 381.152 526.571 381.176 526.555 381.192ZM532.795 374.088C534.731 373.768 535.699 372.52 535.699 370.344C535.699 369.112 535.339 368.216 534.619 367.656C533.899 367.08 532.755 366.792 531.187 366.792C530.899 366.792 530.723 366.808 530.659 366.84C530.595 366.856 530.555 366.952 530.539 367.128C530.475 368.2 530.419 369.312 530.371 370.464C530.323 371.6 530.283 372.688 530.251 373.728L532.795 374.088ZM550.55 381.384C550.15 381.384 549.718 381.176 549.254 380.76C548.806 380.344 548.39 379.792 548.006 379.104L545.438 374.448H543.446L543.374 378.024C543.374 378.6 543.406 379.032 543.47 379.32C543.55 379.592 543.71 379.776 543.95 379.872C544.206 379.952 544.59 379.992 545.102 379.992L545.15 380.088L544.934 381.096C544.934 381.096 544.854 381.088 544.694 381.072C544.534 381.072 544.326 381.064 544.07 381.048C543.83 381.048 543.558 381.04 543.254 381.024C542.966 381.024 542.678 381.024 542.39 381.024C541.99 381.008 541.574 381.008 541.142 381.024C540.726 381.04 540.366 381.056 540.062 381.072C539.774 381.088 539.63 381.096 539.63 381.096L539.846 380.016C540.598 379.936 541.086 379.776 541.31 379.536C541.55 379.28 541.67 378.808 541.67 378.12L541.694 368.04C541.694 367.528 541.63 367.184 541.502 367.008C541.39 366.832 541.158 366.744 540.806 366.744C540.662 366.744 540.486 366.752 540.278 366.768C540.086 366.784 539.99 366.792 539.99 366.792L539.942 366.696L540.11 365.64C540.11 365.64 540.198 365.648 540.374 365.664C540.566 365.664 540.806 365.672 541.094 365.688C541.382 365.688 541.678 365.696 541.982 365.712C542.286 365.712 542.55 365.712 542.774 365.712C542.982 365.712 543.246 365.712 543.566 365.712C543.902 365.696 544.23 365.68 544.55 365.664C544.886 365.648 545.166 365.64 545.39 365.64C545.614 365.624 545.726 365.616 545.726 365.616C547.214 365.616 548.39 365.952 549.254 366.624C550.118 367.296 550.55 368.216 550.55 369.384C550.55 370.344 550.238 371.224 549.614 372.024C549.006 372.824 548.142 373.48 547.022 373.992L549.662 378.168C550.126 378.92 550.574 379.448 551.006 379.752C551.454 380.056 551.998 380.208 552.638 380.208L552.734 380.304L552.59 381.12L550.55 381.384ZM545.966 373.344C545.966 373.344 546.094 373.296 546.35 373.2C546.622 373.088 546.926 372.904 547.262 372.648C547.598 372.392 547.894 372.032 548.15 371.568C548.422 371.104 548.558 370.52 548.558 369.816C548.558 368.76 548.19 367.968 547.454 367.44C546.734 366.912 545.638 366.648 544.166 366.648C544.006 366.648 543.894 366.688 543.83 366.768C543.782 366.832 543.75 366.976 543.734 367.2C543.67 368.464 543.614 369.552 543.566 370.464C543.534 371.376 543.51 372.256 543.494 373.104L545.966 373.344ZM560.902 381.24L560.83 381.072L560.926 380.136C561.486 380.088 561.918 380.032 562.222 379.968C562.526 379.904 562.742 379.816 562.87 379.704C562.998 379.576 563.062 379.416 563.062 379.224C563.062 379.064 563.046 378.888 563.014 378.696C562.982 378.504 562.926 378.296 562.846 378.072L562.054 375.456C561.766 375.44 561.358 375.432 560.83 375.432C560.318 375.432 559.894 375.432 559.558 375.432C559.094 375.432 558.606 375.456 558.094 375.504C557.598 375.552 557.214 375.592 556.942 375.624L556.054 378.12C555.91 378.552 555.838 378.864 555.838 379.056C555.838 379.408 555.95 379.664 556.174 379.824C556.414 379.968 556.782 380.04 557.278 380.04H558.646L558.694 380.136L558.55 381.168C558.55 381.168 558.382 381.152 558.046 381.12C557.71 381.088 557.286 381.056 556.774 381.024C556.262 381.008 555.742 381 555.214 381C554.83 381 554.43 381 554.014 381C553.614 381.016 553.27 381.032 552.982 381.048C552.71 381.064 552.574 381.072 552.574 381.072L552.766 379.944C553.214 379.896 553.574 379.744 553.846 379.488C554.118 379.232 554.382 378.768 554.638 378.096L559.318 365.832L560.83 365.424H561.022C561.022 365.424 561.07 365.616 561.166 366C561.278 366.368 561.422 366.888 561.598 367.56C561.79 368.216 562.006 368.976 562.246 369.84C562.502 370.688 562.766 371.592 563.038 372.552C563.326 373.512 563.622 374.488 563.926 375.48C564.23 376.456 564.534 377.392 564.838 378.288C565.03 378.88 565.286 379.296 565.606 379.536C565.942 379.776 566.454 379.928 567.142 379.992L567.19 380.088L567.022 381.072C567.022 381.072 566.862 381.064 566.542 381.048C566.238 381.032 565.886 381.016 565.486 381C565.086 381 564.75 381 564.478 381C563.87 381 563.286 381.016 562.726 381.048C562.182 381.096 561.742 381.136 561.406 381.168C561.07 381.216 560.902 381.24 560.902 381.24ZM557.374 374.448H559.486C559.806 374.448 560.19 374.432 560.638 374.4C561.086 374.368 561.446 374.344 561.718 374.328L559.822 368.04H559.654L557.374 374.448ZM569.444 381.288L569.588 380.184C570.164 380.072 570.58 379.928 570.836 379.752C571.108 379.576 571.276 379.32 571.34 378.984C571.42 378.648 571.46 378.184 571.46 377.592V376.536C571.46 376.072 571.412 375.648 571.316 375.264C571.236 374.88 571.052 374.4 570.764 373.824L568.604 369.432C568.284 368.776 568.012 368.256 567.788 367.872C567.58 367.488 567.316 367.208 566.996 367.032C566.676 366.84 566.204 366.72 565.58 366.672L565.532 366.576L565.676 365.64C565.676 365.64 565.764 365.648 565.94 365.664C566.1 365.664 566.308 365.672 566.564 365.688C566.836 365.688 567.124 365.696 567.428 365.712C567.748 365.712 568.044 365.712 568.316 365.712C568.652 365.712 569.012 365.704 569.396 365.688C569.796 365.672 570.172 365.648 570.524 365.616C570.876 365.584 571.164 365.56 571.388 365.544C571.612 365.528 571.724 365.52 571.724 365.52L571.796 365.688L571.724 366.528C571.004 366.592 570.516 366.688 570.26 366.816C570.02 366.928 569.9 367.12 569.9 367.392C569.9 367.536 569.988 367.84 570.164 368.304C570.34 368.752 570.564 369.272 570.836 369.864C571.108 370.456 571.372 371.04 571.628 371.616C571.9 372.176 572.124 372.648 572.3 373.032C572.492 373.4 572.588 373.584 572.588 373.584H572.708L575.444 368.496C575.7 368.032 575.828 367.632 575.828 367.296C575.828 367.088 575.7 366.928 575.444 366.816C575.204 366.688 574.828 366.608 574.316 366.576L574.268 366.48L574.412 365.544C574.412 365.544 574.572 365.56 574.892 365.592C575.212 365.608 575.58 365.632 575.996 365.664C576.428 365.696 576.788 365.712 577.076 365.712C577.396 365.712 577.724 365.704 578.06 365.688C578.396 365.672 578.684 365.656 578.924 365.64C579.164 365.624 579.284 365.616 579.284 365.616L579.38 365.784L579.236 366.672C578.692 366.768 578.268 366.92 577.964 367.128C577.66 367.32 577.38 367.624 577.124 368.04C576.868 368.44 576.524 369.024 576.092 369.792L573.692 374.016C573.532 374.304 573.412 374.616 573.332 374.952C573.268 375.272 573.228 375.696 573.212 376.224C573.196 376.736 573.18 377.432 573.164 378.312C573.148 378.92 573.212 379.344 573.356 379.584C573.516 379.824 573.804 379.944 574.22 379.944C574.46 379.944 574.716 379.936 574.988 379.92C575.26 379.888 575.396 379.872 575.396 379.872L575.444 379.968L575.228 381.072C575.228 381.072 575.116 381.064 574.892 381.048C574.684 381.048 574.42 381.04 574.1 381.024C573.78 381.024 573.444 381.016 573.092 381C572.756 381 572.452 381 572.18 381C571.876 381 571.564 381.016 571.244 381.048C570.924 381.08 570.628 381.112 570.356 381.144C570.084 381.176 569.86 381.208 569.684 381.24C569.524 381.272 569.444 381.288 569.444 381.288ZM597.34 381.96C596.172 380.136 595.052 378.424 593.98 376.824C592.908 375.224 591.956 373.824 591.124 372.624C590.292 371.408 589.628 370.456 589.132 369.768C588.652 369.08 588.412 368.736 588.412 368.736H588.292L588.172 378.984C588.172 379.336 588.228 379.584 588.34 379.728C588.452 379.872 588.644 379.944 588.916 379.944C588.996 379.944 589.132 379.944 589.324 379.944C589.532 379.928 589.716 379.92 589.876 379.92C590.052 379.92 590.14 379.92 590.14 379.92L590.188 380.016L589.972 381.096C589.972 381.096 589.884 381.088 589.708 381.072C589.548 381.072 589.34 381.064 589.084 381.048C588.828 381.032 588.548 381.016 588.244 381C587.956 381 587.684 381 587.428 381C587.108 381 586.772 381.016 586.42 381.048C586.084 381.08 585.796 381.112 585.556 381.144C585.316 381.176 585.196 381.192 585.196 381.192L585.316 380.088C585.812 380.024 586.18 379.88 586.42 379.656C586.66 379.432 586.788 379.072 586.804 378.576L587.116 368.088C587.116 367.592 586.964 367.24 586.66 367.032C586.372 366.824 585.828 366.68 585.028 366.6L584.956 366.48L585.148 365.592C585.148 365.592 585.268 365.6 585.508 365.616C585.764 365.632 586.052 365.656 586.372 365.688C586.708 365.704 586.988 365.712 587.212 365.712C587.484 365.712 587.74 365.704 587.98 365.688C588.22 365.672 588.42 365.656 588.58 365.64C588.74 365.624 588.82 365.616 588.82 365.616C589.62 366.848 590.404 368.048 591.172 369.216C591.956 370.384 592.692 371.472 593.38 372.48C594.068 373.488 594.676 374.368 595.204 375.12C595.732 375.872 596.14 376.464 596.428 376.896C596.732 377.312 596.884 377.52 596.884 377.52H597.004V367.8C597.004 367.448 596.94 367.192 596.812 367.032C596.684 366.856 596.484 366.768 596.212 366.768C596.004 366.768 595.796 366.776 595.588 366.792C595.396 366.792 595.3 366.792 595.3 366.792L595.252 366.696L595.468 365.616C595.468 365.616 595.548 365.624 595.708 365.64C595.868 365.64 596.068 365.648 596.308 365.664C596.548 365.68 596.796 365.696 597.052 365.712C597.308 365.712 597.54 365.712 597.748 365.712C598.084 365.712 598.436 365.696 598.804 365.664C599.172 365.632 599.484 365.6 599.74 365.568C599.996 365.536 600.124 365.52 600.124 365.52L600.004 366.624C599.46 366.688 599.052 366.84 598.78 367.08C598.524 367.32 598.388 367.672 598.372 368.136L598.036 381.624L597.34 381.96ZM608.518 381.288C607.206 381.288 606.046 380.976 605.038 380.352C604.046 379.728 603.27 378.856 602.71 377.736C602.15 376.616 601.87 375.328 601.87 373.872C601.87 372.688 602.07 371.584 602.47 370.56C602.87 369.536 603.43 368.64 604.15 367.872C604.87 367.104 605.71 366.504 606.67 366.072C607.63 365.64 608.662 365.424 609.766 365.424C611.11 365.424 612.286 365.736 613.294 366.36C614.318 366.984 615.118 367.856 615.694 368.976C616.27 370.08 616.558 371.36 616.558 372.816C616.558 374.016 616.35 375.128 615.934 376.152C615.534 377.176 614.966 378.072 614.23 378.84C613.51 379.608 612.662 380.208 611.686 380.64C610.71 381.072 609.654 381.288 608.518 381.288ZM609.262 380.064C610.286 380.064 611.182 379.8 611.95 379.272C612.718 378.744 613.318 378.016 613.75 377.088C614.198 376.144 614.422 375.056 614.422 373.824C614.422 372.448 614.19 371.24 613.726 370.2C613.262 369.16 612.622 368.344 611.806 367.752C610.99 367.16 610.038 366.864 608.95 366.864C607.958 366.864 607.086 367.128 606.334 367.656C605.582 368.184 604.99 368.92 604.558 369.864C604.142 370.792 603.934 371.872 603.934 373.104C603.934 374.464 604.158 375.672 604.606 376.728C605.054 377.768 605.678 378.584 606.478 379.176C607.294 379.768 608.222 380.064 609.262 380.064ZM618.679 381.072L618.343 380.304L627.295 366.768L623.143 366.912C622.407 366.944 621.815 367.072 621.367 367.296C620.935 367.504 620.607 367.84 620.383 368.304C620.159 368.768 619.999 369.408 619.903 370.224L618.775 370.32C618.775 370.32 618.791 370.184 618.823 369.912C618.871 369.64 618.919 369.272 618.967 368.808C619.031 368.344 619.079 367.84 619.111 367.296C619.159 366.736 619.191 366.184 619.207 365.64L619.447 365.424L623.647 365.688L629.839 365.856L630.103 366.552C628.967 368.056 627.895 369.528 626.887 370.968C625.879 372.392 624.967 373.72 624.151 374.952C623.335 376.168 622.639 377.216 622.063 378.096C621.503 378.976 621.095 379.624 620.839 380.04L625.711 379.872C626.543 379.856 627.215 379.528 627.727 378.888C628.239 378.248 628.623 377.248 628.879 375.888L630.007 375.768C630.007 375.768 629.983 375.912 629.935 376.2C629.887 376.488 629.823 376.88 629.743 377.376C629.679 377.856 629.615 378.384 629.551 378.96C629.487 379.536 629.439 380.112 629.407 380.688L629.047 381.072L620.359 380.928L618.679 381.072ZM632.32 381.072L631.984 380.304L640.936 366.768L636.784 366.912C636.048 366.944 635.456 367.072 635.008 367.296C634.576 367.504 634.248 367.84 634.024 368.304C633.8 368.768 633.64 369.408 633.544 370.224L632.416 370.32C632.416 370.32 632.432 370.184 632.464 369.912C632.512 369.64 632.56 369.272 632.608 368.808C632.672 368.344 632.72 367.84 632.752 367.296C632.8 366.736 632.832 366.184 632.848 365.64L633.088 365.424L637.288 365.688L643.48 365.856L643.744 366.552C642.608 368.056 641.536 369.528 640.528 370.968C639.52 372.392 638.608 373.72 637.792 374.952C636.976 376.168 636.28 377.216 635.704 378.096C635.144 378.976 634.736 379.624 634.48 380.04L639.352 379.872C640.184 379.856 640.856 379.528 641.368 378.888C641.88 378.248 642.264 377.248 642.52 375.888L643.648 375.768C643.648 375.768 643.624 375.912 643.576 376.2C643.528 376.488 643.464 376.88 643.384 377.376C643.32 377.856 643.256 378.384 643.192 378.96C643.128 379.536 643.08 380.112 643.048 380.688L642.688 381.072L634 380.928L632.32 381.072ZM646.441 381.24L646.585 380.136C647.209 380.04 647.633 379.856 647.857 379.584C648.097 379.296 648.217 378.808 648.217 378.12L648.241 368.04C648.241 367.528 648.185 367.184 648.073 367.008C647.961 366.832 647.721 366.744 647.353 366.744C647.209 366.744 647.033 366.752 646.825 366.768C646.633 366.784 646.537 366.792 646.537 366.792L646.489 366.696L646.657 365.64C646.657 365.64 646.817 365.648 647.137 365.664C647.457 365.68 647.825 365.696 648.241 365.712C648.673 365.712 649.041 365.712 649.345 365.712C649.601 365.712 649.873 365.704 650.161 365.688C650.465 365.656 650.745 365.632 651.001 365.616C651.273 365.584 651.489 365.56 651.649 365.544C651.825 365.512 651.913 365.496 651.913 365.496L651.817 366.576C651.289 366.64 650.921 366.744 650.713 366.888C650.505 367.032 650.385 367.256 650.353 367.56C650.321 367.848 650.281 368.264 650.233 368.808C650.169 369.8 650.113 370.88 650.065 372.048C650.017 373.2 649.985 374.312 649.969 375.384C649.953 376.44 649.945 377.336 649.945 378.072C649.945 378.616 649.985 379.024 650.065 379.296C650.161 379.552 650.353 379.72 650.641 379.8C650.945 379.88 651.393 379.92 651.985 379.92C652.689 379.92 653.257 379.88 653.689 379.8C654.121 379.72 654.465 379.56 654.721 379.32C654.993 379.08 655.209 378.736 655.369 378.288C655.529 377.84 655.673 377.248 655.801 376.512L656.857 376.392L656.929 376.512C656.929 376.512 656.889 376.728 656.809 377.16C656.729 377.592 656.633 378.152 656.521 378.84C656.425 379.528 656.329 380.272 656.233 381.072L656.113 381.216C656.113 381.216 655.889 381.2 655.441 381.168C654.993 381.152 654.425 381.128 653.737 381.096C653.049 381.08 652.337 381.056 651.601 381.024C650.881 381.008 650.233 381 649.657 381C649.065 381 648.521 381.016 648.025 381.048C647.545 381.096 647.161 381.136 646.873 381.168C646.585 381.216 646.441 381.24 646.441 381.24ZM657.896 381.24L658.04 380.136C658.76 380.04 659.248 379.856 659.504 379.584C659.776 379.296 659.912 378.808 659.912 378.12L659.936 368.04C659.936 367.528 659.88 367.184 659.768 367.008C659.656 366.832 659.416 366.744 659.048 366.744C658.952 366.744 658.824 366.752 658.664 366.768C658.504 366.768 658.36 366.776 658.232 366.792L658.184 366.696L658.352 365.64C658.624 365.64 658.952 365.648 659.336 365.664C659.72 365.68 660.12 365.696 660.536 365.712C660.952 365.712 661.336 365.712 661.688 365.712C662.968 365.712 664.04 365.704 664.904 365.688C665.784 365.672 666.536 365.64 667.16 365.592C667.784 365.544 668.36 365.488 668.888 365.424L668.96 365.568C668.88 365.952 668.8 366.384 668.72 366.864C668.64 367.328 668.576 367.792 668.528 368.256C668.48 368.72 668.44 369.152 668.408 369.552L667.256 369.648C667.272 369.504 667.28 369.328 667.28 369.12C667.296 368.896 667.304 368.728 667.304 368.616C667.304 368.232 667.264 367.928 667.184 367.704C667.12 367.464 666.968 367.288 666.728 367.176C666.504 367.064 666.144 366.992 665.648 366.96C665.152 366.928 664.48 366.912 663.632 366.912C663.12 366.912 662.744 366.928 662.504 366.96C662.264 366.992 662.112 367.072 662.048 367.2C662 367.328 661.968 367.544 661.952 367.848L661.712 373.44L661.616 378.48C661.616 378.912 661.656 379.232 661.736 379.44C661.816 379.632 661.984 379.76 662.24 379.824C662.512 379.888 662.936 379.92 663.512 379.92C664.456 379.92 665.216 379.888 665.792 379.824C666.368 379.76 666.808 379.632 667.112 379.44C667.416 379.248 667.64 378.96 667.784 378.576C667.928 378.176 668.048 377.648 668.144 376.992L669.2 376.872L669.272 376.992C669.16 377.488 669.04 378.12 668.912 378.888C668.8 379.656 668.704 380.368 668.624 381.024L668.504 381.168C667.544 381.136 666.584 381.104 665.624 381.072C664.68 381.056 663.824 381.04 663.056 381.024C662.288 381.008 661.68 381 661.232 381C660.736 381 660.168 381.016 659.528 381.048C658.904 381.096 658.36 381.16 657.896 381.24ZM661.376 373.944L661.592 372.504C661.704 372.504 661.92 372.504 662.24 372.504C662.56 372.504 662.904 372.512 663.272 372.528C663.64 372.528 663.96 372.528 664.232 372.528C664.504 372.528 664.92 372.504 665.48 372.456C666.056 372.392 666.616 372.328 667.16 372.264L667.256 372.384L666.92 373.8C666.472 373.784 665.912 373.768 665.24 373.752C664.584 373.736 664.024 373.728 663.56 373.728C663.256 373.728 662.896 373.752 662.48 373.8C662.08 373.832 661.712 373.88 661.376 373.944Z" fill="black"/>
<rect x="231.5" y="156.5" width="25" height="11" fill="white" stroke="black"/>
<rect x="147.5" y="140.5" width="43" height="43" fill="white" stroke="black"/>
<rect x="148.5" y="19.5" width="107" height="285" stroke="black" stroke-width="3"/>
<path d="M343.127 123.13C344.24 118.545 350.76 118.545 351.873 123.13L354.507 133.978C355.386 137.598 359.533 139.315 362.713 137.377L372.247 131.569C376.276 129.114 380.886 133.724 378.431 137.753L372.623 147.287C370.685 150.467 372.402 154.614 376.022 155.493L386.87 158.127C391.455 159.24 391.455 165.76 386.87 166.873L376.022 169.507C372.402 170.386 370.685 174.533 372.623 177.713L378.431 187.247C380.886 191.276 376.276 195.886 372.247 193.431L362.713 187.623C359.533 185.685 355.386 187.402 354.507 191.022L351.873 201.87C350.76 206.455 344.24 206.455 343.127 201.87L340.493 191.022C339.614 187.402 335.467 185.685 332.287 187.623L322.753 193.431C318.724 195.886 314.114 191.276 316.569 187.247L322.377 177.713C324.315 174.533 322.598 170.386 318.978 169.507L308.13 166.873C303.545 165.76 303.545 159.24 308.13 158.127L318.978 155.493C322.598 154.614 324.315 150.467 322.377 147.287L316.569 137.753C314.114 133.724 318.724 129.114 322.753 131.569L332.287 137.377C335.467 139.315 339.614 137.598 340.493 133.978L343.127 123.13Z" fill="#D9D9D9" stroke="black"/>
<path d="M343.627 139.13C344.74 134.545 351.26 134.545 352.373 139.13L352.481 139.576C353.36 143.195 357.507 144.913 360.688 142.975L361.08 142.736C365.108 140.281 369.719 144.892 367.264 148.92L367.025 149.312C365.087 152.493 366.805 156.64 370.424 157.519L370.87 157.627C375.455 158.74 375.455 165.26 370.87 166.373L370.424 166.481C366.805 167.36 365.087 171.507 367.025 174.688L367.264 175.08C369.719 179.108 365.108 183.719 361.08 181.264L360.688 181.025C357.507 179.087 353.36 180.805 352.481 184.424L352.373 184.87C351.26 189.455 344.74 189.455 343.627 184.87L343.519 184.424C342.64 180.805 338.493 179.087 335.312 181.025L334.92 181.264C330.892 183.719 326.281 179.108 328.736 175.08L328.975 174.688C330.913 171.507 329.195 167.36 325.576 166.481L325.13 166.373C320.545 165.26 320.545 158.74 325.13 157.627L325.576 157.519C329.195 156.64 330.913 152.493 328.975 149.312L328.736 148.92C326.281 144.892 330.892 140.281 334.92 142.736L335.312 142.975C338.493 144.913 342.64 143.195 343.519 139.576L343.627 139.13Z" fill="white" stroke="black"/>
<line x1="589.354" y1="18.6464" x2="646.354" y2="75.6464" stroke="#C2C2C2"/>
<line x1="599.354" y1="18.6464" x2="646.354" y2="65.6464" stroke="#C2C2C2"/>
<line x1="609.354" y1="18.6464" x2="646.354" y2="55.6464" stroke="#C2C2C2"/>
<line x1="619.354" y1="18.6464" x2="646.354" y2="45.6464" stroke="#C2C2C2"/>
<line x1="629.354" y1="18.6464" x2="646.354" y2="35.6464" stroke="#C2C2C2"/>
<line x1="639.354" y1="18.6464" x2="646.354" y2="25.6464" stroke="#C2C2C2"/>
<line x1="579.354" y1="18.6464" x2="646.354" y2="85.6464" stroke="#C2C2C2"/>
<line x1="569.354" y1="18.6464" x2="646.354" y2="95.6464" stroke="#C2C2C2"/>
<line x1="559.354" y1="18.6464" x2="646.354" y2="105.646" stroke="#C2C2C2"/>
<line x1="550.354" y1="19.6464" x2="646.354" y2="115.646" stroke="#C2C2C2"/>
<line x1="539.354" y1="18.6464" x2="646.354" y2="125.646" stroke="#C2C2C2"/>
<line x1="538.354" y1="27.6464" x2="646.354" y2="135.646" stroke="#C2C2C2"/>
<line x1="538.354" y1="37.6464" x2="646.354" y2="145.646" stroke="#C2C2C2"/>
<line x1="538.354" y1="47.6464" x2="646.354" y2="155.646" stroke="#C2C2C2"/>
<line x1="539.354" y1="58.6464" x2="646.354" y2="165.646" stroke="#C2C2C2"/>
<line x1="539.354" y1="68.6464" x2="646.354" y2="175.646" stroke="#C2C2C2"/>
<line x1="539.354" y1="78.6464" x2="646.354" y2="185.646" stroke="#C2C2C2"/>
<line x1="539.354" y1="88.6464" x2="646.354" y2="195.646" stroke="#C2C2C2"/>
<line x1="539.354" y1="98.6464" x2="646.354" y2="205.646" stroke="#C2C2C2"/>
<line x1="538.354" y1="107.646" x2="646.354" y2="215.646" stroke="#C2C2C2"/>
<line x1="538.354" y1="117.646" x2="646.354" y2="225.646" stroke="#C2C2C2"/>
<line x1="538.354" y1="127.646" x2="646.354" y2="235.646" stroke="#C2C2C2"/>
<line x1="538.354" y1="137.646" x2="646.354" y2="245.646" stroke="#C2C2C2"/>
<line x1="538.354" y1="147.646" x2="646.354" y2="255.646" stroke="#C2C2C2"/>
<line x1="538.354" y1="157.646" x2="646.354" y2="265.646" stroke="#C2C2C2"/>
<line x1="538.354" y1="167.646" x2="646.354" y2="275.646" stroke="#C2C2C2"/>
<line x1="538.354" y1="177.646" x2="646.354" y2="285.646" stroke="#C2C2C2"/>
<line x1="538.354" y1="187.646" x2="646.354" y2="295.646" stroke="#C2C2C2"/>
<line x1="538.354" y1="197.646" x2="646.354" y2="305.646" stroke="#C2C2C2"/>
<line x1="538.354" y1="207.646" x2="635.354" y2="304.646" stroke="#C2C2C2"/>
<line x1="538.354" y1="217.646" x2="625.354" y2="304.646" stroke="#C2C2C2"/>
<line x1="538.354" y1="227.646" x2="615.354" y2="304.646" stroke="#C2C2C2"/>
<line x1="538.354" y1="237.646" x2="605.354" y2="304.646" stroke="#C2C2C2"/>
<line x1="538.354" y1="247.646" x2="595.354" y2="304.646" stroke="#C2C2C2"/>
<line x1="538.354" y1="257.646" x2="585.354" y2="304.646" stroke="#C2C2C2"/>
<line x1="538.354" y1="267.646" x2="575.354" y2="304.646" stroke="#C2C2C2"/>
<line x1="538.354" y1="277.646" x2="565.354" y2="304.646" stroke="#C2C2C2"/>
<line x1="538.354" y1="287.646" x2="555.354" y2="304.646" stroke="#C2C2C2"/>
<line x1="538.354" y1="297.646" x2="545.354" y2="304.646" stroke="#C2C2C2"/>
<rect x="537.5" y="58.5" width="43" height="43" fill="white" stroke="black"/>
<rect x="581" y="39" width="45" height="82" fill="white" stroke="black" stroke-width="2"/>
<path d="M646 123H668.282L681.445 162L668.282 201H646V123Z" fill="white" stroke="black" stroke-width="2"/>
<rect x="580.5" y="150.5" width="17" height="23" fill="white" stroke="black"/>
<rect x="581" y="203" width="45" height="82" fill="white" stroke="black" stroke-width="2"/>
<line x1="650" y1="84.5" x2="791" y2="84.5" stroke="black" stroke-dasharray="4 4"/>
<line x1="650" y1="90.5" x2="791" y2="90.5" stroke="black" stroke-dasharray="4 4"/>
<line x1="650" y1="233.5" x2="791" y2="233.5" stroke="black" stroke-dasharray="4 4"/>
<line x1="650" y1="239.5" x2="791" y2="239.5" stroke="black" stroke-dasharray="4 4"/>
<rect x="596.5" y="140.5" width="50" height="43" fill="white" stroke="black"/>
<rect x="537.5" y="140.5" width="43" height="43" fill="white" stroke="black"/>
<rect x="538.5" y="19.5" width="107" height="285" stroke="black" stroke-width="3"/>
<rect x="626.5" y="83.5" width="19" height="8" fill="white" stroke="black"/>
<rect x="626.5" y="232.5" width="19" height="8" fill="white" stroke="black"/>
<line x1="681.753" y1="152.565" x2="790.753" y2="90.5654" stroke="black" stroke-dasharray="4 4"/>
<line x1="681.809" y1="155.538" x2="790.809" y2="110.538" stroke="black" stroke-dasharray="4 4"/>
<line x1="681.883" y1="158.514" x2="793.883" y2="131.514" stroke="black" stroke-dasharray="4 4"/>
<line y1="-0.5" x2="117.924" y2="-0.5" transform="matrix(0.924326 0.381603 0.381603 -0.924326 682 167)" stroke="black" stroke-dasharray="4 4"/>
<line y1="-0.5" x2="115.209" y2="-0.5" transform="matrix(0.97215 0.234358 0.234358 -0.97215 682 164)" stroke="black" stroke-dasharray="4 4"/>
<line x1="682" y1="161.5" x2="791" y2="161.5" stroke="black" stroke-dasharray="4 4"/>
<line y1="-0.5" x2="125.399" y2="-0.5" transform="matrix(0.869223 0.49442 0.49442 -0.869223 682 171)" stroke="black" stroke-dasharray="4 4"/>
<path d="M803.127 49.1296C804.24 44.5452 810.76 44.5452 811.873 49.1296L814.507 59.9781C815.386 63.5976 819.533 65.3152 822.713 63.3773L832.247 57.5688C836.276 55.1142 840.886 59.7244 838.431 63.753L832.623 73.2866C830.685 76.4674 832.402 80.6142 836.022 81.493L846.87 84.1271C851.455 85.2401 851.455 91.7599 846.87 92.873L836.022 95.507C832.402 96.3858 830.685 100.533 832.623 103.713L838.431 113.247C840.886 117.276 836.276 121.886 832.247 119.431L822.713 113.623C819.533 111.685 815.386 113.402 814.507 117.022L811.873 127.87C810.76 132.455 804.24 132.455 803.127 127.87L800.493 117.022C799.614 113.402 795.467 111.685 792.287 113.623L782.753 119.431C778.724 121.886 774.114 117.276 776.569 113.247L782.377 103.713C784.315 100.533 782.598 96.3858 778.978 95.507L768.13 92.8729C763.545 91.7599 763.545 85.2401 768.13 84.1271L778.978 81.493C782.598 80.6142 784.315 76.4674 782.377 73.2866L776.569 63.753C774.114 59.7244 778.724 55.1142 782.753 57.5688L792.287 63.3773C795.467 65.3152 799.614 63.5976 800.493 59.9781L803.127 49.1296Z" fill="#D9D9D9" stroke="black"/>
<path d="M803.127 123.13C804.24 118.545 810.76 118.545 811.873 123.13L814.507 133.978C815.386 137.598 819.533 139.315 822.713 137.377L832.247 131.569C836.276 129.114 840.886 133.724 838.431 137.753L832.623 147.287C830.685 150.467 832.402 154.614 836.022 155.493L846.87 158.127C851.455 159.24 851.455 165.76 846.87 166.873L836.022 169.507C832.402 170.386 830.685 174.533 832.623 177.713L838.431 187.247C840.886 191.276 836.276 195.886 832.247 193.431L822.713 187.623C819.533 185.685 815.386 187.402 814.507 191.022L811.873 201.87C810.76 206.455 804.24 206.455 803.127 201.87L800.493 191.022C799.614 187.402 795.467 185.685 792.287 187.623L782.753 193.431C778.724 195.886 774.114 191.276 776.569 187.247L782.377 177.713C784.315 174.533 782.598 170.386 778.978 169.507L768.13 166.873C763.545 165.76 763.545 159.24 768.13 158.127L778.978 155.493C782.598 154.614 784.315 150.467 782.377 147.287L776.569 137.753C774.114 133.724 778.724 129.114 782.753 131.569L792.287 137.377C795.467 139.315 799.614 137.598 800.493 133.978L803.127 123.13Z" fill="#D9D9D9" stroke="black"/>
<path d="M803.127 197.13C804.24 192.545 810.76 192.545 811.873 197.13L814.507 207.978C815.386 211.598 819.533 213.315 822.713 211.377L832.247 205.569C836.276 203.114 840.886 207.724 838.431 211.753L832.623 221.287C830.685 224.467 832.402 228.614 836.022 229.493L846.87 232.127C851.455 233.24 851.455 239.76 846.87 240.873L836.022 243.507C832.402 244.386 830.685 248.533 832.623 251.713L838.431 261.247C840.886 265.276 836.276 269.886 832.247 267.431L822.713 261.623C819.533 259.685 815.386 261.402 814.507 265.022L811.873 275.87C810.76 280.455 804.24 280.455 803.127 275.87L800.493 265.022C799.614 261.402 795.467 259.685 792.287 261.623L782.753 267.431C778.724 269.886 774.114 265.276 776.569 261.247L782.377 251.713C784.315 248.533 782.598 244.386 778.978 243.507L768.13 240.873C763.545 239.76 763.545 233.24 768.13 232.127L778.978 229.493C782.598 228.614 784.315 224.467 782.377 221.287L776.569 211.753C774.114 207.724 778.724 203.114 782.753 205.569L792.287 211.377C795.467 213.315 799.614 211.598 800.493 207.978L803.127 197.13Z" fill="#D9D9D9" stroke="black"/>
<path d="M803.627 65.1296C804.74 60.5452 811.26 60.5452 812.373 65.1296L812.481 65.5757C813.36 69.1952 817.507 70.9128 820.688 68.9749L821.08 68.736C825.108 66.2815 829.719 70.8916 827.264 74.9203L827.025 75.3124C825.087 78.4931 826.805 82.6399 830.424 83.5187L830.87 83.6271C835.455 84.7401 835.455 91.2599 830.87 92.3729L830.424 92.4813C826.805 93.3601 825.087 97.5069 827.025 100.688L827.264 101.08C829.719 105.108 825.108 109.719 821.08 107.264L820.688 107.025C817.507 105.087 813.36 106.805 812.481 110.424L812.373 110.87C811.26 115.455 804.74 115.455 803.627 110.87L803.519 110.424C802.64 106.805 798.493 105.087 795.312 107.025L794.92 107.264C790.892 109.719 786.281 105.108 788.736 101.08L788.975 100.688C790.913 97.5069 789.195 93.3601 785.576 92.4813L785.13 92.3729C780.545 91.2599 780.545 84.7401 785.13 83.6271L785.576 83.5187C789.195 82.6399 790.913 78.4931 788.975 75.3124L788.736 74.9203C786.281 70.8916 790.892 66.2815 794.92 68.736L795.312 68.9749C798.493 70.9128 802.64 69.1952 803.519 65.5757L803.627 65.1296Z" fill="white" stroke="black"/>
<path d="M803.627 97.1296C804.74 92.5452 811.26 92.5452 812.373 97.1296L812.481 97.5757C813.36 101.195 817.507 102.913 820.688 100.975L821.08 100.736C825.108 98.2815 829.719 102.892 827.264 106.92L827.025 107.312C825.087 110.493 826.805 114.64 830.424 115.519L830.87 115.627C835.455 116.74 835.455 123.26 830.87 124.373L830.424 124.481C826.805 125.36 825.087 129.507 827.025 132.688L827.264 133.08C829.719 137.108 825.108 141.719 821.08 139.264L820.688 139.025C817.507 137.087 813.36 138.805 812.481 142.424L812.373 142.87C811.26 147.455 804.74 147.455 803.627 142.87L803.519 142.424C802.64 138.805 798.493 137.087 795.312 139.025L794.92 139.264C790.892 141.719 786.281 137.108 788.736 133.08L788.975 132.688C790.913 129.507 789.195 125.36 785.576 124.481L785.13 124.373C780.545 123.26 780.545 116.74 785.13 115.627L785.576 115.519C789.195 114.64 790.913 110.493 788.975 107.312L788.736 106.92C786.281 102.892 790.892 98.2815 794.92 100.736L795.312 100.975C798.493 102.913 802.64 101.195 803.519 97.5757L803.627 97.1296Z" fill="white" stroke="black"/>
<path d="M803.627 213.13C804.74 208.545 811.26 208.545 812.373 213.13L812.481 213.576C813.36 217.195 817.507 218.913 820.688 216.975L821.08 216.736C825.108 214.281 829.719 218.892 827.264 222.92L827.025 223.312C825.087 226.493 826.805 230.64 830.424 231.519L830.87 231.627C835.455 232.74 835.455 239.26 830.87 240.373L830.424 240.481C826.805 241.36 825.087 245.507 827.025 248.688L827.264 249.08C829.719 253.108 825.108 257.719 821.08 255.264L820.688 255.025C817.507 253.087 813.36 254.805 812.481 258.424L812.373 258.87C811.26 263.455 804.74 263.455 803.627 258.87L803.519 258.424C802.64 254.805 798.493 253.087 795.312 255.025L794.92 255.264C790.892 257.719 786.281 253.108 788.736 249.08L788.975 248.688C790.913 245.507 789.195 241.36 785.576 240.481L785.13 240.373C780.545 239.26 780.545 232.74 785.13 231.627L785.576 231.519C789.195 230.64 790.913 226.493 788.975 223.312L788.736 222.92C786.281 218.892 790.892 214.281 794.92 216.736L795.312 216.975C798.493 218.913 802.64 217.195 803.519 213.576L803.627 213.13Z" fill="white" stroke="black"/>
<path d="M803.627 181.13C804.74 176.545 811.26 176.545 812.373 181.13L812.481 181.576C813.36 185.195 817.507 186.913 820.688 184.975L821.08 184.736C825.108 182.281 829.719 186.892 827.264 190.92L827.025 191.312C825.087 194.493 826.805 198.64 830.424 199.519L830.87 199.627C835.455 200.74 835.455 207.26 830.87 208.373L830.424 208.481C826.805 209.36 825.087 213.507 827.025 216.688L827.264 217.08C829.719 221.108 825.108 225.719 821.08 223.264L820.688 223.025C817.507 221.087 813.36 222.805 812.481 226.424L812.373 226.87C811.26 231.455 804.74 231.455 803.627 226.87L803.519 226.424C802.64 222.805 798.493 221.087 795.312 223.025L794.92 223.264C790.892 225.719 786.281 221.108 788.736 217.08L788.975 216.688C790.913 213.507 789.195 209.36 785.576 208.481L785.13 208.373C780.545 207.26 780.545 200.74 785.13 199.627L785.576 199.519C789.195 198.64 790.913 194.493 788.975 191.312L788.736 190.92C786.281 186.892 790.892 182.281 794.92 184.736L795.312 184.975C798.493 186.913 802.64 185.195 803.519 181.576L803.627 181.13Z" fill="white" stroke="black"/>
<path d="M803.627 139.13C804.74 134.545 811.26 134.545 812.373 139.13L812.481 139.576C813.36 143.195 817.507 144.913 820.688 142.975L821.08 142.736C825.108 140.281 829.719 144.892 827.264 148.92L827.025 149.312C825.087 152.493 826.805 156.64 830.424 157.519L830.87 157.627C835.455 158.74 835.455 165.26 830.87 166.373L830.424 166.481C826.805 167.36 825.087 171.507 827.025 174.688L827.264 175.08C829.719 179.108 825.108 183.719 821.08 181.264L820.688 181.025C817.507 179.087 813.36 180.805 812.481 184.424L812.373 184.87C811.26 189.455 804.74 189.455 803.627 184.87L803.519 184.424C802.64 180.805 798.493 179.087 795.312 181.025L794.92 181.264C790.892 183.719 786.281 179.108 788.736 175.08L788.975 174.688C790.913 171.507 789.195 167.36 785.576 166.481L785.13 166.373C780.545 165.26 780.545 158.74 785.13 157.627L785.576 157.519C789.195 156.64 790.913 152.493 788.975 149.312L788.736 148.92C786.281 144.892 790.892 140.281 794.92 142.736L795.312 142.975C798.493 144.913 802.64 143.195 803.519 139.576L803.627 139.13Z" fill="white" stroke="black"/>
</svg>
