<svg width="887" height="465" viewBox="0 0 887 465" fill="none" xmlns="http://www.w3.org/2000/svg">
<g clip-path="url(#clip0_8_32)">
<path d="M659 176.953L549.09 222.749C527.247 231.85 502.699 231.983 480.759 223.118L384.721 183.507C374.007 179.178 362.56 176.953 351.005 176.953H265M659 357.953L549.09 312.157C527.247 303.056 502.699 302.923 480.759 311.788L384.721 351.399C374.007 355.728 362.56 357.953 351.005 357.953H265" stroke="black" stroke-width="4"/>
<path d="M558.826 105L558.826 104L558.12 104L557.884 104.664L558.826 105ZM515.146 227.5L523.942 220.02L513.066 216.142L515.146 227.5ZM583.826 104L558.826 104L558.826 106L583.826 106L583.826 104ZM557.884 104.664L517.227 218.687L519.11 219.359L559.767 105.336L557.884 104.664Z" fill="black"/>
<path d="M597.045 96.168C596.741 96.168 596.509 96.088 596.349 95.928C596.189 95.752 596.109 95.504 596.109 95.184V79.92C596.109 79.6 596.189 79.352 596.349 79.176C596.509 79 596.717 78.912 596.973 78.912C597.229 78.912 597.413 78.96 597.525 79.056C597.653 79.136 597.797 79.288 597.957 79.512L608.421 93.456H607.845V79.872C607.845 79.568 607.925 79.336 608.085 79.176C608.245 79 608.477 78.912 608.781 78.912C609.069 78.912 609.285 79 609.429 79.176C609.589 79.336 609.669 79.568 609.669 79.872V95.208C609.669 95.512 609.597 95.752 609.453 95.928C609.325 96.088 609.133 96.168 608.877 96.168C608.637 96.168 608.445 96.12 608.301 96.024C608.157 95.928 608.005 95.776 607.845 95.568L597.405 81.624H597.957V95.184C597.957 95.504 597.877 95.752 597.717 95.928C597.557 96.088 597.333 96.168 597.045 96.168ZM620.978 96.216C619.41 96.216 618.042 95.864 616.874 95.16C615.722 94.44 614.826 93.432 614.186 92.136C613.562 90.84 613.25 89.304 613.25 87.528C613.25 86.184 613.426 84.984 613.778 83.928C614.146 82.856 614.666 81.952 615.338 81.216C616.01 80.464 616.818 79.888 617.762 79.488C618.722 79.072 619.794 78.864 620.978 78.864C622.578 78.864 623.954 79.216 625.106 79.92C626.274 80.624 627.17 81.624 627.794 82.92C628.434 84.2 628.754 85.728 628.754 87.504C628.754 88.848 628.57 90.056 628.202 91.128C627.834 92.2 627.314 93.112 626.642 93.864C625.97 94.616 625.154 95.2 624.194 95.616C623.25 96.016 622.178 96.216 620.978 96.216ZM620.978 94.464C622.194 94.464 623.218 94.192 624.05 93.648C624.898 93.104 625.546 92.312 625.994 91.272C626.442 90.232 626.666 88.984 626.666 87.528C626.666 85.336 626.17 83.64 625.178 82.44C624.202 81.224 622.802 80.616 620.978 80.616C619.794 80.616 618.778 80.888 617.93 81.432C617.098 81.976 616.458 82.768 616.01 83.808C615.562 84.832 615.338 86.072 615.338 87.528C615.338 89.704 615.834 91.408 616.826 92.64C617.818 93.856 619.202 94.464 620.978 94.464ZM631.897 96C631.641 96 631.433 95.952 631.273 95.856C631.113 95.744 631.001 95.6 630.937 95.424C630.873 95.232 630.865 95.024 630.913 94.8C630.977 94.56 631.105 94.32 631.297 94.08L641.281 80.016V80.784H631.753C631.449 80.784 631.217 80.712 631.057 80.568C630.897 80.408 630.817 80.192 630.817 79.92C630.817 79.648 630.897 79.44 631.057 79.296C631.217 79.152 631.449 79.08 631.753 79.08H642.169C642.425 79.08 642.633 79.136 642.793 79.248C642.969 79.344 643.081 79.48 643.129 79.656C643.193 79.832 643.193 80.04 643.129 80.28C643.081 80.52 642.969 80.76 642.793 81L632.809 95.04V94.296H642.673C642.977 94.296 643.209 94.368 643.369 94.512C643.529 94.656 643.609 94.864 643.609 95.136C643.609 95.424 643.529 95.64 643.369 95.784C643.209 95.928 642.977 96 642.673 96H631.897ZM646.03 96C645.774 96 645.566 95.952 645.406 95.856C645.246 95.744 645.134 95.6 645.07 95.424C645.006 95.232 644.998 95.024 645.046 94.8C645.11 94.56 645.238 94.32 645.43 94.08L655.414 80.016V80.784H645.886C645.582 80.784 645.35 80.712 645.19 80.568C645.03 80.408 644.95 80.192 644.95 79.92C644.95 79.648 645.03 79.44 645.19 79.296C645.35 79.152 645.582 79.08 645.886 79.08H656.302C656.558 79.08 656.766 79.136 656.926 79.248C657.102 79.344 657.214 79.48 657.262 79.656C657.326 79.832 657.326 80.04 657.262 80.28C657.214 80.52 657.102 80.76 656.926 81L646.942 95.04V94.296H656.806C657.11 94.296 657.342 94.368 657.502 94.512C657.662 94.656 657.742 94.864 657.742 95.136C657.742 95.424 657.662 95.64 657.502 95.784C657.342 95.928 657.11 96 656.806 96H646.03ZM661.195 96C660.875 96 660.627 95.912 660.451 95.736C660.275 95.544 660.187 95.288 660.187 94.968V79.992C660.187 79.656 660.267 79.4 660.427 79.224C660.603 79.048 660.851 78.96 661.171 78.96C661.491 78.96 661.731 79.048 661.891 79.224C662.067 79.4 662.155 79.656 662.155 79.992V94.272H670.027C670.315 94.272 670.539 94.352 670.699 94.512C670.859 94.656 670.939 94.864 670.939 95.136C670.939 95.408 670.859 95.624 670.699 95.784C670.539 95.928 670.315 96 670.027 96H661.195ZM674.298 96C673.946 96 673.674 95.912 673.482 95.736C673.306 95.544 673.218 95.272 673.218 94.92V80.16C673.218 79.808 673.306 79.544 673.482 79.368C673.674 79.176 673.946 79.08 674.298 79.08H683.226C683.498 79.08 683.706 79.152 683.85 79.296C683.994 79.44 684.066 79.64 684.066 79.896C684.066 80.168 683.994 80.376 683.85 80.52C683.706 80.664 683.498 80.736 683.226 80.736H675.138V86.592H682.722C682.994 86.592 683.202 86.664 683.346 86.808C683.49 86.936 683.562 87.136 683.562 87.408C683.562 87.68 683.49 87.888 683.346 88.032C683.202 88.176 682.994 88.248 682.722 88.248H675.138V94.344H683.226C683.498 94.344 683.706 94.416 683.85 94.56C683.994 94.704 684.066 94.904 684.066 95.16C684.066 95.432 683.994 95.64 683.85 95.784C683.706 95.928 683.498 96 683.226 96H674.298ZM601.245 129.168C600.941 129.168 600.701 129.08 600.525 128.904C600.349 128.712 600.261 128.456 600.261 128.136V113.784H594.861C594.573 113.784 594.349 113.704 594.189 113.544C594.029 113.384 593.949 113.176 593.949 112.92C593.949 112.648 594.029 112.44 594.189 112.296C594.349 112.152 594.573 112.08 594.861 112.08H607.653C607.941 112.08 608.165 112.152 608.325 112.296C608.485 112.44 608.565 112.648 608.565 112.92C608.565 113.192 608.485 113.408 608.325 113.568C608.165 113.712 607.941 113.784 607.653 113.784H602.253V128.136C602.253 128.456 602.165 128.712 601.989 128.904C601.829 129.08 601.581 129.168 601.245 129.168ZM611.53 129.168C611.21 129.168 610.962 129.08 610.786 128.904C610.626 128.712 610.546 128.456 610.546 128.136V112.944C610.546 112.608 610.626 112.352 610.786 112.176C610.962 112 611.21 111.912 611.53 111.912C611.85 111.912 612.09 112 612.25 112.176C612.426 112.352 612.514 112.608 612.514 112.944V119.568H622.666V112.944C622.666 112.608 622.746 112.352 622.906 112.176C623.082 112 623.33 111.912 623.65 111.912C623.97 111.912 624.21 112 624.37 112.176C624.546 112.352 624.634 112.608 624.634 112.944V128.136C624.634 128.456 624.546 128.712 624.37 128.904C624.21 129.08 623.97 129.168 623.65 129.168C623.33 129.168 623.082 129.08 622.906 128.904C622.746 128.712 622.666 128.456 622.666 128.136V121.272H612.514V128.136C612.514 128.456 612.434 128.712 612.274 128.904C612.114 129.08 611.866 129.168 611.53 129.168ZM629.788 129.168C629.468 129.168 629.22 129.08 629.044 128.904C628.884 128.712 628.804 128.456 628.804 128.136V113.088C628.804 112.752 628.892 112.504 629.068 112.344C629.244 112.168 629.492 112.08 629.812 112.08H635.5C637.308 112.08 638.7 112.504 639.676 113.352C640.652 114.2 641.14 115.408 641.14 116.976C641.14 117.968 640.916 118.832 640.468 119.568C640.036 120.288 639.396 120.84 638.548 121.224C637.7 121.592 636.684 121.776 635.5 121.776L635.74 121.464H636.22C636.844 121.464 637.388 121.624 637.852 121.944C638.316 122.264 638.74 122.776 639.124 123.48L641.428 127.776C641.556 128 641.612 128.224 641.596 128.448C641.596 128.656 641.524 128.832 641.38 128.976C641.236 129.104 641.028 129.168 640.756 129.168C640.484 129.168 640.26 129.104 640.084 128.976C639.908 128.848 639.756 128.664 639.628 128.424L637.012 123.576C636.644 122.888 636.22 122.432 635.74 122.208C635.26 121.968 634.628 121.848 633.844 121.848H630.772V128.136C630.772 128.456 630.692 128.712 630.532 128.904C630.372 129.08 630.124 129.168 629.788 129.168ZM630.772 120.288H635.212C636.524 120.288 637.516 120.016 638.188 119.472C638.86 118.912 639.196 118.08 639.196 116.976C639.196 115.904 638.86 115.096 638.188 114.552C637.516 113.992 636.524 113.712 635.212 113.712H630.772V120.288ZM651.845 129.216C650.277 129.216 648.909 128.864 647.741 128.16C646.589 127.44 645.693 126.432 645.053 125.136C644.429 123.84 644.117 122.304 644.117 120.528C644.117 119.184 644.293 117.984 644.645 116.928C645.013 115.856 645.533 114.952 646.205 114.216C646.877 113.464 647.685 112.888 648.629 112.488C649.589 112.072 650.661 111.864 651.845 111.864C653.445 111.864 654.821 112.216 655.973 112.92C657.141 113.624 658.037 114.624 658.661 115.92C659.301 117.2 659.621 118.728 659.621 120.504C659.621 121.848 659.437 123.056 659.069 124.128C658.701 125.2 658.181 126.112 657.509 126.864C656.837 127.616 656.021 128.2 655.061 128.616C654.117 129.016 653.045 129.216 651.845 129.216ZM651.845 127.464C653.061 127.464 654.085 127.192 654.917 126.648C655.765 126.104 656.413 125.312 656.861 124.272C657.309 123.232 657.533 121.984 657.533 120.528C657.533 118.336 657.037 116.64 656.045 115.44C655.069 114.224 653.669 113.616 651.845 113.616C650.661 113.616 649.645 113.888 648.797 114.432C647.965 114.976 647.325 115.768 646.877 116.808C646.429 117.832 646.205 119.072 646.205 120.528C646.205 122.704 646.701 124.408 647.693 125.64C648.685 126.856 650.069 127.464 651.845 127.464ZM662.499 129.168C662.243 129.168 662.035 129.112 661.875 129C661.731 128.872 661.643 128.712 661.611 128.52C661.595 128.312 661.643 128.08 661.755 127.824L668.355 112.8C668.499 112.48 668.667 112.256 668.859 112.128C669.067 111.984 669.291 111.912 669.531 111.912C669.771 111.912 669.987 111.984 670.179 112.128C670.387 112.256 670.555 112.48 670.683 112.8L677.307 127.824C677.435 128.08 677.483 128.312 677.451 128.52C677.435 128.728 677.355 128.888 677.211 129C677.067 129.112 676.867 129.168 676.611 129.168C676.323 129.168 676.091 129.096 675.915 128.952C675.739 128.792 675.595 128.568 675.483 128.28L673.707 124.176L674.667 124.68H664.347L665.331 124.176L663.579 128.28C663.435 128.584 663.283 128.808 663.123 128.952C662.963 129.096 662.755 129.168 662.499 129.168ZM669.507 114.384L665.643 123.48L665.067 123.024H673.947L673.419 123.48L669.555 114.384H669.507ZM683.651 129.168C683.347 129.168 683.107 129.08 682.931 128.904C682.755 128.712 682.667 128.456 682.667 128.136V113.784H677.267C676.979 113.784 676.755 113.704 676.595 113.544C676.435 113.384 676.355 113.176 676.355 112.92C676.355 112.648 676.435 112.44 676.595 112.296C676.755 112.152 676.979 112.08 677.267 112.08H690.059C690.347 112.08 690.571 112.152 690.731 112.296C690.891 112.44 690.971 112.648 690.971 112.92C690.971 113.192 690.891 113.408 690.731 113.568C690.571 113.712 690.347 113.784 690.059 113.784H684.659V128.136C684.659 128.456 684.571 128.712 684.395 128.904C684.235 129.08 683.987 129.168 683.651 129.168Z" fill="black"/>
<path d="M502.533 37.5L502.533 36.5L501.846 36.5L501.599 37.1407L502.533 37.5ZM439 202.5L447.981 195.242L437.205 191.093L439 202.5ZM527.533 36.4999L502.533 36.5L502.533 38.5L527.533 38.4999L527.533 36.4999ZM501.599 37.1407L441.301 193.742L443.167 194.46L503.466 37.8593L501.599 37.1407Z" fill="black"/>
<path d="M546.602 29.216C544.938 29.216 543.514 28.864 542.33 28.16C541.146 27.456 540.234 26.456 539.594 25.16C538.97 23.864 538.658 22.32 538.658 20.528C538.658 19.184 538.834 17.984 539.186 16.928C539.554 15.856 540.074 14.952 540.746 14.216C541.434 13.464 542.274 12.888 543.266 12.488C544.258 12.072 545.37 11.864 546.602 11.864C547.594 11.864 548.538 12.008 549.434 12.296C550.33 12.568 551.106 12.976 551.762 13.52C551.97 13.68 552.106 13.864 552.17 14.072C552.25 14.264 552.258 14.456 552.194 14.648C552.146 14.824 552.05 14.976 551.906 15.104C551.778 15.216 551.618 15.272 551.426 15.272C551.234 15.272 551.018 15.192 550.778 15.032C550.202 14.568 549.57 14.224 548.882 14C548.194 13.776 547.45 13.664 546.65 13.664C545.386 13.664 544.314 13.936 543.434 14.48C542.554 15.008 541.89 15.784 541.442 16.808C540.994 17.832 540.77 19.072 540.77 20.528C540.77 21.984 540.994 23.232 541.442 24.272C541.89 25.296 542.554 26.08 543.434 26.624C544.314 27.152 545.386 27.416 546.65 27.416C547.434 27.416 548.178 27.304 548.882 27.08C549.586 26.84 550.234 26.488 550.826 26.024C551.066 25.864 551.282 25.792 551.474 25.808C551.666 25.808 551.826 25.864 551.954 25.976C552.082 26.088 552.17 26.232 552.218 26.408C552.282 26.584 552.282 26.768 552.218 26.96C552.17 27.152 552.05 27.32 551.858 27.464C551.186 28.04 550.394 28.48 549.482 28.784C548.586 29.072 547.626 29.216 546.602 29.216ZM562.042 29.216C560.474 29.216 559.106 28.864 557.938 28.16C556.786 27.44 555.89 26.432 555.25 25.136C554.626 23.84 554.314 22.304 554.314 20.528C554.314 19.184 554.49 17.984 554.842 16.928C555.21 15.856 555.73 14.952 556.402 14.216C557.074 13.464 557.882 12.888 558.826 12.488C559.786 12.072 560.858 11.864 562.042 11.864C563.642 11.864 565.018 12.216 566.17 12.92C567.338 13.624 568.234 14.624 568.858 15.92C569.498 17.2 569.818 18.728 569.818 20.504C569.818 21.848 569.634 23.056 569.266 24.128C568.898 25.2 568.378 26.112 567.706 26.864C567.034 27.616 566.218 28.2 565.258 28.616C564.314 29.016 563.242 29.216 562.042 29.216ZM562.042 27.464C563.258 27.464 564.282 27.192 565.114 26.648C565.962 26.104 566.61 25.312 567.058 24.272C567.506 23.232 567.73 21.984 567.73 20.528C567.73 18.336 567.234 16.64 566.242 15.44C565.266 14.224 563.866 13.616 562.042 13.616C560.858 13.616 559.842 13.888 558.994 14.432C558.162 14.976 557.522 15.768 557.074 16.808C556.626 17.832 556.402 19.072 556.402 20.528C556.402 22.704 556.898 24.408 557.89 25.64C558.882 26.856 560.266 27.464 562.042 27.464ZM574.273 29.168C573.969 29.168 573.737 29.088 573.577 28.928C573.417 28.752 573.337 28.504 573.337 28.184V12.92C573.337 12.6 573.417 12.352 573.577 12.176C573.737 12 573.945 11.912 574.201 11.912C574.457 11.912 574.641 11.96 574.753 12.056C574.881 12.136 575.025 12.288 575.185 12.512L585.649 26.456H585.073V12.872C585.073 12.568 585.153 12.336 585.313 12.176C585.473 12 585.705 11.912 586.009 11.912C586.297 11.912 586.513 12 586.657 12.176C586.817 12.336 586.897 12.568 586.897 12.872V28.208C586.897 28.512 586.825 28.752 586.681 28.928C586.553 29.088 586.361 29.168 586.105 29.168C585.865 29.168 585.673 29.12 585.529 29.024C585.385 28.928 585.233 28.776 585.073 28.568L574.633 14.624H575.185V28.184C575.185 28.504 575.105 28.752 574.945 28.928C574.785 29.088 574.561 29.168 574.273 29.168ZM597.294 29.168C596.99 29.168 596.742 29.096 596.55 28.952C596.358 28.808 596.206 28.592 596.094 28.304L589.494 13.208C589.382 12.936 589.35 12.712 589.398 12.536C589.446 12.344 589.55 12.192 589.71 12.08C589.886 11.968 590.086 11.912 590.31 11.912C590.614 11.912 590.838 11.984 590.982 12.128C591.142 12.256 591.27 12.448 591.366 12.704L597.702 27.416H596.934L603.246 12.68C603.358 12.44 603.494 12.256 603.654 12.128C603.814 11.984 604.038 11.912 604.326 11.912C604.55 11.912 604.734 11.968 604.878 12.08C605.038 12.192 605.134 12.344 605.166 12.536C605.214 12.728 605.182 12.952 605.07 13.208L598.47 28.304C598.358 28.592 598.206 28.808 598.014 28.952C597.838 29.096 597.598 29.168 597.294 29.168ZM608.729 29C608.377 29 608.105 28.912 607.913 28.736C607.737 28.544 607.649 28.272 607.649 27.92V13.16C607.649 12.808 607.737 12.544 607.913 12.368C608.105 12.176 608.377 12.08 608.729 12.08H617.657C617.929 12.08 618.137 12.152 618.281 12.296C618.425 12.44 618.497 12.64 618.497 12.896C618.497 13.168 618.425 13.376 618.281 13.52C618.137 13.664 617.929 13.736 617.657 13.736H609.569V19.592H617.153C617.425 19.592 617.633 19.664 617.777 19.808C617.921 19.936 617.993 20.136 617.993 20.408C617.993 20.68 617.921 20.888 617.777 21.032C617.633 21.176 617.425 21.248 617.153 21.248H609.569V27.344H617.657C617.929 27.344 618.137 27.416 618.281 27.56C618.425 27.704 618.497 27.904 618.497 28.16C618.497 28.432 618.425 28.64 618.281 28.784C618.137 28.928 617.929 29 617.657 29H608.729ZM622.625 29.168C622.305 29.168 622.057 29.08 621.881 28.904C621.721 28.712 621.641 28.456 621.641 28.136V13.088C621.641 12.752 621.729 12.504 621.905 12.344C622.081 12.168 622.329 12.08 622.649 12.08H628.337C630.145 12.08 631.537 12.504 632.513 13.352C633.489 14.2 633.977 15.408 633.977 16.976C633.977 17.968 633.753 18.832 633.305 19.568C632.873 20.288 632.233 20.84 631.385 21.224C630.537 21.592 629.521 21.776 628.337 21.776L628.577 21.464H629.057C629.681 21.464 630.225 21.624 630.689 21.944C631.153 22.264 631.577 22.776 631.961 23.48L634.265 27.776C634.393 28 634.449 28.224 634.433 28.448C634.433 28.656 634.361 28.832 634.217 28.976C634.073 29.104 633.865 29.168 633.593 29.168C633.321 29.168 633.097 29.104 632.921 28.976C632.745 28.848 632.593 28.664 632.465 28.424L629.849 23.576C629.481 22.888 629.057 22.432 628.577 22.208C628.097 21.968 627.465 21.848 626.681 21.848H623.609V28.136C623.609 28.456 623.529 28.712 623.369 28.904C623.209 29.08 622.961 29.168 622.625 29.168ZM623.609 20.288H628.049C629.361 20.288 630.353 20.016 631.025 19.472C631.697 18.912 632.033 18.08 632.033 16.976C632.033 15.904 631.697 15.096 631.025 14.552C630.353 13.992 629.361 13.712 628.049 13.712H623.609V20.288ZM645.307 29.216C643.499 29.216 641.971 28.872 640.723 28.184C639.491 27.496 638.555 26.504 637.915 25.208C637.275 23.912 636.955 22.36 636.955 20.552C636.955 19.208 637.131 18 637.483 16.928C637.851 15.856 638.379 14.952 639.067 14.216C639.771 13.464 640.619 12.888 641.611 12.488C642.619 12.072 643.755 11.864 645.019 11.864C646.027 11.864 647.003 12.008 647.947 12.296C648.891 12.568 649.731 13.008 650.467 13.616C650.659 13.76 650.779 13.92 650.827 14.096C650.875 14.272 650.867 14.448 650.803 14.624C650.755 14.8 650.667 14.952 650.539 15.08C650.427 15.192 650.275 15.256 650.083 15.272C649.907 15.288 649.723 15.232 649.531 15.104C648.875 14.592 648.179 14.224 647.443 14C646.707 13.76 645.891 13.64 644.995 13.64C643.715 13.64 642.627 13.912 641.731 14.456C640.851 15 640.179 15.784 639.715 16.808C639.267 17.832 639.043 19.08 639.043 20.552C639.043 22.792 639.563 24.504 640.603 25.688C641.659 26.872 643.243 27.464 645.355 27.464C646.123 27.464 646.875 27.392 647.611 27.248C648.347 27.088 649.043 26.872 649.699 26.6L649.267 27.728V21.752H645.835C645.547 21.752 645.331 21.68 645.187 21.536C645.043 21.392 644.971 21.2 644.971 20.96C644.971 20.704 645.043 20.512 645.187 20.384C645.331 20.256 645.547 20.192 645.835 20.192H650.131C650.403 20.192 650.611 20.264 650.755 20.408C650.899 20.552 650.971 20.76 650.971 21.032V27.296C650.971 27.536 650.931 27.736 650.851 27.896C650.771 28.056 650.635 28.176 650.443 28.256C649.771 28.528 648.963 28.76 648.019 28.952C647.091 29.128 646.187 29.216 645.307 29.216ZM656.073 29C655.721 29 655.449 28.912 655.257 28.736C655.081 28.544 654.993 28.272 654.993 27.92V13.16C654.993 12.808 655.081 12.544 655.257 12.368C655.449 12.176 655.721 12.08 656.073 12.08H665.001C665.273 12.08 665.481 12.152 665.625 12.296C665.769 12.44 665.841 12.64 665.841 12.896C665.841 13.168 665.769 13.376 665.625 13.52C665.481 13.664 665.273 13.736 665.001 13.736H656.913V19.592H664.497C664.769 19.592 664.977 19.664 665.121 19.808C665.265 19.936 665.337 20.136 665.337 20.408C665.337 20.68 665.265 20.888 665.121 21.032C664.977 21.176 664.769 21.248 664.497 21.248H656.913V27.344H665.001C665.273 27.344 665.481 27.416 665.625 27.56C665.769 27.704 665.841 27.904 665.841 28.16C665.841 28.432 665.769 28.64 665.625 28.784C665.481 28.928 665.273 29 665.001 29H656.073ZM669.921 29.168C669.617 29.168 669.385 29.088 669.225 28.928C669.065 28.752 668.985 28.504 668.985 28.184V12.92C668.985 12.6 669.065 12.352 669.225 12.176C669.385 12 669.593 11.912 669.849 11.912C670.105 11.912 670.289 11.96 670.401 12.056C670.529 12.136 670.673 12.288 670.833 12.512L681.297 26.456H680.721V12.872C680.721 12.568 680.801 12.336 680.961 12.176C681.121 12 681.353 11.912 681.657 11.912C681.945 11.912 682.161 12 682.305 12.176C682.465 12.336 682.545 12.568 682.545 12.872V28.208C682.545 28.512 682.473 28.752 682.329 28.928C682.201 29.088 682.009 29.168 681.753 29.168C681.513 29.168 681.321 29.12 681.177 29.024C681.033 28.928 680.881 28.776 680.721 28.568L670.281 14.624H670.833V28.184C670.833 28.504 670.753 28.752 670.593 28.928C670.433 29.088 670.209 29.168 669.921 29.168ZM691.887 29.168C691.583 29.168 691.343 29.08 691.167 28.904C690.991 28.712 690.903 28.456 690.903 28.136V13.784H685.503C685.215 13.784 684.991 13.704 684.831 13.544C684.671 13.384 684.591 13.176 684.591 12.92C684.591 12.648 684.671 12.44 684.831 12.296C684.991 12.152 685.215 12.08 685.503 12.08H698.295C698.583 12.08 698.807 12.152 698.967 12.296C699.127 12.44 699.207 12.648 699.207 12.92C699.207 13.192 699.127 13.408 698.967 13.568C698.807 13.712 698.583 13.784 698.295 13.784H692.895V28.136C692.895 28.456 692.807 28.712 692.631 28.904C692.471 29.08 692.223 29.168 691.887 29.168ZM544.754 62.216C544.002 62.216 543.266 62.152 542.546 62.024C541.826 61.896 541.154 61.712 540.53 61.472C539.922 61.232 539.37 60.928 538.874 60.56C538.682 60.416 538.546 60.256 538.466 60.08C538.402 59.888 538.386 59.704 538.418 59.528C538.466 59.336 538.546 59.176 538.658 59.048C538.786 58.92 538.938 58.848 539.114 58.832C539.29 58.816 539.482 58.872 539.69 59C540.41 59.512 541.178 59.888 541.994 60.128C542.81 60.352 543.73 60.464 544.754 60.464C546.194 60.464 547.258 60.2 547.946 59.672C548.65 59.128 549.002 58.416 549.002 57.536C549.002 56.816 548.746 56.256 548.234 55.856C547.738 55.44 546.898 55.112 545.714 54.872L543.218 54.368C541.714 54.048 540.586 53.528 539.834 52.808C539.098 52.072 538.73 51.096 538.73 49.88C538.73 49.128 538.882 48.448 539.186 47.84C539.49 47.216 539.914 46.688 540.458 46.256C541.002 45.808 541.65 45.464 542.402 45.224C543.154 44.984 543.986 44.864 544.898 44.864C545.906 44.864 546.842 45.008 547.706 45.296C548.586 45.568 549.378 45.984 550.082 46.544C550.258 46.688 550.378 46.856 550.442 47.048C550.506 47.224 550.514 47.4 550.466 47.576C550.418 47.736 550.33 47.872 550.202 47.984C550.09 48.096 549.938 48.16 549.746 48.176C549.57 48.192 549.37 48.128 549.146 47.984C548.506 47.504 547.842 47.16 547.154 46.952C546.466 46.728 545.706 46.616 544.874 46.616C544.026 46.616 543.29 46.744 542.666 47C542.058 47.256 541.578 47.632 541.226 48.128C540.89 48.608 540.722 49.168 540.722 49.808C540.722 50.576 540.954 51.184 541.418 51.632C541.898 52.08 542.674 52.408 543.746 52.616L546.242 53.144C547.858 53.48 549.05 53.992 549.818 54.68C550.602 55.352 550.994 56.272 550.994 57.44C550.994 58.144 550.85 58.792 550.562 59.384C550.274 59.976 549.858 60.488 549.314 60.92C548.77 61.336 548.114 61.656 547.346 61.88C546.578 62.104 545.714 62.216 544.754 62.216ZM555.128 62C554.776 62 554.504 61.912 554.312 61.736C554.136 61.544 554.048 61.272 554.048 60.92V46.16C554.048 45.808 554.136 45.544 554.312 45.368C554.504 45.176 554.776 45.08 555.128 45.08H564.056C564.328 45.08 564.536 45.152 564.68 45.296C564.824 45.44 564.896 45.64 564.896 45.896C564.896 46.168 564.824 46.376 564.68 46.52C564.536 46.664 564.328 46.736 564.056 46.736H555.968V52.592H563.552C563.824 52.592 564.032 52.664 564.176 52.808C564.32 52.936 564.392 53.136 564.392 53.408C564.392 53.68 564.32 53.888 564.176 54.032C564.032 54.176 563.824 54.248 563.552 54.248H555.968V60.344H564.056C564.328 60.344 564.536 60.416 564.68 60.56C564.824 60.704 564.896 60.904 564.896 61.16C564.896 61.432 564.824 61.64 564.68 61.784C564.536 61.928 564.328 62 564.056 62H555.128ZM575.29 62.216C573.626 62.216 572.202 61.864 571.018 61.16C569.834 60.456 568.922 59.456 568.282 58.16C567.658 56.864 567.346 55.32 567.346 53.528C567.346 52.184 567.522 50.984 567.874 49.928C568.242 48.856 568.762 47.952 569.434 47.216C570.122 46.464 570.962 45.888 571.954 45.488C572.946 45.072 574.058 44.864 575.29 44.864C576.282 44.864 577.226 45.008 578.122 45.296C579.018 45.568 579.794 45.976 580.45 46.52C580.658 46.68 580.794 46.864 580.858 47.072C580.938 47.264 580.946 47.456 580.882 47.648C580.834 47.824 580.738 47.976 580.594 48.104C580.466 48.216 580.306 48.272 580.114 48.272C579.922 48.272 579.706 48.192 579.466 48.032C578.89 47.568 578.258 47.224 577.57 47C576.882 46.776 576.138 46.664 575.338 46.664C574.074 46.664 573.002 46.936 572.122 47.48C571.242 48.008 570.578 48.784 570.13 49.808C569.682 50.832 569.458 52.072 569.458 53.528C569.458 54.984 569.682 56.232 570.13 57.272C570.578 58.296 571.242 59.08 572.122 59.624C573.002 60.152 574.074 60.416 575.338 60.416C576.122 60.416 576.866 60.304 577.57 60.08C578.274 59.84 578.922 59.488 579.514 59.024C579.754 58.864 579.97 58.792 580.162 58.808C580.354 58.808 580.514 58.864 580.642 58.976C580.77 59.088 580.858 59.232 580.906 59.408C580.97 59.584 580.97 59.768 580.906 59.96C580.858 60.152 580.738 60.32 580.546 60.464C579.874 61.04 579.082 61.48 578.17 61.784C577.274 62.072 576.314 62.216 575.29 62.216ZM589.02 62.168C588.716 62.168 588.476 62.08 588.3 61.904C588.124 61.712 588.036 61.456 588.036 61.136V46.784H582.636C582.348 46.784 582.124 46.704 581.964 46.544C581.804 46.384 581.724 46.176 581.724 45.92C581.724 45.648 581.804 45.44 581.964 45.296C582.124 45.152 582.348 45.08 582.636 45.08H595.428C595.716 45.08 595.94 45.152 596.1 45.296C596.26 45.44 596.34 45.648 596.34 45.92C596.34 46.192 596.26 46.408 596.1 46.568C595.94 46.712 595.716 46.784 595.428 46.784H590.028V61.136C590.028 61.456 589.94 61.712 589.764 61.904C589.604 62.08 589.356 62.168 589.02 62.168ZM599.305 62.168C598.985 62.168 598.737 62.08 598.561 61.904C598.401 61.712 598.321 61.456 598.321 61.136V45.944C598.321 45.608 598.401 45.352 598.561 45.176C598.737 45 598.985 44.912 599.305 44.912C599.625 44.912 599.865 45 600.025 45.176C600.201 45.352 600.289 45.608 600.289 45.944V61.136C600.289 61.456 600.209 61.712 600.049 61.904C599.889 62.08 599.641 62.168 599.305 62.168ZM611.589 62.216C610.021 62.216 608.653 61.864 607.485 61.16C606.333 60.44 605.437 59.432 604.797 58.136C604.173 56.84 603.861 55.304 603.861 53.528C603.861 52.184 604.037 50.984 604.389 49.928C604.757 48.856 605.277 47.952 605.949 47.216C606.621 46.464 607.429 45.888 608.373 45.488C609.333 45.072 610.405 44.864 611.589 44.864C613.189 44.864 614.565 45.216 615.717 45.92C616.885 46.624 617.781 47.624 618.405 48.92C619.045 50.2 619.365 51.728 619.365 53.504C619.365 54.848 619.181 56.056 618.813 57.128C618.445 58.2 617.925 59.112 617.253 59.864C616.581 60.616 615.765 61.2 614.805 61.616C613.861 62.016 612.789 62.216 611.589 62.216ZM611.589 60.464C612.805 60.464 613.829 60.192 614.661 59.648C615.509 59.104 616.157 58.312 616.605 57.272C617.053 56.232 617.277 54.984 617.277 53.528C617.277 51.336 616.781 49.64 615.789 48.44C614.813 47.224 613.413 46.616 611.589 46.616C610.405 46.616 609.389 46.888 608.541 47.432C607.709 47.976 607.069 48.768 606.621 49.808C606.173 50.832 605.949 52.072 605.949 53.528C605.949 55.704 606.445 57.408 607.437 58.64C608.429 59.856 609.813 60.464 611.589 60.464ZM623.82 62.168C623.516 62.168 623.284 62.088 623.124 61.928C622.964 61.752 622.884 61.504 622.884 61.184V45.92C622.884 45.6 622.964 45.352 623.124 45.176C623.284 45 623.492 44.912 623.748 44.912C624.004 44.912 624.188 44.96 624.3 45.056C624.428 45.136 624.572 45.288 624.732 45.512L635.196 59.456H634.62V45.872C634.62 45.568 634.7 45.336 634.86 45.176C635.02 45 635.252 44.912 635.556 44.912C635.844 44.912 636.06 45 636.204 45.176C636.364 45.336 636.444 45.568 636.444 45.872V61.208C636.444 61.512 636.372 61.752 636.228 61.928C636.1 62.088 635.908 62.168 635.652 62.168C635.412 62.168 635.22 62.12 635.076 62.024C634.932 61.928 634.78 61.776 634.62 61.568L624.18 47.624H624.732V61.184C624.732 61.504 624.652 61.752 624.492 61.928C624.332 62.088 624.108 62.168 623.82 62.168Z" fill="black"/>
<path d="M542.311 405.5L541.387 405.118L540.816 406.5L542.311 406.5L542.311 405.5ZM575.18 326L566.024 333.035L576.695 337.447L575.18 326ZM567.311 404.5L542.311 404.5L542.311 406.5L567.311 406.5L567.311 404.5ZM543.235 405.882L572.666 334.699L570.818 333.935L541.387 405.118L543.235 405.882Z" fill="black"/>
<path d="M580.168 397C579.816 397 579.544 396.912 579.352 396.736C579.176 396.544 579.088 396.272 579.088 395.92V381.16C579.088 380.808 579.176 380.544 579.352 380.368C579.544 380.176 579.816 380.08 580.168 380.08H584.8C587.536 380.08 589.648 380.8 591.136 382.24C592.624 383.68 593.368 385.776 593.368 388.528C593.368 389.904 593.176 391.12 592.792 392.176C592.424 393.216 591.872 394.096 591.136 394.816C590.4 395.536 589.504 396.08 588.448 396.448C587.392 396.816 586.176 397 584.8 397H580.168ZM581.056 395.32H584.656C585.776 395.32 586.744 395.176 587.56 394.888C588.392 394.6 589.08 394.176 589.624 393.616C590.184 393.056 590.6 392.352 590.872 391.504C591.144 390.64 591.28 389.648 591.28 388.528C591.28 386.272 590.728 384.584 589.624 383.464C588.52 382.328 586.864 381.76 584.656 381.76H581.056V395.32ZM597.885 397.168C597.565 397.168 597.317 397.08 597.141 396.904C596.981 396.712 596.901 396.456 596.901 396.136V380.944C596.901 380.608 596.981 380.352 597.141 380.176C597.317 380 597.565 379.912 597.885 379.912C598.205 379.912 598.445 380 598.605 380.176C598.781 380.352 598.869 380.608 598.869 380.944V396.136C598.869 396.456 598.789 396.712 598.629 396.904C598.469 397.08 598.221 397.168 597.885 397.168ZM609.257 397.168C608.953 397.168 608.705 397.096 608.513 396.952C608.321 396.808 608.169 396.592 608.057 396.304L601.457 381.208C601.345 380.936 601.313 380.712 601.361 380.536C601.409 380.344 601.513 380.192 601.673 380.08C601.849 379.968 602.049 379.912 602.273 379.912C602.577 379.912 602.801 379.984 602.945 380.128C603.105 380.256 603.233 380.448 603.329 380.704L609.665 395.416H608.897L615.209 380.68C615.321 380.44 615.457 380.256 615.617 380.128C615.777 379.984 616.001 379.912 616.289 379.912C616.513 379.912 616.697 379.968 616.841 380.08C617.001 380.192 617.097 380.344 617.129 380.536C617.177 380.728 617.145 380.952 617.033 381.208L610.433 396.304C610.321 396.592 610.169 396.808 609.977 396.952C609.801 397.096 609.561 397.168 609.257 397.168ZM620.691 397C620.339 397 620.067 396.912 619.875 396.736C619.699 396.544 619.611 396.272 619.611 395.92V381.16C619.611 380.808 619.699 380.544 619.875 380.368C620.067 380.176 620.339 380.08 620.691 380.08H629.619C629.891 380.08 630.099 380.152 630.243 380.296C630.387 380.44 630.459 380.64 630.459 380.896C630.459 381.168 630.387 381.376 630.243 381.52C630.099 381.664 629.891 381.736 629.619 381.736H621.531V387.592H629.115C629.387 387.592 629.595 387.664 629.739 387.808C629.883 387.936 629.955 388.136 629.955 388.408C629.955 388.68 629.883 388.888 629.739 389.032C629.595 389.176 629.387 389.248 629.115 389.248H621.531V395.344H629.619C629.891 395.344 630.099 395.416 630.243 395.56C630.387 395.704 630.459 395.904 630.459 396.16C630.459 396.432 630.387 396.64 630.243 396.784C630.099 396.928 629.891 397 629.619 397H620.691ZM634.588 397.168C634.268 397.168 634.02 397.08 633.844 396.904C633.684 396.712 633.604 396.456 633.604 396.136V381.088C633.604 380.752 633.692 380.504 633.868 380.344C634.044 380.168 634.292 380.08 634.612 380.08H640.3C642.108 380.08 643.5 380.504 644.476 381.352C645.452 382.2 645.94 383.408 645.94 384.976C645.94 385.968 645.716 386.832 645.268 387.568C644.836 388.288 644.196 388.84 643.348 389.224C642.5 389.592 641.484 389.776 640.3 389.776L640.54 389.464H641.02C641.644 389.464 642.188 389.624 642.652 389.944C643.116 390.264 643.54 390.776 643.924 391.48L646.228 395.776C646.356 396 646.412 396.224 646.396 396.448C646.396 396.656 646.324 396.832 646.18 396.976C646.036 397.104 645.828 397.168 645.556 397.168C645.284 397.168 645.06 397.104 644.884 396.976C644.708 396.848 644.556 396.664 644.428 396.424L641.812 391.576C641.444 390.888 641.02 390.432 640.54 390.208C640.06 389.968 639.428 389.848 638.644 389.848H635.572V396.136C635.572 396.456 635.492 396.712 635.332 396.904C635.172 397.08 634.924 397.168 634.588 397.168ZM635.572 388.288H640.012C641.324 388.288 642.316 388.016 642.988 387.472C643.66 386.912 643.996 386.08 643.996 384.976C643.996 383.904 643.66 383.096 642.988 382.552C642.316 381.992 641.324 381.712 640.012 381.712H635.572V388.288ZM657.269 397.216C655.461 397.216 653.933 396.872 652.685 396.184C651.453 395.496 650.517 394.504 649.877 393.208C649.237 391.912 648.917 390.36 648.917 388.552C648.917 387.208 649.093 386 649.445 384.928C649.813 383.856 650.341 382.952 651.029 382.216C651.733 381.464 652.581 380.888 653.573 380.488C654.581 380.072 655.717 379.864 656.981 379.864C657.989 379.864 658.965 380.008 659.909 380.296C660.853 380.568 661.693 381.008 662.429 381.616C662.621 381.76 662.741 381.92 662.789 382.096C662.837 382.272 662.829 382.448 662.765 382.624C662.717 382.8 662.629 382.952 662.501 383.08C662.389 383.192 662.237 383.256 662.045 383.272C661.869 383.288 661.685 383.232 661.493 383.104C660.837 382.592 660.141 382.224 659.405 382C658.669 381.76 657.853 381.64 656.957 381.64C655.677 381.64 654.589 381.912 653.693 382.456C652.813 383 652.141 383.784 651.677 384.808C651.229 385.832 651.005 387.08 651.005 388.552C651.005 390.792 651.525 392.504 652.565 393.688C653.621 394.872 655.205 395.464 657.317 395.464C658.085 395.464 658.837 395.392 659.573 395.248C660.309 395.088 661.005 394.872 661.661 394.6L661.229 395.728V389.752H657.797C657.509 389.752 657.293 389.68 657.149 389.536C657.005 389.392 656.933 389.2 656.933 388.96C656.933 388.704 657.005 388.512 657.149 388.384C657.293 388.256 657.509 388.192 657.797 388.192H662.093C662.365 388.192 662.573 388.264 662.717 388.408C662.861 388.552 662.933 388.76 662.933 389.032V395.296C662.933 395.536 662.893 395.736 662.813 395.896C662.733 396.056 662.597 396.176 662.405 396.256C661.733 396.528 660.925 396.76 659.981 396.952C659.053 397.128 658.149 397.216 657.269 397.216ZM668.035 397C667.683 397 667.411 396.912 667.219 396.736C667.043 396.544 666.955 396.272 666.955 395.92V381.16C666.955 380.808 667.043 380.544 667.219 380.368C667.411 380.176 667.683 380.08 668.035 380.08H676.963C677.235 380.08 677.443 380.152 677.587 380.296C677.731 380.44 677.803 380.64 677.803 380.896C677.803 381.168 677.731 381.376 677.587 381.52C677.443 381.664 677.235 381.736 676.963 381.736H668.875V387.592H676.459C676.731 387.592 676.939 387.664 677.083 387.808C677.227 387.936 677.299 388.136 677.299 388.408C677.299 388.68 677.227 388.888 677.083 389.032C676.939 389.176 676.731 389.248 676.459 389.248H668.875V395.344H676.963C677.235 395.344 677.443 395.416 677.587 395.56C677.731 395.704 677.803 395.904 677.803 396.16C677.803 396.432 677.731 396.64 677.587 396.784C677.443 396.928 677.235 397 676.963 397H668.035ZM681.883 397.168C681.579 397.168 681.347 397.088 681.187 396.928C681.027 396.752 680.947 396.504 680.947 396.184V380.92C680.947 380.6 681.027 380.352 681.187 380.176C681.347 380 681.555 379.912 681.811 379.912C682.067 379.912 682.251 379.96 682.363 380.056C682.491 380.136 682.635 380.288 682.795 380.512L693.259 394.456H692.683V380.872C692.683 380.568 692.763 380.336 692.923 380.176C693.083 380 693.315 379.912 693.619 379.912C693.907 379.912 694.123 380 694.267 380.176C694.427 380.336 694.507 380.568 694.507 380.872V396.208C694.507 396.512 694.435 396.752 694.291 396.928C694.163 397.088 693.971 397.168 693.715 397.168C693.475 397.168 693.283 397.12 693.139 397.024C692.995 396.928 692.843 396.776 692.683 396.568L682.243 382.624H682.795V396.184C682.795 396.504 682.715 396.752 682.555 396.928C682.395 397.088 682.171 397.168 681.883 397.168ZM703.849 397.168C703.545 397.168 703.305 397.08 703.129 396.904C702.953 396.712 702.865 396.456 702.865 396.136V381.784H697.465C697.177 381.784 696.953 381.704 696.793 381.544C696.633 381.384 696.553 381.176 696.553 380.92C696.553 380.648 696.633 380.44 696.793 380.296C696.953 380.152 697.177 380.08 697.465 380.08H710.257C710.545 380.08 710.769 380.152 710.929 380.296C711.089 380.44 711.169 380.648 711.169 380.92C711.169 381.192 711.089 381.408 710.929 381.568C710.769 381.712 710.545 381.784 710.257 381.784H704.857V396.136C704.857 396.456 704.769 396.712 704.593 396.904C704.433 397.08 704.185 397.168 703.849 397.168ZM584.56 430.216C583.808 430.216 583.072 430.152 582.352 430.024C581.632 429.896 580.96 429.712 580.336 429.472C579.728 429.232 579.176 428.928 578.68 428.56C578.488 428.416 578.352 428.256 578.272 428.08C578.208 427.888 578.192 427.704 578.224 427.528C578.272 427.336 578.352 427.176 578.464 427.048C578.592 426.92 578.744 426.848 578.92 426.832C579.096 426.816 579.288 426.872 579.496 427C580.216 427.512 580.984 427.888 581.8 428.128C582.616 428.352 583.536 428.464 584.56 428.464C586 428.464 587.064 428.2 587.752 427.672C588.456 427.128 588.808 426.416 588.808 425.536C588.808 424.816 588.552 424.256 588.04 423.856C587.544 423.44 586.704 423.112 585.52 422.872L583.024 422.368C581.52 422.048 580.392 421.528 579.64 420.808C578.904 420.072 578.536 419.096 578.536 417.88C578.536 417.128 578.688 416.448 578.992 415.84C579.296 415.216 579.72 414.688 580.264 414.256C580.808 413.808 581.456 413.464 582.208 413.224C582.96 412.984 583.792 412.864 584.704 412.864C585.712 412.864 586.648 413.008 587.512 413.296C588.392 413.568 589.184 413.984 589.888 414.544C590.064 414.688 590.184 414.856 590.248 415.048C590.312 415.224 590.32 415.4 590.272 415.576C590.224 415.736 590.136 415.872 590.008 415.984C589.896 416.096 589.744 416.16 589.552 416.176C589.376 416.192 589.176 416.128 588.952 415.984C588.312 415.504 587.648 415.16 586.96 414.952C586.272 414.728 585.512 414.616 584.68 414.616C583.832 414.616 583.096 414.744 582.472 415C581.864 415.256 581.384 415.632 581.032 416.128C580.696 416.608 580.528 417.168 580.528 417.808C580.528 418.576 580.76 419.184 581.224 419.632C581.704 420.08 582.48 420.408 583.552 420.616L586.048 421.144C587.664 421.48 588.856 421.992 589.624 422.68C590.408 423.352 590.8 424.272 590.8 425.44C590.8 426.144 590.656 426.792 590.368 427.384C590.08 427.976 589.664 428.488 589.12 428.92C588.576 429.336 587.92 429.656 587.152 429.88C586.384 430.104 585.52 430.216 584.56 430.216ZM594.934 430C594.582 430 594.31 429.912 594.118 429.736C593.942 429.544 593.854 429.272 593.854 428.92V414.16C593.854 413.808 593.942 413.544 594.118 413.368C594.31 413.176 594.582 413.08 594.934 413.08H603.862C604.134 413.08 604.342 413.152 604.486 413.296C604.63 413.44 604.702 413.64 604.702 413.896C604.702 414.168 604.63 414.376 604.486 414.52C604.342 414.664 604.134 414.736 603.862 414.736H595.774V420.592H603.358C603.63 420.592 603.838 420.664 603.982 420.808C604.126 420.936 604.198 421.136 604.198 421.408C604.198 421.68 604.126 421.888 603.982 422.032C603.838 422.176 603.63 422.248 603.358 422.248H595.774V428.344H603.862C604.134 428.344 604.342 428.416 604.486 428.56C604.63 428.704 604.702 428.904 604.702 429.16C604.702 429.432 604.63 429.64 604.486 429.784C604.342 429.928 604.134 430 603.862 430H594.934ZM615.096 430.216C613.432 430.216 612.008 429.864 610.824 429.16C609.64 428.456 608.728 427.456 608.088 426.16C607.464 424.864 607.152 423.32 607.152 421.528C607.152 420.184 607.328 418.984 607.68 417.928C608.048 416.856 608.568 415.952 609.24 415.216C609.928 414.464 610.768 413.888 611.76 413.488C612.752 413.072 613.864 412.864 615.096 412.864C616.088 412.864 617.032 413.008 617.928 413.296C618.824 413.568 619.6 413.976 620.256 414.52C620.464 414.68 620.6 414.864 620.664 415.072C620.744 415.264 620.752 415.456 620.688 415.648C620.64 415.824 620.544 415.976 620.4 416.104C620.272 416.216 620.112 416.272 619.92 416.272C619.728 416.272 619.512 416.192 619.272 416.032C618.696 415.568 618.064 415.224 617.376 415C616.688 414.776 615.944 414.664 615.144 414.664C613.88 414.664 612.808 414.936 611.928 415.48C611.048 416.008 610.384 416.784 609.936 417.808C609.488 418.832 609.264 420.072 609.264 421.528C609.264 422.984 609.488 424.232 609.936 425.272C610.384 426.296 611.048 427.08 611.928 427.624C612.808 428.152 613.88 428.416 615.144 428.416C615.928 428.416 616.672 428.304 617.376 428.08C618.08 427.84 618.728 427.488 619.32 427.024C619.56 426.864 619.776 426.792 619.968 426.808C620.16 426.808 620.32 426.864 620.448 426.976C620.576 427.088 620.664 427.232 620.712 427.408C620.776 427.584 620.776 427.768 620.712 427.96C620.664 428.152 620.544 428.32 620.352 428.464C619.68 429.04 618.888 429.48 617.976 429.784C617.08 430.072 616.12 430.216 615.096 430.216ZM628.826 430.168C628.522 430.168 628.282 430.08 628.106 429.904C627.93 429.712 627.842 429.456 627.842 429.136V414.784H622.442C622.154 414.784 621.93 414.704 621.77 414.544C621.61 414.384 621.53 414.176 621.53 413.92C621.53 413.648 621.61 413.44 621.77 413.296C621.93 413.152 622.154 413.08 622.442 413.08H635.234C635.522 413.08 635.746 413.152 635.906 413.296C636.066 413.44 636.146 413.648 636.146 413.92C636.146 414.192 636.066 414.408 635.906 414.568C635.746 414.712 635.522 414.784 635.234 414.784H629.834V429.136C629.834 429.456 629.746 429.712 629.57 429.904C629.41 430.08 629.162 430.168 628.826 430.168ZM639.111 430.168C638.791 430.168 638.543 430.08 638.367 429.904C638.207 429.712 638.127 429.456 638.127 429.136V413.944C638.127 413.608 638.207 413.352 638.367 413.176C638.543 413 638.791 412.912 639.111 412.912C639.431 412.912 639.671 413 639.831 413.176C640.007 413.352 640.095 413.608 640.095 413.944V429.136C640.095 429.456 640.015 429.712 639.855 429.904C639.695 430.08 639.447 430.168 639.111 430.168ZM651.395 430.216C649.827 430.216 648.459 429.864 647.291 429.16C646.139 428.44 645.243 427.432 644.603 426.136C643.979 424.84 643.667 423.304 643.667 421.528C643.667 420.184 643.843 418.984 644.195 417.928C644.563 416.856 645.083 415.952 645.755 415.216C646.427 414.464 647.235 413.888 648.179 413.488C649.139 413.072 650.211 412.864 651.395 412.864C652.995 412.864 654.371 413.216 655.523 413.92C656.691 414.624 657.587 415.624 658.211 416.92C658.851 418.2 659.171 419.728 659.171 421.504C659.171 422.848 658.987 424.056 658.619 425.128C658.251 426.2 657.731 427.112 657.059 427.864C656.387 428.616 655.571 429.2 654.611 429.616C653.667 430.016 652.595 430.216 651.395 430.216ZM651.395 428.464C652.611 428.464 653.635 428.192 654.467 427.648C655.315 427.104 655.963 426.312 656.411 425.272C656.859 424.232 657.083 422.984 657.083 421.528C657.083 419.336 656.587 417.64 655.595 416.44C654.619 415.224 653.219 414.616 651.395 414.616C650.211 414.616 649.195 414.888 648.347 415.432C647.515 415.976 646.875 416.768 646.427 417.808C645.979 418.832 645.755 420.072 645.755 421.528C645.755 423.704 646.251 425.408 647.243 426.64C648.235 427.856 649.619 428.464 651.395 428.464ZM663.626 430.168C663.322 430.168 663.09 430.088 662.93 429.928C662.77 429.752 662.69 429.504 662.69 429.184V413.92C662.69 413.6 662.77 413.352 662.93 413.176C663.09 413 663.298 412.912 663.554 412.912C663.81 412.912 663.994 412.96 664.106 413.056C664.234 413.136 664.378 413.288 664.538 413.512L675.002 427.456H674.426V413.872C674.426 413.568 674.506 413.336 674.666 413.176C674.826 413 675.058 412.912 675.362 412.912C675.65 412.912 675.866 413 676.01 413.176C676.17 413.336 676.25 413.568 676.25 413.872V429.208C676.25 429.512 676.178 429.752 676.034 429.928C675.906 430.088 675.714 430.168 675.458 430.168C675.218 430.168 675.026 430.12 674.882 430.024C674.738 429.928 674.586 429.776 674.426 429.568L663.986 415.624H664.538V429.184C664.538 429.504 664.458 429.752 664.298 429.928C664.138 430.088 663.914 430.168 663.626 430.168Z" fill="black"/>
<path d="M37.9476 242C37.6276 242 37.3796 241.912 37.2036 241.736C37.0276 241.544 36.9396 241.288 36.9396 240.968V225.992C36.9396 225.656 37.0196 225.4 37.1796 225.224C37.3556 225.048 37.6036 224.96 37.9236 224.96C38.2436 224.96 38.4836 225.048 38.6436 225.224C38.8196 225.4 38.9076 225.656 38.9076 225.992V240.272H46.7796C47.0676 240.272 47.2916 240.352 47.4516 240.512C47.6116 240.656 47.6916 240.864 47.6916 241.136C47.6916 241.408 47.6116 241.624 47.4516 241.784C47.2916 241.928 47.0676 242 46.7796 242H37.9476ZM56.2076 242.216C54.6396 242.216 53.2716 241.864 52.1036 241.16C50.9516 240.44 50.0556 239.432 49.4156 238.136C48.7916 236.84 48.4796 235.304 48.4796 233.528C48.4796 232.184 48.6556 230.984 49.0076 229.928C49.3756 228.856 49.8956 227.952 50.5676 227.216C51.2396 226.464 52.0476 225.888 52.9916 225.488C53.9516 225.072 55.0236 224.864 56.2076 224.864C57.8076 224.864 59.1836 225.216 60.3356 225.92C61.5036 226.624 62.3996 227.624 63.0236 228.92C63.6636 230.2 63.9836 231.728 63.9836 233.504C63.9836 234.848 63.7996 236.056 63.4316 237.128C63.0636 238.2 62.5436 239.112 61.8716 239.864C61.1996 240.616 60.3836 241.2 59.4236 241.616C58.4796 242.016 57.4076 242.216 56.2076 242.216ZM56.2076 240.464C57.4236 240.464 58.4476 240.192 59.2796 239.648C60.1276 239.104 60.7756 238.312 61.2236 237.272C61.6716 236.232 61.8956 234.984 61.8956 233.528C61.8956 231.336 61.3996 229.64 60.4076 228.44C59.4316 227.224 58.0316 226.616 56.2076 226.616C55.0236 226.616 54.0076 226.888 53.1596 227.432C52.3276 227.976 51.6876 228.768 51.2396 229.808C50.7916 230.832 50.5676 232.072 50.5676 233.528C50.5676 235.704 51.0636 237.408 52.0556 238.64C53.0476 239.856 54.4316 240.464 56.2076 240.464ZM72.5511 242.168C72.2631 242.168 72.0311 242.096 71.8551 241.952C71.6791 241.792 71.5351 241.56 71.4231 241.256L66.1191 226.112C66.0071 225.776 66.0311 225.496 66.1911 225.272C66.3671 225.032 66.6391 224.912 67.0071 224.912C67.2791 224.912 67.4951 224.984 67.6551 225.128C67.8151 225.256 67.9511 225.464 68.0631 225.752L73.0311 240.32H72.1911L77.2551 225.824C77.3671 225.52 77.5031 225.296 77.6631 225.152C77.8231 224.992 78.0391 224.912 78.3111 224.912C78.5671 224.912 78.7671 224.992 78.9111 225.152C79.0711 225.296 79.2071 225.52 79.3191 225.824L84.3111 240.32H83.5671L88.5831 225.752C88.6631 225.48 88.7831 225.272 88.9431 225.128C89.1191 224.984 89.3431 224.912 89.6151 224.912C89.9511 224.912 90.1991 225.024 90.3591 225.248C90.5191 225.472 90.5351 225.76 90.4071 226.112L85.0791 241.256C84.9671 241.56 84.8231 241.792 84.6471 241.952C84.4871 242.096 84.2551 242.168 83.9511 242.168C83.6631 242.168 83.4311 242.096 83.2551 241.952C83.0951 241.792 82.9511 241.56 82.8231 241.256L77.9991 227.36H78.5271L73.6551 241.256C73.5431 241.56 73.4071 241.792 73.2471 241.952C73.0871 242.096 72.8551 242.168 72.5511 242.168ZM105.921 242.168C105.617 242.168 105.369 242.096 105.177 241.952C104.985 241.808 104.833 241.592 104.721 241.304L98.1206 226.208C98.0086 225.936 97.9766 225.712 98.0246 225.536C98.0726 225.344 98.1766 225.192 98.3366 225.08C98.5126 224.968 98.7126 224.912 98.9366 224.912C99.2406 224.912 99.4646 224.984 99.6086 225.128C99.7686 225.256 99.8966 225.448 99.9926 225.704L106.329 240.416H105.561L111.873 225.68C111.985 225.44 112.121 225.256 112.281 225.128C112.441 224.984 112.665 224.912 112.953 224.912C113.177 224.912 113.361 224.968 113.505 225.08C113.665 225.192 113.761 225.344 113.793 225.536C113.841 225.728 113.809 225.952 113.697 226.208L107.097 241.304C106.985 241.592 106.833 241.808 106.641 241.952C106.465 242.096 106.225 242.168 105.921 242.168ZM117.355 242C117.004 242 116.732 241.912 116.54 241.736C116.364 241.544 116.276 241.272 116.276 240.92V226.16C116.276 225.808 116.364 225.544 116.54 225.368C116.732 225.176 117.004 225.08 117.355 225.08H126.284C126.556 225.08 126.764 225.152 126.908 225.296C127.052 225.44 127.124 225.64 127.124 225.896C127.124 226.168 127.052 226.376 126.908 226.52C126.764 226.664 126.556 226.736 126.284 226.736H118.196V232.592H125.78C126.052 232.592 126.26 232.664 126.404 232.808C126.548 232.936 126.62 233.136 126.62 233.408C126.62 233.68 126.548 233.888 126.404 234.032C126.26 234.176 126.052 234.248 125.78 234.248H118.196V240.344H126.284C126.556 240.344 126.764 240.416 126.908 240.56C127.052 240.704 127.124 240.904 127.124 241.16C127.124 241.432 127.052 241.64 126.908 241.784C126.764 241.928 126.556 242 126.284 242H117.355ZM131.276 242C130.956 242 130.708 241.912 130.532 241.736C130.356 241.544 130.268 241.288 130.268 240.968V225.992C130.268 225.656 130.348 225.4 130.508 225.224C130.684 225.048 130.932 224.96 131.252 224.96C131.572 224.96 131.812 225.048 131.972 225.224C132.148 225.4 132.236 225.656 132.236 225.992V240.272H140.108C140.396 240.272 140.62 240.352 140.78 240.512C140.94 240.656 141.02 240.864 141.02 241.136C141.02 241.408 140.94 241.624 140.78 241.784C140.62 241.928 140.396 242 140.108 242H131.276ZM149.536 242.216C147.968 242.216 146.6 241.864 145.432 241.16C144.28 240.44 143.384 239.432 142.744 238.136C142.12 236.84 141.808 235.304 141.808 233.528C141.808 232.184 141.984 230.984 142.336 229.928C142.704 228.856 143.224 227.952 143.896 227.216C144.568 226.464 145.376 225.888 146.32 225.488C147.28 225.072 148.352 224.864 149.536 224.864C151.136 224.864 152.512 225.216 153.664 225.92C154.832 226.624 155.728 227.624 156.352 228.92C156.992 230.2 157.312 231.728 157.312 233.504C157.312 234.848 157.128 236.056 156.76 237.128C156.392 238.2 155.872 239.112 155.2 239.864C154.528 240.616 153.712 241.2 152.752 241.616C151.808 242.016 150.736 242.216 149.536 242.216ZM149.536 240.464C150.752 240.464 151.776 240.192 152.608 239.648C153.456 239.104 154.104 238.312 154.552 237.272C155 236.232 155.224 234.984 155.224 233.528C155.224 231.336 154.728 229.64 153.736 228.44C152.76 227.224 151.36 226.616 149.536 226.616C148.352 226.616 147.336 226.888 146.488 227.432C145.656 227.976 145.016 228.768 144.568 229.808C144.12 230.832 143.896 232.072 143.896 233.528C143.896 235.704 144.392 237.408 145.384 238.64C146.376 239.856 147.76 240.464 149.536 240.464ZM168.15 242.216C166.486 242.216 165.062 241.864 163.878 241.16C162.694 240.456 161.782 239.456 161.142 238.16C160.518 236.864 160.206 235.32 160.206 233.528C160.206 232.184 160.382 230.984 160.734 229.928C161.102 228.856 161.622 227.952 162.294 227.216C162.982 226.464 163.822 225.888 164.814 225.488C165.806 225.072 166.918 224.864 168.15 224.864C169.142 224.864 170.086 225.008 170.982 225.296C171.878 225.568 172.654 225.976 173.31 226.52C173.518 226.68 173.654 226.864 173.718 227.072C173.798 227.264 173.806 227.456 173.742 227.648C173.694 227.824 173.598 227.976 173.454 228.104C173.326 228.216 173.166 228.272 172.974 228.272C172.782 228.272 172.566 228.192 172.326 228.032C171.75 227.568 171.118 227.224 170.43 227C169.742 226.776 168.998 226.664 168.198 226.664C166.934 226.664 165.862 226.936 164.982 227.48C164.102 228.008 163.438 228.784 162.99 229.808C162.542 230.832 162.318 232.072 162.318 233.528C162.318 234.984 162.542 236.232 162.99 237.272C163.438 238.296 164.102 239.08 164.982 239.624C165.862 240.152 166.934 240.416 168.198 240.416C168.982 240.416 169.726 240.304 170.43 240.08C171.134 239.84 171.782 239.488 172.374 239.024C172.614 238.864 172.83 238.792 173.022 238.808C173.214 238.808 173.374 238.864 173.502 238.976C173.63 239.088 173.718 239.232 173.766 239.408C173.83 239.584 173.83 239.768 173.766 239.96C173.718 240.152 173.598 240.32 173.406 240.464C172.734 241.04 171.942 241.48 171.03 241.784C170.134 242.072 169.174 242.216 168.15 242.216ZM177.963 242.168C177.643 242.168 177.395 242.08 177.219 241.904C177.059 241.712 176.979 241.456 176.979 241.136V225.944C176.979 225.608 177.059 225.352 177.219 225.176C177.395 225 177.643 224.912 177.963 224.912C178.283 224.912 178.523 225 178.683 225.176C178.859 225.352 178.947 225.608 178.947 225.944V241.136C178.947 241.456 178.867 241.712 178.707 241.904C178.547 242.08 178.299 242.168 177.963 242.168ZM188.279 242.168C187.975 242.168 187.735 242.08 187.559 241.904C187.383 241.712 187.295 241.456 187.295 241.136V226.784H181.895C181.607 226.784 181.383 226.704 181.223 226.544C181.063 226.384 180.983 226.176 180.983 225.92C180.983 225.648 181.063 225.44 181.223 225.296C181.383 225.152 181.607 225.08 181.895 225.08H194.687C194.975 225.08 195.199 225.152 195.359 225.296C195.519 225.44 195.599 225.648 195.599 225.92C195.599 226.192 195.519 226.408 195.359 226.568C195.199 226.712 194.975 226.784 194.687 226.784H189.287V241.136C189.287 241.456 189.199 241.712 189.023 241.904C188.863 242.08 188.615 242.168 188.279 242.168ZM202.855 242.168C202.535 242.168 202.287 242.08 202.111 241.904C201.951 241.712 201.871 241.448 201.871 241.112V233.24L202.303 234.608L196.279 226.304C196.135 226.096 196.063 225.888 196.063 225.68C196.079 225.456 196.167 225.272 196.327 225.128C196.487 224.984 196.695 224.912 196.951 224.912C197.175 224.912 197.375 224.968 197.551 225.08C197.727 225.176 197.887 225.336 198.031 225.56L203.143 232.616H202.639L207.751 225.56C207.927 225.32 208.095 225.152 208.255 225.056C208.415 224.96 208.607 224.912 208.831 224.912C209.087 224.912 209.287 224.984 209.431 225.128C209.575 225.256 209.647 225.432 209.647 225.656C209.663 225.864 209.591 226.088 209.431 226.328L203.431 234.608L203.839 233.24V241.112C203.839 241.816 203.511 242.168 202.855 242.168ZM24.7517 275.168C24.4317 275.168 24.1837 275.08 24.0077 274.904C23.8477 274.712 23.7677 274.456 23.7677 274.136V258.944C23.7677 258.608 23.8477 258.352 24.0077 258.176C24.1837 258 24.4317 257.912 24.7517 257.912C25.0717 257.912 25.3117 258 25.4717 258.176C25.6477 258.352 25.7357 258.608 25.7357 258.944V265.568H35.8877V258.944C35.8877 258.608 35.9677 258.352 36.1277 258.176C36.3037 258 36.5517 257.912 36.8717 257.912C37.1917 257.912 37.4317 258 37.5917 258.176C37.7677 258.352 37.8557 258.608 37.8557 258.944V274.136C37.8557 274.456 37.7677 274.712 37.5917 274.904C37.4317 275.08 37.1917 275.168 36.8717 275.168C36.5517 275.168 36.3037 275.08 36.1277 274.904C35.9677 274.712 35.8877 274.456 35.8877 274.136V267.272H25.7357V274.136C25.7357 274.456 25.6557 274.712 25.4957 274.904C25.3357 275.08 25.0877 275.168 24.7517 275.168ZM43.0095 275.168C42.6895 275.168 42.4415 275.08 42.2655 274.904C42.1055 274.712 42.0255 274.456 42.0255 274.136V258.944C42.0255 258.608 42.1055 258.352 42.2655 258.176C42.4415 258 42.6895 257.912 43.0095 257.912C43.3295 257.912 43.5695 258 43.7295 258.176C43.9055 258.352 43.9935 258.608 43.9935 258.944V274.136C43.9935 274.456 43.9135 274.712 43.7535 274.904C43.5935 275.08 43.3455 275.168 43.0095 275.168ZM55.9176 275.216C54.1096 275.216 52.5816 274.872 51.3336 274.184C50.1016 273.496 49.1656 272.504 48.5256 271.208C47.8856 269.912 47.5656 268.36 47.5656 266.552C47.5656 265.208 47.7416 264 48.0936 262.928C48.4616 261.856 48.9896 260.952 49.6776 260.216C50.3816 259.464 51.2296 258.888 52.2216 258.488C53.2296 258.072 54.3656 257.864 55.6296 257.864C56.6376 257.864 57.6136 258.008 58.5576 258.296C59.5016 258.568 60.3416 259.008 61.0776 259.616C61.2696 259.76 61.3896 259.92 61.4376 260.096C61.4856 260.272 61.4776 260.448 61.4136 260.624C61.3656 260.8 61.2776 260.952 61.1496 261.08C61.0376 261.192 60.8856 261.256 60.6936 261.272C60.5176 261.288 60.3336 261.232 60.1416 261.104C59.4856 260.592 58.7896 260.224 58.0536 260C57.3176 259.76 56.5016 259.64 55.6056 259.64C54.3256 259.64 53.2376 259.912 52.3416 260.456C51.4616 261 50.7896 261.784 50.3256 262.808C49.8776 263.832 49.6536 265.08 49.6536 266.552C49.6536 268.792 50.1736 270.504 51.2136 271.688C52.2696 272.872 53.8536 273.464 55.9656 273.464C56.7336 273.464 57.4856 273.392 58.2216 273.248C58.9576 273.088 59.6536 272.872 60.3096 272.6L59.8776 273.728V267.752H56.4456C56.1576 267.752 55.9416 267.68 55.7976 267.536C55.6536 267.392 55.5816 267.2 55.5816 266.96C55.5816 266.704 55.6536 266.512 55.7976 266.384C55.9416 266.256 56.1576 266.192 56.4456 266.192H60.7416C61.0136 266.192 61.2216 266.264 61.3656 266.408C61.5096 266.552 61.5816 266.76 61.5816 267.032V273.296C61.5816 273.536 61.5416 273.736 61.4616 273.896C61.3816 274.056 61.2456 274.176 61.0536 274.256C60.3816 274.528 59.5736 274.76 58.6296 274.952C57.7016 275.128 56.7976 275.216 55.9176 275.216ZM66.5876 275.168C66.2676 275.168 66.0196 275.08 65.8436 274.904C65.6836 274.712 65.6036 274.456 65.6036 274.136V258.944C65.6036 258.608 65.6836 258.352 65.8436 258.176C66.0196 258 66.2676 257.912 66.5876 257.912C66.9076 257.912 67.1476 258 67.3076 258.176C67.4836 258.352 67.5716 258.608 67.5716 258.944V265.568H77.7236V258.944C77.7236 258.608 77.8036 258.352 77.9636 258.176C78.1396 258 78.3876 257.912 78.7076 257.912C79.0276 257.912 79.2676 258 79.4276 258.176C79.6036 258.352 79.6916 258.608 79.6916 258.944V274.136C79.6916 274.456 79.6036 274.712 79.4276 274.904C79.2676 275.08 79.0276 275.168 78.7076 275.168C78.3876 275.168 78.1396 275.08 77.9636 274.904C77.8036 274.712 77.7236 274.456 77.7236 274.136V267.272H67.5716V274.136C67.5716 274.456 67.4916 274.712 67.3316 274.904C67.1716 275.08 66.9236 275.168 66.5876 275.168ZM91.0329 275.168C90.7129 275.168 90.4649 275.08 90.2889 274.904C90.1289 274.712 90.0489 274.456 90.0489 274.136V259.088C90.0489 258.752 90.1369 258.504 90.3129 258.344C90.4889 258.168 90.7369 258.08 91.0569 258.08H96.7449C98.5529 258.08 99.9449 258.528 100.921 259.424C101.897 260.304 102.385 261.552 102.385 263.168C102.385 264.768 101.897 266.016 100.921 266.912C99.9449 267.808 98.5529 268.256 96.7449 268.256H92.0169V274.136C92.0169 274.456 91.9369 274.712 91.7769 274.904C91.6169 275.08 91.3689 275.168 91.0329 275.168ZM92.0169 266.6H96.5049C97.8009 266.6 98.7769 266.312 99.4329 265.736C100.105 265.144 100.441 264.288 100.441 263.168C100.441 262.032 100.105 261.176 99.4329 260.6C98.7769 260.008 97.8009 259.712 96.5049 259.712H92.0169V266.6ZM106.22 275.168C105.9 275.168 105.652 275.08 105.476 274.904C105.316 274.712 105.236 274.456 105.236 274.136V259.088C105.236 258.752 105.324 258.504 105.5 258.344C105.676 258.168 105.924 258.08 106.244 258.08H111.932C113.74 258.08 115.132 258.504 116.108 259.352C117.084 260.2 117.572 261.408 117.572 262.976C117.572 263.968 117.348 264.832 116.9 265.568C116.468 266.288 115.828 266.84 114.98 267.224C114.132 267.592 113.116 267.776 111.932 267.776L112.172 267.464H112.652C113.276 267.464 113.82 267.624 114.284 267.944C114.748 268.264 115.172 268.776 115.556 269.48L117.86 273.776C117.988 274 118.044 274.224 118.028 274.448C118.028 274.656 117.956 274.832 117.812 274.976C117.668 275.104 117.46 275.168 117.188 275.168C116.916 275.168 116.692 275.104 116.516 274.976C116.34 274.848 116.188 274.664 116.06 274.424L113.444 269.576C113.076 268.888 112.652 268.432 112.172 268.208C111.692 267.968 111.06 267.848 110.276 267.848H107.204V274.136C107.204 274.456 107.124 274.712 106.964 274.904C106.804 275.08 106.556 275.168 106.22 275.168ZM107.204 266.288H111.644C112.956 266.288 113.948 266.016 114.62 265.472C115.292 264.912 115.628 264.08 115.628 262.976C115.628 261.904 115.292 261.096 114.62 260.552C113.948 259.992 112.956 259.712 111.644 259.712H107.204V266.288ZM122.371 275C122.019 275 121.747 274.912 121.555 274.736C121.379 274.544 121.291 274.272 121.291 273.92V259.16C121.291 258.808 121.379 258.544 121.555 258.368C121.747 258.176 122.019 258.08 122.371 258.08H131.299C131.571 258.08 131.779 258.152 131.923 258.296C132.067 258.44 132.139 258.64 132.139 258.896C132.139 259.168 132.067 259.376 131.923 259.52C131.779 259.664 131.571 259.736 131.299 259.736H123.211V265.592H130.795C131.067 265.592 131.275 265.664 131.419 265.808C131.563 265.936 131.635 266.136 131.635 266.408C131.635 266.68 131.563 266.888 131.419 267.032C131.275 267.176 131.067 267.248 130.795 267.248H123.211V273.344H131.299C131.571 273.344 131.779 273.416 131.923 273.56C132.067 273.704 132.139 273.904 132.139 274.16C132.139 274.432 132.067 274.64 131.923 274.784C131.779 274.928 131.571 275 131.299 275H122.371ZM140.521 275.216C139.769 275.216 139.033 275.152 138.313 275.024C137.593 274.896 136.921 274.712 136.297 274.472C135.689 274.232 135.137 273.928 134.641 273.56C134.449 273.416 134.313 273.256 134.233 273.08C134.169 272.888 134.153 272.704 134.185 272.528C134.233 272.336 134.313 272.176 134.425 272.048C134.553 271.92 134.705 271.848 134.881 271.832C135.057 271.816 135.249 271.872 135.457 272C136.177 272.512 136.945 272.888 137.761 273.128C138.577 273.352 139.497 273.464 140.521 273.464C141.961 273.464 143.025 273.2 143.713 272.672C144.417 272.128 144.769 271.416 144.769 270.536C144.769 269.816 144.513 269.256 144.001 268.856C143.505 268.44 142.665 268.112 141.481 267.872L138.985 267.368C137.481 267.048 136.353 266.528 135.601 265.808C134.865 265.072 134.497 264.096 134.497 262.88C134.497 262.128 134.649 261.448 134.953 260.84C135.257 260.216 135.681 259.688 136.225 259.256C136.769 258.808 137.417 258.464 138.169 258.224C138.921 257.984 139.753 257.864 140.665 257.864C141.673 257.864 142.609 258.008 143.473 258.296C144.353 258.568 145.145 258.984 145.849 259.544C146.025 259.688 146.145 259.856 146.209 260.048C146.273 260.224 146.281 260.4 146.233 260.576C146.185 260.736 146.097 260.872 145.969 260.984C145.857 261.096 145.705 261.16 145.513 261.176C145.337 261.192 145.137 261.128 144.913 260.984C144.273 260.504 143.609 260.16 142.921 259.952C142.233 259.728 141.473 259.616 140.641 259.616C139.793 259.616 139.057 259.744 138.433 260C137.825 260.256 137.345 260.632 136.993 261.128C136.657 261.608 136.489 262.168 136.489 262.808C136.489 263.576 136.721 264.184 137.185 264.632C137.665 265.08 138.441 265.408 139.513 265.616L142.009 266.144C143.625 266.48 144.817 266.992 145.585 267.68C146.369 268.352 146.761 269.272 146.761 270.44C146.761 271.144 146.617 271.792 146.329 272.384C146.041 272.976 145.625 273.488 145.081 273.92C144.537 274.336 143.881 274.656 143.113 274.88C142.345 275.104 141.481 275.216 140.521 275.216ZM155.287 275.216C154.535 275.216 153.799 275.152 153.079 275.024C152.359 274.896 151.687 274.712 151.063 274.472C150.455 274.232 149.903 273.928 149.407 273.56C149.215 273.416 149.079 273.256 148.999 273.08C148.935 272.888 148.919 272.704 148.951 272.528C148.999 272.336 149.079 272.176 149.191 272.048C149.319 271.92 149.471 271.848 149.647 271.832C149.823 271.816 150.015 271.872 150.223 272C150.943 272.512 151.711 272.888 152.527 273.128C153.343 273.352 154.263 273.464 155.287 273.464C156.727 273.464 157.791 273.2 158.479 272.672C159.183 272.128 159.535 271.416 159.535 270.536C159.535 269.816 159.279 269.256 158.767 268.856C158.271 268.44 157.431 268.112 156.247 267.872L153.751 267.368C152.247 267.048 151.119 266.528 150.367 265.808C149.631 265.072 149.263 264.096 149.263 262.88C149.263 262.128 149.415 261.448 149.719 260.84C150.023 260.216 150.447 259.688 150.991 259.256C151.535 258.808 152.183 258.464 152.935 258.224C153.687 257.984 154.519 257.864 155.431 257.864C156.439 257.864 157.375 258.008 158.239 258.296C159.119 258.568 159.911 258.984 160.615 259.544C160.791 259.688 160.911 259.856 160.975 260.048C161.039 260.224 161.047 260.4 160.999 260.576C160.951 260.736 160.863 260.872 160.735 260.984C160.623 261.096 160.471 261.16 160.279 261.176C160.103 261.192 159.903 261.128 159.679 260.984C159.039 260.504 158.375 260.16 157.687 259.952C156.999 259.728 156.239 259.616 155.407 259.616C154.559 259.616 153.823 259.744 153.199 260C152.591 260.256 152.111 260.632 151.759 261.128C151.423 261.608 151.255 262.168 151.255 262.808C151.255 263.576 151.487 264.184 151.951 264.632C152.431 265.08 153.207 265.408 154.279 265.616L156.775 266.144C158.391 266.48 159.583 266.992 160.351 267.68C161.135 268.352 161.527 269.272 161.527 270.44C161.527 271.144 161.383 271.792 161.095 272.384C160.807 272.976 160.391 273.488 159.847 273.92C159.303 274.336 158.647 274.656 157.879 274.88C157.111 275.104 156.247 275.216 155.287 275.216ZM171.252 275.216C170.132 275.216 169.148 275.072 168.3 274.784C167.468 274.48 166.764 274.04 166.188 273.464C165.612 272.872 165.18 272.144 164.892 271.28C164.604 270.416 164.46 269.424 164.46 268.304V258.92C164.46 258.584 164.54 258.336 164.7 258.176C164.876 258 165.124 257.912 165.444 257.912C165.764 257.912 166.004 258 166.164 258.176C166.34 258.336 166.428 258.584 166.428 258.92V268.208C166.428 269.968 166.836 271.288 167.652 272.168C168.468 273.032 169.668 273.464 171.252 273.464C172.836 273.464 174.028 273.032 174.828 272.168C175.628 271.288 176.028 269.968 176.028 268.208V258.92C176.028 258.584 176.116 258.336 176.292 258.176C176.468 258 176.716 257.912 177.036 257.912C177.34 257.912 177.572 258 177.732 258.176C177.908 258.336 177.996 258.584 177.996 258.92V268.304C177.996 269.792 177.74 271.056 177.228 272.096C176.732 273.136 175.98 273.92 174.972 274.448C173.964 274.96 172.724 275.216 171.252 275.216ZM183.025 275.168C182.705 275.168 182.457 275.08 182.281 274.904C182.121 274.712 182.041 274.456 182.041 274.136V259.088C182.041 258.752 182.129 258.504 182.305 258.344C182.481 258.168 182.729 258.08 183.049 258.08H188.737C190.545 258.08 191.937 258.504 192.913 259.352C193.889 260.2 194.377 261.408 194.377 262.976C194.377 263.968 194.153 264.832 193.705 265.568C193.273 266.288 192.633 266.84 191.785 267.224C190.937 267.592 189.921 267.776 188.737 267.776L188.977 267.464H189.457C190.081 267.464 190.625 267.624 191.089 267.944C191.553 268.264 191.977 268.776 192.361 269.48L194.665 273.776C194.793 274 194.849 274.224 194.833 274.448C194.833 274.656 194.761 274.832 194.617 274.976C194.473 275.104 194.265 275.168 193.993 275.168C193.721 275.168 193.497 275.104 193.321 274.976C193.145 274.848 192.993 274.664 192.865 274.424L190.249 269.576C189.881 268.888 189.457 268.432 188.977 268.208C188.497 267.968 187.865 267.848 187.081 267.848H184.009V274.136C184.009 274.456 183.929 274.712 183.769 274.904C183.609 275.08 183.361 275.168 183.025 275.168ZM184.009 266.288H188.449C189.761 266.288 190.753 266.016 191.425 265.472C192.097 264.912 192.433 264.08 192.433 262.976C192.433 261.904 192.097 261.096 191.425 260.552C190.753 259.992 189.761 259.712 188.449 259.712H184.009V266.288ZM199.176 275C198.824 275 198.552 274.912 198.36 274.736C198.184 274.544 198.096 274.272 198.096 273.92V259.16C198.096 258.808 198.184 258.544 198.36 258.368C198.552 258.176 198.824 258.08 199.176 258.08H208.104C208.376 258.08 208.584 258.152 208.728 258.296C208.872 258.44 208.944 258.64 208.944 258.896C208.944 259.168 208.872 259.376 208.728 259.52C208.584 259.664 208.376 259.736 208.104 259.736H200.016V265.592H207.6C207.872 265.592 208.08 265.664 208.224 265.808C208.368 265.936 208.44 266.136 208.44 266.408C208.44 266.68 208.368 266.888 208.224 267.032C208.08 267.176 207.872 267.248 207.6 267.248H200.016V273.344H208.104C208.376 273.344 208.584 273.416 208.728 273.56C208.872 273.704 208.944 273.904 208.944 274.16C208.944 274.432 208.872 274.64 208.728 274.784C208.584 274.928 208.376 275 208.104 275H199.176ZM170.293 308.216C168.485 308.216 166.957 307.872 165.709 307.184C164.477 306.496 163.541 305.504 162.901 304.208C162.261 302.912 161.941 301.36 161.941 299.552C161.941 298.208 162.117 297 162.469 295.928C162.837 294.856 163.365 293.952 164.053 293.216C164.757 292.464 165.605 291.888 166.597 291.488C167.605 291.072 168.741 290.864 170.005 290.864C171.013 290.864 171.989 291.008 172.933 291.296C173.877 291.568 174.717 292.008 175.453 292.616C175.645 292.76 175.765 292.92 175.813 293.096C175.861 293.272 175.853 293.448 175.789 293.624C175.741 293.8 175.653 293.952 175.525 294.08C175.413 294.192 175.261 294.256 175.069 294.272C174.893 294.288 174.709 294.232 174.517 294.104C173.861 293.592 173.165 293.224 172.429 293C171.693 292.76 170.877 292.64 169.981 292.64C168.701 292.64 167.613 292.912 166.717 293.456C165.837 294 165.165 294.784 164.701 295.808C164.253 296.832 164.029 298.08 164.029 299.552C164.029 301.792 164.549 303.504 165.589 304.688C166.645 305.872 168.229 306.464 170.341 306.464C171.109 306.464 171.861 306.392 172.597 306.248C173.333 306.088 174.029 305.872 174.685 305.6L174.253 306.728V300.752H170.821C170.533 300.752 170.317 300.68 170.173 300.536C170.029 300.392 169.957 300.2 169.957 299.96C169.957 299.704 170.029 299.512 170.173 299.384C170.317 299.256 170.533 299.192 170.821 299.192H175.117C175.389 299.192 175.597 299.264 175.741 299.408C175.885 299.552 175.957 299.76 175.957 300.032V306.296C175.957 306.536 175.917 306.736 175.837 306.896C175.757 307.056 175.621 307.176 175.429 307.256C174.757 307.528 173.949 307.76 173.005 307.952C172.077 308.128 171.173 308.216 170.293 308.216ZM179.619 308.168C179.363 308.168 179.155 308.112 178.995 308C178.851 307.872 178.763 307.712 178.731 307.52C178.715 307.312 178.763 307.08 178.875 306.824L185.475 291.8C185.619 291.48 185.787 291.256 185.979 291.128C186.187 290.984 186.411 290.912 186.651 290.912C186.891 290.912 187.107 290.984 187.299 291.128C187.507 291.256 187.675 291.48 187.803 291.8L194.427 306.824C194.555 307.08 194.603 307.312 194.571 307.52C194.555 307.728 194.475 307.888 194.331 308C194.187 308.112 193.987 308.168 193.731 308.168C193.443 308.168 193.211 308.096 193.035 307.952C192.859 307.792 192.715 307.568 192.603 307.28L190.827 303.176L191.787 303.68H181.467L182.451 303.176L180.699 307.28C180.555 307.584 180.403 307.808 180.243 307.952C180.083 308.096 179.875 308.168 179.619 308.168ZM186.627 293.384L182.763 302.48L182.187 302.024H191.067L190.539 302.48L186.675 293.384H186.627ZM202.794 308.216C202.042 308.216 201.306 308.152 200.586 308.024C199.866 307.896 199.194 307.712 198.57 307.472C197.962 307.232 197.41 306.928 196.914 306.56C196.722 306.416 196.586 306.256 196.506 306.08C196.442 305.888 196.426 305.704 196.458 305.528C196.506 305.336 196.586 305.176 196.698 305.048C196.826 304.92 196.978 304.848 197.154 304.832C197.33 304.816 197.522 304.872 197.73 305C198.45 305.512 199.218 305.888 200.034 306.128C200.85 306.352 201.77 306.464 202.794 306.464C204.234 306.464 205.298 306.2 205.986 305.672C206.69 305.128 207.042 304.416 207.042 303.536C207.042 302.816 206.786 302.256 206.274 301.856C205.778 301.44 204.938 301.112 203.754 300.872L201.258 300.368C199.754 300.048 198.626 299.528 197.874 298.808C197.138 298.072 196.77 297.096 196.77 295.88C196.77 295.128 196.922 294.448 197.226 293.84C197.53 293.216 197.954 292.688 198.498 292.256C199.042 291.808 199.69 291.464 200.442 291.224C201.194 290.984 202.026 290.864 202.938 290.864C203.946 290.864 204.882 291.008 205.746 291.296C206.626 291.568 207.418 291.984 208.122 292.544C208.298 292.688 208.418 292.856 208.482 293.048C208.546 293.224 208.554 293.4 208.506 293.576C208.458 293.736 208.37 293.872 208.242 293.984C208.13 294.096 207.978 294.16 207.786 294.176C207.61 294.192 207.41 294.128 207.186 293.984C206.546 293.504 205.882 293.16 205.194 292.952C204.506 292.728 203.746 292.616 202.914 292.616C202.066 292.616 201.33 292.744 200.706 293C200.098 293.256 199.618 293.632 199.266 294.128C198.93 294.608 198.762 295.168 198.762 295.808C198.762 296.576 198.994 297.184 199.458 297.632C199.938 298.08 200.714 298.408 201.786 298.616L204.282 299.144C205.898 299.48 207.09 299.992 207.858 300.68C208.642 301.352 209.034 302.272 209.034 303.44C209.034 304.144 208.89 304.792 208.602 305.384C208.314 305.976 207.898 306.488 207.354 306.92C206.81 307.336 206.154 307.656 205.386 307.88C204.618 308.104 203.754 308.216 202.794 308.216Z" fill="black"/>
<path d="M284.89 275.333H231V258.667H284.89H285.89V257.667V248.851L313.193 266.744L285.89 285.121V276.333V275.333H284.89Z" stroke="black" stroke-width="2"/>
<path d="M594.431 242.168C594.111 242.168 593.863 242.08 593.687 241.904C593.527 241.712 593.447 241.456 593.447 241.136V225.944C593.447 225.608 593.527 225.352 593.687 225.176C593.863 225 594.111 224.912 594.431 224.912C594.751 224.912 594.991 225 595.151 225.176C595.327 225.352 595.415 225.608 595.415 225.944V232.568H605.567V225.944C605.567 225.608 605.647 225.352 605.807 225.176C605.983 225 606.231 224.912 606.551 224.912C606.871 224.912 607.111 225 607.271 225.176C607.447 225.352 607.535 225.608 607.535 225.944V241.136C607.535 241.456 607.447 241.712 607.271 241.904C607.111 242.08 606.871 242.168 606.551 242.168C606.231 242.168 605.983 242.08 605.807 241.904C605.647 241.712 605.567 241.456 605.567 241.136V234.272H595.415V241.136C595.415 241.456 595.335 241.712 595.175 241.904C595.015 242.08 594.767 242.168 594.431 242.168ZM612.689 242.168C612.369 242.168 612.121 242.08 611.945 241.904C611.785 241.712 611.705 241.456 611.705 241.136V225.944C611.705 225.608 611.785 225.352 611.945 225.176C612.121 225 612.369 224.912 612.689 224.912C613.009 224.912 613.249 225 613.409 225.176C613.585 225.352 613.673 225.608 613.673 225.944V241.136C613.673 241.456 613.593 241.712 613.433 241.904C613.273 242.08 613.025 242.168 612.689 242.168ZM625.597 242.216C623.789 242.216 622.261 241.872 621.013 241.184C619.781 240.496 618.845 239.504 618.205 238.208C617.565 236.912 617.245 235.36 617.245 233.552C617.245 232.208 617.421 231 617.773 229.928C618.141 228.856 618.669 227.952 619.357 227.216C620.061 226.464 620.909 225.888 621.901 225.488C622.909 225.072 624.045 224.864 625.309 224.864C626.317 224.864 627.293 225.008 628.237 225.296C629.181 225.568 630.021 226.008 630.757 226.616C630.949 226.76 631.069 226.92 631.117 227.096C631.165 227.272 631.157 227.448 631.093 227.624C631.045 227.8 630.957 227.952 630.829 228.08C630.717 228.192 630.565 228.256 630.373 228.272C630.197 228.288 630.013 228.232 629.821 228.104C629.165 227.592 628.469 227.224 627.733 227C626.997 226.76 626.181 226.64 625.285 226.64C624.005 226.64 622.917 226.912 622.021 227.456C621.141 228 620.469 228.784 620.005 229.808C619.557 230.832 619.333 232.08 619.333 233.552C619.333 235.792 619.853 237.504 620.893 238.688C621.949 239.872 623.533 240.464 625.645 240.464C626.413 240.464 627.165 240.392 627.901 240.248C628.637 240.088 629.333 239.872 629.989 239.6L629.557 240.728V234.752H626.125C625.837 234.752 625.621 234.68 625.477 234.536C625.333 234.392 625.261 234.2 625.261 233.96C625.261 233.704 625.333 233.512 625.477 233.384C625.621 233.256 625.837 233.192 626.125 233.192H630.421C630.693 233.192 630.901 233.264 631.045 233.408C631.189 233.552 631.261 233.76 631.261 234.032V240.296C631.261 240.536 631.221 240.736 631.141 240.896C631.061 241.056 630.925 241.176 630.733 241.256C630.061 241.528 629.253 241.76 628.309 241.952C627.381 242.128 626.477 242.216 625.597 242.216ZM636.267 242.168C635.947 242.168 635.699 242.08 635.523 241.904C635.363 241.712 635.283 241.456 635.283 241.136V225.944C635.283 225.608 635.363 225.352 635.523 225.176C635.699 225 635.947 224.912 636.267 224.912C636.587 224.912 636.827 225 636.987 225.176C637.163 225.352 637.251 225.608 637.251 225.944V232.568H647.403V225.944C647.403 225.608 647.483 225.352 647.643 225.176C647.819 225 648.067 224.912 648.387 224.912C648.707 224.912 648.947 225 649.107 225.176C649.283 225.352 649.371 225.608 649.371 225.944V241.136C649.371 241.456 649.283 241.712 649.107 241.904C648.947 242.08 648.707 242.168 648.387 242.168C648.067 242.168 647.819 242.08 647.643 241.904C647.483 241.712 647.403 241.456 647.403 241.136V234.272H637.251V241.136C637.251 241.456 637.171 241.712 637.011 241.904C636.851 242.08 636.603 242.168 636.267 242.168ZM665.921 242.168C665.617 242.168 665.369 242.096 665.177 241.952C664.985 241.808 664.833 241.592 664.721 241.304L658.121 226.208C658.009 225.936 657.977 225.712 658.025 225.536C658.073 225.344 658.177 225.192 658.337 225.08C658.513 224.968 658.713 224.912 658.937 224.912C659.241 224.912 659.465 224.984 659.609 225.128C659.769 225.256 659.897 225.448 659.993 225.704L666.329 240.416H665.561L671.873 225.68C671.985 225.44 672.121 225.256 672.281 225.128C672.441 224.984 672.665 224.912 672.953 224.912C673.177 224.912 673.361 224.968 673.505 225.08C673.665 225.192 673.761 225.344 673.793 225.536C673.841 225.728 673.809 225.952 673.697 226.208L667.097 241.304C666.985 241.592 666.833 241.808 666.641 241.952C666.465 242.096 666.225 242.168 665.921 242.168ZM677.355 242C677.004 242 676.732 241.912 676.54 241.736C676.364 241.544 676.276 241.272 676.276 240.92V226.16C676.276 225.808 676.364 225.544 676.54 225.368C676.732 225.176 677.004 225.08 677.355 225.08H686.284C686.556 225.08 686.764 225.152 686.908 225.296C687.052 225.44 687.124 225.64 687.124 225.896C687.124 226.168 687.052 226.376 686.908 226.52C686.764 226.664 686.556 226.736 686.284 226.736H678.196V232.592H685.78C686.052 232.592 686.26 232.664 686.404 232.808C686.548 232.936 686.62 233.136 686.62 233.408C686.62 233.68 686.548 233.888 686.404 234.032C686.26 234.176 686.052 234.248 685.78 234.248H678.196V240.344H686.284C686.556 240.344 686.764 240.416 686.908 240.56C687.052 240.704 687.124 240.904 687.124 241.16C687.124 241.432 687.052 241.64 686.908 241.784C686.764 241.928 686.556 242 686.284 242H677.355ZM691.276 242C690.956 242 690.708 241.912 690.532 241.736C690.356 241.544 690.268 241.288 690.268 240.968V225.992C690.268 225.656 690.348 225.4 690.508 225.224C690.684 225.048 690.932 224.96 691.252 224.96C691.572 224.96 691.812 225.048 691.972 225.224C692.148 225.4 692.236 225.656 692.236 225.992V240.272H700.108C700.396 240.272 700.62 240.352 700.78 240.512C700.94 240.656 701.02 240.864 701.02 241.136C701.02 241.408 700.94 241.624 700.78 241.784C700.62 241.928 700.396 242 700.108 242H691.276ZM709.536 242.216C707.968 242.216 706.6 241.864 705.432 241.16C704.28 240.44 703.384 239.432 702.744 238.136C702.12 236.84 701.808 235.304 701.808 233.528C701.808 232.184 701.984 230.984 702.336 229.928C702.704 228.856 703.224 227.952 703.896 227.216C704.568 226.464 705.376 225.888 706.32 225.488C707.28 225.072 708.352 224.864 709.536 224.864C711.136 224.864 712.512 225.216 713.664 225.92C714.832 226.624 715.728 227.624 716.352 228.92C716.992 230.2 717.312 231.728 717.312 233.504C717.312 234.848 717.128 236.056 716.76 237.128C716.392 238.2 715.872 239.112 715.2 239.864C714.528 240.616 713.712 241.2 712.752 241.616C711.808 242.016 710.736 242.216 709.536 242.216ZM709.536 240.464C710.752 240.464 711.776 240.192 712.608 239.648C713.456 239.104 714.104 238.312 714.552 237.272C715 236.232 715.224 234.984 715.224 233.528C715.224 231.336 714.728 229.64 713.736 228.44C712.76 227.224 711.36 226.616 709.536 226.616C708.352 226.616 707.336 226.888 706.488 227.432C705.656 227.976 705.016 228.768 704.568 229.808C704.12 230.832 703.896 232.072 703.896 233.528C703.896 235.704 704.392 237.408 705.384 238.64C706.376 239.856 707.76 240.464 709.536 240.464ZM728.15 242.216C726.486 242.216 725.062 241.864 723.878 241.16C722.694 240.456 721.782 239.456 721.142 238.16C720.518 236.864 720.206 235.32 720.206 233.528C720.206 232.184 720.382 230.984 720.734 229.928C721.102 228.856 721.622 227.952 722.294 227.216C722.982 226.464 723.822 225.888 724.814 225.488C725.806 225.072 726.918 224.864 728.15 224.864C729.142 224.864 730.086 225.008 730.982 225.296C731.878 225.568 732.654 225.976 733.31 226.52C733.518 226.68 733.654 226.864 733.718 227.072C733.798 227.264 733.806 227.456 733.742 227.648C733.694 227.824 733.598 227.976 733.454 228.104C733.326 228.216 733.166 228.272 732.974 228.272C732.782 228.272 732.566 228.192 732.326 228.032C731.75 227.568 731.118 227.224 730.43 227C729.742 226.776 728.998 226.664 728.198 226.664C726.934 226.664 725.862 226.936 724.982 227.48C724.102 228.008 723.438 228.784 722.99 229.808C722.542 230.832 722.318 232.072 722.318 233.528C722.318 234.984 722.542 236.232 722.99 237.272C723.438 238.296 724.102 239.08 724.982 239.624C725.862 240.152 726.934 240.416 728.198 240.416C728.982 240.416 729.726 240.304 730.43 240.08C731.134 239.84 731.782 239.488 732.374 239.024C732.614 238.864 732.83 238.792 733.022 238.808C733.214 238.808 733.374 238.864 733.502 238.976C733.63 239.088 733.718 239.232 733.766 239.408C733.83 239.584 733.83 239.768 733.766 239.96C733.718 240.152 733.598 240.32 733.406 240.464C732.734 241.04 731.942 241.48 731.03 241.784C730.134 242.072 729.174 242.216 728.15 242.216ZM737.963 242.168C737.643 242.168 737.395 242.08 737.219 241.904C737.059 241.712 736.979 241.456 736.979 241.136V225.944C736.979 225.608 737.059 225.352 737.219 225.176C737.395 225 737.643 224.912 737.963 224.912C738.283 224.912 738.523 225 738.683 225.176C738.859 225.352 738.947 225.608 738.947 225.944V241.136C738.947 241.456 738.867 241.712 738.707 241.904C738.547 242.08 738.299 242.168 737.963 242.168ZM748.279 242.168C747.975 242.168 747.735 242.08 747.559 241.904C747.383 241.712 747.295 241.456 747.295 241.136V226.784H741.895C741.607 226.784 741.383 226.704 741.223 226.544C741.063 226.384 740.983 226.176 740.983 225.92C740.983 225.648 741.063 225.44 741.223 225.296C741.383 225.152 741.607 225.08 741.895 225.08H754.687C754.975 225.08 755.199 225.152 755.359 225.296C755.519 225.44 755.599 225.648 755.599 225.92C755.599 226.192 755.519 226.408 755.359 226.568C755.199 226.712 754.975 226.784 754.687 226.784H749.287V241.136C749.287 241.456 749.199 241.712 749.023 241.904C748.863 242.08 748.615 242.168 748.279 242.168ZM762.855 242.168C762.535 242.168 762.287 242.08 762.111 241.904C761.951 241.712 761.871 241.448 761.871 241.112V233.24L762.303 234.608L756.279 226.304C756.135 226.096 756.063 225.888 756.063 225.68C756.079 225.456 756.167 225.272 756.327 225.128C756.487 224.984 756.695 224.912 756.951 224.912C757.175 224.912 757.375 224.968 757.551 225.08C757.727 225.176 757.887 225.336 758.031 225.56L763.143 232.616H762.639L767.751 225.56C767.927 225.32 768.095 225.152 768.255 225.056C768.415 224.96 768.607 224.912 768.831 224.912C769.087 224.912 769.287 224.984 769.431 225.128C769.575 225.256 769.647 225.432 769.647 225.656C769.663 225.864 769.591 226.088 769.431 226.328L763.431 234.608L763.839 233.24V241.112C763.839 241.816 763.511 242.168 762.855 242.168ZM588.268 275C587.948 275 587.7 274.912 587.524 274.736C587.348 274.544 587.26 274.288 587.26 273.968V258.992C587.26 258.656 587.34 258.4 587.5 258.224C587.676 258.048 587.924 257.96 588.244 257.96C588.564 257.96 588.804 258.048 588.964 258.224C589.14 258.4 589.228 258.656 589.228 258.992V273.272H597.1C597.388 273.272 597.612 273.352 597.772 273.512C597.932 273.656 598.012 273.864 598.012 274.136C598.012 274.408 597.932 274.624 597.772 274.784C597.612 274.928 597.388 275 597.1 275H588.268ZM606.528 275.216C604.96 275.216 603.592 274.864 602.424 274.16C601.272 273.44 600.376 272.432 599.736 271.136C599.112 269.84 598.8 268.304 598.8 266.528C598.8 265.184 598.976 263.984 599.328 262.928C599.696 261.856 600.216 260.952 600.888 260.216C601.56 259.464 602.368 258.888 603.312 258.488C604.272 258.072 605.344 257.864 606.528 257.864C608.128 257.864 609.504 258.216 610.656 258.92C611.824 259.624 612.72 260.624 613.344 261.92C613.984 263.2 614.304 264.728 614.304 266.504C614.304 267.848 614.12 269.056 613.752 270.128C613.384 271.2 612.864 272.112 612.192 272.864C611.52 273.616 610.704 274.2 609.744 274.616C608.8 275.016 607.728 275.216 606.528 275.216ZM606.528 273.464C607.744 273.464 608.768 273.192 609.6 272.648C610.448 272.104 611.096 271.312 611.544 270.272C611.992 269.232 612.216 267.984 612.216 266.528C612.216 264.336 611.72 262.64 610.728 261.44C609.752 260.224 608.352 259.616 606.528 259.616C605.344 259.616 604.328 259.888 603.48 260.432C602.648 260.976 602.008 261.768 601.56 262.808C601.112 263.832 600.888 265.072 600.888 266.528C600.888 268.704 601.384 270.408 602.376 271.64C603.368 272.856 604.752 273.464 606.528 273.464ZM622.871 275.168C622.583 275.168 622.351 275.096 622.175 274.952C621.999 274.792 621.855 274.56 621.743 274.256L616.439 259.112C616.327 258.776 616.351 258.496 616.511 258.272C616.687 258.032 616.959 257.912 617.327 257.912C617.599 257.912 617.815 257.984 617.975 258.128C618.135 258.256 618.271 258.464 618.383 258.752L623.351 273.32H622.511L627.575 258.824C627.687 258.52 627.823 258.296 627.983 258.152C628.143 257.992 628.359 257.912 628.631 257.912C628.887 257.912 629.087 257.992 629.231 258.152C629.391 258.296 629.527 258.52 629.639 258.824L634.631 273.32H633.887L638.903 258.752C638.983 258.48 639.103 258.272 639.263 258.128C639.439 257.984 639.663 257.912 639.935 257.912C640.271 257.912 640.519 258.024 640.679 258.248C640.839 258.472 640.855 258.76 640.727 259.112L635.399 274.256C635.287 274.56 635.143 274.792 634.967 274.952C634.807 275.096 634.575 275.168 634.271 275.168C633.983 275.168 633.751 275.096 633.575 274.952C633.415 274.792 633.271 274.56 633.143 274.256L628.319 260.36H628.847L623.975 274.256C623.863 274.56 623.727 274.792 623.567 274.952C623.407 275.096 623.175 275.168 622.871 275.168ZM651.033 275.168C650.713 275.168 650.465 275.08 650.289 274.904C650.129 274.712 650.049 274.456 650.049 274.136V259.088C650.049 258.752 650.137 258.504 650.313 258.344C650.489 258.168 650.737 258.08 651.057 258.08H656.745C658.553 258.08 659.945 258.528 660.921 259.424C661.897 260.304 662.385 261.552 662.385 263.168C662.385 264.768 661.897 266.016 660.921 266.912C659.945 267.808 658.553 268.256 656.745 268.256H652.017V274.136C652.017 274.456 651.937 274.712 651.777 274.904C651.617 275.08 651.369 275.168 651.033 275.168ZM652.017 266.6H656.505C657.801 266.6 658.777 266.312 659.433 265.736C660.105 265.144 660.441 264.288 660.441 263.168C660.441 262.032 660.105 261.176 659.433 260.6C658.777 260.008 657.801 259.712 656.505 259.712H652.017V266.6ZM666.22 275.168C665.9 275.168 665.652 275.08 665.476 274.904C665.316 274.712 665.236 274.456 665.236 274.136V259.088C665.236 258.752 665.324 258.504 665.5 258.344C665.676 258.168 665.924 258.08 666.244 258.08H671.932C673.74 258.08 675.132 258.504 676.108 259.352C677.084 260.2 677.572 261.408 677.572 262.976C677.572 263.968 677.348 264.832 676.9 265.568C676.468 266.288 675.828 266.84 674.98 267.224C674.132 267.592 673.116 267.776 671.932 267.776L672.172 267.464H672.652C673.276 267.464 673.82 267.624 674.284 267.944C674.748 268.264 675.172 268.776 675.556 269.48L677.86 273.776C677.988 274 678.044 274.224 678.028 274.448C678.028 274.656 677.956 274.832 677.812 274.976C677.668 275.104 677.46 275.168 677.188 275.168C676.916 275.168 676.692 275.104 676.516 274.976C676.34 274.848 676.188 274.664 676.06 274.424L673.444 269.576C673.076 268.888 672.652 268.432 672.172 268.208C671.692 267.968 671.06 267.848 670.276 267.848H667.204V274.136C667.204 274.456 667.124 274.712 666.964 274.904C666.804 275.08 666.556 275.168 666.22 275.168ZM667.204 266.288H671.644C672.956 266.288 673.948 266.016 674.62 265.472C675.292 264.912 675.628 264.08 675.628 262.976C675.628 261.904 675.292 261.096 674.62 260.552C673.948 259.992 672.956 259.712 671.644 259.712H667.204V266.288ZM682.371 275C682.019 275 681.747 274.912 681.555 274.736C681.379 274.544 681.291 274.272 681.291 273.92V259.16C681.291 258.808 681.379 258.544 681.555 258.368C681.747 258.176 682.019 258.08 682.371 258.08H691.299C691.571 258.08 691.779 258.152 691.923 258.296C692.067 258.44 692.139 258.64 692.139 258.896C692.139 259.168 692.067 259.376 691.923 259.52C691.779 259.664 691.571 259.736 691.299 259.736H683.211V265.592H690.795C691.067 265.592 691.275 265.664 691.419 265.808C691.563 265.936 691.635 266.136 691.635 266.408C691.635 266.68 691.563 266.888 691.419 267.032C691.275 267.176 691.067 267.248 690.795 267.248H683.211V273.344H691.299C691.571 273.344 691.779 273.416 691.923 273.56C692.067 273.704 692.139 273.904 692.139 274.16C692.139 274.432 692.067 274.64 691.923 274.784C691.779 274.928 691.571 275 691.299 275H682.371ZM700.521 275.216C699.769 275.216 699.033 275.152 698.313 275.024C697.593 274.896 696.921 274.712 696.297 274.472C695.689 274.232 695.137 273.928 694.641 273.56C694.449 273.416 694.313 273.256 694.233 273.08C694.169 272.888 694.153 272.704 694.185 272.528C694.233 272.336 694.313 272.176 694.425 272.048C694.553 271.92 694.705 271.848 694.881 271.832C695.057 271.816 695.249 271.872 695.457 272C696.177 272.512 696.945 272.888 697.761 273.128C698.577 273.352 699.497 273.464 700.521 273.464C701.961 273.464 703.025 273.2 703.713 272.672C704.417 272.128 704.769 271.416 704.769 270.536C704.769 269.816 704.513 269.256 704.001 268.856C703.505 268.44 702.665 268.112 701.481 267.872L698.985 267.368C697.481 267.048 696.353 266.528 695.601 265.808C694.865 265.072 694.497 264.096 694.497 262.88C694.497 262.128 694.649 261.448 694.953 260.84C695.257 260.216 695.681 259.688 696.225 259.256C696.769 258.808 697.417 258.464 698.169 258.224C698.921 257.984 699.753 257.864 700.665 257.864C701.673 257.864 702.609 258.008 703.473 258.296C704.353 258.568 705.145 258.984 705.849 259.544C706.025 259.688 706.145 259.856 706.209 260.048C706.273 260.224 706.281 260.4 706.233 260.576C706.185 260.736 706.097 260.872 705.969 260.984C705.857 261.096 705.705 261.16 705.513 261.176C705.337 261.192 705.137 261.128 704.913 260.984C704.273 260.504 703.609 260.16 702.921 259.952C702.233 259.728 701.473 259.616 700.641 259.616C699.793 259.616 699.057 259.744 698.433 260C697.825 260.256 697.345 260.632 696.993 261.128C696.657 261.608 696.489 262.168 696.489 262.808C696.489 263.576 696.721 264.184 697.185 264.632C697.665 265.08 698.441 265.408 699.513 265.616L702.009 266.144C703.625 266.48 704.817 266.992 705.585 267.68C706.369 268.352 706.761 269.272 706.761 270.44C706.761 271.144 706.617 271.792 706.329 272.384C706.041 272.976 705.625 273.488 705.081 273.92C704.537 274.336 703.881 274.656 703.113 274.88C702.345 275.104 701.481 275.216 700.521 275.216ZM715.287 275.216C714.535 275.216 713.799 275.152 713.079 275.024C712.359 274.896 711.687 274.712 711.063 274.472C710.455 274.232 709.903 273.928 709.407 273.56C709.215 273.416 709.079 273.256 708.999 273.08C708.935 272.888 708.919 272.704 708.951 272.528C708.999 272.336 709.079 272.176 709.191 272.048C709.319 271.92 709.471 271.848 709.647 271.832C709.823 271.816 710.015 271.872 710.223 272C710.943 272.512 711.711 272.888 712.527 273.128C713.343 273.352 714.263 273.464 715.287 273.464C716.727 273.464 717.791 273.2 718.479 272.672C719.183 272.128 719.535 271.416 719.535 270.536C719.535 269.816 719.279 269.256 718.767 268.856C718.271 268.44 717.431 268.112 716.247 267.872L713.751 267.368C712.247 267.048 711.119 266.528 710.367 265.808C709.631 265.072 709.263 264.096 709.263 262.88C709.263 262.128 709.415 261.448 709.719 260.84C710.023 260.216 710.447 259.688 710.991 259.256C711.535 258.808 712.183 258.464 712.935 258.224C713.687 257.984 714.519 257.864 715.431 257.864C716.439 257.864 717.375 258.008 718.239 258.296C719.119 258.568 719.911 258.984 720.615 259.544C720.791 259.688 720.911 259.856 720.975 260.048C721.039 260.224 721.047 260.4 720.999 260.576C720.951 260.736 720.863 260.872 720.735 260.984C720.623 261.096 720.471 261.16 720.279 261.176C720.103 261.192 719.903 261.128 719.679 260.984C719.039 260.504 718.375 260.16 717.687 259.952C716.999 259.728 716.239 259.616 715.407 259.616C714.559 259.616 713.823 259.744 713.199 260C712.591 260.256 712.111 260.632 711.759 261.128C711.423 261.608 711.255 262.168 711.255 262.808C711.255 263.576 711.487 264.184 711.951 264.632C712.431 265.08 713.207 265.408 714.279 265.616L716.775 266.144C718.391 266.48 719.583 266.992 720.351 267.68C721.135 268.352 721.527 269.272 721.527 270.44C721.527 271.144 721.383 271.792 721.095 272.384C720.807 272.976 720.391 273.488 719.847 273.92C719.303 274.336 718.647 274.656 717.879 274.88C717.111 275.104 716.247 275.216 715.287 275.216ZM731.252 275.216C730.132 275.216 729.148 275.072 728.3 274.784C727.468 274.48 726.764 274.04 726.188 273.464C725.612 272.872 725.18 272.144 724.892 271.28C724.604 270.416 724.46 269.424 724.46 268.304V258.92C724.46 258.584 724.54 258.336 724.7 258.176C724.876 258 725.124 257.912 725.444 257.912C725.764 257.912 726.004 258 726.164 258.176C726.34 258.336 726.428 258.584 726.428 258.92V268.208C726.428 269.968 726.836 271.288 727.652 272.168C728.468 273.032 729.668 273.464 731.252 273.464C732.836 273.464 734.028 273.032 734.828 272.168C735.628 271.288 736.028 269.968 736.028 268.208V258.92C736.028 258.584 736.116 258.336 736.292 258.176C736.468 258 736.716 257.912 737.036 257.912C737.34 257.912 737.572 258 737.732 258.176C737.908 258.336 737.996 258.584 737.996 258.92V268.304C737.996 269.792 737.74 271.056 737.228 272.096C736.732 273.136 735.98 273.92 734.972 274.448C733.964 274.96 732.724 275.216 731.252 275.216ZM743.025 275.168C742.705 275.168 742.457 275.08 742.281 274.904C742.121 274.712 742.041 274.456 742.041 274.136V259.088C742.041 258.752 742.129 258.504 742.305 258.344C742.481 258.168 742.729 258.08 743.049 258.08H748.737C750.545 258.08 751.937 258.504 752.913 259.352C753.889 260.2 754.377 261.408 754.377 262.976C754.377 263.968 754.153 264.832 753.705 265.568C753.273 266.288 752.633 266.84 751.785 267.224C750.937 267.592 749.921 267.776 748.737 267.776L748.977 267.464H749.457C750.081 267.464 750.625 267.624 751.089 267.944C751.553 268.264 751.977 268.776 752.361 269.48L754.665 273.776C754.793 274 754.849 274.224 754.833 274.448C754.833 274.656 754.761 274.832 754.617 274.976C754.473 275.104 754.265 275.168 753.993 275.168C753.721 275.168 753.497 275.104 753.321 274.976C753.145 274.848 752.993 274.664 752.865 274.424L750.249 269.576C749.881 268.888 749.457 268.432 748.977 268.208C748.497 267.968 747.865 267.848 747.081 267.848H744.009V274.136C744.009 274.456 743.929 274.712 743.769 274.904C743.609 275.08 743.361 275.168 743.025 275.168ZM744.009 266.288H748.449C749.761 266.288 750.753 266.016 751.425 265.472C752.097 264.912 752.433 264.08 752.433 262.976C752.433 261.904 752.097 261.096 751.425 260.552C750.753 259.992 749.761 259.712 748.449 259.712H744.009V266.288ZM759.176 275C758.824 275 758.552 274.912 758.36 274.736C758.184 274.544 758.096 274.272 758.096 273.92V259.16C758.096 258.808 758.184 258.544 758.36 258.368C758.552 258.176 758.824 258.08 759.176 258.08H768.104C768.376 258.08 768.584 258.152 768.728 258.296C768.872 258.44 768.944 258.64 768.944 258.896C768.944 259.168 768.872 259.376 768.728 259.52C768.584 259.664 768.376 259.736 768.104 259.736H760.016V265.592H767.6C767.872 265.592 768.08 265.664 768.224 265.808C768.368 265.936 768.44 266.136 768.44 266.408C768.44 266.68 768.368 266.888 768.224 267.032C768.08 267.176 767.872 267.248 767.6 267.248H760.016V273.344H768.104C768.376 273.344 768.584 273.416 768.728 273.56C768.872 273.704 768.944 273.904 768.944 274.16C768.944 274.432 768.872 274.64 768.728 274.784C768.584 274.928 768.376 275 768.104 275H759.176ZM730.293 308.216C728.485 308.216 726.957 307.872 725.709 307.184C724.477 306.496 723.541 305.504 722.901 304.208C722.261 302.912 721.941 301.36 721.941 299.552C721.941 298.208 722.117 297 722.469 295.928C722.837 294.856 723.365 293.952 724.053 293.216C724.757 292.464 725.605 291.888 726.597 291.488C727.605 291.072 728.741 290.864 730.005 290.864C731.013 290.864 731.989 291.008 732.933 291.296C733.877 291.568 734.717 292.008 735.453 292.616C735.645 292.76 735.765 292.92 735.813 293.096C735.861 293.272 735.853 293.448 735.789 293.624C735.741 293.8 735.653 293.952 735.525 294.08C735.413 294.192 735.261 294.256 735.069 294.272C734.893 294.288 734.709 294.232 734.517 294.104C733.861 293.592 733.165 293.224 732.429 293C731.693 292.76 730.877 292.64 729.981 292.64C728.701 292.64 727.613 292.912 726.717 293.456C725.837 294 725.165 294.784 724.701 295.808C724.253 296.832 724.029 298.08 724.029 299.552C724.029 301.792 724.549 303.504 725.589 304.688C726.645 305.872 728.229 306.464 730.341 306.464C731.109 306.464 731.861 306.392 732.597 306.248C733.333 306.088 734.029 305.872 734.685 305.6L734.253 306.728V300.752H730.821C730.533 300.752 730.317 300.68 730.173 300.536C730.029 300.392 729.957 300.2 729.957 299.96C729.957 299.704 730.029 299.512 730.173 299.384C730.317 299.256 730.533 299.192 730.821 299.192H735.117C735.389 299.192 735.597 299.264 735.741 299.408C735.885 299.552 735.957 299.76 735.957 300.032V306.296C735.957 306.536 735.917 306.736 735.837 306.896C735.757 307.056 735.621 307.176 735.429 307.256C734.757 307.528 733.949 307.76 733.005 307.952C732.077 308.128 731.173 308.216 730.293 308.216ZM739.619 308.168C739.363 308.168 739.155 308.112 738.995 308C738.851 307.872 738.763 307.712 738.731 307.52C738.715 307.312 738.763 307.08 738.875 306.824L745.475 291.8C745.619 291.48 745.787 291.256 745.979 291.128C746.187 290.984 746.411 290.912 746.651 290.912C746.891 290.912 747.107 290.984 747.299 291.128C747.507 291.256 747.675 291.48 747.803 291.8L754.427 306.824C754.555 307.08 754.603 307.312 754.571 307.52C754.555 307.728 754.475 307.888 754.331 308C754.187 308.112 753.987 308.168 753.731 308.168C753.443 308.168 753.211 308.096 753.035 307.952C752.859 307.792 752.715 307.568 752.603 307.28L750.827 303.176L751.787 303.68H741.467L742.451 303.176L740.699 307.28C740.555 307.584 740.403 307.808 740.243 307.952C740.083 308.096 739.875 308.168 739.619 308.168ZM746.627 293.384L742.763 302.48L742.187 302.024H751.067L750.539 302.48L746.675 293.384H746.627ZM762.794 308.216C762.042 308.216 761.306 308.152 760.586 308.024C759.866 307.896 759.194 307.712 758.57 307.472C757.962 307.232 757.41 306.928 756.914 306.56C756.722 306.416 756.586 306.256 756.506 306.08C756.442 305.888 756.426 305.704 756.458 305.528C756.506 305.336 756.586 305.176 756.698 305.048C756.826 304.92 756.978 304.848 757.154 304.832C757.33 304.816 757.522 304.872 757.73 305C758.45 305.512 759.218 305.888 760.034 306.128C760.85 306.352 761.77 306.464 762.794 306.464C764.234 306.464 765.298 306.2 765.986 305.672C766.69 305.128 767.042 304.416 767.042 303.536C767.042 302.816 766.786 302.256 766.274 301.856C765.778 301.44 764.938 301.112 763.754 300.872L761.258 300.368C759.754 300.048 758.626 299.528 757.874 298.808C757.138 298.072 756.77 297.096 756.77 295.88C756.77 295.128 756.922 294.448 757.226 293.84C757.53 293.216 757.954 292.688 758.498 292.256C759.042 291.808 759.69 291.464 760.442 291.224C761.194 290.984 762.026 290.864 762.938 290.864C763.946 290.864 764.882 291.008 765.746 291.296C766.626 291.568 767.418 291.984 768.122 292.544C768.298 292.688 768.418 292.856 768.482 293.048C768.546 293.224 768.554 293.4 768.506 293.576C768.458 293.736 768.37 293.872 768.242 293.984C768.13 294.096 767.978 294.16 767.786 294.176C767.61 294.192 767.41 294.128 767.186 293.984C766.546 293.504 765.882 293.16 765.194 292.952C764.506 292.728 763.746 292.616 762.914 292.616C762.066 292.616 761.33 292.744 760.706 293C760.098 293.256 759.618 293.632 759.266 294.128C758.93 294.608 758.762 295.168 758.762 295.808C758.762 296.576 758.994 297.184 759.458 297.632C759.938 298.08 760.714 298.408 761.786 298.616L764.282 299.144C765.898 299.48 767.09 299.992 767.858 300.68C768.642 301.352 769.034 302.272 769.034 303.44C769.034 304.144 768.89 304.792 768.602 305.384C768.314 305.976 767.898 306.488 767.354 306.92C766.81 307.336 766.154 307.656 765.386 307.88C764.618 308.104 763.754 308.216 762.794 308.216Z" fill="black"/>
<path d="M844.89 275.333H791V258.667H844.89H845.89V257.667V248.851L873.193 266.744L845.89 285.121V276.333V275.333H844.89Z" stroke="black" stroke-width="2"/>
</g>
<defs>
<clipPath id="clip0_8_32">
<rect width="887" height="465" fill="white"/>
</clipPath>
</defs>
</svg>
