<svg width="887" height="334" viewBox="0 0 887 334" fill="none" xmlns="http://www.w3.org/2000/svg">
<line x1="51.3536" y1="91.6464" x2="107.354" y2="147.646" stroke="#C2C2C2"/>
<line x1="52.3536" y1="102.646" x2="97.3536" y2="147.646" stroke="#C2C2C2"/>
<line x1="51.3536" y1="121.646" x2="77.3536" y2="147.646" stroke="#C2C2C2"/>
<line x1="51.3536" y1="131.646" x2="67.3536" y2="147.646" stroke="#C2C2C2"/>
<line x1="51.3536" y1="111.646" x2="87.3536" y2="147.646" stroke="#C2C2C2"/>
<line x1="51.3536" y1="81.6464" x2="117.354" y2="147.646" stroke="#C2C2C2"/>
<line x1="51.3536" y1="71.6464" x2="127.354" y2="147.646" stroke="#C2C2C2"/>
<line x1="51.3536" y1="61.6464" x2="137.354" y2="147.646" stroke="#C2C2C2"/>
<line x1="51.3536" y1="51.6464" x2="147.354" y2="147.646" stroke="#C2C2C2"/>
<line x1="60.3536" y1="50.6464" x2="157.354" y2="147.646" stroke="#C2C2C2"/>
<line x1="70.3536" y1="50.6464" x2="167.354" y2="147.646" stroke="#C2C2C2"/>
<line x1="80.3536" y1="50.6464" x2="177.354" y2="147.646" stroke="#C2C2C2"/>
<line x1="90.3536" y1="50.6464" x2="187.354" y2="147.646" stroke="#C2C2C2"/>
<line x1="100.354" y1="50.6464" x2="197.354" y2="147.646" stroke="#C2C2C2"/>
<line x1="110.354" y1="50.6464" x2="207.354" y2="147.646" stroke="#C2C2C2"/>
<line x1="120.354" y1="50.6464" x2="217.354" y2="147.646" stroke="#C2C2C2"/>
<line x1="130.354" y1="50.6464" x2="227.354" y2="147.646" stroke="#C2C2C2"/>
<line x1="140.354" y1="50.6464" x2="237.354" y2="147.646" stroke="#C2C2C2"/>
<line x1="150.354" y1="50.6464" x2="247.354" y2="147.646" stroke="#C2C2C2"/>
<line x1="160.354" y1="50.6464" x2="257.354" y2="147.646" stroke="#C2C2C2"/>
<line x1="170.354" y1="50.6464" x2="267.354" y2="147.646" stroke="#C2C2C2"/>
<line x1="180.354" y1="50.6464" x2="277.354" y2="147.646" stroke="#C2C2C2"/>
<line x1="190.354" y1="50.6464" x2="287.354" y2="147.646" stroke="#C2C2C2"/>
<line x1="200.354" y1="50.6464" x2="297.354" y2="147.646" stroke="#C2C2C2"/>
<line x1="210.354" y1="50.6464" x2="307.354" y2="147.646" stroke="#C2C2C2"/>
<line x1="220.354" y1="50.6464" x2="317.354" y2="147.646" stroke="#C2C2C2"/>
<line x1="230.354" y1="50.6464" x2="327.354" y2="147.646" stroke="#C2C2C2"/>
<line x1="240.354" y1="50.6464" x2="331.354" y2="141.646" stroke="#C2C2C2"/>
<line x1="250.354" y1="50.6464" x2="331.354" y2="131.646" stroke="#C2C2C2"/>
<line x1="260.354" y1="50.6464" x2="331.354" y2="121.646" stroke="#C2C2C2"/>
<line x1="270.354" y1="50.6464" x2="331.354" y2="111.646" stroke="#C2C2C2"/>
<line x1="280.354" y1="50.6464" x2="331.354" y2="101.646" stroke="#C2C2C2"/>
<line x1="290.354" y1="50.6464" x2="331.354" y2="91.6464" stroke="#C2C2C2"/>
<line x1="300.354" y1="50.6464" x2="331.354" y2="81.6464" stroke="#C2C2C2"/>
<line x1="310.354" y1="50.6464" x2="331.354" y2="71.6464" stroke="#C2C2C2"/>
<line x1="320.354" y1="50.6464" x2="331.354" y2="61.6464" stroke="#C2C2C2"/>
<path d="M157.803 306.288C156.491 306.288 155.331 305.976 154.323 305.352C153.331 304.728 152.555 303.856 151.995 302.736C151.435 301.616 151.155 300.328 151.155 298.872C151.155 297.688 151.355 296.584 151.755 295.56C152.155 294.536 152.715 293.64 153.435 292.872C154.155 292.104 154.995 291.504 155.955 291.072C156.915 290.64 157.947 290.424 159.051 290.424C160.395 290.424 161.571 290.736 162.579 291.36C163.603 291.984 164.403 292.856 164.979 293.976C165.555 295.08 165.843 296.36 165.843 297.816C165.843 299.016 165.635 300.128 165.219 301.152C164.819 302.176 164.251 303.072 163.515 303.84C162.795 304.608 161.947 305.208 160.971 305.64C159.995 306.072 158.939 306.288 157.803 306.288ZM158.547 305.064C159.571 305.064 160.467 304.8 161.235 304.272C162.003 303.744 162.603 303.016 163.035 302.088C163.483 301.144 163.707 300.056 163.707 298.824C163.707 297.448 163.475 296.24 163.011 295.2C162.547 294.16 161.907 293.344 161.091 292.752C160.275 292.16 159.323 291.864 158.235 291.864C157.243 291.864 156.371 292.128 155.619 292.656C154.867 293.184 154.275 293.92 153.843 294.864C153.427 295.792 153.219 296.872 153.219 298.104C153.219 299.464 153.443 300.672 153.891 301.728C154.339 302.768 154.963 303.584 155.763 304.176C156.579 304.768 157.507 305.064 158.547 305.064ZM168.517 300.96L168.349 300.768L168.493 299.52L172.669 299.04C173.229 298.976 173.629 298.928 173.868 298.896C174.109 298.848 174.229 298.824 174.229 298.824L174.397 299.04L174.277 300.336L168.517 300.96ZM187.491 306.384C187.091 306.384 186.659 306.176 186.195 305.76C185.747 305.344 185.331 304.792 184.947 304.104L182.379 299.448H180.387L180.315 303.024C180.315 303.6 180.347 304.032 180.411 304.32C180.491 304.592 180.651 304.776 180.891 304.872C181.147 304.952 181.531 304.992 182.043 304.992L182.091 305.088L181.875 306.096C181.875 306.096 181.795 306.088 181.635 306.072C181.475 306.072 181.267 306.064 181.011 306.048C180.771 306.048 180.499 306.04 180.195 306.024C179.907 306.024 179.619 306.024 179.331 306.024C178.931 306.008 178.515 306.008 178.083 306.024C177.667 306.04 177.307 306.056 177.003 306.072C176.715 306.088 176.571 306.096 176.571 306.096L176.787 305.016C177.539 304.936 178.027 304.776 178.251 304.536C178.491 304.28 178.611 303.808 178.611 303.12L178.635 293.04C178.635 292.528 178.571 292.184 178.443 292.008C178.331 291.832 178.099 291.744 177.747 291.744C177.603 291.744 177.427 291.752 177.219 291.768C177.027 291.784 176.931 291.792 176.931 291.792L176.883 291.696L177.051 290.64C177.051 290.64 177.139 290.648 177.315 290.664C177.507 290.664 177.747 290.672 178.035 290.688C178.323 290.688 178.619 290.696 178.923 290.712C179.227 290.712 179.491 290.712 179.715 290.712C179.923 290.712 180.187 290.712 180.507 290.712C180.843 290.696 181.171 290.68 181.491 290.664C181.827 290.648 182.107 290.64 182.331 290.64C182.555 290.624 182.667 290.616 182.667 290.616C184.155 290.616 185.331 290.952 186.195 291.624C187.059 292.296 187.491 293.216 187.491 294.384C187.491 295.344 187.179 296.224 186.555 297.024C185.947 297.824 185.083 298.48 183.963 298.992L186.603 303.168C187.067 303.92 187.515 304.448 187.947 304.752C188.395 305.056 188.939 305.208 189.579 305.208L189.675 305.304L189.531 306.12L187.491 306.384ZM182.907 298.344C182.907 298.344 183.035 298.296 183.291 298.2C183.563 298.088 183.867 297.904 184.203 297.648C184.539 297.392 184.835 297.032 185.091 296.568C185.363 296.104 185.499 295.52 185.499 294.816C185.499 293.76 185.131 292.968 184.395 292.44C183.675 291.912 182.579 291.648 181.107 291.648C180.947 291.648 180.835 291.688 180.771 291.768C180.723 291.832 180.691 291.976 180.675 292.2C180.611 293.464 180.555 294.552 180.507 295.464C180.475 296.376 180.451 297.256 180.435 298.104L182.907 298.344ZM191.219 306.288L191.363 305.184C192.115 305.04 192.619 304.832 192.875 304.56C193.147 304.272 193.283 303.792 193.283 303.12L193.307 293.04C193.307 292.528 193.243 292.184 193.115 292.008C193.003 291.832 192.771 291.744 192.419 291.744C192.307 291.744 192.147 291.752 191.939 291.768C191.747 291.768 191.571 291.776 191.411 291.792L191.363 291.696L191.531 290.64C191.947 290.656 192.435 290.672 192.995 290.688C193.571 290.704 194.035 290.712 194.387 290.712C194.723 290.712 195.147 290.696 195.659 290.664C196.187 290.616 196.683 290.56 197.147 290.496L197.051 291.576C196.395 291.656 195.947 291.792 195.707 291.984C195.483 292.16 195.355 292.48 195.323 292.944C195.275 293.824 195.227 294.76 195.179 295.752C195.147 296.744 195.115 297.728 195.083 298.704C195.051 299.664 195.027 300.552 195.011 301.368C194.995 302.168 194.987 302.816 194.987 303.312C194.987 303.952 195.059 304.384 195.203 304.608C195.347 304.832 195.627 304.944 196.043 304.944C196.267 304.944 196.499 304.936 196.739 304.92C196.979 304.904 197.171 304.888 197.315 304.872L197.363 304.968L197.147 306.072C196.859 306.056 196.523 306.04 196.139 306.024C195.755 306.024 195.371 306.016 194.987 306C194.603 306 194.275 306 194.003 306C193.651 306 193.211 306.024 192.683 306.072C192.171 306.136 191.683 306.208 191.219 306.288ZM212.227 306.96C211.059 305.136 209.939 303.424 208.867 301.824C207.795 300.224 206.843 298.824 206.011 297.624C205.179 296.408 204.515 295.456 204.019 294.768C203.539 294.08 203.299 293.736 203.299 293.736H203.179L203.059 303.984C203.059 304.336 203.115 304.584 203.227 304.728C203.339 304.872 203.531 304.944 203.803 304.944C203.883 304.944 204.019 304.944 204.211 304.944C204.419 304.928 204.603 304.92 204.763 304.92C204.939 304.92 205.027 304.92 205.027 304.92L205.075 305.016L204.859 306.096C204.859 306.096 204.771 306.088 204.595 306.072C204.435 306.072 204.227 306.064 203.971 306.048C203.715 306.032 203.435 306.016 203.131 306C202.843 306 202.571 306 202.315 306C201.995 306 201.659 306.016 201.307 306.048C200.971 306.08 200.683 306.112 200.443 306.144C200.203 306.176 200.083 306.192 200.083 306.192L200.203 305.088C200.699 305.024 201.067 304.88 201.307 304.656C201.547 304.432 201.675 304.072 201.691 303.576L202.003 293.088C202.003 292.592 201.851 292.24 201.547 292.032C201.259 291.824 200.715 291.68 199.915 291.6L199.843 291.48L200.035 290.592C200.035 290.592 200.155 290.6 200.395 290.616C200.651 290.632 200.939 290.656 201.259 290.688C201.595 290.704 201.875 290.712 202.099 290.712C202.371 290.712 202.627 290.704 202.867 290.688C203.107 290.672 203.307 290.656 203.467 290.64C203.627 290.624 203.707 290.616 203.707 290.616C204.507 291.848 205.291 293.048 206.059 294.216C206.843 295.384 207.579 296.472 208.267 297.48C208.955 298.488 209.563 299.368 210.091 300.12C210.619 300.872 211.027 301.464 211.315 301.896C211.619 302.312 211.771 302.52 211.771 302.52H211.891V292.8C211.891 292.448 211.827 292.192 211.699 292.032C211.571 291.856 211.371 291.768 211.099 291.768C210.891 291.768 210.683 291.776 210.475 291.792C210.283 291.792 210.187 291.792 210.187 291.792L210.139 291.696L210.355 290.616C210.355 290.616 210.435 290.624 210.595 290.64C210.755 290.64 210.955 290.648 211.195 290.664C211.435 290.68 211.683 290.696 211.939 290.712C212.195 290.712 212.427 290.712 212.635 290.712C212.971 290.712 213.323 290.696 213.691 290.664C214.059 290.632 214.371 290.6 214.627 290.568C214.883 290.536 215.011 290.52 215.011 290.52L214.891 291.624C214.347 291.688 213.939 291.84 213.667 292.08C213.411 292.32 213.275 292.672 213.259 293.136L212.923 306.624L212.227 306.96ZM223.765 306.288C222.341 306.288 221.101 305.984 220.045 305.376C219.005 304.768 218.197 303.912 217.621 302.808C217.045 301.688 216.757 300.376 216.757 298.872C216.757 297.192 217.109 295.72 217.813 294.456C218.517 293.192 219.501 292.208 220.765 291.504C222.045 290.784 223.517 290.424 225.181 290.424C225.677 290.424 226.197 290.456 226.741 290.52C227.285 290.568 227.789 290.632 228.253 290.712C228.717 290.792 229.093 290.864 229.381 290.928C229.685 290.976 229.837 291 229.837 291L229.933 291.144C229.933 291.144 229.893 291.328 229.813 291.696C229.733 292.048 229.637 292.528 229.525 293.136C229.429 293.744 229.357 294.416 229.309 295.152L228.181 295.248C228.181 295.248 228.189 295.112 228.205 294.84C228.237 294.568 228.253 294.272 228.253 293.952C228.253 293.2 227.965 292.664 227.389 292.344C226.829 292.008 225.909 291.84 224.629 291.84C223.413 291.84 222.373 292.088 221.509 292.584C220.645 293.064 219.981 293.776 219.517 294.72C219.069 295.648 218.845 296.776 218.845 298.104C218.845 299.512 219.069 300.744 219.517 301.8C219.981 302.84 220.621 303.648 221.437 304.224C222.253 304.8 223.213 305.088 224.317 305.088C224.957 305.088 225.525 305.016 226.021 304.872C226.517 304.712 226.901 304.56 227.173 304.416C227.461 304.256 227.605 304.176 227.605 304.176V301.248C227.605 300.704 227.517 300.352 227.341 300.192C227.181 300.032 226.829 299.952 226.285 299.952C226.109 299.952 225.885 299.952 225.613 299.952C225.357 299.952 225.125 299.952 224.917 299.952C224.725 299.952 224.629 299.952 224.629 299.952L224.581 299.856L224.797 298.656C224.797 298.656 224.949 298.664 225.253 298.68C225.573 298.696 225.965 298.712 226.429 298.728C226.909 298.744 227.381 298.752 227.845 298.752C228.197 298.752 228.525 298.744 228.829 298.728C229.149 298.696 229.405 298.672 229.597 298.656C229.805 298.64 229.909 298.632 229.909 298.632L230.005 299.16C229.813 299.32 229.661 299.536 229.549 299.808C229.453 300.08 229.381 300.456 229.333 300.936C229.285 301.416 229.261 302.056 229.261 302.856C229.261 303.272 229.277 303.68 229.309 304.08C229.341 304.464 229.381 304.76 229.429 304.968L229.285 305.184C229.285 305.184 229.037 305.28 228.541 305.472C228.045 305.648 227.381 305.824 226.549 306C225.717 306.192 224.789 306.288 223.765 306.288Z" fill="black"/>
<path d="M620.515 306.288C619.059 306.288 617.795 305.984 616.723 305.376C615.651 304.768 614.819 303.912 614.227 302.808C613.635 301.688 613.339 300.376 613.339 298.872C613.339 297.656 613.547 296.536 613.963 295.512C614.379 294.472 614.963 293.576 615.715 292.824C616.467 292.056 617.347 291.464 618.355 291.048C619.379 290.632 620.499 290.424 621.715 290.424C622.211 290.424 622.707 290.456 623.203 290.52C623.699 290.568 624.147 290.632 624.547 290.712C624.947 290.792 625.267 290.864 625.507 290.928C625.763 290.976 625.891 291 625.891 291L625.987 291.144C625.987 291.144 625.947 291.328 625.867 291.696C625.787 292.048 625.699 292.528 625.603 293.136C625.507 293.744 625.435 294.416 625.387 295.152L624.235 295.248C624.235 295.248 624.243 295.12 624.259 294.864C624.291 294.592 624.307 294.328 624.307 294.072C624.307 293.32 624.011 292.76 623.419 292.392C622.843 292.024 621.963 291.84 620.779 291.84C619.707 291.84 618.771 292.096 617.971 292.608C617.187 293.12 616.579 293.84 616.147 294.768C615.715 295.696 615.499 296.8 615.499 298.08C615.499 299.488 615.723 300.72 616.171 301.776C616.635 302.816 617.275 303.632 618.091 304.224C618.923 304.8 619.891 305.088 620.995 305.088C622.083 305.088 622.955 304.784 623.611 304.176C624.283 303.552 624.771 302.592 625.075 301.296L626.227 301.2C626.227 301.2 626.203 301.32 626.155 301.56C626.107 301.8 626.043 302.12 625.963 302.52C625.899 302.904 625.827 303.328 625.747 303.792C625.683 304.24 625.627 304.68 625.579 305.112L625.435 305.328C625.435 305.328 625.219 305.408 624.787 305.568C624.371 305.728 623.795 305.888 623.059 306.048C622.323 306.208 621.475 306.288 620.515 306.288ZM639.69 306.384C639.29 306.384 638.858 306.176 638.394 305.76C637.946 305.344 637.53 304.792 637.146 304.104L634.578 299.448H632.586L632.514 303.024C632.514 303.6 632.546 304.032 632.61 304.32C632.69 304.592 632.85 304.776 633.09 304.872C633.346 304.952 633.73 304.992 634.242 304.992L634.29 305.088L634.074 306.096C634.074 306.096 633.994 306.088 633.834 306.072C633.674 306.072 633.466 306.064 633.21 306.048C632.97 306.048 632.698 306.04 632.394 306.024C632.106 306.024 631.818 306.024 631.53 306.024C631.13 306.008 630.714 306.008 630.282 306.024C629.866 306.04 629.506 306.056 629.202 306.072C628.914 306.088 628.77 306.096 628.77 306.096L628.986 305.016C629.738 304.936 630.226 304.776 630.45 304.536C630.69 304.28 630.81 303.808 630.81 303.12L630.834 293.04C630.834 292.528 630.77 292.184 630.642 292.008C630.53 291.832 630.298 291.744 629.946 291.744C629.802 291.744 629.626 291.752 629.418 291.768C629.226 291.784 629.13 291.792 629.13 291.792L629.082 291.696L629.25 290.64C629.25 290.64 629.338 290.648 629.514 290.664C629.706 290.664 629.946 290.672 630.234 290.688C630.522 290.688 630.818 290.696 631.122 290.712C631.426 290.712 631.69 290.712 631.914 290.712C632.122 290.712 632.386 290.712 632.706 290.712C633.042 290.696 633.37 290.68 633.69 290.664C634.026 290.648 634.306 290.64 634.53 290.64C634.754 290.624 634.866 290.616 634.866 290.616C636.354 290.616 637.53 290.952 638.394 291.624C639.258 292.296 639.69 293.216 639.69 294.384C639.69 295.344 639.378 296.224 638.754 297.024C638.146 297.824 637.282 298.48 636.162 298.992L638.802 303.168C639.266 303.92 639.714 304.448 640.146 304.752C640.594 305.056 641.138 305.208 641.778 305.208L641.874 305.304L641.73 306.12L639.69 306.384ZM635.106 298.344C635.106 298.344 635.234 298.296 635.49 298.2C635.762 298.088 636.066 297.904 636.402 297.648C636.738 297.392 637.034 297.032 637.29 296.568C637.562 296.104 637.698 295.52 637.698 294.816C637.698 293.76 637.33 292.968 636.594 292.44C635.874 291.912 634.778 291.648 633.306 291.648C633.146 291.648 633.034 291.688 632.97 291.768C632.922 291.832 632.89 291.976 632.874 292.2C632.81 293.464 632.754 294.552 632.706 295.464C632.674 296.376 632.65 297.256 632.634 298.104L635.106 298.344ZM649.453 306.288C647.773 306.288 646.477 305.832 645.565 304.92C644.653 303.992 644.197 302.68 644.197 300.984V293.04C644.197 292.528 644.141 292.184 644.029 292.008C643.917 291.832 643.677 291.744 643.309 291.744C643.165 291.744 642.989 291.752 642.781 291.768C642.589 291.784 642.493 291.792 642.493 291.792L642.445 291.696L642.613 290.64C642.613 290.64 642.773 290.648 643.093 290.664C643.429 290.68 643.805 290.696 644.221 290.712C644.653 290.712 645.021 290.712 645.325 290.712C645.581 290.712 645.853 290.704 646.141 290.688C646.445 290.656 646.725 290.632 646.981 290.616C647.237 290.584 647.445 290.56 647.605 290.544C647.765 290.512 647.845 290.496 647.845 290.496L647.749 291.576C647.157 291.656 646.757 291.792 646.549 291.984C646.357 292.16 646.245 292.48 646.213 292.944L646.021 300C646.021 301.584 646.365 302.8 647.053 303.648C647.741 304.496 648.733 304.92 650.029 304.92C651.341 304.92 652.341 304.576 653.029 303.888C653.717 303.184 654.061 302.176 654.061 300.864C654.061 300.528 654.053 300.048 654.037 299.424C654.037 298.8 654.029 298.128 654.013 297.408C653.997 296.672 653.981 295.976 653.965 295.32C653.949 294.648 653.933 294.104 653.917 293.688C653.917 293.256 653.917 293.04 653.917 293.04C653.885 292.48 653.813 292.128 653.701 291.984C653.605 291.824 653.381 291.744 653.029 291.744C652.885 291.744 652.677 291.752 652.405 291.768C652.133 291.784 651.997 291.792 651.997 291.792L651.949 291.696L652.117 290.64C652.117 290.64 652.213 290.648 652.405 290.664C652.597 290.664 652.837 290.672 653.125 290.688C653.413 290.688 653.709 290.696 654.013 290.712C654.333 290.712 654.605 290.712 654.829 290.712C655.181 290.712 655.533 290.696 655.885 290.664C656.237 290.632 656.533 290.6 656.773 290.568C657.029 290.52 657.157 290.496 657.157 290.496L657.061 291.576C656.373 291.672 655.925 291.8 655.717 291.96C655.509 292.12 655.405 292.448 655.405 292.944V301.008C655.405 302.688 654.885 303.992 653.845 304.92C652.805 305.832 651.341 306.288 649.453 306.288ZM663.197 306.288C662.445 306.288 661.781 306.216 661.205 306.072C660.645 305.944 660.205 305.816 659.885 305.688C659.581 305.544 659.429 305.472 659.429 305.472L659.309 305.232C659.309 305.232 659.325 305.128 659.357 304.92C659.389 304.696 659.421 304.4 659.453 304.032C659.485 303.648 659.517 303.2 659.549 302.688C659.581 302.176 659.597 301.632 659.597 301.056L660.677 300.936C660.677 302.088 660.757 302.968 660.917 303.576C661.077 304.168 661.381 304.576 661.829 304.8C662.277 305.008 662.933 305.112 663.797 305.112C664.789 305.112 665.589 304.88 666.197 304.416C666.821 303.936 667.133 303.288 667.133 302.472C667.133 301.944 666.957 301.488 666.605 301.104C666.253 300.72 665.797 300.368 665.237 300.048C664.693 299.728 664.109 299.408 663.485 299.088C662.845 298.752 662.221 298.392 661.613 298.008C661.021 297.624 660.533 297.184 660.149 296.688C659.765 296.176 659.573 295.576 659.573 294.888C659.573 294.04 659.813 293.28 660.293 292.608C660.789 291.936 661.453 291.408 662.285 291.024C663.117 290.624 664.053 290.424 665.093 290.424C665.813 290.424 666.445 290.472 666.989 290.568C667.549 290.664 667.981 290.768 668.285 290.88C668.605 290.976 668.765 291.024 668.765 291.024L668.837 291.168C668.837 291.168 668.797 291.352 668.717 291.72C668.653 292.088 668.581 292.584 668.501 293.208C668.421 293.816 668.357 294.488 668.309 295.224L667.373 295.32L667.229 295.2C667.229 295.2 667.237 295.088 667.253 294.864C667.285 294.624 667.301 294.32 667.301 293.952C667.301 293.104 667.093 292.52 666.677 292.2C666.277 291.88 665.533 291.72 664.445 291.72C663.565 291.72 662.837 291.944 662.261 292.392C661.701 292.824 661.421 293.368 661.421 294.024C661.421 294.504 661.573 294.936 661.877 295.32C662.181 295.688 662.581 296.024 663.077 296.328C663.573 296.632 664.109 296.936 664.685 297.24C665.389 297.592 666.077 297.968 666.749 298.368C667.437 298.768 668.005 299.224 668.453 299.736C668.901 300.248 669.125 300.872 669.125 301.608C669.125 302.52 668.869 303.328 668.357 304.032C667.861 304.736 667.165 305.288 666.269 305.688C665.389 306.088 664.365 306.288 663.197 306.288ZM672.06 306.288L672.204 305.184C672.956 305.04 673.452 304.832 673.692 304.56C673.948 304.272 674.076 303.792 674.076 303.12L674.1 293.04C674.1 292.528 674.044 292.184 673.932 292.008C673.82 291.832 673.58 291.744 673.212 291.744C673.116 291.744 672.988 291.752 672.828 291.768C672.668 291.768 672.524 291.776 672.396 291.792L672.348 291.696L672.516 290.64C672.884 290.656 673.332 290.672 673.86 290.688C674.404 290.704 674.844 290.712 675.18 290.712C675.484 290.712 675.876 290.696 676.356 290.664C676.852 290.616 677.316 290.56 677.748 290.496L677.652 291.576C677.204 291.64 676.868 291.736 676.644 291.864C676.436 291.976 676.292 292.176 676.212 292.464C676.148 292.736 676.1 293.16 676.068 293.736L675.924 297.624L679.956 297.648C680.484 297.648 681.004 297.632 681.516 297.6C682.028 297.568 682.692 297.504 683.508 297.408L683.532 293.04C683.532 292.528 683.476 292.184 683.364 292.008C683.252 291.832 683.012 291.744 682.644 291.744C682.532 291.744 682.396 291.752 682.236 291.768C682.092 291.768 681.956 291.776 681.828 291.792L681.78 291.696L681.948 290.64C681.948 290.64 682.092 290.648 682.38 290.664C682.668 290.68 682.996 290.696 683.364 290.712C683.732 290.712 684.044 290.712 684.3 290.712C684.652 290.712 685.1 290.696 685.644 290.664C686.188 290.616 686.7 290.56 687.18 290.496L687.084 291.576C686.492 291.656 686.092 291.792 685.884 291.984C685.692 292.16 685.58 292.48 685.548 292.944C685.5 293.872 685.452 294.848 685.404 295.872C685.372 296.88 685.34 297.872 685.308 298.848C685.276 299.808 685.252 300.688 685.236 301.488C685.22 302.288 685.212 302.944 685.212 303.456C685.212 304.048 685.284 304.448 685.428 304.656C685.572 304.848 685.852 304.944 686.268 304.944C686.444 304.944 686.636 304.936 686.844 304.92C687.052 304.904 687.22 304.888 687.348 304.872L687.396 304.968L687.18 306.072C686.78 306.056 686.284 306.04 685.692 306.024C685.1 306.008 684.612 306 684.228 306C684.036 306 683.772 306 683.436 306C683.116 306.016 682.78 306.024 682.428 306.024C682.076 306.024 681.756 306.032 681.468 306.048L681.684 304.968C682.196 304.952 682.58 304.88 682.836 304.752C683.092 304.624 683.268 304.376 683.364 304.008C683.46 303.64 683.508 303.104 683.508 302.4V298.776C683.14 298.776 682.724 298.776 682.26 298.776C681.796 298.76 681.348 298.752 680.916 298.752C680.484 298.752 680.132 298.752 679.86 298.752C679.7 298.752 679.404 298.768 678.972 298.8C678.556 298.816 678.068 298.848 677.508 298.896C676.964 298.928 676.42 298.968 675.876 299.016L675.78 303.312C675.78 303.952 675.852 304.384 675.996 304.608C676.14 304.832 676.42 304.944 676.836 304.944C677.012 304.944 677.204 304.936 677.412 304.92C677.62 304.904 677.788 304.888 677.916 304.872L677.964 304.968L677.748 306.072C677.748 306.056 677.628 306.04 677.388 306.024C677.148 306.024 676.868 306.016 676.548 306C676.228 306 675.948 306 675.708 306C675.228 306 674.7 306.016 674.124 306.048C673.564 306.08 673.084 306.112 672.684 306.144C672.284 306.192 672.076 306.24 672.06 306.288ZM701.488 306.288C700.064 306.288 698.824 305.984 697.768 305.376C696.728 304.768 695.92 303.912 695.344 302.808C694.768 301.688 694.48 300.376 694.48 298.872C694.48 297.192 694.832 295.72 695.536 294.456C696.24 293.192 697.224 292.208 698.488 291.504C699.768 290.784 701.24 290.424 702.904 290.424C703.4 290.424 703.92 290.456 704.464 290.52C705.008 290.568 705.512 290.632 705.976 290.712C706.44 290.792 706.816 290.864 707.104 290.928C707.408 290.976 707.56 291 707.56 291L707.656 291.144C707.656 291.144 707.616 291.328 707.536 291.696C707.456 292.048 707.36 292.528 707.248 293.136C707.152 293.744 707.08 294.416 707.032 295.152L705.904 295.248C705.904 295.248 705.912 295.112 705.928 294.84C705.96 294.568 705.976 294.272 705.976 293.952C705.976 293.2 705.688 292.664 705.112 292.344C704.552 292.008 703.632 291.84 702.352 291.84C701.136 291.84 700.096 292.088 699.232 292.584C698.368 293.064 697.704 293.776 697.24 294.72C696.792 295.648 696.568 296.776 696.568 298.104C696.568 299.512 696.792 300.744 697.24 301.8C697.704 302.84 698.344 303.648 699.16 304.224C699.976 304.8 700.936 305.088 702.04 305.088C702.68 305.088 703.248 305.016 703.744 304.872C704.24 304.712 704.624 304.56 704.896 304.416C705.184 304.256 705.328 304.176 705.328 304.176V301.248C705.328 300.704 705.24 300.352 705.064 300.192C704.904 300.032 704.552 299.952 704.008 299.952C703.832 299.952 703.608 299.952 703.336 299.952C703.08 299.952 702.848 299.952 702.64 299.952C702.448 299.952 702.352 299.952 702.352 299.952L702.304 299.856L702.52 298.656C702.52 298.656 702.672 298.664 702.976 298.68C703.296 298.696 703.688 298.712 704.152 298.728C704.632 298.744 705.104 298.752 705.568 298.752C705.92 298.752 706.248 298.744 706.552 298.728C706.872 298.696 707.128 298.672 707.32 298.656C707.528 298.64 707.632 298.632 707.632 298.632L707.728 299.16C707.536 299.32 707.384 299.536 707.272 299.808C707.176 300.08 707.104 300.456 707.056 300.936C707.008 301.416 706.984 302.056 706.984 302.856C706.984 303.272 707 303.68 707.032 304.08C707.064 304.464 707.104 304.76 707.152 304.968L707.008 305.184C707.008 305.184 706.76 305.28 706.264 305.472C705.768 305.648 705.104 305.824 704.272 306C703.44 306.192 702.512 306.288 701.488 306.288ZM717.495 306.24L717.423 306.072L717.519 305.136C718.079 305.088 718.511 305.032 718.815 304.968C719.119 304.904 719.335 304.816 719.463 304.704C719.591 304.576 719.655 304.416 719.655 304.224C719.655 304.064 719.639 303.888 719.607 303.696C719.575 303.504 719.519 303.296 719.439 303.072L718.647 300.456C718.359 300.44 717.951 300.432 717.423 300.432C716.911 300.432 716.487 300.432 716.151 300.432C715.687 300.432 715.199 300.456 714.687 300.504C714.191 300.552 713.807 300.592 713.535 300.624L712.647 303.12C712.503 303.552 712.431 303.864 712.431 304.056C712.431 304.408 712.543 304.664 712.767 304.824C713.007 304.968 713.375 305.04 713.871 305.04H715.239L715.287 305.136L715.143 306.168C715.143 306.168 714.975 306.152 714.639 306.12C714.303 306.088 713.879 306.056 713.367 306.024C712.855 306.008 712.335 306 711.807 306C711.423 306 711.023 306 710.607 306C710.207 306.016 709.863 306.032 709.575 306.048C709.303 306.064 709.167 306.072 709.167 306.072L709.359 304.944C709.807 304.896 710.167 304.744 710.439 304.488C710.711 304.232 710.975 303.768 711.231 303.096L715.911 290.832L717.423 290.424H717.615C717.615 290.424 717.663 290.616 717.759 291C717.871 291.368 718.015 291.888 718.191 292.56C718.383 293.216 718.599 293.976 718.839 294.84C719.095 295.688 719.359 296.592 719.631 297.552C719.919 298.512 720.215 299.488 720.519 300.48C720.823 301.456 721.127 302.392 721.431 303.288C721.623 303.88 721.879 304.296 722.199 304.536C722.535 304.776 723.047 304.928 723.735 304.992L723.783 305.088L723.615 306.072C723.615 306.072 723.455 306.064 723.135 306.048C722.831 306.032 722.479 306.016 722.079 306C721.679 306 721.343 306 721.071 306C720.463 306 719.879 306.016 719.319 306.048C718.775 306.096 718.335 306.136 717.999 306.168C717.663 306.216 717.495 306.24 717.495 306.24ZM713.967 299.448H716.079C716.399 299.448 716.783 299.432 717.231 299.4C717.679 299.368 718.039 299.344 718.311 299.328L716.415 293.04H716.247L713.967 299.448ZM728.799 306.288C728.047 306.288 727.383 306.216 726.807 306.072C726.247 305.944 725.807 305.816 725.487 305.688C725.183 305.544 725.031 305.472 725.031 305.472L724.911 305.232C724.911 305.232 724.927 305.128 724.959 304.92C724.991 304.696 725.023 304.4 725.055 304.032C725.087 303.648 725.119 303.2 725.151 302.688C725.183 302.176 725.199 301.632 725.199 301.056L726.279 300.936C726.279 302.088 726.359 302.968 726.519 303.576C726.679 304.168 726.983 304.576 727.431 304.8C727.879 305.008 728.535 305.112 729.399 305.112C730.391 305.112 731.191 304.88 731.799 304.416C732.423 303.936 732.735 303.288 732.735 302.472C732.735 301.944 732.559 301.488 732.207 301.104C731.855 300.72 731.399 300.368 730.839 300.048C730.295 299.728 729.711 299.408 729.087 299.088C728.447 298.752 727.823 298.392 727.215 298.008C726.623 297.624 726.135 297.184 725.751 296.688C725.367 296.176 725.175 295.576 725.175 294.888C725.175 294.04 725.415 293.28 725.895 292.608C726.391 291.936 727.055 291.408 727.887 291.024C728.719 290.624 729.655 290.424 730.695 290.424C731.415 290.424 732.047 290.472 732.591 290.568C733.151 290.664 733.583 290.768 733.887 290.88C734.207 290.976 734.367 291.024 734.367 291.024L734.439 291.168C734.439 291.168 734.399 291.352 734.319 291.72C734.255 292.088 734.183 292.584 734.103 293.208C734.023 293.816 733.959 294.488 733.911 295.224L732.975 295.32L732.831 295.2C732.831 295.2 732.839 295.088 732.855 294.864C732.887 294.624 732.903 294.32 732.903 293.952C732.903 293.104 732.695 292.52 732.279 292.2C731.879 291.88 731.135 291.72 730.047 291.72C729.167 291.72 728.439 291.944 727.863 292.392C727.303 292.824 727.023 293.368 727.023 294.024C727.023 294.504 727.175 294.936 727.479 295.32C727.783 295.688 728.183 296.024 728.679 296.328C729.175 296.632 729.711 296.936 730.287 297.24C730.991 297.592 731.679 297.968 732.351 298.368C733.039 298.768 733.607 299.224 734.055 299.736C734.503 300.248 734.727 300.872 734.727 301.608C734.727 302.52 734.471 303.328 733.959 304.032C733.463 304.736 732.767 305.288 731.871 305.688C730.991 306.088 729.967 306.288 728.799 306.288ZM742.102 298.104L746.398 293.64C746.894 293.144 747.142 292.728 747.142 292.392C747.142 292.184 747.014 292.024 746.758 291.912C746.518 291.784 746.142 291.704 745.63 291.672L745.582 291.576L745.75 290.544C745.75 290.544 745.838 290.552 746.014 290.568C746.206 290.584 746.446 290.608 746.734 290.64C747.022 290.656 747.31 290.672 747.598 290.688C747.902 290.704 748.166 290.712 748.39 290.712C748.63 290.712 748.878 290.712 749.134 290.712C749.39 290.696 749.63 290.68 749.854 290.664C750.078 290.648 750.254 290.64 750.382 290.64C750.526 290.624 750.598 290.616 750.598 290.616L750.694 290.784L750.526 291.768C750.254 291.816 749.998 291.904 749.758 292.032C749.518 292.16 749.246 292.36 748.942 292.632C748.638 292.904 748.246 293.288 747.766 293.784L743.902 297.84L747.934 303.096C748.51 303.832 749.022 304.36 749.47 304.68C749.934 304.984 750.446 305.136 751.006 305.136L751.102 305.232L750.958 306.048C750.958 306.048 750.87 306.064 750.694 306.096C750.518 306.128 750.302 306.16 750.046 306.192C749.806 306.224 749.582 306.256 749.374 306.288C749.166 306.32 749.03 306.336 748.966 306.336C748.566 306.336 748.134 306.152 747.67 305.784C747.206 305.416 746.742 304.912 746.278 304.272L742.078 298.44L742.102 298.104ZM739.702 293.04C739.702 292.528 739.646 292.184 739.534 292.008C739.422 291.832 739.182 291.744 738.814 291.744C738.67 291.744 738.494 291.752 738.286 291.768C738.094 291.784 737.998 291.792 737.998 291.792L737.95 291.696L738.118 290.64C738.118 290.64 738.206 290.648 738.382 290.664C738.574 290.664 738.814 290.672 739.102 290.688C739.39 290.688 739.686 290.696 739.99 290.712C740.294 290.712 740.558 290.712 740.782 290.712C741.038 290.712 741.31 290.704 741.598 290.688C741.902 290.656 742.182 290.632 742.438 290.616C742.71 290.584 742.926 290.56 743.086 290.544C743.262 290.512 743.35 290.496 743.35 290.496L743.254 291.576C742.662 291.672 742.254 291.824 742.03 292.032C741.806 292.224 741.686 292.552 741.67 293.016L741.382 303.312C741.366 303.952 741.43 304.384 741.574 304.608C741.734 304.832 742.022 304.944 742.438 304.944C742.678 304.944 742.918 304.936 743.158 304.92C743.398 304.888 743.518 304.872 743.518 304.872L743.566 304.968L743.35 306.072C743.35 306.072 743.246 306.064 743.038 306.048C742.846 306.048 742.59 306.04 742.27 306.024C741.95 306.024 741.622 306.016 741.286 306C740.966 306 740.67 306 740.398 306C740.094 306 739.782 306 739.462 306C739.142 306 738.838 306 738.55 306C738.278 306.016 738.054 306.024 737.878 306.024C737.718 306.024 737.638 306.024 737.638 306.024L737.878 304.944C738.63 304.864 739.118 304.712 739.342 304.488C739.566 304.264 739.678 303.808 739.678 303.12L739.702 293.04ZM752.732 306.24L752.876 305.136C753.596 305.04 754.084 304.856 754.34 304.584C754.612 304.296 754.748 303.808 754.748 303.12L754.772 293.04C754.772 292.528 754.716 292.184 754.604 292.008C754.492 291.832 754.252 291.744 753.884 291.744C753.788 291.744 753.66 291.752 753.5 291.768C753.34 291.768 753.196 291.776 753.068 291.792L753.02 291.696L753.188 290.64C753.46 290.64 753.788 290.648 754.172 290.664C754.556 290.68 754.956 290.696 755.372 290.712C755.788 290.712 756.172 290.712 756.524 290.712C757.804 290.712 758.876 290.704 759.74 290.688C760.62 290.672 761.372 290.64 761.996 290.592C762.62 290.544 763.196 290.488 763.724 290.424L763.796 290.568C763.716 290.952 763.636 291.384 763.556 291.864C763.476 292.328 763.412 292.792 763.364 293.256C763.316 293.72 763.276 294.152 763.244 294.552L762.092 294.648C762.108 294.504 762.116 294.328 762.116 294.12C762.132 293.896 762.14 293.728 762.14 293.616C762.14 293.232 762.1 292.928 762.02 292.704C761.956 292.464 761.804 292.288 761.564 292.176C761.34 292.064 760.98 291.992 760.484 291.96C759.988 291.928 759.316 291.912 758.468 291.912C757.956 291.912 757.58 291.928 757.34 291.96C757.1 291.992 756.948 292.072 756.884 292.2C756.836 292.328 756.804 292.544 756.788 292.848L756.548 298.44L756.452 303.48C756.452 303.912 756.492 304.232 756.572 304.44C756.652 304.632 756.82 304.76 757.076 304.824C757.348 304.888 757.772 304.92 758.348 304.92C759.292 304.92 760.052 304.888 760.628 304.824C761.204 304.76 761.644 304.632 761.948 304.44C762.252 304.248 762.476 303.96 762.62 303.576C762.764 303.176 762.884 302.648 762.98 301.992L764.036 301.872L764.108 301.992C763.996 302.488 763.876 303.12 763.748 303.888C763.636 304.656 763.54 305.368 763.46 306.024L763.34 306.168C762.38 306.136 761.42 306.104 760.46 306.072C759.516 306.056 758.66 306.04 757.892 306.024C757.124 306.008 756.516 306 756.068 306C755.572 306 755.004 306.016 754.364 306.048C753.74 306.096 753.196 306.16 752.732 306.24ZM756.212 298.944L756.428 297.504C756.54 297.504 756.756 297.504 757.076 297.504C757.396 297.504 757.74 297.512 758.108 297.528C758.476 297.528 758.796 297.528 759.068 297.528C759.34 297.528 759.756 297.504 760.316 297.456C760.892 297.392 761.452 297.328 761.996 297.264L762.092 297.384L761.756 298.8C761.308 298.784 760.748 298.768 760.076 298.752C759.42 298.736 758.86 298.728 758.396 298.728C758.092 298.728 757.732 298.752 757.316 298.8C756.916 298.832 756.548 298.88 756.212 298.944ZM768.52 306.096L768.712 305.064C769.464 305 770.008 304.904 770.344 304.776C770.68 304.632 770.888 304.368 770.968 303.984C771.064 303.584 771.112 302.96 771.112 302.112V291.648C770.184 291.68 769.448 291.728 768.904 291.792C768.376 291.84 767.984 291.96 767.728 292.152C767.472 292.328 767.288 292.616 767.176 293.016C767.064 293.416 766.96 293.968 766.864 294.672L765.736 294.768C765.8 294.304 765.856 293.824 765.904 293.328C765.952 292.832 765.992 292.352 766.024 291.888C766.056 291.408 766.08 290.984 766.096 290.616L766.312 290.424L768.304 290.688H775.744L777.784 290.424L778 290.616C778.016 290.984 778.04 291.408 778.072 291.888C778.104 292.352 778.144 292.824 778.192 293.304C778.256 293.784 778.312 294.24 778.36 294.672L777.232 294.768C777.12 294.048 777 293.488 776.872 293.088C776.76 292.672 776.576 292.376 776.32 292.2C776.08 292.008 775.712 291.88 775.216 291.816C774.72 291.752 774.04 291.696 773.176 291.648C773.128 292.128 773.08 292.816 773.032 293.712C772.984 294.608 772.944 295.616 772.912 296.736C772.88 297.84 772.848 298.968 772.816 300.12C772.8 301.272 772.792 302.336 772.792 303.312C772.792 303.904 772.896 304.328 773.104 304.584C773.312 304.824 773.664 304.944 774.16 304.944C774.64 304.944 775.08 304.92 775.48 304.872L775.552 304.968L775.336 306.072C775 306.056 774.608 306.04 774.16 306.024C773.712 306.024 773.272 306.016 772.84 306C772.424 306 772.08 306 771.808 306C771.552 306 771.224 306 770.824 306C770.44 306.016 770.04 306.032 769.624 306.048C769.224 306.064 768.856 306.08 768.52 306.096Z" fill="black"/>
<rect x="51.5" y="51.5" width="279" height="95" stroke="black" stroke-width="3"/>
<line x1="51.3536" y1="201.646" x2="107.354" y2="257.646" stroke="#C2C2C2"/>
<line x1="52.3536" y1="212.646" x2="97.3536" y2="257.646" stroke="#C2C2C2"/>
<line x1="51.3536" y1="231.646" x2="77.3536" y2="257.646" stroke="#C2C2C2"/>
<line x1="51.3536" y1="241.646" x2="67.3536" y2="257.646" stroke="#C2C2C2"/>
<line x1="51.3536" y1="221.646" x2="87.3536" y2="257.646" stroke="#C2C2C2"/>
<line x1="51.3536" y1="191.646" x2="117.354" y2="257.646" stroke="#C2C2C2"/>
<line x1="51.3536" y1="181.646" x2="127.354" y2="257.646" stroke="#C2C2C2"/>
<line x1="51.3536" y1="171.646" x2="137.354" y2="257.646" stroke="#C2C2C2"/>
<line x1="51.3536" y1="161.646" x2="147.354" y2="257.646" stroke="#C2C2C2"/>
<line x1="60.3536" y1="160.646" x2="157.354" y2="257.646" stroke="#C2C2C2"/>
<line x1="70.3536" y1="160.646" x2="167.354" y2="257.646" stroke="#C2C2C2"/>
<line x1="80.3536" y1="160.646" x2="177.354" y2="257.646" stroke="#C2C2C2"/>
<line x1="90.3536" y1="160.646" x2="187.354" y2="257.646" stroke="#C2C2C2"/>
<line x1="100.354" y1="160.646" x2="197.354" y2="257.646" stroke="#C2C2C2"/>
<line x1="155.354" y1="205.646" x2="207.354" y2="257.646" stroke="#C2C2C2"/>
<line x1="111.354" y1="161.646" x2="147.354" y2="197.646" stroke="#C2C2C2"/>
<line x1="120.354" y1="160.646" x2="217.354" y2="257.646" stroke="#C2C2C2"/>
<line x1="130.354" y1="160.646" x2="227.354" y2="257.646" stroke="#C2C2C2"/>
<line x1="140.354" y1="160.646" x2="237.354" y2="257.646" stroke="#C2C2C2"/>
<line x1="150.354" y1="160.646" x2="247.354" y2="257.646" stroke="#C2C2C2"/>
<line x1="160.354" y1="160.646" x2="257.354" y2="257.646" stroke="#C2C2C2"/>
<line x1="170.354" y1="160.646" x2="267.354" y2="257.646" stroke="#C2C2C2"/>
<line x1="180.354" y1="160.646" x2="277.354" y2="257.646" stroke="#C2C2C2"/>
<line x1="235.354" y1="205.646" x2="287.354" y2="257.646" stroke="#C2C2C2"/>
<line x1="200.354" y1="160.646" x2="297.354" y2="257.646" stroke="#C2C2C2"/>
<line x1="210.354" y1="160.646" x2="307.354" y2="257.646" stroke="#C2C2C2"/>
<line x1="220.354" y1="160.646" x2="317.354" y2="257.646" stroke="#C2C2C2"/>
<line x1="230.354" y1="160.646" x2="327.354" y2="257.646" stroke="#C2C2C2"/>
<line x1="240.354" y1="160.646" x2="331.354" y2="251.646" stroke="#C2C2C2"/>
<line x1="250.354" y1="160.646" x2="331.354" y2="241.646" stroke="#C2C2C2"/>
<line x1="260.354" y1="160.646" x2="331.354" y2="231.646" stroke="#C2C2C2"/>
<line x1="270.354" y1="160.646" x2="331.354" y2="221.646" stroke="#C2C2C2"/>
<line x1="280.354" y1="160.646" x2="331.354" y2="211.646" stroke="#C2C2C2"/>
<line x1="290.354" y1="160.646" x2="331.354" y2="201.646" stroke="#C2C2C2"/>
<line x1="300.354" y1="160.646" x2="331.354" y2="191.646" stroke="#C2C2C2"/>
<line x1="310.354" y1="160.646" x2="331.354" y2="181.646" stroke="#C2C2C2"/>
<line x1="320.354" y1="160.646" x2="331.354" y2="171.646" stroke="#C2C2C2"/>
<rect x="51.5" y="161.5" width="279" height="95" stroke="black" stroke-width="3"/>
<line x1="556.354" y1="91.6464" x2="612.354" y2="147.646" stroke="#C2C2C2"/>
<line x1="557.354" y1="102.646" x2="602.354" y2="147.646" stroke="#C2C2C2"/>
<line x1="556.354" y1="121.646" x2="582.354" y2="147.646" stroke="#C2C2C2"/>
<line x1="556.354" y1="131.646" x2="572.354" y2="147.646" stroke="#C2C2C2"/>
<line x1="556.354" y1="111.646" x2="592.354" y2="147.646" stroke="#C2C2C2"/>
<line x1="556.354" y1="81.6464" x2="622.354" y2="147.646" stroke="#C2C2C2"/>
<line x1="556.354" y1="71.6464" x2="632.354" y2="147.646" stroke="#C2C2C2"/>
<line x1="556.354" y1="61.6464" x2="642.354" y2="147.646" stroke="#C2C2C2"/>
<line x1="556.354" y1="51.6464" x2="652.354" y2="147.646" stroke="#C2C2C2"/>
<line x1="565.354" y1="50.6464" x2="662.354" y2="147.646" stroke="#C2C2C2"/>
<line x1="575.354" y1="50.6464" x2="672.354" y2="147.646" stroke="#C2C2C2"/>
<line x1="585.354" y1="50.6464" x2="682.354" y2="147.646" stroke="#C2C2C2"/>
<line x1="595.354" y1="50.6464" x2="692.354" y2="147.646" stroke="#C2C2C2"/>
<line x1="605.354" y1="50.6464" x2="702.354" y2="147.646" stroke="#C2C2C2"/>
<line x1="615.354" y1="50.6464" x2="712.354" y2="147.646" stroke="#C2C2C2"/>
<line x1="625.354" y1="50.6464" x2="722.354" y2="147.646" stroke="#C2C2C2"/>
<line x1="635.354" y1="50.6464" x2="732.354" y2="147.646" stroke="#C2C2C2"/>
<line x1="645.354" y1="50.6464" x2="742.354" y2="147.646" stroke="#C2C2C2"/>
<line x1="655.354" y1="50.6464" x2="752.354" y2="147.646" stroke="#C2C2C2"/>
<line x1="665.354" y1="50.6464" x2="762.354" y2="147.646" stroke="#C2C2C2"/>
<line x1="675.354" y1="50.6464" x2="772.354" y2="147.646" stroke="#C2C2C2"/>
<line x1="685.354" y1="50.6464" x2="782.354" y2="147.646" stroke="#C2C2C2"/>
<line x1="695.354" y1="50.6464" x2="792.354" y2="147.646" stroke="#C2C2C2"/>
<line x1="705.354" y1="50.6464" x2="802.354" y2="147.646" stroke="#C2C2C2"/>
<line x1="715.354" y1="50.6464" x2="812.354" y2="147.646" stroke="#C2C2C2"/>
<line x1="725.354" y1="50.6464" x2="822.354" y2="147.646" stroke="#C2C2C2"/>
<line x1="735.354" y1="50.6464" x2="832.354" y2="147.646" stroke="#C2C2C2"/>
<line x1="745.354" y1="50.6464" x2="836.354" y2="141.646" stroke="#C2C2C2"/>
<line x1="755.354" y1="50.6464" x2="836.354" y2="131.646" stroke="#C2C2C2"/>
<line x1="765.354" y1="50.6464" x2="836.354" y2="121.646" stroke="#C2C2C2"/>
<line x1="775.354" y1="50.6464" x2="836.354" y2="111.646" stroke="#C2C2C2"/>
<line x1="785.354" y1="50.6464" x2="836.354" y2="101.646" stroke="#C2C2C2"/>
<line x1="795.354" y1="50.6464" x2="836.354" y2="91.6464" stroke="#C2C2C2"/>
<line x1="805.354" y1="50.6464" x2="836.354" y2="81.6464" stroke="#C2C2C2"/>
<line x1="815.354" y1="50.6464" x2="836.354" y2="71.6464" stroke="#C2C2C2"/>
<line x1="825.354" y1="50.6464" x2="836.354" y2="61.6464" stroke="#C2C2C2"/>
<rect x="556.5" y="51.5" width="279" height="95" stroke="black" stroke-width="3"/>
<line x1="556.354" y1="201.646" x2="612.354" y2="257.646" stroke="#C2C2C2"/>
<line x1="557.354" y1="212.646" x2="602.354" y2="257.646" stroke="#C2C2C2"/>
<line x1="556.354" y1="231.646" x2="582.354" y2="257.646" stroke="#C2C2C2"/>
<line x1="556.354" y1="241.646" x2="572.354" y2="257.646" stroke="#C2C2C2"/>
<line x1="556.354" y1="221.646" x2="592.354" y2="257.646" stroke="#C2C2C2"/>
<line x1="556.354" y1="191.646" x2="622.354" y2="257.646" stroke="#C2C2C2"/>
<line x1="556.354" y1="181.646" x2="632.354" y2="257.646" stroke="#C2C2C2"/>
<line x1="556.354" y1="171.646" x2="642.354" y2="257.646" stroke="#C2C2C2"/>
<line x1="556.354" y1="161.646" x2="652.354" y2="257.646" stroke="#C2C2C2"/>
<line x1="565.354" y1="160.646" x2="662.354" y2="257.646" stroke="#C2C2C2"/>
<line x1="575.354" y1="160.646" x2="672.354" y2="257.646" stroke="#C2C2C2"/>
<line x1="585.354" y1="160.646" x2="682.354" y2="257.646" stroke="#C2C2C2"/>
<line x1="595.354" y1="160.646" x2="692.354" y2="257.646" stroke="#C2C2C2"/>
<line x1="605.354" y1="160.646" x2="702.354" y2="257.646" stroke="#C2C2C2"/>
<line x1="615.354" y1="160.646" x2="712.354" y2="257.646" stroke="#C2C2C2"/>
<line x1="625.354" y1="160.646" x2="722.354" y2="257.646" stroke="#C2C2C2"/>
<line x1="635.354" y1="160.646" x2="732.354" y2="257.646" stroke="#C2C2C2"/>
<line x1="645.354" y1="160.646" x2="742.354" y2="257.646" stroke="#C2C2C2"/>
<line x1="655.354" y1="160.646" x2="752.354" y2="257.646" stroke="#C2C2C2"/>
<line x1="665.354" y1="160.646" x2="762.354" y2="257.646" stroke="#C2C2C2"/>
<line x1="675.354" y1="160.646" x2="772.354" y2="257.646" stroke="#C2C2C2"/>
<line x1="685.354" y1="160.646" x2="782.354" y2="257.646" stroke="#C2C2C2"/>
<line x1="695.354" y1="160.646" x2="792.354" y2="257.646" stroke="#C2C2C2"/>
<line x1="705.354" y1="160.646" x2="802.354" y2="257.646" stroke="#C2C2C2"/>
<line x1="715.354" y1="160.646" x2="812.354" y2="257.646" stroke="#C2C2C2"/>
<line x1="725.354" y1="160.646" x2="822.354" y2="257.646" stroke="#C2C2C2"/>
<line x1="735.354" y1="160.646" x2="832.354" y2="257.646" stroke="#C2C2C2"/>
<line x1="745.354" y1="160.646" x2="836.354" y2="251.646" stroke="#C2C2C2"/>
<line x1="755.354" y1="160.646" x2="836.354" y2="241.646" stroke="#C2C2C2"/>
<line x1="765.354" y1="160.646" x2="836.354" y2="231.646" stroke="#C2C2C2"/>
<line x1="775.354" y1="160.646" x2="836.354" y2="221.646" stroke="#C2C2C2"/>
<line x1="785.354" y1="160.646" x2="836.354" y2="211.646" stroke="#C2C2C2"/>
<line x1="795.354" y1="160.646" x2="836.354" y2="201.646" stroke="#C2C2C2"/>
<line x1="805.354" y1="160.646" x2="836.354" y2="191.646" stroke="#C2C2C2"/>
<line x1="815.354" y1="160.646" x2="836.354" y2="181.646" stroke="#C2C2C2"/>
<line x1="825.354" y1="160.646" x2="836.354" y2="171.646" stroke="#C2C2C2"/>
<rect x="556.5" y="161.5" width="279" height="95" stroke="black" stroke-width="3"/>
<rect x="149" y="148" width="84" height="56" rx="12" fill="black"/>
<path d="M696 191L644.905 147.5L747.095 147.5L696 191Z" fill="black"/>
<rect x="147.5" y="161.5" width="87" height="44" stroke="black" stroke-width="3"/>
</svg>
